<?xml version="1.0" encoding="utf-8"?>
<!-- Generator: Adobe Illustrator 15.0.0, SVG Export Plug-In . SVG Version: 6.00 Build 0)  -->
<!DOCTYPE svg PUBLIC "-//W3C//DTD SVG 1.1//EN" "http://www.w3.org/Graphics/SVG/1.1/DTD/svg11.dtd">
<svg version="1.1" id="Layer_1" xmlns="http://www.w3.org/2000/svg" xmlns:xlink="http://www.w3.org/1999/xlink" x="0px" y="0px"
	 width="71.111px" height="155.388px" viewBox="0 0 71.111 155.388" enable-background="new 0 0 71.111 155.388"
	 xml:space="preserve">
<path fill="#FFFFFF" d="M71.111,2.509c0-1.386-1.123-2.509-2.51-2.509H2.51C1.124,0,0,1.123,0,2.509v40.168
	c0,1.385,1.124,2.508,2.51,2.508h66.092c1.386,0,2.509-1.123,2.509-2.508V2.509z M25.926,31.111h-20
	c-0.663-2.623,1.03-4.069,3.773-4.702c2.685-0.618,4.575-1.838,2.894-3.519c-4.914-4.915-1.241-10.896,3.313-10.896
	c4.554,0,8.268,5.981,3.354,10.896c-1.681,1.681,0.169,2.9,2.854,3.519C24.856,27.042,26.59,28.488,25.926,31.111z M65.185,31.111
	H30.371v-2.963h34.814V31.111z M65.185,23.704H30.371v-2.963h34.814V23.704z M65.185,16.296H30.371v-2.963h34.814V16.296z"/>
<g id="Page-1" sketch:type="MSPage">
	<g id="myIcons" transform="translate(-563.000000, -615.000000)" sketch:type="MSArtboardGroup">
		<path id="alert" sketch:type="MSShapeGroup" fill="#FFFFFF" d="M599.359,718.346v-0.996c0-1.751-1.417-3.165-3.166-3.165
			c-1.743,0-3.165,1.418-3.165,3.165v0.996c-3.553,0.544-8.618,2.369-10.666,8.451c-2.63,7.813-3.485,19.196-6.153,22.432
			c-2.64,3.2-5.772,4.691-6.984,6.695c-0.905,1.494-1.164,3.065-1.129,5.653c7.406,0.593,48.14,0.645,56.196,0
			c0.034-2.588-0.224-4.159-1.129-5.653c-1.213-2.004-4.345-3.495-6.985-6.695c-2.667-3.235-3.522-14.618-6.152-22.432
			C607.977,720.715,602.912,718.89,599.359,718.346z M602.435,764.242c-0.02,3.397-2.807,6.146-6.242,6.146
			c-3.435,0-6.221-2.748-6.241-6.146H602.435L602.435,764.242z"/>
	</g>
</g>
</svg>
