<?xml version="1.0" encoding="utf-8"?>
<!-- Generator: Adobe Illustrator 16.0.0, SVG Export Plug-In . SVG Version: 6.00 Build 0)  -->
<!DOCTYPE svg PUBLIC "-//W3C//DTD SVG 1.1//EN" "http://www.w3.org/Graphics/SVG/1.1/DTD/svg11.dtd">
<svg version="1.1" id="Layer_1" xmlns="http://www.w3.org/2000/svg" xmlns:xlink="http://www.w3.org/1999/xlink" x="0px" y="0px"
	 width="50px" height="24.081px" viewBox="0 0 50 24.081" enable-background="new 0 0 50 24.081" xml:space="preserve">
<g>
	<path fill="#990000" d="M48.949,11.355l-5.051-3.386c-0.378-0.263-0.846-0.409-1.284-0.409c-0.409,0-0.817,0.117-1.166,0.321
		l-3.795,2.218l-1.226-0.817c-0.41-0.292-0.876-0.379-1.372-0.379h-5.72l-1.987-1.956c-0.437-0.438-1.021-0.671-1.633-0.671h-3.62
		C19.79,2.218,16.083,0,12.143,0C8.903,0,5.868,1.11,3.62,3.152C1.285,5.313,0,8.26,0,11.5c0,6.831,5.546,12.581,12.143,12.581
		c4.553,0,8.552-2.249,10.625-5.839l21.045-0.029c0.464,0,0.903-0.146,1.313-0.408l3.852-2.598C49.618,14.771,50,14.04,50,13.28
		C50,12.494,49.62,11.763,48.949,11.355z M43.812,15.909l-22.504,0.029c-1.401,3.589-4.962,5.808-9.165,5.808
		c-5.4,0-9.807-4.817-9.807-10.217c0-5.429,4.379-9.194,9.807-9.194c3.708,0,6.917,2.802,8.582,6.305h0.905h4.085l1.536,1.518
		h-6.323c-0.291,0-0.525,0.236-0.525,0.525v2.919c0,0.289,0.235,0.525,0.525,0.525h25.525L43.812,15.909z M21.455,13.077v-1.869
		h6.859l0.058,0.058h6.685l2.452,1.722l5.137-3.036l4.671,3.124H21.455z"/>
	<path fill="#990000" d="M8.815,8.348c-1.577,0-2.86,1.283-2.86,2.86s1.283,2.86,2.86,2.86s2.86-1.283,2.86-2.86
		C11.676,9.632,10.393,8.348,8.815,8.348z M8.815,13.02c-0.998,0-1.809-0.811-1.809-1.81S7.818,9.4,8.815,9.4
		c0.999,0,1.81,0.811,1.81,1.81S9.814,13.02,8.815,13.02z"/>
</g>
</svg>
