<?xml version="1.0" encoding="utf-8"?>
<!-- Generator: Adobe Illustrator 15.0.0, SVG Export Plug-In . SVG Version: 6.00 Build 0)  -->
<!DOCTYPE svg PUBLIC "-//W3C//DTD SVG 1.1//EN" "http://www.w3.org/Graphics/SVG/1.1/DTD/svg11.dtd">
<svg version="1.1" id="Layer_1" xmlns="http://www.w3.org/2000/svg" xmlns:xlink="http://www.w3.org/1999/xlink" x="0px" y="0px"
	 width="131.01px" height="53px" viewBox="0 0 131.01 53" enable-background="new 0 0 131.01 53" xml:space="preserve">
<g enable-background="new    ">
	<path d="M34.24,13.718c3.7,0,6.464,2.072,6.464,7.252v16.085h-7.302V23.832c0-2.417-0.542-3.996-2.763-3.996
		c-1.875,0-3.305,1.035-3.305,4.834v12.385h-7.302V23.832c0-2.417-0.493-3.996-2.762-3.996c-1.876,0-3.306,1.085-3.306,4.884v12.335
		H6.66V14.26h6.315l0.888,4.392c1.232-3.404,3.502-4.934,7.006-4.934c2.763,0,5.328,1.135,5.92,4.983
		C28.023,15.346,30.737,13.718,34.24,13.718z"/>
	<path d="M53.825,23.932c1.235,4.438,1.482,7.399,1.482,7.399h0.197c0,0,0.247-3.011,1.579-7.399l2.96-9.673h7.694l-9.225,24.866
		c-2.665,7.154-5.872,8.189-10.804,8.189c-1.382,0-3.01-0.246-4.293-0.543l1.135-6.514c0.839,0.544,1.923,0.84,3.009,0.84
		c1.973,0,3.257-0.738,4.045-2.764L43.169,14.26h7.992L53.825,23.932z"/>
</g>
<g enable-background="new    ">
	<path fill="#990000" d="M87.552,14.363v14.948c0,5.855-4.046,8.09-8.438,8.09c-4.43,0-8.436-2.232-8.436-8.09V14.363h2.041v14.523
		c0,4.933,2.85,6.819,6.395,6.819c3.546,0,6.435-1.889,6.435-6.741V14.363H87.552z"/>
	<path fill="#990000" d="M93.058,30.968c0.539,3.275,2.58,4.815,5.664,4.815c3.196,0,5.276-1.426,5.276-4.276
		c0-2.696-1.542-3.853-5.509-5.162c-3.391-1.077-6.588-2.233-6.588-6.354c0-4.43,3.39-6.009,6.74-6.009
		c3.969,0,6.78,1.657,7.242,5.971l-1.965,0.309c-0.424-3.159-2.271-4.623-5.238-4.623c-2.736,0-4.775,1.309-4.775,4.199
		c0,2.85,2.117,3.659,5.777,4.854c3.545,1.155,6.354,2.543,6.354,6.588c0,4.121-3.12,6.125-7.356,6.125
		c-4.314,0-6.936-1.965-7.552-6.049L93.058,30.968z"/>
	<path fill="#990000" d="M127.958,32.586c-1.732,3.236-4.354,4.814-8.438,4.814c-5.896,0-9.824-4.045-9.824-11.635
		c0-7.588,4.162-11.75,10.172-11.75c3.929,0,6.625,1.734,8.09,5.394l-1.812,0.887c-1.078-3.006-3.312-4.546-6.396-4.546
		c-5.045,0-7.935,3.814-7.935,10.017c0,6.125,2.695,9.822,7.781,9.822c3.312,0,5.394-1.312,6.896-4.159L127.958,32.586z"/>
</g>
</svg>
