<?xml version="1.0" encoding="utf-8"?>
<!-- Generator: Adobe Illustrator 15.0.0, SVG Export Plug-In . SVG Version: 6.00 Build 0)  -->
<!DOCTYPE svg PUBLIC "-//W3C//DTD SVG 1.1//EN" "http://www.w3.org/Graphics/SVG/1.1/DTD/svg11.dtd">
<svg version="1.1" id="Layer_1" xmlns="http://www.w3.org/2000/svg" xmlns:xlink="http://www.w3.org/1999/xlink" x="0px" y="0px"
	 width="100px" height="40.025px" viewBox="0 0 100 40.025" enable-background="new 0 0 100 40.025" xml:space="preserve">
<g>
	<path fill="#F6A11F" d="M51.162,0.017c3.576-0.123,7.176,0.415,10.549,1.612c5.074,1.781,9.609,5.046,12.928,9.274
		c1.46,1.855,2.683,3.894,3.641,6.051c0.17,0.359,0.301,0.763,0.21,1.163c-0.111,0.671-0.7,1.227-1.377,1.294
		c-0.703,0.103-1.43-0.336-1.681-0.999c-1.905-4.484-5.157-8.379-9.214-11.075c-2.508-1.676-5.32-2.896-8.259-3.579
		C54.169,2.872,50.18,2.872,46.39,3.755c-5.411,1.246-10.366,4.35-13.86,8.663c-1.482,1.817-2.705,3.843-3.627,5.998
		c-0.2,0.5-0.658,0.893-1.193,0.981c-0.516,0.1-1.078-0.078-1.438-0.463c-0.424-0.425-0.563-1.104-0.344-1.662
		c2.539-6.001,7.238-11.042,13.017-14.043C42.708,1.259,46.918,0.161,51.162,0.017L51.162,0.017z"/>
	<path fill="#0A6DAE" d="M46.436,18.495c-0.021-0.312,0.273-0.545,0.565-0.553c0.38-0.01,0.761-0.007,1.141-0.001
		c0.265,0.009,0.573,0.185,0.572,0.482c0.014,3.487-0.008,6.976,0.012,10.465c1.413-1.571,2.838-3.134,4.256-4.7
		c0.279-0.275,0.5-0.692,0.935-0.729c0.585-0.024,1.172-0.01,1.758-0.009c0.226-0.021,0.478,0.187,0.398,0.428
		c-0.093,0.186-0.263,0.313-0.401,0.461c-1.533,1.532-3.072,3.059-4.598,4.598c1.474,1.682,2.927,3.381,4.394,5.069
		c0.188,0.24,0.425,0.444,0.583,0.709c0.116,0.207-0.076,0.459-0.298,0.469c-0.487,0.027-0.976,0-1.464,0.012
		c-0.254-0.006-0.528,0.031-0.759-0.1c-0.243-0.14-0.391-0.389-0.564-0.599c-1.415-1.781-2.82-3.57-4.24-5.349
		c-0.015,1.754-0.004,3.507-0.005,5.26c-0.006,0.202,0.036,0.446-0.141,0.594c-0.28,0.271-0.698,0.176-1.048,0.193
		c-0.311-0.011-0.674,0.058-0.926-0.172c-0.141-0.109-0.177-0.296-0.172-0.462C46.437,29.205,46.432,23.85,46.436,18.495
		L46.436,18.495z"/>
	<path fill="#0A6DAE" d="M39.991,23.421c0.709-0.229,1.509-0.271,2.204,0.029c0.244,0.114,0.527,0.358,0.417,0.659
		c-0.111,0.378-0.207,0.76-0.339,1.131c-0.098,0.267-0.407,0.365-0.667,0.313c-0.585-0.101-1.16-0.294-1.76-0.274
		c-0.419-0.01-0.805,0.215-1.091,0.506c-0.462,0.452-0.701,1.084-0.809,1.711c-0.085,0.453-0.061,0.916-0.065,1.374
		c0,1.924,0.001,3.849,0,5.772c0.027,0.316-0.3,0.531-0.585,0.542c-0.392,0.006-0.784,0.011-1.175-0.003
		c-0.283-0.015-0.602-0.222-0.565-0.54c-0.001-3.562-0.004-7.124,0.001-10.687c-0.024-0.354,0.368-0.547,0.676-0.514
		c0.386,0.025,0.914-0.12,1.165,0.269c0.191,0.451,0.281,0.938,0.46,1.393C38.395,24.363,39.109,23.712,39.991,23.421L39.991,23.421
		z"/>
	<path fill="#0A6DAE" d="M0,23.692c0.109-0.125,0.236-0.26,0.418-0.247c0.532-0.005,1.065-0.017,1.597,0.008
		c0.27,0.008,0.456,0.245,0.496,0.496c0.523,2.127,1.037,4.257,1.557,6.385c0.153,0.657,0.339,1.308,0.438,1.976
		c0.103,0.601,0.123,1.21,0.221,1.812c0.134-0.858,0.254-1.723,0.486-2.562c0.681-2.539,1.361-5.078,2.043-7.617
		c0.053-0.289,0.325-0.495,0.615-0.495c0.592-0.015,1.186-0.005,1.778-0.005c0.317-0.015,0.657,0.171,0.734,0.496
		c0.509,1.852,1.011,3.706,1.518,5.559c0.308,1.2,0.71,2.38,0.884,3.611c0.048,0.339,0.095,0.679,0.165,1.016
		c0.191-1.935,0.688-3.816,1.098-5.711c0.338-1.507,0.668-3.016,1.01-4.522c0.05-0.303,0.371-0.455,0.652-0.446
		c0.479-0.003,0.959-0.017,1.437,0.008c0.284,0.008,0.447,0.322,0.347,0.575c-0.961,3.546-1.918,7.094-2.88,10.64
		c-0.051,0.284-0.299,0.506-0.589,0.511c-0.742,0.024-1.486,0.006-2.228,0.01c-0.266,0.017-0.547-0.126-0.594-0.406
		c-0.665-2.438-1.315-4.881-1.974-7.321c-0.238-0.849-0.335-1.729-0.435-2.602c-0.122,0.777-0.183,1.567-0.39,2.331
		c-0.674,2.513-1.352,5.026-2.027,7.539c-0.076,0.407-0.542,0.488-0.888,0.462c-0.69-0.013-1.38,0.016-2.07-0.013
		c-0.246,0.001-0.435-0.19-0.479-0.423c-0.969-3.531-1.934-7.064-2.904-10.596C0.003,24.005,0.007,23.848,0,23.692L0,23.692z"/>
	<path fill="#0A6DAE" d="M87.045,23.452c0.504-0.009,1.01-0.011,1.514,0c0.307,0.004,0.595,0.214,0.691,0.507
		c0.87,2.274,1.734,4.553,2.604,6.828c0.182,0.462,0.309,0.943,0.39,1.433c0.359-1.35,0.838-2.663,1.258-3.995
		c0.468-1.44,0.936-2.881,1.405-4.321c0.069-0.251,0.309-0.422,0.562-0.443c0.411-0.03,0.825-0.004,1.237-0.015
		c0.241,0.003,0.528-0.025,0.712,0.168c0.119,0.101,0.094,0.269,0.044,0.399c-1.391,3.967-2.777,7.936-4.166,11.903
		c-0.241,0.661-0.427,1.353-0.815,1.947c-0.558,0.905-1.461,1.558-2.454,1.91c-0.347,0.107-0.705,0.346-1.078,0.212
		c-0.265-0.067-0.366-0.343-0.508-0.545c-0.102-0.184-0.289-0.354-0.25-0.582c0.019-0.227,0.2-0.411,0.414-0.472
		c0.419-0.145,0.845-0.304,1.184-0.6c0.824-0.697,1.334-1.729,1.528-2.778c-0.132-0.466-0.375-0.895-0.552-1.346
		c-1.326-3.082-2.652-6.165-3.981-9.246c-0.08-0.201-0.198-0.394-0.221-0.612C86.566,23.564,86.841,23.459,87.045,23.452
		L87.045,23.452z"/>
	<path fill="#0A6DAE" d="M25.517,23.251c1.309-0.08,2.681,0.191,3.761,0.967c0.966,0.688,1.623,1.747,1.929,2.883
		c0.364,1.356,0.363,2.804,0.032,4.167c-0.311,1.257-1.04,2.441-2.138,3.155c-1.174,0.779-2.648,0.981-4.026,0.815
		c-1.174-0.145-2.317-0.659-3.135-1.524c-0.96-1.006-1.438-2.393-1.537-3.763c-0.121-1.52,0.112-3.128,0.958-4.426
		c0.625-0.977,1.62-1.694,2.729-2.021C24.553,23.359,25.035,23.292,25.517,23.251L25.517,23.251z M25.212,24.942
		c-0.724,0.135-1.383,0.585-1.75,1.227c-0.614,1.04-0.685,2.295-0.657,3.475c0.044,1.068,0.215,2.207,0.896,3.07
		c0.508,0.649,1.343,0.976,2.155,0.963c0.781,0.025,1.599-0.239,2.128-0.833c0.676-0.739,0.894-1.766,0.986-2.733
		c0.041-0.95,0.06-1.918-0.187-2.846c-0.196-0.784-0.61-1.568-1.326-1.99C26.791,24.865,25.967,24.827,25.212,24.942L25.212,24.942z
		"/>
	<path fill="#0A6DAE" d="M67.217,18.346c-0.017-0.273,0.263-0.448,0.506-0.469c0.389-0.021,0.778-0.011,1.168-0.006
		c0.297-0.003,0.629,0.218,0.586,0.547c0,5.38,0.001,10.76-0.001,16.14c0.021,0.277-0.253,0.493-0.51,0.51
		c-0.31,0.017-0.62,0.017-0.929-0.005c-0.218-0.014-0.429-0.153-0.503-0.361c-0.116-0.35-0.177-0.713-0.266-1.068
		c-0.43,0.583-0.983,1.099-1.672,1.354c-0.981,0.361-2.074,0.367-3.083,0.121c-1.014-0.244-1.896-0.94-2.386-1.857
		c-0.768-1.399-0.858-3.046-0.811-4.607c0.027-1.334,0.282-2.741,1.151-3.8c0.655-0.897,1.729-1.412,2.814-1.547
		c1.01-0.147,2.104,0.022,2.94,0.634c0.396,0.278,0.712,0.651,0.994,1.041C67.21,22.764,67.212,20.555,67.217,18.346L67.217,18.346z
		 M64.129,24.881c-0.718,0.046-1.41,0.459-1.73,1.114c-0.626,1.211-0.639,2.621-0.607,3.953c0.05,0.87,0.145,1.769,0.55,2.555
		c0.274,0.529,0.772,0.947,1.361,1.075c0.901,0.217,1.962,0.033,2.603-0.679c0.617-0.703,0.82-1.658,0.915-2.562
		c0.065-1.031,0.069-2.083-0.187-3.092c-0.176-0.675-0.474-1.349-1.008-1.817C65.513,24.977,64.799,24.803,64.129,24.881
		L64.129,24.881z"/>
	<path fill="#0A6DAE" d="M77.083,23.475c1.036-0.287,2.146-0.304,3.192-0.064c0.973,0.226,1.884,0.771,2.481,1.58
		c0.632,0.829,0.951,1.856,1.084,2.881c0.115,0.79,0.082,1.59,0.083,2.386c0,1.436,0,2.872-0.004,4.308
		c0.016,0.175-0.095,0.33-0.237,0.421c-0.241,0.148-0.54,0.083-0.809,0.1c-0.302-0.002-0.698,0.024-0.862-0.289
		c-0.16-0.369-0.193-0.78-0.296-1.168c-0.404,0.491-0.823,0.998-1.408,1.282c-0.892,0.44-1.934,0.415-2.888,0.229
		c-1.167-0.23-2.242-0.921-2.902-1.915c-0.786-1.158-1.071-2.588-1.061-3.97c-0.01-1.347,0.254-2.739,1.003-3.879
		C75.058,24.443,76.019,23.769,77.083,23.475L77.083,23.475z M78.083,24.948c-0.36,0.073-0.709,0.218-1,0.443
		c-0.582,0.453-0.871,1.173-1.025,1.872c-0.225,1.109-0.222,2.255-0.105,3.377c0.108,0.824,0.315,1.704,0.92,2.313
		c0.492,0.517,1.234,0.706,1.929,0.672c0.747,0.027,1.524-0.251,2.006-0.838c0.603-0.729,0.772-1.697,0.86-2.61
		c0.056-1.073,0.057-2.173-0.245-3.215c-0.19-0.649-0.539-1.295-1.127-1.665C79.647,24.873,78.828,24.834,78.083,24.948
		L78.083,24.948z"/>
	<path fill="#0A6DAE" d="M98.04,31.987c0.352-0.056,0.733-0.06,1.06,0.104c0.556,0.252,0.955,0.849,0.895,1.469
		c0.046,0.74-0.576,1.401-1.286,1.521c-0.8,0.17-1.66-0.409-1.823-1.207C96.674,33.07,97.232,32.167,98.04,31.987L98.04,31.987z
		 M97.958,32.297c-0.593,0.218-0.966,0.901-0.814,1.519c0.154,0.725,0.997,1.219,1.7,0.951c0.648-0.198,1.058-0.938,0.856-1.59
		C99.523,32.443,98.653,32.01,97.958,32.297L97.958,32.297z"/>
	<path fill="#0A6DAE" d="M97.76,32.615c0.425,0.024,0.901-0.096,1.284,0.142c0.309,0.231,0.159,0.735-0.189,0.843
		c0.101,0.266,0.24,0.513,0.368,0.766c-0.161,0.003-0.319,0.006-0.478,0.009c-0.114-0.234-0.227-0.472-0.336-0.708
		c-0.069-0.002-0.138-0.003-0.205-0.004c-0.001,0.236-0.001,0.473-0.001,0.709c-0.15-0.002-0.298-0.004-0.445-0.005
		C97.759,33.782,97.757,33.198,97.76,32.615L97.76,32.615z M98.205,32.889c-0.001,0.168-0.002,0.336,0,0.505
		c0.147-0.009,0.299,0,0.444-0.04c0.137-0.057,0.123-0.23,0.086-0.347C98.593,32.868,98.383,32.904,98.205,32.889L98.205,32.889z"/>
</g>
</svg>
