<?xml version="1.0" encoding="utf-8"?>
<!-- Generator: Adobe Illustrator 16.0.0, SVG Export Plug-In . SVG Version: 6.00 Build 0)  -->
<!DOCTYPE svg PUBLIC "-//W3C//DTD SVG 1.1//EN" "http://www.w3.org/Graphics/SVG/1.1/DTD/svg11.dtd">
<svg version="1.1" id="Layer_1" xmlns="http://www.w3.org/2000/svg" xmlns:xlink="http://www.w3.org/1999/xlink" x="0px" y="0px"
	 width="103.165px" height="446.488px" viewBox="0 0 103.165 446.488" enable-background="new 0 0 103.165 446.488"
	 xml:space="preserve">
<polygon fill="#FFFFFF" points="92.999,56.252 82.833,55.008 83.961,46.088 94.127,47.329 "/>
<polygon fill="#FFFFFF" points="103.165,2.145 85.77,0 85.881,40.328 93.452,41.342 "/>
<path fill="#FFFFFF" d="M70.786,9.479c-7.688-5.221-17.604-7.775-29.627-7.775c-12.148,0-22.064,2.555-29.626,7.775
	C3.844,14.588,0,21.146,0,29.255c0,8.222,3.844,14.888,11.53,20c6.271,4.237,14.165,6.718,23.606,7.442H47.13
	c9.373-0.724,17.281-3.205,23.656-7.442c7.562-5.112,11.404-11.777,11.404-20C82.19,21.146,78.347,14.588,70.786,9.479z
	 M65.083,22.477l-5.826,1.113c-0.868,0.219-3.225,1.776-7.313,4.777c-4.339,3.11-6.571,5.11-6.942,6.111l-0.249,2.776l-0.124,1.667
	l0.496,4.22l7.686,0.111l-0.124,2.11h-12.52l-11.157,0.112l0.373-2.001l3.594-0.109c1.86-0.112,2.977-0.333,3.348-0.669
	c0.248-0.22,0.371-1.553,0.371-3.888v-1.441l-0.124-2.889c-0.248-0.667-2.232-3.111-6.074-7.334
	c-3.967-4.333-6.571-6.889-7.812-7.779l-7.19-0.888v-1.89c0.373-0.22,4.34-0.22,11.655-0.109c5.081-0.11,9.297-0.11,12.645,0.109
	l-0.249,1.557l-7.562,0.669c2.355,3.11,5.951,7.441,10.786,12.886c6.322-4.333,9.668-7.111,9.792-8.332l-6.444-0.89l-0.497-1.999
	h10.786l10.163,0.111L65.083,22.477z"/>
<path fill="#FFFFFF" d="M86.935,122.685c-2.513,1.116-5.22,1.869-8.06,2.209c2.897-1.736,5.123-4.484,6.168-7.763
	c-2.713,1.609-5.707,2.776-8.902,3.403c-2.557-2.727-6.209-4.428-10.236-4.428c-7.748,0-14.027,6.278-14.027,14.1
	c0,0.962,0,2.244,0.319,3.198c-11.617-0.522-22.042-6.29-28.77-14.735c-1.202,2.07-1.896,4.48-1.896,7.051
	c0,4.807,2.562,9.293,6.086,11.674c-2.297-0.074-4.459-0.706-6.35-1.754c0,0,0,0,0,0.177c0,6.73,4.807,12.498,11.216,13.781
	c-1.177,0.318-2.416,0.486-3.696,0.486c-0.904,0-1.78-0.086-2.638-0.25c1.79,5.449,7.051,9.614,13.141,9.614
	c-4.8,3.763-10.847,6.009-17.421,6.009c-1.133,0-2.247-0.067-3.346-0.199c6.208,3.846,13.46,6.409,21.472,6.409
	c25.802,0,39.911-21.372,39.911-39.908c0-0.608-0.016-1.211-0.044-1.813c2.817-1.871,5.096-4.435,7.018-7.262L86.935,122.685
	L86.935,122.685z"/>
<path fill="#FFFFFF" d="M42.27,301.115v-32.742h-8.655v-11.787h8.655c0,0,0-4.834,0-10.076c0-7.91,5.122-15.18,16.904-15.18
	c4.769,0,8.352,0.555,8.352,0.457l-0.283,11.01c0,0-3.599-0.039-7.525-0.039c-4.25,0-4.93,1.959-4.93,5.291c0,2.508,0-5.48,0,8.613
	h12.793l-0.549,11.787H54.788v32.748H42.27V301.115z"/>
<g>
	<path fill="#FFFFFF" d="M39.229,370.162c-9.057,2.989-16.773,9.525-21.072,17.798c-1.5,2.854-2.58,5.882-3.239,9.024
		c-1.64,7.79-0.5,16.101,3.218,23.197c2.419,4.628,5.898,8.754,10.096,11.975c3.979,3.047,8.597,5.322,13.515,6.575
		c6.197,1.6,12.796,1.562,19.032,0.193c5.639-1.254,10.977-3.857,15.234-7.636c4.498-3.993,7.719-9.238,9.416-14.888
		c1.86-6.151,2.099-12.727,0.94-19.05c-11.656,0-23.331,0-34.987,0c0,4.666,0,9.332,0,13.998c6.758,0,13.516,0,20.272,0
		c-0.779,4.475-3.538,8.562-7.437,11.088c-2.46,1.601-5.277,2.622-8.197,3.123c-2.919,0.483-5.958,0.541-8.876-0.018
		c-2.979-0.579-5.798-1.775-8.277-3.452c-3.958-2.681-6.977-6.596-8.517-11.01c-1.579-4.494-1.599-9.487,0-13.962
		c1.119-3.162,2.958-6.073,5.397-8.466c2.999-2.969,6.897-5.09,11.116-5.958c3.599-0.732,7.397-0.598,10.916,0.425
		c2.998,0.867,5.759,2.468,8.016,4.551c2.279-2.198,4.559-4.397,6.839-6.596c1.198-1.176,2.458-2.313,3.618-3.528
		c-3.459-3.085-7.538-5.571-11.976-7.154C56.281,367.539,47.285,367.482,39.229,370.162z"/>
	<g>
		<path fill="#EA4335" d="M39.229,370.162c8.037-2.68,17.052-2.623,25.05,0.212c4.438,1.582,8.498,4.049,11.976,7.153
			c-1.16,1.216-2.42,2.352-3.618,3.528c-2.28,2.199-4.56,4.398-6.839,6.596c-2.257-2.083-5.018-3.664-8.016-4.551
			c-3.519-1.022-7.317-1.176-10.916-0.424c-4.199,0.868-8.097,2.988-11.116,5.958c-2.439,2.371-4.278,5.303-5.397,8.465
			c-4.059-3.046-8.117-6.074-12.195-9.121C22.455,379.688,30.171,373.151,39.229,370.162z"/>
	</g>
	<g>
		<path fill="#FBBC05" d="M14.938,396.965c0.66-3.123,1.74-6.17,3.239-9.024c4.059,3.047,8.117,6.074,12.195,9.121
			c-1.599,4.493-1.599,9.487,0,13.96c-4.058,3.048-8.116,6.094-12.175,9.121C14.438,413.065,13.299,404.755,14.938,396.965z"/>
	</g>
	<g>
		<path fill="#4285F4" d="M51.383,397.331c11.656,0,23.331,0,34.987,0c1.158,6.306,0.899,12.882-0.94,19.051
			c-1.697,5.65-4.918,10.896-9.416,14.888c-3.938-2.951-7.876-5.901-11.815-8.851c3.898-2.526,6.658-6.615,7.438-11.089
			c-6.759,0-13.515,0-20.273,0C51.383,406.665,51.383,401.998,51.383,397.331z"/>
	</g>
	<g>
		<path fill="#34A853" d="M18.157,420.163c4.058-3.027,8.117-6.075,12.175-9.121c1.56,4.414,4.559,8.33,8.517,11.009
			c2.479,1.679,5.318,2.875,8.277,3.453c2.919,0.578,5.938,0.501,8.877,0.02c2.919-0.502,5.737-1.523,8.196-3.124
			c3.939,2.949,7.877,5.899,11.815,8.85c-4.258,3.799-9.596,6.384-15.234,7.637c-6.236,1.369-12.835,1.408-19.032-0.193
			c-4.918-1.252-9.537-3.509-13.515-6.575C24.054,428.916,20.576,424.79,18.157,420.163z"/>
	</g>
</g>
</svg>
