<?xml version="1.0" encoding="utf-8"?>
<!-- Generator: Adobe Illustrator 15.0.0, SVG Export Plug-In . SVG Version: 6.00 Build 0)  -->
<!DOCTYPE svg PUBLIC "-//W3C//DTD SVG 1.1//EN" "http://www.w3.org/Graphics/SVG/1.1/DTD/svg11.dtd">
<svg version="1.1" id="Layer_1" xmlns="http://www.w3.org/2000/svg" xmlns:xlink="http://www.w3.org/1999/xlink" x="0px" y="0px"
	 width="101.027px" height="77.43px" viewBox="0 0 101.027 77.43" enable-background="new 0 0 101.027 77.43" xml:space="preserve">
<g>
	<path d="M99.203,10.687l-8.867-8.862C89.121,0.609,87.645,0,85.906,0s-3.219,0.608-4.434,1.824L38.715,44.648L19.555,25.418
		c-1.22-1.215-2.696-1.824-4.435-1.824s-3.215,0.609-4.433,1.824l-8.864,8.863C0.609,35.5,0,36.976,0,38.715
		c0,1.738,0.609,3.219,1.824,4.434l23.594,23.595l8.867,8.862c1.215,1.22,2.692,1.824,4.43,1.824c1.738,0,3.216-0.604,4.434-1.824
		l8.864-8.862l47.19-47.188c1.215-1.218,1.824-2.695,1.824-4.433C101.027,13.384,100.418,11.906,99.203,10.687L99.203,10.687z"/>
</g>
</svg>
