<?xml version="1.0" encoding="utf-8"?>
<!-- Generator: Adobe Illustrator 16.0.0, SVG Export Plug-In . SVG Version: 6.00 Build 0)  -->
<!DOCTYPE svg PUBLIC "-//W3C//DTD SVG 1.1//EN" "http://www.w3.org/Graphics/SVG/1.1/DTD/svg11.dtd">
<svg version="1.1" id="Layer_1" xmlns="http://www.w3.org/2000/svg" xmlns:xlink="http://www.w3.org/1999/xlink" x="0px" y="0px"
	 width="50px" height="15.046px" viewBox="0 0 50 15.046" enable-background="new 0 0 50 15.046" xml:space="preserve">
<g>
	<path fill="#990000" d="M26.729,8.061c0,0.7,0.571,1.302,1.27,1.302c0.317,0,0.637-0.159,0.953-0.413l2.256-1.714L30.823,9.97
		c-0.096,0.826,0.413,1.458,1.208,1.458s1.302-0.667,1.208-1.491l-0.382-2.699l2.254,1.714c0.317,0.286,0.603,0.413,0.925,0.413
		c0.696,0,1.301-0.572,1.301-1.271c0-0.603-0.382-1.049-0.891-1.239L33.75,5.714l2.696-1.143c0.446-0.223,0.891-0.603,0.891-1.207
		c0-0.698-0.571-1.302-1.27-1.302c-0.317,0-0.637,0.159-0.953,0.413L32.859,4.19l0.382-2.73C33.337,0.634,32.828,0,32.036,0
		c-0.795,0-1.307,0.667-1.21,1.492l0.384,2.697l-2.258-1.714c-0.315-0.286-0.602-0.412-0.919-0.412c-0.701,0-1.304,0.571-1.304,1.27
		c0,0.603,0.382,1.047,0.889,1.238l2.699,1.143l-2.699,1.143C27.176,7.044,26.729,7.459,26.729,8.061z"/>
	<path fill="#990000" d="M13.81,8.316c0,0.699,0.572,1.301,1.271,1.301c0.316,0,0.634-0.158,0.952-0.412l2.253-1.714l-0.351,2.763
		c-0.095,0.825,0.413,1.459,1.207,1.459c0.795,0,1.302-0.667,1.207-1.494l-0.38-2.698l2.257,1.716
		c0.317,0.286,0.603,0.413,0.921,0.413c0.698,0,1.3-0.572,1.3-1.27c0-0.603-0.379-1.047-0.888-1.237l-2.698-1.144l2.666-1.174
		c0.443-0.223,0.888-0.604,0.888-1.207c0-0.698-0.571-1.302-1.27-1.302c-0.316,0-0.634,0.159-0.952,0.413L19.94,4.445l0.38-2.73
		c0.095-0.826-0.413-1.46-1.207-1.46s-1.302,0.667-1.207,1.492l0.38,2.698l-2.253-1.714c-0.318-0.286-0.604-0.413-0.921-0.413
		c-0.699,0-1.302,0.571-1.302,1.27c0,0.602,0.381,1.047,0.889,1.238l2.698,1.143L14.699,7.11C14.255,7.3,13.81,7.714,13.81,8.316z"
		/>
	<path fill="#990000" d="M2.128,8.189c0,0.699,0.571,1.302,1.27,1.302c0.316,0,0.634-0.159,0.952-0.411l2.254-1.714l-0.35,2.761
		c-0.095,0.824,0.414,1.46,1.207,1.46c0.793,0,1.3-0.667,1.206-1.493L8.286,7.397l2.254,1.714c0.317,0.286,0.604,0.411,0.921,0.411
		c0.698,0,1.301-0.572,1.301-1.268c0-0.603-0.38-1.049-0.889-1.239L9.175,5.872l2.698-1.111c0.444-0.223,0.889-0.604,0.889-1.207
		c0-0.699-0.571-1.302-1.27-1.302c-0.316,0-0.634,0.159-0.952,0.412L8.287,4.379l0.381-2.73c0.095-0.825-0.413-1.461-1.207-1.461
		c-0.794,0-1.302,0.667-1.207,1.493l0.351,2.636L4.351,2.603C4.034,2.317,3.748,2.19,3.43,2.19c-0.698,0-1.301,0.571-1.301,1.27
		c0,0.602,0.382,1.047,0.889,1.238L5.715,5.84L3.017,6.984C2.573,7.173,2.128,7.586,2.128,8.189z"/>
	<path fill="#990000" d="M40.953,11.555c0.349,0,0.634-0.286,0.634-0.636v-9.84c0-0.35-0.285-0.635-0.634-0.635
		c-0.351,0-0.636,0.286-0.636,0.635v9.84C40.317,11.27,40.603,11.555,40.953,11.555z"/>
	<path fill="#990000" d="M48.857,12.761H1.143C0.512,12.761,0,13.272,0,13.903c0,0.632,0.512,1.143,1.143,1.143h47.714
		c0.632,0,1.143-0.511,1.143-1.143C50,13.272,49.489,12.761,48.857,12.761z"/>
</g>
</svg>
