<?xml version="1.0" encoding="utf-8"?>
<!-- Generator: Adobe Illustrator 16.0.0, SVG Export Plug-In . SVG Version: 6.00 Build 0)  -->
<!DOCTYPE svg PUBLIC "-//W3C//DTD SVG 1.1//EN" "http://www.w3.org/Graphics/SVG/1.1/DTD/svg11.dtd">
<svg version="1.1" id="Layer_1" xmlns="http://www.w3.org/2000/svg" xmlns:xlink="http://www.w3.org/1999/xlink" x="0px" y="0px"
	 width="66.643px" height="66.641px" viewBox="0 0 66.643 66.641" enable-background="new 0 0 66.643 66.641" xml:space="preserve">
<g>
	<rect x="19.643" y="6.821" fill="none" width="47" height="54"/>
	<path fill="#990000" d="M20.219,21.433c1.152-5.473,5.185-9.577,12.457-9.577c7.849,0,12.817,4.896,12.817,12.169
		c0,8.569-6.408,12.673-12.89,12.817v6.769h-3.456v-9.217h2.016c5.904,0,10.585-3.024,10.585-10.153c0-6.192-3.816-9.289-9.29-9.289
		c-4.824,0-8.137,2.592-9.073,7.633L20.219,21.433z M30.948,49.444c1.584,0,2.808,1.225,2.808,2.881
		c0,1.584-1.224,2.808-2.808,2.808c-1.656,0-2.88-1.224-2.88-2.808C28.068,50.668,29.292,49.444,30.948,49.444z"/>
</g>
</svg>
