<?xml version="1.0" encoding="utf-8"?>
<!-- Generator: Adobe Illustrator 15.0.0, SVG Export Plug-In . SVG Version: 6.00 Build 0)  -->
<!DOCTYPE svg PUBLIC "-//W3C//DTD SVG 1.1//EN" "http://www.w3.org/Graphics/SVG/1.1/DTD/svg11.dtd">
<svg version="1.1" id="Layer_1" xmlns="http://www.w3.org/2000/svg" xmlns:xlink="http://www.w3.org/1999/xlink" x="0px" y="0px"
	 width="35.382px" height="50px" viewBox="0 0 35.382 50" enable-background="new 0 0 35.382 50" xml:space="preserve">
<path d="M17.691,27.798c-2.015,0-3.654,1.642-3.654,3.656c0,0.866,0.314,1.651,0.82,2.28v4.686c0,1.573,1.264,2.837,2.834,2.837
	c1.57,0,2.833-1.261,2.836-2.837V33.73c0.504-0.627,0.819-1.412,0.819-2.276C21.346,29.438,19.707,27.798,17.691,27.798z"/>
<path d="M33.916,19.467h-3.381v-5.84C30.535,6.215,24.66,0,17.691,0C10.724,0,4.85,6.25,4.85,13.627v5.84H1.468
	C0.648,19.467,0,20.116,0,20.936V48.53C0,49.352,0.649,50,1.468,50h32.448c0.818,0,1.467-0.648,1.467-1.47V20.935
	C35.382,20.116,34.734,19.467,33.916,19.467z M8.325,13.627c0-6.387,4.586-10.191,9.366-10.191c4.781,0,9.355,3.805,9.355,10.191
	v5.84H8.325V13.627z M32.445,47.062H2.938v-0.033V22.404h29.508L32.445,47.062L32.445,47.062z"/>
</svg>
