<?xml version="1.0" encoding="utf-8"?>
<!-- Generator: Adobe Illustrator 15.0.0, SVG Export Plug-In . SVG Version: 6.00 Build 0)  -->
<!DOCTYPE svg PUBLIC "-//W3C//DTD SVG 1.1//EN" "http://www.w3.org/Graphics/SVG/1.1/DTD/svg11.dtd">
<svg version="1.1" id="Layer_1" xmlns="http://www.w3.org/2000/svg" xmlns:xlink="http://www.w3.org/1999/xlink" x="0px" y="0px"
	 width="100.113px" height="104.557px" viewBox="0 0 100.113 104.557" enable-background="new 0 0 100.113 104.557"
	 xml:space="preserve">
<g>
	<path fill="#991B1E" d="M97.574,4.496c-1.781-0.738-3.301-0.433-4.562,0.915l-8.474,8.406C79.887,9.43,74.578,6.028,68.602,3.618
		C62.625,1.207,56.445,0,50.059,0c-6.782,0-13.254,1.325-19.427,3.977c-6.168,2.648-11.491,6.211-15.969,10.687
		c-4.473,4.477-8.039,9.801-10.687,15.969C1.324,36.805,0,43.278,0,50.059c0,6.777,1.324,13.251,3.978,19.423
		c2.651,6.172,6.214,11.492,10.687,15.97c4.478,4.471,9.801,8.039,15.969,10.688c6.173,2.65,12.645,3.977,19.427,3.977
		c7.472,0,14.578-1.574,21.312-4.727c6.734-3.148,12.474-7.592,17.207-13.328c0.348-0.436,0.512-0.922,0.488-1.465
		c-0.021-0.545-0.228-0.988-0.617-1.338l-8.93-8.994c-0.48-0.393-1.021-0.588-1.629-0.588c-0.695,0.088-1.195,0.35-1.5,0.785
		c-3.173,4.129-7.06,7.322-11.668,9.582c-4.605,2.258-9.492,3.389-14.664,3.389c-4.521,0-8.832-0.881-12.938-2.643
		c-4.104-1.756-7.66-4.136-10.656-7.136c-2.996-2.995-5.375-6.551-7.137-10.657c-1.762-4.104-2.64-8.416-2.64-12.938
		c0-4.52,0.882-8.832,2.64-12.938c1.758-4.105,4.137-7.66,7.137-10.656c3-3,6.552-5.379,10.656-7.136
		c4.106-1.762,8.418-2.641,12.938-2.641c8.733,0,16.315,2.976,22.75,8.93l-9,8.992c-1.345,1.304-1.648,2.804-0.91,4.496
		c0.738,1.738,2.02,2.609,3.848,2.609h29.199c1.129,0,2.104-0.414,2.934-1.238c0.824-0.824,1.234-1.805,1.234-2.934V8.344
		C100.113,6.52,99.27,5.239,97.574,4.496L97.574,4.496z"/>
</g>
</svg>
