<?xml version="1.0" encoding="utf-8"?>
<!-- Generator: Adobe Illustrator 15.0.0, SVG Export Plug-In . SVG Version: 6.00 Build 0)  -->
<!DOCTYPE svg PUBLIC "-//W3C//DTD SVG 1.1//EN" "http://www.w3.org/Graphics/SVG/1.1/DTD/svg11.dtd">
<svg version="1.1" id="Layer_1" xmlns="http://www.w3.org/2000/svg" xmlns:xlink="http://www.w3.org/1999/xlink" x="0px" y="0px"
	 width="461.913px" height="67.586px" viewBox="0 0 461.913 67.586" enable-background="new 0 0 461.913 67.586"
	 xml:space="preserve">
<g id="XMLID_1_">
	<g>
		<path d="M40.813,33.483c11.954,2.647,15.651,18.648,7.753,26.707c-9.288,9.477-30.404,4.917-48.245,6.03
			C0.609,45.4-0.252,23.432,0.753,3.33c17.365,0.583,40.5-3.383,46.953,8.615C51.475,18.963,47.786,30.701,40.813,33.483z
			 M11.091,56.313c13.479,0.96,36.479,1.265,29.722-12.492c-3.608-7.341-18.415-3.814-29.292-4.738
			C10.517,43.964,11.378,50.713,11.091,56.313z M37.798,24.006c3.787-12.349-13.569-11.227-26.276-10.769
			c-1.005,4.595-0.144,11.056-0.431,16.369C21.788,29.022,35.348,32.002,37.798,24.006z"/>
		<path fill="#FFFFFF" d="M300.56,27.883c13.856-2.611,21.484,11.119,15.938,22.399c-8.247,16.782-34.066,2.872-25.846-15.076
			C292.259,31.697,295.562,28.825,300.56,27.883z"/>
		<path fill="#FFFFFF" d="M249.73,27.452c11.299-0.395,17.535,14.395,11.631,24.123c-5.609,9.243-22.678,7.403-24.984-5.169
			C234.582,36.588,239.958,27.793,249.73,27.452z"/>
		<path d="M252.315,17.545c29.292-0.188,28.412,46.297,3.446,49.537c-8.481,1.104-14.099-2.127-19.384-7.754
			c0,2.297,0,4.595,0,6.892c-3.59,0-7.179,0-10.769,0c0-21.969,0-43.937,0-65.906c3.59,0,7.179,0,10.769,0
			c0,8.472,0,16.943,0,25.415C240.128,22.31,244.48,17.599,252.315,17.545z M261.361,51.575c5.904-9.728-0.332-24.518-11.631-24.123
			c-9.773,0.341-15.148,9.136-13.354,18.953C238.683,58.978,255.752,60.818,261.361,51.575z"/>
		<path fill="#FFFFFF" d="M364.742,45.544c4.012,13.3-16.368,17.491-20.676,10.338C337.461,44.916,356.289,41.461,364.742,45.544z"
			/>
		<path d="M461.663,0.314c0,21.969,0,43.937,0,65.906c-3.59,0-7.18,0-10.77,0c0-2.441,0-4.882,0-7.323
			c-3.518,2.961-6.641,7.278-12.923,8.185c-30.045,4.316-35.357-47.778-4.307-49.537c7.439-0.422,12.868,3.428,17.229,8.184
			c0-8.471,0-16.943,0-25.415C452.446,0.566,459.052,0.261,461.663,0.314z M439.264,57.605c12.304-1.579,14.699-19.635,7.322-26.707
			c-2.037-1.957-6.326-3.446-9.046-3.446C417.762,27.479,419.889,60.091,439.264,57.605z"/>
		<path d="M169.179,25.729c-1.31,3.141-4.711,4.191-6.03,7.323c-3.32-1.445-4.371-3.733-6.892-4.739
			c-11.98-4.756-21.511,6.103-19.384,17.661c2.091,11.353,17.975,15.831,25.846,6.031c2.835,1.759,5.133,4.056,6.892,6.892
			c-15.355,16.907-46.289,6.632-43.938-18.953C127.62,18.774,155.125,10.087,169.179,25.729z"/>
		<path d="M120.073,66.22c-3.59,0-7.179,0-10.769,0c0-1.723,0-3.446,0-5.169c-5.519,7.458-23.898,8.112-29.722,0
			c-10.823-15.077,10.132-30.449,29.292-22.399c2.441-13.901-15.875-12.205-24.553-8.185c-1.176-2.558-1.66-5.806-3.015-8.184
			c10.553-6.129,29.363-6.264,35.752,3.015C123.734,35,118.251,51.431,120.073,66.22z M88.197,49.421
			c-4.514,14.35,25.747,12.483,21.538-3.446C102.914,43.39,90.44,42.269,88.197,49.421z"/>
		<path fill="#FFFFFF" d="M446.586,30.898c7.377,7.071,4.981,25.127-7.322,26.707c-19.375,2.486-21.502-30.126-1.724-30.153
			C440.26,27.452,444.549,28.942,446.586,30.898z"/>
		<path d="M410.834,17.545c1.768,2.396,0.457,7.87,0.861,11.63c-18.612-0.664-17.428,18.469-16.8,37.045c-3.733,0-7.467,0-11.199,0
			c0-15.794,0-31.589,0-47.383c3.732,0,7.466,0,11.199,0c0,2.872,0,5.744,0,8.615C397.884,23.548,402.397,17.437,410.834,17.545z"/>
		<path fill="#FFFFFF" d="M109.734,45.975c4.209,15.929-26.052,17.796-21.538,3.446C90.44,42.269,102.914,43.39,109.734,45.975z"/>
		<path fill="#FFFFFF" d="M11.522,13.237c12.707-0.458,30.063-1.58,26.276,10.769c-2.45,7.996-16.01,5.016-26.707,5.6
			C11.378,24.293,10.517,17.832,11.522,13.237z"/>
		<path d="M375.512,66.22c-3.59,0-7.18,0-10.77,0c0-1.723,0-3.446,0-5.169c-6.246,7.987-25.988,8.041-31.014-1.723
			c-3.814-7.413-0.233-16.467,5.6-19.815c6.99-4.002,16.826-2.692,24.983-0.861c2.002-13.632-16.387-12.348-24.983-8.185
			c-0.691-3.042-2.073-5.393-2.585-8.615c10.455-5.187,27.784-5.726,34.461,2.154C378.993,33.196,374.066,50.04,375.512,66.22z
			 M344.066,55.882c4.308,7.152,24.688,2.961,20.676-10.338C356.289,41.461,337.461,44.916,344.066,55.882z"/>
		<path d="M70.966,0.745c0,21.825,0,43.65,0,65.475c-3.733,0-7.466,0-11.2,0c0.278-21.053-0.565-47.347,0.431-65.475
			C63.581-0.215,69.755,0.467,70.966,0.745z"/>
		<path d="M315.637,20.129c9.351,4.541,18.369,19.321,10.769,34.03c-1.885,3.652-5.878,7.897-9.477,9.907
			c-15.894,8.857-42.232-0.502-38.338-26.276c1.643-10.859,10.554-18.388,22.83-19.815C304.93,17.562,311.473,18.101,315.637,20.129
			z M316.498,50.282c5.546-11.28-2.082-25.011-15.938-22.399c-4.998,0.942-8.301,3.814-9.907,7.323
			C282.432,53.154,308.251,67.064,316.498,50.282z"/>
		<path fill="#FFFFFF" d="M40.813,43.821c6.757,13.757-16.243,13.452-29.722,12.492c0.287-5.6-0.575-12.349,0.431-17.23
			C22.398,40.007,37.206,36.48,40.813,43.821z"/>
		<path d="M219.578,66.22c-4.021,0-8.041,0-12.062,0c-5.393-6.093-9.584-13.389-14.215-20.246c-3.069,1.526-4.756,4.433-6.892,6.892
			c0,4.451,0,8.902,0,13.354c-3.733,0-7.466,0-11.2,0c0.287-21.825-0.574-44.799,0.431-65.906c3.446,0,6.892,0,10.338,0
			c1.005,11.917,0.144,25.702,0.431,38.337c6.408-4.936,12.833-13.578,19.384-19.815c4.02,0,8.041,0,12.061,0
			c0.484,1.875-1.983,3.213-3.446,4.738c-4.263,4.424-9.575,10.078-14.215,14.215C206.565,47.357,213.475,56.385,219.578,66.22z"/>
	</g>
	<g>
	</g>
</g>
</svg>
