<?xml version="1.0" encoding="utf-8"?>
<!-- Generator: Adobe Illustrator 15.0.0, SVG Export Plug-In . SVG Version: 6.00 Build 0)  -->
<!DOCTYPE svg PUBLIC "-//W3C//DTD SVG 1.1//EN" "http://www.w3.org/Graphics/SVG/1.1/DTD/svg11.dtd">
<svg version="1.1" id="Layer_1" xmlns="http://www.w3.org/2000/svg" xmlns:xlink="http://www.w3.org/1999/xlink" x="0px" y="0px"
	 width="116.557px" height="104.714px" viewBox="0 0 116.557 104.714" enable-background="new 0 0 116.557 104.714"
	 xml:space="preserve">
<path d="M22.796,13.998v12.718h-3.52l-1-2.52c-1.28,2.08-3.56,3-6.479,3C5.679,27.195,1.2,23.436,1.2,15.037
	c0-7.878,4.279-12.358,11.678-12.358c4.839,0,8.278,2.28,9.838,6.079l-5.839,2.839c-0.68-2.399-2.08-3.599-4.16-3.599
	c-2,0-5.358,1.24-5.358,7.159c0,3.839,1.359,7.159,5.519,7.159c3.159,0,4.199-1.52,4.199-3.119v-0.48h-4.679v-4.719H22.796z"/>
<path d="M26.2,17.437c0-6.279,3.64-9.639,9.119-9.639c5.479,0,9.118,3.359,9.118,9.639c0,6.239-3.64,9.758-9.118,9.758
	C29.84,27.195,26.2,23.676,26.2,17.437z M32.039,17.477c0,3.559,1.04,5.119,3.28,5.119s3.279-1.56,3.279-5.119
	c0-3.359-1.08-4.959-3.279-4.959S32.039,14.118,32.039,17.477z"/>
<path d="M46.839,17.437c0-6.279,3.641-9.639,9.119-9.639c5.479,0,9.118,3.359,9.118,9.639c0,6.239-3.639,9.758-9.118,9.758
	C50.479,27.195,46.839,23.676,46.839,17.437z M52.678,17.477c0,3.559,1.039,5.119,3.279,5.119s3.279-1.56,3.279-5.119
	c0-3.359-1.08-4.959-3.279-4.959S52.678,14.118,52.678,17.477z"/>
<path d="M81.237,8.838c0.76-0.88,0.92-1.28,1.36-2.8l4.599,1.52c-0.2,1.8-1.959,3.04-3.439,3.52c0.521,0.88,0.801,1.959,0.801,3.239
	c0,4.239-3.84,6.359-8.759,6.359c-0.84,0-1.76-0.08-2.199-0.24c-0.561,0.36-0.721,0.88-0.721,1.399c0,0.52,0.439,0.96,1.28,0.96
	h5.52c4.198,0,6.599,2.4,6.599,5.559c0,5.399-5.56,6.799-10.998,6.799c-4.679,0-8.798-1.08-8.798-4.559
	c0-2.12,1.479-3.319,4.919-3.56c-1.919-0.12-3.12-1.72-3.12-3.399c0-1.439,1-3.159,3.2-3.799c-2.561-1-3.919-2.52-3.919-5.519
	c0-4.359,3.398-6.519,8.438-6.519C78.077,7.798,79.837,8.159,81.237,8.838z M75.998,31.234c3.72,0,4.719-0.64,4.719-1.839
	c0-1-0.64-1.24-1.959-1.24h-4.759c-1.16,0-2.12,0.4-2.12,1.2C71.878,30.595,73.198,31.234,75.998,31.234z M75.998,16.837
	c1.641,0,2.479-0.96,2.479-2.52c0-1.72-0.84-2.52-2.479-2.52c-1.639,0-2.398,0.92-2.398,2.52
	C73.598,15.757,74.318,16.837,75.998,16.837z"/>
<path d="M97.397,26.555c-1.08,0.32-2.24,0.56-3.359,0.56c-2.8,0-5.438-1.28-5.438-4.959V0h5.919v20.316c0,1.16,0.76,1.56,1.72,1.56
	c0.44,0,1-0.08,1.479-0.28L97.397,26.555z"/>
<path d="M111.517,20.316l5.039,1.8c-1.04,3.719-4.439,5.079-8.079,5.079c-5.399,0-9.159-3.479-9.159-9.398
	c0-6.399,3.479-9.999,9.199-9.999c5.358,0,7.958,3.479,7.958,8.279c0,0.76-0.08,1.56-0.24,2.399h-11.198
	c0.08,2.56,1.28,4.16,3.521,4.16C109.797,22.636,110.917,22.196,111.517,20.316z M110.796,15.357c0.04-0.2,0.04-0.36,0.04-0.56
	c0-1.52-0.8-2.64-2.52-2.64c-1.8,0-2.959,1.4-3.12,3.2H110.796z"/>
<path d="M16.438,56.316h-8.68l-1.479,4.398H0l8.52-23.555h7.318l8.6,23.555h-6.439L16.438,56.316z M9.438,51.317h5.238l-0.64-1.8
	c-1.399-3.919-1.879-6.879-1.879-6.879h-0.16c0,0-0.6,3-1.92,6.839L9.438,51.317z"/>
<path d="M33.159,68.833H27.24V42.238h5.119l0.76,3.56c1.08-2.959,3.399-4,6.039-4c4.521,0,7.079,3.399,7.079,9.239
	c0,6.199-2.919,10.158-7.919,10.158c-2.799,0-4.679-1.359-5.159-2.919V68.833z M33.119,52.998c0,3.039,1.799,3.959,3.239,3.959
	c2.12,0,3.919-1.761,3.919-5.399c0-3.599-1.4-5.039-3.601-5.039c-1.72,0-3.559,1.44-3.559,4.239L33.119,52.998L33.119,52.998z"/>
<path d="M55.758,68.833h-5.919V42.238h5.119l0.76,3.56c1.08-2.959,3.399-4,6.039-4c4.521,0,7.079,3.399,7.079,9.239
	c0,6.199-2.919,10.158-7.919,10.158c-2.799,0-4.679-1.359-5.159-2.919V68.833z M55.718,52.998c0,3.039,1.8,3.959,3.239,3.959
	c2.12,0,3.919-1.761,3.919-5.399c0-3.599-1.399-5.039-3.6-5.039c-1.72,0-3.56,1.44-3.56,4.239L55.718,52.998L55.718,52.998z"/>
<path d="M75.438,54.356c0.439,1.959,1.84,2.681,3.438,2.681c1.28,0,2.16-0.44,2.16-1.281c0-0.92-0.72-1.279-2.2-1.639l-2.719-0.641
	c-3.2-0.84-4.759-2.68-4.759-5.559c0-4.799,3.839-6.119,7.759-6.119c4.56,0,7.279,1.64,7.52,5.279l-5.52,0.8
	c-0.2-1.36-0.96-1.72-2.28-1.72c-0.959,0-1.68,0.44-1.68,1.2c0,0.8,0.56,1.2,1.56,1.4l2.64,0.52c3.919,0.8,5.599,3,5.599,6.079
	c0,4.199-3.479,5.839-8.119,5.839c-4.679,0-7.438-1.279-8.197-4.799L75.438,54.356z"/>
<path fill="#990000" d="M22.836,91.636c0,2,1.24,3.398,3.279,3.398c3.239,0,4.599-3.199,4.599-8.799
	c0-7.759-4.719-13.559-14.038-13.559c-8.918,0-14.396,6.199-14.396,15.559c0,10.799,7.599,14.717,15.637,14.717
	c2.721,0,5.239-0.4,7.56-1.279l0.239,0.84c-2.279,0.76-4.799,1.199-7.799,1.199c-8.519,0-16.437-4.078-16.437-15.517
	c0-9.719,5.639-16.276,15.196-16.276c10.158,0,14.838,6.238,14.838,14.316c0,5.84-1.36,9.52-5.399,9.52
	c-2.64,0-4.08-1.68-4.08-4.119c-0.64,2.599-2.879,4.318-6.039,4.318c-4.12,0-6.879-2.639-6.879-8.039
	c0-5.679,2.759-8.519,7.199-8.519c3.239,0,5.119,1.84,5.719,4l0.2-3.799h0.6v12.038H22.836z M22.036,86.197
	c0-4.238-2.719-6.039-5.719-6.039c-3.799,0-6.399,2.32-6.399,7.76c0,5,2.439,7.278,6.079,7.278c3.199,0,5.999-1.839,6.039-6.319
	V86.197z"/>
<path d="M62.116,75.16v15.637c0,6.399-4.479,8.398-9.918,8.398s-9.958-2-9.958-8.398V75.16h5.999v13.918
	c0,3.039,0.52,5.118,3.959,5.118c3.399,0,3.919-2.079,3.919-5.198V75.16H62.116z"/>
<path d="M70.358,90.957c0.439,2.121,2.12,3.641,4.239,3.641c1.56,0,2.76-0.6,2.76-1.96s-0.8-1.96-3.601-2.8
	c-5.999-1.84-7.918-4.08-7.918-7.959c0-5.479,4.279-7.238,8.56-7.238c4.999,0,8.718,1.6,9.238,6.078l-5.999,1.601
	c-0.2-1.919-1.681-2.679-3.119-2.679c-1.24,0-2.32,0.48-2.32,1.799c0,1.359,1.08,2,3.679,2.721c5.359,1.639,7.72,3.358,7.72,7.918
	c0,5.279-4.279,7.119-9.479,7.119c-4.6,0-7.839-1.439-9.199-5.639L70.358,90.957z"/>
<path d="M108.155,93.636c-2.16,3.719-4.919,5.559-10.358,5.559c-6.479,0-10.958-4.479-10.958-12.318
	c0-7.838,4.279-12.197,11.679-12.197c5.039,0,8.119,2.279,9.838,6.078l-5.839,2.84c-0.641-2.199-1.641-3.6-4.159-3.6
	c-3.319,0-5.359,2.641-5.359,7.039c0,4.319,1.839,6.84,5.52,6.84c1.879,0,3.56-1.08,4.398-3.239L108.155,93.636z"/>
</svg>
