<?xml version="1.0" encoding="utf-8"?>
<!-- Generator: Adobe Illustrator 15.0.0, SVG Export Plug-In . SVG Version: 6.00 Build 0)  -->
<!DOCTYPE svg PUBLIC "-//W3C//DTD SVG 1.1//EN" "http://www.w3.org/Graphics/SVG/1.1/DTD/svg11.dtd">
<svg version="1.1" id="Layer_1" xmlns="http://www.w3.org/2000/svg" xmlns:xlink="http://www.w3.org/1999/xlink" x="0px" y="0px"
	 width="131.067px" height="32.942px" viewBox="0 0 131.067 32.942" enable-background="new 0 0 131.067 32.942"
	 xml:space="preserve">
<g>
	<path fill="#991B1E" d="M5.76,26.849V10.56H0V9.18h13.109v1.38H7.35v16.289H5.76z"/>
	<path fill="#991B1E" d="M21.84,14.579c-0.33-0.15-0.78-0.21-1.29-0.21c-2.34,0-3.99,2.28-3.99,5.28v7.199h-1.53V12.989h1.26
		l0.21,3.93c0.42-2.49,2.01-4.17,4.56-4.17c0.36,0,0.69,0.061,0.93,0.15L21.84,14.579z"/>
	<path fill="#991B1E" d="M23.1,19.859c0-4.681,2.28-7.141,5.91-7.141c3.69,0,5.94,2.46,5.94,7.141c0,4.709-2.25,7.259-5.94,7.259
		C25.38,27.118,23.1,24.568,23.1,19.859z M24.6,19.859c0,3.959,1.56,6.029,4.41,6.029c2.88,0,4.44-2.07,4.44-6.029
		c0-3.9-1.56-5.851-4.44-5.851C26.16,14.009,24.6,15.959,24.6,19.859z"/>
	<path fill="#991B1E" d="M40.17,12.989v15.06c0,3.63-1.8,4.979-5.1,4.89v-1.29c2.37,0.12,3.57-0.9,3.57-3.45V12.989H40.17z
		 M39.42,7.56c0.63,0,1.14,0.51,1.14,1.17c0,0.63-0.51,1.109-1.14,1.109s-1.14-0.479-1.14-1.109C38.28,8.069,38.79,7.56,39.42,7.56z
		"/>
	<path fill="#991B1E" d="M53.58,23.969c0,1.29,0.39,1.74,1.11,1.74c0.27,0,0.45-0.03,0.63-0.12v1.26c-0.24,0.06-0.54,0.12-0.93,0.12
		c-1.38,0-2.16-0.72-2.25-2.46c-0.66,1.8-2.4,2.609-4.26,2.609c-2.55,0-4.2-1.38-4.2-3.72c0-2.819,2.16-4.409,6.63-4.409
		c0.54,0,1.11,0,1.74,0.09v-1.92c0-2.37-1.35-3.15-3.24-3.15c-1.77,0-3.06,0.75-3.24,2.79l-1.41-0.21c0.21-2.939,2.52-3.87,4.8-3.87
		c2.52,0,4.62,1.051,4.62,4.261V23.969z M52.05,20.219c-0.48-0.06-0.9-0.09-1.44-0.09c-3.51,0-5.4,0.99-5.4,3.12
		c0,1.59,1.02,2.64,2.97,2.64c1.92,0,3.87-1.2,3.87-3.39V20.219z"/>
	<path fill="#991B1E" d="M59.759,16.169c0.63-2.1,2.31-3.45,4.65-3.45c2.4,0,4.229,1.29,4.229,4.38v9.75h-1.53v-9.359
		c0-2.19-1.08-3.42-3.06-3.42c-2.19,0-4.14,1.529-4.14,4.92v7.859h-1.53V12.989h1.17L59.759,16.169z"/>
	<path fill="#010101" d="M82.019,26.849V10.56h-5.76V9.18h13.109v1.38h-5.76v16.289H82.019z"/>
	<path fill="#010101" d="M92.849,7.56c0.66,0,1.17,0.51,1.17,1.17c0,0.63-0.51,1.109-1.17,1.109c-0.631,0-1.11-0.479-1.11-1.109
		C91.738,8.069,92.218,7.56,92.849,7.56z M93.628,12.989v13.859h-1.529V12.989H93.628z"/>
	<path fill="#010101" d="M112.407,12.719c2.43,0,4.109,1.29,4.109,4.29v9.84h-1.529v-9.359c0-2.19-0.99-3.42-2.91-3.42
		c-2.1,0-3.93,1.68-3.93,4.92v7.859h-1.529v-9.359c0-2.19-0.99-3.42-2.881-3.42c-2.129,0-3.959,1.68-3.959,4.92v7.859h-1.53V12.989
		h1.17l0.21,3.149c0.6-2.189,2.279-3.42,4.439-3.42c2.19,0,3.6,1.021,3.87,3.45C108.538,13.949,110.277,12.719,112.407,12.719z"/>
	<path fill="#010101" d="M129.688,23.159l1.35,0.3c-0.51,2.64-2.49,3.659-5.131,3.659c-3.569,0-5.85-2.43-5.85-7.169
		c0-4.59,2.28-7.23,5.94-7.23c3.36,0,5.069,2.341,5.069,5.521c0,0.689-0.09,1.319-0.18,1.77h-9.359c0,3.72,1.68,5.88,4.5,5.88
		C128.008,25.889,129.178,25.079,129.688,23.159z M129.538,18.749c0.029-0.271,0.029-0.51,0.029-0.81c0-2.221-1.289-3.96-3.66-3.96
		c-2.579,0-4.049,1.77-4.319,4.77H129.538z"/>
</g>
</svg>
