<?xml version="1.0" encoding="utf-8"?>
<!-- Generator: Adobe Illustrator 15.0.0, SVG Export Plug-In . SVG Version: 6.00 Build 0)  -->
<!DOCTYPE svg PUBLIC "-//W3C//DTD SVG 1.1//EN" "http://www.w3.org/Graphics/SVG/1.1/DTD/svg11.dtd">
<svg version="1.1" id="Layer_1" xmlns="http://www.w3.org/2000/svg" xmlns:xlink="http://www.w3.org/1999/xlink" x="0px" y="0px"
	 width="116.933px" height="109px" viewBox="0 0 116.933 109" enable-background="new 0 0 116.933 109" xml:space="preserve">
<g>
	<defs>
		<rect id="SVGID_1_" width="116.88" height="109"/>
	</defs>
	<clipPath id="SVGID_2_">
		<use xlink:href="#SVGID_1_"  overflow="visible"/>
	</clipPath>
	<path clip-path="url(#SVGID_2_)" fill="#FA0E1C" d="M115.824,96.14L65.766,4.367c-0.738-1.348-1.758-2.41-3.062-3.195
		C61.398,0.39,59.988,0,58.465,0c-1.52,0-2.934,0.39-4.235,1.172c-1.304,0.785-2.328,1.847-3.066,3.195L1.109,96.14
		c-1.519,2.739-1.476,5.474,0.129,8.211c0.742,1.263,1.75,2.263,3.032,2.996c1.285,0.743,2.664,1.114,4.14,1.114h100.113
		c1.477,0,2.855-0.371,4.141-1.114c1.281-0.733,2.289-1.733,3.031-2.996C117.301,101.613,117.344,98.879,115.824,96.14
		L115.824,96.14z M66.812,89.621c0,0.609-0.21,1.117-0.62,1.531s-0.902,0.616-1.465,0.616H52.211c-0.566,0-1.055-0.202-1.465-0.616
		c-0.414-0.414-0.621-0.922-0.621-1.531V77.238c0-0.609,0.207-1.117,0.621-1.531c0.41-0.414,0.899-0.621,1.465-0.621h12.512
		c0.566,0,1.055,0.207,1.469,0.621c0.41,0.414,0.617,0.922,0.617,1.531v12.383H66.812z M66.68,65.246
		c-0.043,0.433-0.273,0.793-0.684,1.074c-0.414,0.28-0.922,0.422-1.531,0.422H52.406c-0.609,0-1.129-0.142-1.562-0.422
		c-0.438-0.285-0.653-0.642-0.653-1.078l-1.109-29.785c0-0.61,0.219-1.063,0.652-1.367c0.563-0.477,1.086-0.719,1.563-0.719h14.34
		c0.48,0,1,0.238,1.566,0.719c0.434,0.304,0.648,0.714,0.648,1.238L66.68,65.246z M66.68,65.246"/>
</g>
</svg>
