<?xml version="1.0" encoding="utf-8"?>
<!-- Generator: Adobe Illustrator 16.0.0, SVG Export Plug-In . SVG Version: 6.00 Build 0)  -->
<!DOCTYPE svg PUBLIC "-//W3C//DTD SVG 1.1//EN" "http://www.w3.org/Graphics/SVG/1.1/DTD/svg11.dtd">
<svg version="1.1" id="Layer_1" xmlns="http://www.w3.org/2000/svg" xmlns:xlink="http://www.w3.org/1999/xlink" x="0px" y="0px"
	 width="50px" height="32.906px" viewBox="0 0 50 32.906" enable-background="new 0 0 50 32.906" xml:space="preserve">
<path fill="#FFFFFF" d="M42.789,0H7.21C3.221,0,0,3.257,0,7.21v18.484c0,3.991,3.257,7.211,7.21,7.211h35.579
	c3.953,0,7.172-3.258,7.211-7.211V7.212C50,3.222,46.742,0,42.789,0z M35.634,17.51L46.191,6.823
	c0.013,0.129,0.038,0.254,0.038,0.387v18.448c0,0.656-0.192,1.261-0.51,1.783L35.634,17.51z M42.789,3.771
	c0.65,0,1.253,0.191,1.772,0.504L25.232,23.912L5.56,4.172C6.052,3.9,6.608,3.733,7.21,3.733v0.038L42.789,3.771L42.789,3.771z
	 M4.761,28.073c-0.612-0.621-0.991-1.472-0.991-2.415V7.175c0-0.192,0.026-0.38,0.057-0.564l11.188,11.207L4.761,28.073z
	 M7.21,29.099c-0.424,0-0.825-0.086-1.2-0.226l10.029-10.03l8.045,8.061c0.255,0.293,0.659,0.438,1.025,0.438
	c0.202,0,0.402-0.052,0.597-0.136c0.258-0.059,0.51-0.167,0.721-0.377l8.188-8.289l10.116,9.959c-0.553,0.376-1.222,0.6-1.942,0.6
	H7.21z"/>
</svg>
