<?xml version="1.0" encoding="utf-8"?>
<!-- Generator: Adobe Illustrator 16.0.0, SVG Export Plug-In . SVG Version: 6.00 Build 0)  -->
<!DOCTYPE svg PUBLIC "-//W3C//DTD SVG 1.1//EN" "http://www.w3.org/Graphics/SVG/1.1/DTD/svg11.dtd">
<svg version="1.1" id="Layer_1" xmlns="http://www.w3.org/2000/svg" xmlns:xlink="http://www.w3.org/1999/xlink" x="0px" y="0px"
	 width="50px" height="40px" viewBox="0 0 50 40" enable-background="new 0 0 50 40" xml:space="preserve">
<path fill="#FFFFFF" d="M49.725,36.562c-1.146-1.631-5.174-5.799-17.539-8.959c-0.035-1.424-0.138-2.467-0.209-3.092
	c0.974-1.494,3.822-6.495,4.062-13.024v-0.174c0.139-6.877-3.854-11.009-10.871-11.289c-0.034,0-0.068,0-0.104,0
	c-0.139-0.033-0.277-0.033-0.416,0c-6.945,0.349-10.87,4.447-10.766,11.289v0.208c0.278,6.492,3.091,11.46,4.063,12.99
	c-0.069,0.625-0.173,1.668-0.208,3.092C5.583,30.729,1.482,34.793,0.303,36.426c-0.521,0.694-0.347,1.7,0.348,2.222
	c0.278,0.21,0.59,0.312,0.938,0.312c0.52,0,0.972-0.24,1.285-0.658c0.798-1.111,4.411-4.932,16.81-7.918
	c0.729-0.176,1.216-0.834,1.216-1.563c0-2.743,0.277-4.411,0.277-4.445c0.07-0.418-0.035-0.833-0.277-1.181
	c-0.035-0.033-3.543-5.071-3.821-11.738v-0.209c-0.104-5.141,2.571-7.849,7.885-8.058c5.314,0.209,7.954,2.918,7.884,8.058v0.14
	c-0.277,6.735-3.785,11.773-3.822,11.808c-0.243,0.348-0.349,0.763-0.277,1.181c0,0,0.277,1.704,0.277,4.445
	c0,0.764,0.486,1.389,1.218,1.563c12.921,3.092,16.323,7.188,16.879,7.987c0.312,0.452,0.799,0.696,1.321,0.696
	c0.347,0,0.658-0.104,0.9-0.28C50.036,38.266,50.211,37.294,49.725,36.562z"/>
</svg>
