<?xml version="1.0" encoding="utf-8"?>
<!-- Generator: Adobe Illustrator 15.0.0, SVG Export Plug-In . SVG Version: 6.00 Build 0)  -->
<!DOCTYPE svg PUBLIC "-//W3C//DTD SVG 1.1//EN" "http://www.w3.org/Graphics/SVG/1.1/DTD/svg11.dtd">
<svg version="1.1" id="Layer_1" xmlns="http://www.w3.org/2000/svg" xmlns:xlink="http://www.w3.org/1999/xlink" x="0px" y="0px"
	 width="48.852px" height="54.904px" viewBox="0 0 48.852 54.904" enable-background="new 0 0 48.852 54.904" xml:space="preserve">
<path fill="#FFFFFF" d="M24.427,43.232H0l4.223-6.993c1.477-2.448,3.572-6.729,3.924-9.563L9.706,9.284
	c0.354-2.834,2.89-5.684,5.663-6.363l4.752-1.163c0.146-2.263,2.006-4.057,4.305-4.057c2.298,0,4.16,1.794,4.304,4.058l4.752,1.163
	c2.775,0.679,5.311,3.529,5.664,6.363l1.559,17.392c0.354,2.835,2.447,7.114,3.924,9.562l4.223,6.993H24.427L24.427,43.232z
	 M17.635,45.295c-0.01,0.161-0.048,0.312-0.048,0.474c0,3.777,3.062,6.837,6.838,6.837c3.779,0,6.841-3.06,6.841-6.837
	c0-0.161-0.037-0.312-0.049-0.474H17.635z"/>
</svg>
