<?xml version="1.0" encoding="utf-8"?>
<!-- Generator: Adobe Illustrator 15.0.0, SVG Export Plug-In . SVG Version: 6.00 Build 0)  -->
<!DOCTYPE svg PUBLIC "-//W3C//DTD SVG 1.1//EN" "http://www.w3.org/Graphics/SVG/1.1/DTD/svg11.dtd">
<svg version="1.1" id="Layer_1" xmlns="http://www.w3.org/2000/svg" xmlns:xlink="http://www.w3.org/1999/xlink" x="0px" y="0px"
	 width="66.685px" height="61.892px" viewBox="0 0 66.685 61.892" enable-background="new 0 0 66.685 61.892" xml:space="preserve">
<g>
	<path fill="#FFFFFF" d="M65.981,0H22.276c-0.39,0-0.706,0.316-0.706,0.706V8.6c0,0.39,0.315,0.705,0.706,0.705H57.38v43.283H22.276
		c-0.39,0-0.706,0.315-0.706,0.704v7.895c0,0.389,0.315,0.705,0.706,0.705H65.98c0.389,0,0.705-0.316,0.705-0.705V0.705
		C66.686,0.315,66.37,0,65.981,0z"/>
	<path fill="#FFFFFF" d="M27.21,46.607c0,0.262,0.144,0.5,0.374,0.623c0.104,0.055,0.217,0.083,0.331,0.083
		c0.138,0,0.275-0.042,0.393-0.121l23.291-15.661c0.195-0.131,0.312-0.351,0.312-0.584c0-0.236-0.117-0.455-0.312-0.586
		L28.308,14.699c-0.216-0.145-0.495-0.16-0.724-0.037c-0.23,0.123-0.374,0.361-0.374,0.622v9.262H0.705
		C0.315,24.546,0,24.862,0,25.251v11.39c0,0.389,0.315,0.704,0.705,0.704h26.504L27.21,46.607L27.21,46.607z"/>
</g>
</svg>
