<?xml version="1.0" encoding="utf-8"?>
<!-- Generator: Adobe Illustrator 15.0.0, SVG Export Plug-In . SVG Version: 6.00 Build 0)  -->
<!DOCTYPE svg PUBLIC "-//W3C//DTD SVG 1.1//EN" "http://www.w3.org/Graphics/SVG/1.1/DTD/svg11.dtd">
<svg version="1.1" id="Layer_1" xmlns="http://www.w3.org/2000/svg" xmlns:xlink="http://www.w3.org/1999/xlink" x="0px" y="0px"
	 width="116.801px" height="91.775px" viewBox="247 350 116.801 91.775" enable-background="new 247 350 116.801 91.775"
	 xml:space="preserve">
<g>
	<path fill="#FFFFFF" d="M315.926,412.277c7.062-2.978,12.637-7.027,16.719-12.156c4.087-5.125,6.125-10.711,6.125-16.75
		s-2.038-11.625-6.125-16.75c-4.086-5.129-9.655-9.18-16.719-12.156c-7.059-2.977-14.738-4.465-23.039-4.465
		c-8.301,0-15.981,1.488-23.043,4.465c-7.059,2.976-12.633,7.027-16.715,12.156c-4.086,5.129-6.129,10.711-6.129,16.75
		c0,5.172,1.543,10.039,4.629,14.602s7.324,8.41,12.711,11.535c-0.434,1.047-0.879,2-1.336,2.871c-0.457,0.867-1,1.703-1.629,2.508
		c-0.633,0.806-1.121,1.435-1.469,1.892c-0.347,0.457-0.91,1.098-1.695,1.922c-0.781,0.824-1.281,1.367-1.5,1.629
		c0-0.043-0.086,0.055-0.258,0.293c-0.176,0.238-0.273,0.348-0.293,0.328c-0.023-0.023-0.109,0.086-0.262,0.324
		c-0.152,0.237-0.23,0.358-0.23,0.358l-0.16,0.324c-0.067,0.129-0.11,0.258-0.133,0.391c-0.02,0.129-0.031,0.273-0.031,0.422
		c0,0.152,0.019,0.293,0.066,0.427c0.086,0.562,0.336,1.02,0.75,1.366c0.41,0.349,0.856,0.521,1.336,0.521h0.195
		c2.172-0.305,4.039-0.652,5.606-1.043c6.691-1.738,12.73-4.521,18.117-8.344c3.91,0.694,7.734,1.043,11.473,1.043
		C301.188,416.742,308.867,415.254,315.926,412.277L315.926,412.277z"/>
	<path fill="#FFFFFF" d="M359.172,414.691c3.086-4.543,4.629-9.418,4.629-14.634c0-5.348-1.633-10.348-4.891-14.997
		c-3.258-4.648-7.691-8.515-13.297-11.601c1,3.262,1.5,6.562,1.5,9.91c0,5.82-1.453,11.34-4.367,16.555
		c-2.91,5.211-7.082,9.816-12.516,13.816c-5.039,3.647-10.777,6.453-17.207,8.41c-6.431,1.952-13.146,2.93-20.142,2.93
		c-1.301,0-3.215-0.086-5.735-0.258c8.735,5.733,18.989,8.602,30.766,8.602c3.738,0,7.559-0.348,11.473-1.043
		c5.388,3.824,11.425,6.605,18.117,8.344c1.562,0.392,3.435,0.738,5.605,1.043c0.52,0.043,1-0.108,1.434-0.457
		c0.434-0.348,0.719-0.823,0.848-1.434c-0.02-0.258,0-0.402,0.066-0.422c0.062-0.021,0.051-0.164-0.031-0.422
		c-0.09-0.262-0.133-0.396-0.133-0.396l-0.16-0.323c-0.047-0.087-0.121-0.207-0.229-0.355c-0.109-0.152-0.195-0.262-0.263-0.328
		c-0.062-0.062-0.159-0.172-0.293-0.324c-0.129-0.151-0.215-0.25-0.258-0.293c-0.219-0.262-0.719-0.805-1.5-1.629
		s-1.348-1.465-1.695-1.922c-0.347-0.457-0.836-1.086-1.465-1.891c-0.629-0.806-1.172-1.642-1.629-2.513
		c-0.457-0.866-0.901-1.823-1.336-2.866C351.852,423.066,356.086,419.23,359.172,414.691L359.172,414.691z"/>
</g>
</svg>
