<?xml version="1.0" encoding="utf-8"?>
<!-- Generator: Adobe Illustrator 15.0.0, SVG Export Plug-In . SVG Version: 6.00 Build 0)  -->
<!DOCTYPE svg PUBLIC "-//W3C//DTD SVG 1.1//EN" "http://www.w3.org/Graphics/SVG/1.1/DTD/svg11.dtd">
<svg version="1.1" id="Layer_1" xmlns="http://www.w3.org/2000/svg" xmlns:xlink="http://www.w3.org/1999/xlink" x="0px" y="0px"
	 width="374.041px" height="75.046px" viewBox="0 0 374.041 75.046" enable-background="new 0 0 374.041 75.046"
	 xml:space="preserve">
<g>
	<polygon fill="#E84024" points="0,15.368 39.741,0 61.914,6.725 61.915,68.579 39.999,75.046 0.208,60.388 39.869,65.988 
		39.869,12.163 13.475,18.374 13.475,54.861 0.018,60.295 	"/>
	<path fill="#E84024" d="M106.265,62.692c-6.553,0-11.801-2.159-15.743-6.478c-3.943-4.318-5.914-9.937-5.914-16.854
		c0-7.434,2.009-13.363,6.027-17.79c4.017-4.425,9.485-6.639,16.403-6.639c6.382,0,11.521,2.149,15.421,6.446
		c3.899,4.298,5.849,9.916,5.849,16.855c0,7.541-1.997,13.503-5.994,17.886C118.318,60.501,112.968,62.692,106.265,62.692z
		 M106.652,19.831c-4.855,0-8.798,1.751-11.827,5.252c-3.029,3.502-4.544,8.1-4.544,13.793s1.477,10.275,4.431,13.745
		s6.806,5.204,11.554,5.204c5.071,0,9.067-1.654,11.988-4.962c2.922-3.31,4.383-7.94,4.383-13.891
		c0-6.102-1.418-10.817-4.254-14.147C115.547,21.496,111.637,19.831,106.652,19.831z"/>
	<path fill="#E84024" d="M152.994,17.704c-1.031-0.581-2.203-0.87-3.513-0.87c-3.696,0-5.543,2.332-5.543,6.994v5.092h7.734v4.511
		h-7.734v28.489h-5.253V33.43h-5.64v-4.511h5.64v-5.35c0-3.459,0.999-6.192,2.997-8.202c1.998-2.009,4.49-3.013,7.477-3.013
		c1.612,0,2.89,0.194,3.835,0.58V17.704z"/>
	<path fill="#E84024" d="M173.652,17.704c-1.032-0.581-2.202-0.87-3.513-0.87c-3.695,0-5.543,2.332-5.543,6.994v5.092h7.734v4.511
		h-7.734v28.489h-5.252V33.43h-5.64v-4.511h5.64v-5.35c0-3.459,0.999-6.192,2.997-8.202c1.998-2.009,4.49-3.013,7.477-3.013
		c1.611,0,2.89,0.194,3.835,0.58V17.704z M180.774,20.54c-0.967,0-1.784-0.322-2.45-0.967c-0.666-0.645-0.999-1.46-0.999-2.45
		c0-0.967,0.333-1.782,0.999-2.449c0.666-0.666,1.483-0.999,2.45-0.999c0.967,0,1.794,0.328,2.482,0.983
		c0.687,0.656,1.031,1.478,1.031,2.465c0,0.946-0.344,1.751-1.031,2.417C182.568,20.207,181.742,20.54,180.774,20.54z
		 M183.353,61.919h-5.286v-33h5.286V61.919z"/>
	<path fill="#E84024" d="M216.45,60.405c-2.535,1.524-5.544,2.287-9.023,2.287c-4.705,0-8.504-1.531-11.394-4.592
		c-2.89-3.062-4.334-7.031-4.334-11.908c0-5.436,1.558-9.802,4.674-13.101c3.114-3.297,7.271-4.946,12.472-4.946
		c2.9,0,5.457,0.537,7.67,1.611v5.414c-2.449-1.719-5.07-2.579-7.864-2.579c-3.372,0-6.138,1.209-8.298,3.625
		c-2.159,2.418-3.239,5.592-3.239,9.523c0,3.867,1.017,6.918,3.045,9.153c2.031,2.233,4.754,3.351,8.171,3.351
		c2.879,0,5.586-0.956,8.121-2.868V60.405z"/>
	<path fill="#E84024" d="M250.964,46.74h-23.3c0.085,3.674,1.074,6.51,2.965,8.508c1.89,1.999,4.49,2.997,7.799,2.997
		c3.717,0,7.133-1.225,10.249-3.674v4.963c-2.901,2.106-6.737,3.158-11.506,3.158c-4.662,0-8.325-1.498-10.989-4.495
		c-2.665-2.998-3.996-7.214-3.996-12.65c0-5.134,1.456-9.317,4.366-12.552c2.911-3.233,6.526-4.849,10.845-4.849
		s7.659,1.396,10.023,4.188c2.362,2.793,3.544,6.671,3.544,11.634V46.74z M245.55,42.261c-0.021-3.051-0.757-5.425-2.208-7.122
		c-1.449-1.697-3.464-2.546-6.043-2.546c-2.492,0-4.607,0.892-6.348,2.675s-2.815,4.114-3.223,6.993H245.55z"/>
	<path fill="#E84024" d="M275.908,60.211v-5.704c3.159,2.492,6.726,3.738,10.699,3.738c3.224,0,5.797-0.806,7.72-2.417
		c1.923-1.61,2.884-3.781,2.884-6.51c0-6.037-4.286-9.056-12.858-9.056h-3.836v-4.479h3.643c7.627,0,11.44-2.836,11.44-8.508
		c0-5.242-2.911-7.863-8.733-7.863c-3.244,0-6.306,1.107-9.185,3.319v-5.156c2.965-1.761,6.466-2.643,10.506-2.643
		c3.889,0,6.997,1.032,9.33,3.094c2.331,2.062,3.497,4.705,3.497,7.928c0,6.081-3.095,9.991-9.282,11.731v0.128
		c3.33,0.322,5.979,1.488,7.944,3.497c1.966,2.01,2.948,4.518,2.948,7.525c0,4.146-1.487,7.492-4.464,10.039
		c-2.977,2.546-6.901,3.818-11.778,3.818C282,62.692,278.508,61.866,275.908,60.211z"/>
	<path fill="#E84024" d="M337.366,16.254v4.995c-2.386-1.225-4.898-1.837-7.541-1.837c-4.104,0-7.386,1.827-9.846,5.479
		s-3.689,8.54-3.689,14.663h0.128c2.149-4.361,5.672-6.542,10.571-6.542c4.038,0,7.25,1.294,9.635,3.883
		c2.385,2.589,3.578,6.053,3.578,10.393c0,4.533-1.365,8.234-4.093,11.103c-2.729,2.868-6.199,4.302-10.409,4.302
		c-4.641,0-8.283-1.848-10.926-5.543c-2.643-3.694-3.964-8.884-3.964-15.565c0-8.1,1.729-14.566,5.189-19.4
		c3.459-4.834,8.024-7.252,13.696-7.252C332.917,14.932,335.475,15.373,337.366,16.254z M325.828,37.491
		c-2.728,0-4.942,0.924-6.638,2.771c-1.698,1.848-2.546,4.028-2.546,6.543c0,3.158,0.843,5.854,2.529,8.089
		c1.686,2.233,3.927,3.351,6.719,3.351c2.664,0,4.814-0.972,6.445-2.916c1.633-1.944,2.45-4.41,2.45-7.396
		c0-3.266-0.784-5.822-2.353-7.67S328.665,37.491,325.828,37.491z"/>
	<path fill="#E84024" d="M348.13,60.792v-5.608c3.157,2.041,6.369,3.062,9.635,3.062c3.265,0,5.898-0.923,7.896-2.771
		c1.998-1.848,2.997-4.297,2.997-7.348c0-3.029-1.021-5.394-3.062-7.09c-2.04-1.697-4.962-2.546-8.765-2.546
		c-1.289,0-3.708,0.129-7.252,0.387V15.706h22.365v4.769h-17.37V34.01c1.418-0.085,2.729-0.129,3.933-0.129
		c4.94,0,8.766,1.241,11.472,3.723c2.708,2.48,4.062,5.881,4.062,10.199c0,4.469-1.457,8.067-4.367,10.797
		c-2.912,2.729-6.901,4.092-11.973,4.092C353.425,62.692,350.236,62.059,348.13,60.792z"/>
</g>
</svg>
