<?xml version="1.0" encoding="utf-8"?>
<!-- Generator: Adobe Illustrator 16.0.0, SVG Export Plug-In . SVG Version: 6.00 Build 0)  -->
<!DOCTYPE svg PUBLIC "-//W3C//DTD SVG 1.1//EN" "http://www.w3.org/Graphics/SVG/1.1/DTD/svg11.dtd">
<svg version="1.1" id="Layer_1" xmlns="http://www.w3.org/2000/svg" xmlns:xlink="http://www.w3.org/1999/xlink" x="0px" y="0px"
	 width="138px" height="95px" viewBox="-44.091 -4.406 138 95" enable-background="new -44.091 -4.406 138 95" xml:space="preserve"
	>
<g>
	<path fill="#990000" d="M25.212,28.21c-1.919,0-3.476,1.556-3.476,3.475c0,1.92,1.557,3.476,3.476,3.476s3.476-1.556,3.476-3.476
		C28.688,29.765,27.132,28.21,25.212,28.21z M25.212,33.24c-0.86,0-1.557-0.693-1.557-1.556c0-0.86,0.695-1.557,1.557-1.557
		c0.859,0,1.556,0.695,1.556,1.557C26.768,32.545,26.072,33.24,25.212,33.24z"/>
	<path fill="#990000" d="M25.075,19.063c-4.074,0-7.995,1.677-11.038,4.72c-0.226,0.225-0.35,0.525-0.35,0.852
		c0,0.318,0.126,0.633,0.35,0.854c0.214,0.213,0.531,0.34,0.85,0.34c0.284,0,0.575-0.102,0.886-0.342
		c2.563-2.578,5.868-3.999,9.308-3.999c3.424,0,6.719,1.409,9.274,3.964c0.44,0.447,1.267,0.443,1.703,0.004
		c0.221-0.22,0.35-0.531,0.35-0.851c0.001-0.319-0.125-0.632-0.35-0.854C33.036,20.728,29.135,19.063,25.075,19.063z"/>
	<path fill="#990000" d="M49.607,9.637C47.854,8.029,38.413,0,24.991,0C16.533,0,8.275,3.235,0.465,9.598
		c-0.257,0.191-0.424,0.49-0.458,0.818c-0.033,0.314,0.052,0.625,0.206,0.825c0.192,0.321,0.565,0.521,0.974,0.521
		c0.292,0,0.555-0.098,0.808-0.301C12.333,3.003,23.298,0.384,34.338,3.727c8.229,2.518,13.567,7.611,13.62,7.663
		c0.449,0.447,1.25,0.449,1.703-0.002C50.121,10.927,50.121,10.148,49.607,9.637z"/>
	<path fill="#990000" d="M25.132,9.18c-7.004,0-13.702,2.681-18.377,7.355c-0.46,0.461-0.46,1.241,0,1.704
		c0.213,0.213,0.531,0.34,0.851,0.34c0.233,0,0.492-0.084,0.77-0.25l0.116-0.09c4.225-4.226,10.294-6.648,16.651-6.648
		c6.32,0,12.343,2.399,16.526,6.582c0.449,0.449,1.251,0.451,1.704-0.002c0.459-0.46,0.459-1.238-0.001-1.702
		C38.74,11.838,32.093,9.18,25.132,9.18z"/>
</g>
<g>
	<path d="M-26.425,43.451v11.64c0,4.561-3.15,6.3-6.569,6.3c-3.45,0-6.57-1.739-6.57-6.3v-11.64h1.59v11.31
		c0,3.841,2.221,5.311,4.98,5.311s5.01-1.47,5.01-5.25v-11.37H-26.425z"/>
	<path d="M-22.134,56.379c0.42,2.552,2.01,3.75,4.409,3.75c2.49,0,4.11-1.108,4.11-3.329c0-2.101-1.2-3-4.29-4.021
		c-2.64-0.84-5.13-1.739-5.13-4.949c0-3.45,2.64-4.681,5.25-4.681c3.09,0,5.28,1.29,5.64,4.649l-1.529,0.24
		c-0.33-2.46-1.771-3.601-4.08-3.601c-2.13,0-3.721,1.021-3.721,3.271c0,2.221,1.65,2.851,4.5,3.779c2.761,0.9,4.95,1.979,4.95,5.13
		c0,3.21-2.43,4.771-5.729,4.771c-3.36,0-5.399-1.529-5.879-4.709L-22.134,56.379z"/>
	<path d="M5.045,57.64c-1.351,2.52-3.391,3.749-6.569,3.749c-4.59,0-7.649-3.149-7.649-9.061c0-5.909,3.239-9.148,7.919-9.148
		c3.06,0,5.159,1.351,6.3,4.199l-1.41,0.689c-0.84-2.34-2.58-3.539-4.98-3.539c-3.93,0-6.18,2.97-6.18,7.799
		c0,4.771,2.101,7.65,6.061,7.65c2.58,0,4.199-1.021,5.369-3.24L5.045,57.64z"/>
	<path d="M14.584,56.379c0.42,2.552,2.01,3.75,4.41,3.75c2.489,0,4.109-1.108,4.109-3.329c0-2.101-1.2-3-4.29-4.021
		c-2.64-0.84-5.13-1.739-5.13-4.949c0-3.45,2.641-4.681,5.25-4.681c3.09,0,5.28,1.29,5.641,4.649l-1.53,0.24
		c-0.33-2.46-1.771-3.601-4.08-3.601c-2.13,0-3.72,1.021-3.72,3.271c0,2.221,1.649,2.851,4.5,3.779c2.76,0.9,4.949,1.979,4.949,5.13
		c0,3.21-2.43,4.771-5.729,4.771c-3.36,0-5.399-1.529-5.879-4.709L14.584,56.379z"/>
	<path d="M37.114,57.43l1.351,0.3c-0.51,2.64-2.49,3.659-5.13,3.659c-3.569,0-5.851-2.431-5.851-7.17c0-4.59,2.28-7.229,5.939-7.229
		c3.36,0,5.07,2.341,5.07,5.521c0,0.689-0.091,1.319-0.181,1.771h-9.359c0,3.72,1.681,5.88,4.5,5.88
		C35.435,60.16,36.604,59.35,37.114,57.43z M36.964,53.02c0.03-0.271,0.03-0.511,0.03-0.811c0-2.221-1.29-3.96-3.66-3.96
		c-2.58,0-4.05,1.771-4.319,4.771H36.964z"/>
	<path d="M52.174,57.549c-0.479,2.762-2.521,3.841-5.189,3.841c-3.479,0-5.76-2.431-5.76-7.141c0-4.619,2.25-7.26,5.939-7.26
		c2.939,0,4.62,1.5,4.859,4.41l-1.41,0.21c-0.27-2.16-1.409-3.3-3.539-3.3c-2.851,0-4.381,2.31-4.381,5.97
		c0,3.6,1.682,5.85,4.41,5.85c2.07,0,3.3-0.96,3.78-2.85L52.174,57.549z"/>
	<path d="M64.055,58.089c-0.601,2.13-2.22,3.301-4.5,3.301c-2.52,0-4.229-1.289-4.229-4.561V47.26h1.528v9.391
		c0,2.46,1.08,3.568,3.09,3.568c2.131,0,4.08-1.77,4.08-4.919v-8.04h1.53v13.86h-1.29L64.055,58.089z"/>
	<path d="M76.984,48.85c-0.329-0.15-0.778-0.21-1.289-0.21c-2.34,0-3.989,2.279-3.989,5.278v7.2h-1.53V47.26h1.261l0.21,3.931
		c0.42-2.49,2.011-4.17,4.561-4.17c0.358,0,0.688,0.061,0.93,0.149L76.984,48.85z"/>
	<path d="M87.875,57.43l1.35,0.3c-0.51,2.64-2.49,3.659-5.13,3.659c-3.569,0-5.85-2.431-5.85-7.17c0-4.59,2.279-7.229,5.938-7.229
		c3.36,0,5.07,2.341,5.07,5.521c0,0.689-0.09,1.319-0.18,1.771h-9.36c0,3.72,1.681,5.88,4.5,5.88
		C86.195,60.16,87.365,59.35,87.875,57.43z M87.725,53.02c0.03-0.271,0.03-0.511,0.03-0.811c0-2.221-1.29-3.96-3.66-3.96
		c-2.58,0-4.05,1.771-4.319,4.771H87.725z"/>
	<path d="M-7.854,80.339c0.721,2.67,1.08,4.562,1.08,4.562h0.12c0,0,0.33-1.801,1.08-4.53l3.3-12.119h1.59L-5.634,85.92h-2.221
		l-3.21-11.729c-0.75-2.7-0.99-4.439-0.99-4.439h-0.09c0,0-0.239,1.649-0.989,4.439l-3.209,11.729h-2.221l-4.95-17.669h1.681
		l3.3,12.061c0.75,2.76,1.08,4.59,1.08,4.59h0.09c0,0,0.33-1.86,1.08-4.562l3.39-12.089h1.74L-7.854,80.339z"/>
	<path d="M2.795,66.63c0.66,0,1.17,0.511,1.17,1.17c0,0.631-0.51,1.109-1.17,1.109c-0.63,0-1.11-0.479-1.11-1.109
		C1.685,67.14,2.165,66.63,2.795,66.63z M3.575,72.06v13.858h-1.53V72.06H3.575z"/>
	<path d="M15.004,73.65c-0.33-0.15-0.78-0.21-1.29-0.21c-2.34,0-3.99,2.279-3.99,5.279v7.199h-1.53V72.06h1.261l0.21,3.93
		c0.42-2.49,2.01-4.17,4.56-4.17c0.36,0,0.69,0.061,0.93,0.149L15.004,73.65z"/>
	<path d="M25.895,82.23l1.351,0.3c-0.511,2.64-2.49,3.659-5.13,3.659c-3.57,0-5.851-2.431-5.851-7.169c0-4.59,2.28-7.23,5.94-7.23
		c3.359,0,5.069,2.341,5.069,5.521c0,0.688-0.09,1.318-0.18,1.77h-9.36c0,3.72,1.681,5.88,4.5,5.88
		C24.214,84.959,25.384,84.15,25.895,82.23z M25.744,77.82c0.029-0.271,0.029-0.51,0.029-0.811c0-2.221-1.29-3.96-3.66-3.96
		c-2.579,0-4.05,1.771-4.319,4.771H25.744z"/>
	<path d="M34.474,85.919c-0.51,0.12-0.84,0.15-1.2,0.15c-1.56,0-2.55-0.87-2.55-2.61V65.88h1.53v17.37c0,1.11,0.54,1.5,1.29,1.5
		c0.39,0,0.63-0.06,0.93-0.149V85.919z"/>
	<path d="M46.145,82.23l1.351,0.3c-0.511,2.64-2.49,3.659-5.13,3.659c-3.569,0-5.851-2.431-5.851-7.169c0-4.59,2.28-7.23,5.939-7.23
		c3.359,0,5.069,2.341,5.069,5.521c0,0.688-0.09,1.318-0.18,1.77h-9.36c0,3.72,1.682,5.88,4.5,5.88
		C44.465,84.959,45.635,84.15,46.145,82.23z M45.994,77.82c0.029-0.271,0.029-0.51,0.029-0.811c0-2.221-1.29-3.96-3.66-3.96
		c-2.579,0-4.05,1.771-4.318,4.771H45.994z"/>
	<path d="M51.305,82.29c0.301,1.86,1.681,2.7,3.63,2.7c2.102,0,3.45-0.721,3.45-2.46c0-1.53-0.87-2.312-2.76-2.76l-1.8-0.45
		c-2.25-0.54-3.45-1.562-3.45-3.69c0-2.818,2.25-3.84,4.62-3.84c2.67,0,4.35,1.021,4.71,3.66l-1.472,0.18
		c-0.238-1.829-1.29-2.64-3.238-2.64c-1.92,0-3.181,0.84-3.181,2.49c0,1.47,0.75,2.1,2.489,2.52l1.771,0.45
		c2.278,0.6,3.749,1.5,3.749,3.93c0,2.67-2.039,3.811-4.891,3.811c-2.818,0-4.529-1.079-5.068-3.479L51.305,82.29z"/>
	<path d="M63.274,82.29c0.302,1.86,1.682,2.7,3.63,2.7c2.102,0,3.45-0.721,3.45-2.46c0-1.53-0.87-2.312-2.76-2.76l-1.8-0.45
		c-2.25-0.54-3.45-1.562-3.45-3.69c0-2.818,2.25-3.84,4.62-3.84c2.67,0,4.35,1.021,4.71,3.66l-1.471,0.18
		c-0.239-1.829-1.29-2.64-3.239-2.64c-1.92,0-3.18,0.84-3.18,2.49c0,1.47,0.75,2.1,2.488,2.52l1.771,0.45
		c2.278,0.6,3.749,1.5,3.749,3.93c0,2.67-2.039,3.811-4.891,3.811c-2.818,0-4.528-1.079-5.068-3.479L63.274,82.29z"/>
</g>
</svg>
