<?xml version="1.0" encoding="utf-8"?>
<!-- Generator: Adobe Illustrator 15.0.0, SVG Export Plug-In . SVG Version: 6.00 Build 0)  -->
<!DOCTYPE svg PUBLIC "-//W3C//DTD SVG 1.1//EN" "http://www.w3.org/Graphics/SVG/1.1/DTD/svg11.dtd">
<svg version="1.1" id="Layer_1" xmlns="http://www.w3.org/2000/svg" xmlns:xlink="http://www.w3.org/1999/xlink" x="0px" y="0px"
	 width="500px" height="32.549px" viewBox="0 0 500 32.549" enable-background="new 0 0 500 32.549" xml:space="preserve">
<path fill="#FFCD05" d="M2.819,3.94c0-1.089-0.256-1.602-1.089-1.602H0.257C0.064,2.338,0,2.275,0,2.05V1.313
	c0-0.192,0.064-0.256,0.321-0.256c0.32,0,1.858,0.096,4.934,0.096c2.691,0,4.229-0.096,4.613-0.096c0.192,0,0.256,0.064,0.256,0.224
	v0.801c0,0.193-0.064,0.256-0.256,0.256H8.522c-0.961,0-1.538,0.577-1.57,1.25C6.92,3.972,6.856,5.895,6.856,7.753v3.972
	c0,1.603,0.032,3.877,0.097,4.902c0.096,1.474,0.352,2.947,1.121,3.972c1.089,1.475,2.819,1.986,4.357,1.986
	c1.474,0,3.268-0.577,4.293-1.538c1.217-1.218,1.858-3.075,1.858-5.415V9.867c0-2.563-0.256-5.382-0.352-6.119
	c-0.097-0.833-0.609-1.41-1.313-1.41h-1.154c-0.192,0-0.256-0.096-0.256-0.224V1.313c0-0.192,0.064-0.256,0.256-0.256
	c0.32,0,1.794,0.096,3.909,0.096c1.986,0,3.012-0.096,3.268-0.096c0.289,0,0.32,0.096,0.32,0.256V2.05
	c0,0.192-0.032,0.288-0.192,0.288h-1.153c-1.153,0-1.282,0.897-1.346,1.25c-0.064,0.384-0.064,4.87-0.064,5.286
	c0,0.449-0.064,6.023-0.192,7.305c-0.192,2.626-0.961,4.613-2.691,6.151c-1.346,1.218-3.396,1.987-5.831,1.987
	c-1.538,0-3.396-0.258-4.614-0.77c-1.858-0.77-3.139-2.242-3.78-4.293c-0.449-1.41-0.577-3.524-0.577-7.721L2.819,3.94L2.819,3.94z"
	/>
<path fill="#FFCD05" d="M26.723,16.691c0.128,0,0.191,0.064,0.191,0.257c0.064,1.025,0.32,2.242,1.218,3.652
	c0.961,1.537,2.627,2.307,4.229,2.307c1.729,0,4.164-1.09,4.164-3.749c0-2.948-1.346-3.909-4.741-5.19
	c-1.025-0.385-3.14-1.282-4.678-2.691c-1.09-1.025-1.602-2.627-1.602-4.581c0-1.794,0.705-3.268,2.242-4.485
	c1.281-1.089,2.691-1.538,4.55-1.538c2.114,0,3.396,0.513,4.037,0.769c0.32,0.128,0.512,0.064,0.673-0.096l0.416-0.417
	c0.127-0.128,0.256-0.192,0.447-0.192c0.193,0,0.257,0.192,0.257,0.513c0,0.512,0.513,4.998,0.513,5.318
	c0,0.128-0.063,0.192-0.192,0.225l-0.512,0.16c-0.129,0.032-0.257,0-0.32-0.193c-0.32-0.896-0.833-2.178-1.987-3.396
	c-0.832-0.897-1.858-1.346-3.331-1.346c-2.563,0-3.589,2.05-3.589,3.236c0,1.089,0.129,2.05,0.897,2.883
	c0.833,0.833,2.627,1.602,3.909,1.986c1.857,0.577,3.395,1.218,4.612,2.499c1.026,1.089,1.602,2.435,1.602,4.581
	c0,3.907-2.562,7.112-6.791,7.112c-2.627,0-4.165-0.576-5.446-1.537c-0.385-0.256-0.577-0.385-0.769-0.385
	c-0.192,0-0.32,0.256-0.513,0.576s-0.32,0.385-0.577,0.385c-0.256,0-0.384-0.192-0.384-0.513c0.064-0.384,0.513-5.573,0.577-5.959
	c0.032-0.192,0.064-0.256,0.191-0.256L26.723,16.691z"/>
<path fill="#FFCD05" d="M64.208,18.612c0.096,0.097,0.128,0.193,0.063,0.32c-1.922,2.756-4.997,5.383-9.546,5.383
	c-4.102,0-6.408-1.217-8.395-3.012c-2.371-2.115-3.459-5.831-3.459-8.65c0-3.14,1.024-6.151,3.267-8.586
	c1.73-1.858,4.485-3.396,8.33-3.396c2.947,0,5.318,0.897,6.471,1.538c0.449,0.256,0.577,0.256,0.642,0l0.256-0.833
	c0.064-0.192,0.129-0.192,0.513-0.192c0.384,0,0.448,0.064,0.448,0.512c0,0.577,0.642,5.703,0.77,6.664
	c0.031,0.192,0,0.288-0.128,0.32l-0.608,0.192c-0.161,0.064-0.257-0.064-0.354-0.32c-0.385-1.153-1.152-2.755-2.499-4.165
	c-1.409-1.345-3.074-2.371-5.573-2.371c-5.127,0-7.241,4.614-7.241,9.227c0,1.987,0.576,5.767,2.947,8.33
	c2.115,2.241,3.974,2.499,5.51,2.499c3.525,0,6.312-1.764,7.657-3.717c0.161-0.225,0.289-0.32,0.385-0.225L64.208,18.612z"/>
<path fill="#FFFFFF" d="M77.859,10.412c0-0.769-0.097-6.536-0.128-7.016c-0.064-0.769-0.385-1.089-1.603-1.089h-1.857
	c-0.16,0-0.257-0.064-0.257-0.192V1.25c0-0.128,0.097-0.192,0.225-0.192c0.384,0,2.019,0.096,4.998,0.096
	c2.851,0,3.877-0.096,4.325-0.096c0.16,0,0.225,0.096,0.225,0.224v0.801c0,0.16-0.098,0.225-0.257,0.225h-1.506
	c-0.641,0-1.121,0.256-1.121,0.897c0,0.32-0.097,7.4-0.097,7.785v2.466c0,0.32,0.097,7.721,0.097,8.074
	c0,0.992,0.48,1.152,1.505,1.152h1.314c0.16,0,0.256,0.064,0.256,0.226v0.833c0,0.128-0.096,0.191-0.289,0.191
	c-0.384,0-1.665-0.096-4.452-0.096c-3.044,0-4.421,0.096-4.773,0.096c-0.161,0-0.257-0.063-0.257-0.191v-0.865
	c0-0.128,0.096-0.191,0.257-0.191h1.794c0.641,0,1.313-0.097,1.441-0.93c0.063-0.48,0.16-7.401,0.16-9.099V10.412L77.859,10.412z"/>
<path fill="#FFFFFF" d="M99.615,22.104c0,0.514,0.287,0.674,0.704,0.674h1.025c0.288,0,0.353,0.096,0.353,0.287v0.513
	c0,0.225-0.064,0.353-0.257,0.353c-0.224,0-1.217-0.096-3.043-0.096c-1.635,0-2.659,0.096-2.884,0.096
	c-0.191,0-0.256-0.096-0.256-0.353v-0.513c0-0.224,0.096-0.287,0.417-0.287h0.929c0.353,0,0.608-0.16,0.641-0.737
	c0.032-0.833,0.063-1.856,0.063-2.69v-4.229c0-1.282,0-2.211-0.929-2.883c-0.769-0.577-1.538-0.577-2.338-0.577
	c-0.514,0-1.635,0.224-2.596,1.249c-0.641,0.705-0.736,1.57-0.736,2.179v6.631c0,0.865,0.096,1.059,0.768,1.059h0.802
	c0.257,0,0.32,0.096,0.32,0.32v0.545c0,0.191-0.063,0.287-0.225,0.287c-0.224,0-1.089-0.096-2.787-0.096
	c-1.634,0-2.658,0.096-2.852,0.096c-0.159,0-0.224-0.096-0.224-0.287v-0.578c0-0.191,0.064-0.287,0.32-0.287h0.93
	c0.416,0,0.641-0.096,0.641-0.641V14.64c0-0.961-0.513-1.506-1.314-1.89l-0.256-0.128c-0.224-0.096-0.256-0.192-0.256-0.289v-0.16
	c0-0.16,0.128-0.256,0.288-0.32l2.756-1.538c0.255-0.128,0.447-0.224,0.575-0.224c0.161,0,0.225,0.128,0.257,0.384l0.225,1.954
	h0.063c0.93-1.153,2.787-2.338,4.39-2.338c0.961,0,1.953,0.192,2.723,0.705c0.961,0.641,1.763,2.243,1.763,3.043V22.104z"/>
<path fill="#FFFFFF" d="M103.525,11.982c-0.16,0-0.225-0.064-0.16-0.353l0.128-0.961c0.032-0.192,0.128-0.224,0.384-0.224h1.858
	V9.867c0-3.171,0.897-5.254,2.146-6.664c1.699-1.858,3.46-2.531,5.255-2.531c1.506,0,2.915,0.577,2.915,1.794
	c0,0.769-0.833,1.377-1.346,1.377c-0.32,0-0.641-0.064-0.897-0.192c-0.288-0.16-0.641-0.576-0.768-0.736
	c-0.418-0.513-0.865-0.737-1.475-0.737c-0.833,0-1.698,0.224-2.403,1.122c-1.186,1.506-1.12,4.293-1.12,6.535v0.609h3.876
	c0.225,0,0.257,0.192,0.225,0.32l-0.161,1.058c-0.031,0.128-0.159,0.16-0.416,0.16h-3.523v2.883c0,3.78,0,6.729,0.032,7.081
	c0.063,0.544,0.159,0.832,0.832,0.832h1.826c0.288,0,0.353,0.064,0.353,0.257v0.513c0,0.256-0.064,0.385-0.224,0.385
	c-0.192,0-1.379-0.097-3.846-0.097c-1.761,0-3.396,0.097-3.651,0.097c-0.192,0-0.256-0.064-0.256-0.226v-0.704
	c0-0.161,0.063-0.225,0.32-0.225h1.537c0.609,0,0.737-0.385,0.769-1.122v-9.675L103.525,11.982L103.525,11.982z"/>
<path fill="#FFFFFF" d="M115.284,22.009c-1.474-1.762-1.762-2.947-1.762-5.222c0-1.634,0.865-3.685,2.755-5.158
	c1.666-1.282,3.235-1.538,4.293-1.538c1.762,0,3.524,0.897,4.485,1.858c1.441,1.474,2.179,3.14,2.179,5.222
	c0,3.492-3.14,7.047-7.081,7.047C118.616,24.219,116.63,23.61,115.284,22.009z M124.543,16.851c0-3.556-2.595-5.798-4.229-5.798
	c-0.865,0-1.698,0.192-2.467,1.025c-1.25,1.282-1.698,2.595-1.698,5.03c0,1.793,0.191,3.011,1.218,4.484
	c0.736,1.057,1.666,1.665,3.172,1.665C122.974,23.258,124.543,20.278,124.543,16.851z"/>
<path fill="#FFFFFF" d="M131.465,15.313c0-1.634-0.256-1.954-1.153-2.435l-0.608-0.32c-0.193-0.064-0.257-0.096-0.257-0.225v-0.192
	c0-0.128,0.063-0.192,0.257-0.289l3.171-1.634c0.192-0.096,0.32-0.128,0.449-0.128c0.191,0,0.224,0.192,0.224,0.384l0.16,2.274
	h0.128c0.961-1.474,2.467-2.787,3.846-2.787c1.089,0,1.633,0.673,1.633,1.41c0,0.929-0.769,1.57-1.345,1.57
	c-0.354,0-0.674-0.128-0.929-0.256c-0.257-0.16-0.642-0.256-1.059-0.256c-0.512,0-1.345,0.32-1.89,1.345
	c-0.191,0.353-0.32,0.929-0.32,1.025v6.664c0,0.993,0.225,1.313,0.897,1.313h1.506c0.191,0,0.224,0.096,0.224,0.287v0.578
	c0,0.191-0.032,0.287-0.16,0.287c-0.192,0-1.666-0.096-3.396-0.096c-1.985,0-3.332,0.096-3.523,0.096
	c-0.129,0-0.192-0.063-0.192-0.32v-0.545c0-0.224,0.063-0.287,0.353-0.287h1.249c0.481,0,0.706-0.192,0.706-0.609
	c0.031-1.059,0.031-2.18,0.031-3.844v-3.01H131.465z"/>
<path fill="#FFFFFF" d="M151.425,15.634c0-2.371-0.449-2.979-0.961-3.46c-0.417-0.384-1.347-0.577-2.051-0.577
	c-0.833,0-2.179,0.417-3.076,1.858c-0.384,0.641-0.447,1.25-0.447,2.147v6.342c0,0.514,0.191,0.834,0.641,0.834h1.153
	c0.287,0,0.32,0.063,0.32,0.287v0.513c0,0.225-0.033,0.353-0.257,0.353c-0.288,0-1.153-0.096-2.916-0.096
	c-1.697,0-2.722,0.096-2.979,0.096c-0.192,0-0.257-0.063-0.257-0.287v-0.578c0-0.256,0.064-0.287,0.385-0.287h1.09
	c0.288,0,0.448-0.192,0.479-0.801c0.032-0.545,0.032-1.121,0.032-1.666v-5.703c0-0.641-0.128-1.217-0.896-1.634l-0.674-0.352
	c-0.159-0.096-0.223-0.16-0.223-0.256V12.11c0-0.096,0.127-0.225,0.191-0.256l2.819-1.441c0.256-0.128,0.48-0.192,0.608-0.192
	c0.192,0,0.288,0.224,0.288,0.448l0.129,1.858h0.096c0.961-1.313,2.852-2.435,4.71-2.435c1.665,0,2.946,0.961,3.62,2.467h0.16
	c0.961-1.25,2.787-2.467,4.709-2.467c1.122,0,2.114,0.192,2.884,0.961c0.736,0.77,1.537,1.474,1.537,3.94v7.145
	c0,0.48,0.288,0.641,0.674,0.641h0.864c0.288,0,0.353,0.063,0.353,0.287v0.545c0,0.225-0.064,0.32-0.224,0.32
	c-0.225,0-1.122-0.096-2.66-0.096c-1.602,0-2.755,0.096-2.979,0.096c-0.192,0-0.257-0.096-0.257-0.32v-0.545
	c0-0.224,0.064-0.287,0.416-0.287h0.802c0.353,0,0.608-0.16,0.641-0.609c0.063-0.736,0.063-1.891,0.063-2.595v-4.742
	c0-1.058-0.192-1.986-0.929-2.563c-0.577-0.448-1.409-0.673-2.371-0.673c-0.961,0-2.274,0.737-2.786,1.666
	c-0.481,0.929-0.449,1.794-0.449,3.236v5.542c0,0.417,0.16,0.736,0.641,0.736h1.09c0.288,0,0.353,0.064,0.353,0.289v0.512
	c0,0.257-0.064,0.354-0.225,0.354c-0.225,0-1.058-0.097-2.852-0.097c-1.73,0-2.819,0.097-3.012,0.097
	c-0.16,0-0.224-0.097-0.224-0.322v-0.512c0-0.256,0.032-0.32,0.32-0.32h0.93c0.512,0,0.704-0.127,0.704-0.543v-6.6H151.425z"/>
<path fill="#FFFFFF" d="M176.993,22.426c0.513,0,0.961-0.256,1.121-0.479c0.129-0.16,0.192-0.225,0.32-0.129l0.32,0.258
	c0.097,0.096,0.161,0.256-0.032,0.576c-0.255,0.48-0.864,1.568-2.499,1.568c-1.152,0-1.985-0.832-2.273-2.146h-0.064
	c-0.673,0.801-1.73,1.474-3.171,1.954c-0.609,0.191-1.186,0.191-1.891,0.191c-0.77,0-1.923-0.641-1.923-2.658
	c0-1.475,0.674-2.756,3.204-3.877c1.441-0.641,3.107-1.41,3.62-1.857v-2.051c-0.064-0.544-0.096-1.377-0.448-1.793
	c-0.353-0.417-0.993-0.705-1.922-0.705c-0.641,0-1.635,0.256-2.083,0.673c-0.448,0.417-0.16,0.897-0.16,1.474
	c0,1.121-0.385,1.826-1.698,1.826c-0.513,0-0.769-0.289-0.769-1.025c0-1.025,0.896-2.242,2.211-3.011
	c1.345-0.801,2.467-1.121,3.908-1.121c1.506,0,2.114,0.448,2.562,0.865c0.674,0.673,0.705,1.41,0.705,2.275v6.792
	C176.032,21.849,176.417,22.426,176.993,22.426z M173.693,16.788c-1.152,0.865-4.293,1.505-4.293,4.164
	c0,1.186,0.705,1.763,1.666,1.763c0.93,0,2.627-1.121,2.627-1.985V16.788z"/>
<path fill="#FFFFFF" d="M184.363,19.831c0,2.402,1.09,2.818,1.666,2.818c0.737,0,1.666-0.127,2.115-0.416
	c0.159-0.096,0.287-0.063,0.384,0.063l0.16,0.289c0.097,0.128,0.031,0.256-0.064,0.353c-0.32,0.319-1.634,1.28-3.556,1.28
	c-1.569,0-3.107-1.505-3.107-2.723c0-1.313,0.096-4.134,0.096-4.581V16.21c0-0.577,0.032-2.755,0.064-4.101h-1.954
	c-0.289,0-0.481-0.128-0.481-0.385c0-0.256,0.192-0.352,0.577-0.576c0.77-0.449,3.236-2.916,3.652-4.005
	c0.096-0.256,0.257-0.32,0.448-0.32c0.256,0,0.32,0.224,0.32,0.479l-0.16,3.14h4.453c0.192,0,0.288,0.16,0.225,0.289l-0.32,1.121
	c-0.032,0.16-0.096,0.256-0.288,0.256h-4.133c-0.063,1.474-0.097,3.043-0.097,4.518V19.831L184.363,19.831z"/>
<path fill="#FFFFFF" d="M192.438,14.513c0-1.089-0.192-1.666-1.794-1.922c-0.225-0.032-0.288-0.096-0.288-0.224v-0.289
	c0-0.096,0.063-0.16,0.224-0.224c1.025-0.384,2.243-0.897,3.46-1.57c0.257-0.128,0.417-0.192,0.608-0.192
	c0.161,0,0.192,0.16,0.161,0.384c-0.064,0.545-0.064,2.563-0.064,5.222v3.492c0,1.25,0,2.402,0.032,2.754
	c0.063,0.609,0.16,0.834,0.513,0.834h1.474c0.256,0,0.32,0.096,0.32,0.287v0.545c0,0.225-0.064,0.32-0.289,0.32
	c-0.255,0-1.729-0.096-3.075-0.096c-1.857,0-3.107,0.096-3.46,0.096c-0.16,0-0.256-0.063-0.256-0.257v-0.641
	c0-0.192,0.096-0.257,0.32-0.257h1.57c0.352,0,0.479-0.127,0.512-0.641c0.032-0.961,0.032-1.953,0.032-2.914V14.513L192.438,14.513z
	 M190.933,4.677c0-0.833,0.704-1.794,2.018-1.794c1.186,0,1.73,0.961,1.73,1.698c0,0.865-0.577,1.891-1.923,1.891
	C192.021,6.472,190.933,5.734,190.933,4.677z"/>
<path fill="#FFFFFF" d="M200.608,22.009c-1.474-1.762-1.762-2.947-1.762-5.222c0-1.634,0.865-3.685,2.755-5.158
	c1.666-1.282,3.235-1.538,4.293-1.538c1.762,0,3.524,0.897,4.485,1.858c1.441,1.474,2.179,3.14,2.179,5.222
	c0,3.492-3.14,7.047-7.081,7.047C203.939,24.219,201.954,23.61,200.608,22.009z M209.866,16.851c0-3.556-2.594-5.798-4.228-5.798
	c-0.865,0-1.699,0.192-2.467,1.025c-1.25,1.282-1.699,2.595-1.699,5.03c0,1.793,0.192,3.011,1.218,4.484
	c0.737,1.057,1.667,1.665,3.172,1.665C208.297,23.258,209.866,20.278,209.866,16.851z"/>
<path fill="#FFFFFF" d="M227.874,22.104c0,0.514,0.288,0.674,0.704,0.674h1.026c0.288,0,0.353,0.096,0.353,0.287v0.513
	c0,0.225-0.064,0.353-0.257,0.353c-0.225,0-1.218-0.096-3.044-0.096c-1.634,0-2.658,0.096-2.883,0.096
	c-0.192,0-0.257-0.096-0.257-0.353v-0.513c0-0.224,0.096-0.287,0.417-0.287h0.929c0.353,0,0.608-0.16,0.641-0.737
	c0.033-0.833,0.064-1.856,0.064-2.69v-4.229c0-1.282,0-2.211-0.929-2.883c-0.77-0.577-1.538-0.577-2.339-0.577
	c-0.513,0-1.634,0.224-2.595,1.249c-0.641,0.705-0.737,1.57-0.737,2.179v6.631c0,0.865,0.097,1.059,0.769,1.059h0.801
	c0.257,0,0.321,0.096,0.321,0.32v0.545c0,0.191-0.064,0.287-0.225,0.287c-0.225,0-1.09-0.096-2.787-0.096
	c-1.634,0-2.659,0.096-2.852,0.096c-0.16,0-0.225-0.096-0.225-0.287v-0.578c0-0.191,0.064-0.287,0.32-0.287h0.93
	c0.416,0,0.641-0.096,0.641-0.641V14.64c0-0.961-0.513-1.506-1.313-1.89l-0.257-0.128c-0.224-0.096-0.256-0.192-0.256-0.289v-0.16
	c0-0.16,0.129-0.256,0.288-0.32l2.756-1.538c0.256-0.128,0.447-0.224,0.576-0.224c0.16,0,0.225,0.128,0.257,0.384l0.224,1.954H219
	c0.93-1.153,2.787-2.338,4.39-2.338c0.961,0,1.953,0.192,2.722,0.705c0.961,0.641,1.763,2.243,1.763,3.043L227.874,22.104
	L227.874,22.104z"/>
<path fill="#FFFFFF" d="M246.78,2.307h-0.802c-1.024,0-3.812,0-5.062,0.384c-1.441,0.449-2.403,2.691-2.851,3.716
	c-0.064,0.16-0.161,0.192-0.32,0.16l-0.577-0.16c-0.096-0.032-0.192-0.064-0.129-0.256c0.32-1.153,1.442-5.286,1.506-5.639
	C238.61,0.096,238.738,0,238.866,0c0.161,0,0.257,0.032,0.386,0.128l0.416,0.289c0.576,0.416,0.896,0.513,1.826,0.544
	c1.697,0.064,3.043,0.192,6.055,0.192h1.537c3.492,0,4.87-0.127,6.439-0.192c0.705-0.032,1.121-0.128,1.666-0.449l0.608-0.384
	C257.961,0.032,258.057,0,258.186,0c0.16,0,0.225,0.096,0.287,0.512c0.064,0.385,0.674,4.357,0.93,5.767
	c0.033,0.16-0.031,0.225-0.19,0.257l-0.515,0.128c-0.127,0.032-0.159,0-0.256-0.225c-0.256-0.608-1.217-3.075-2.273-3.588
	c-0.961-0.48-3.973-0.544-5.543-0.544h-0.896v9.13c0,0.448,0,9.419,0.031,9.962c0.064,0.802,0.32,1.283,1.09,1.283h2.019
	c0.289,0,0.319,0.096,0.319,0.32v0.672c0,0.161-0.03,0.258-0.319,0.258c-0.32,0-1.345-0.097-4.484-0.097
	c-3.076,0-4.421,0.097-4.87,0.097c-0.257,0-0.288-0.129-0.288-0.322v-0.607c0-0.225,0.031-0.32,0.225-0.32h2.179
	c0.641,0,1.024-0.386,1.057-0.77c0.097-0.93,0.097-10.765,0.097-11.374V2.307H246.78z"/>
<path fill="#FFFFFF" d="M260.396,15.313c-0.063,0.289-0.096,0.801-0.096,1.538c0,3.141,1.985,5.51,4.551,5.51
	c1.953,0,3.33-1.12,3.875-2.178c0.063-0.127,0.192-0.192,0.289-0.16l0.416,0.224c0.096,0.032,0.16,0.128,0,0.481
	c-0.576,1.28-2.242,3.49-5.095,3.49c-1.826,0-3.844-0.544-5.028-2.273c-1.123-1.635-1.41-2.819-1.41-5.062
	c0-1.25,0.319-3.396,2.019-5.094c1.378-1.41,2.979-1.698,4.582-1.698c3.685,0,4.709,3.46,4.709,4.709
	c0,0.449-0.385,0.513-0.896,0.513L260.396,15.313L260.396,15.313z M265.492,14.353c0.607,0,0.865-0.16,0.865-0.449
	c0-0.737-0.387-2.851-2.469-2.851c-1.408,0-2.755,0.929-3.363,3.3H265.492z"/>
<path fill="#FFFFFF" d="M273.889,16.083c0,1.73,0.769,3.684,1.633,4.869c1.058,1.378,2.403,1.634,3.492,1.634
	c1.603,0,2.436-0.353,3.523-1.377c0.064-0.063,0.161-0.097,0.257,0l0.32,0.319c0.129,0.129,0.159,0.226,0,0.418
	c-0.931,1.058-2.979,2.273-5.157,2.273c-1.699,0-3.492-0.384-4.966-2.242c-1.187-1.568-1.442-2.916-1.442-4.356
	c0-3.748,2.628-7.528,6.855-7.528c3.332,0,4.357,1.922,4.357,2.595c-0.033,0.737-0.514,1.122-1.187,1.122
	c-0.736,0-1.281-0.417-1.763-1.282c-0.705-1.313-1.377-1.41-2.146-1.41C275.842,11.117,273.889,12.783,273.889,16.083z"/>
<path fill="#FFFFFF" d="M286.832,6.375c0-1.955-0.385-2.307-1.538-2.691l-0.544-0.192c-0.191-0.064-0.225-0.096-0.225-0.192V3.011
	c0-0.128,0.096-0.16,0.385-0.32l3.332-1.762c0.256-0.128,0.479-0.257,0.736-0.257c0.191,0,0.319,0.257,0.256,0.801
	c-0.063,0.545-0.096,7.049-0.096,8.65v2.05h0.159c1.122-1.346,2.979-2.082,4.39-2.082c1.346,0,2.273,0.416,3.172,1.281
	c1.441,1.346,1.377,2.979,1.377,4.709v1.826c0,1.794,0.064,3.779,0.064,4.389c0,0.385,0.514,0.48,1.186,0.48h0.546
	c0.255,0,0.352,0.064,0.352,0.289v0.48c0,0.256-0.063,0.385-0.256,0.385c-0.226,0-1.25-0.097-3.076-0.097
	c-1.569,0-2.724,0.097-3.012,0.097c-0.224,0-0.288-0.097-0.288-0.354v-0.544c0-0.16,0.031-0.257,0.225-0.257h0.736
	c0.545,0,1.186-0.063,1.219-0.608c0.03-0.449,0-2.146,0-3.171v-2.595c0-1.794-0.129-3.075-1.059-3.94
	c-0.641-0.609-1.312-0.897-2.114-0.897c-0.929,0-2.083,0.32-2.979,1.346c-0.289,0.353-0.641,0.993-0.641,1.57v6.984
	c0,1.025,0.096,1.313,0.704,1.313h0.961c0.226,0,0.353,0.063,0.353,0.256v0.544c0,0.225-0.063,0.353-0.256,0.353
	c-0.256,0-1.569-0.096-3.045-0.096c-1.602,0-2.817,0.096-3.105,0.096c-0.129,0-0.225-0.096-0.225-0.32v-0.577
	c0-0.224,0.127-0.257,0.479-0.257h0.673c0.514,0,0.993-0.127,1.059-0.512c0.096-0.609,0.096-4.134,0.096-6.216V6.375z"/>
<path fill="#FFFFFF" d="M315.315,22.104c0,0.514,0.286,0.674,0.703,0.674h1.025c0.288,0,0.354,0.096,0.354,0.287v0.513
	c0,0.225-0.064,0.353-0.258,0.353c-0.224,0-1.217-0.096-3.043-0.096c-1.635,0-2.658,0.096-2.884,0.096
	c-0.19,0-0.256-0.096-0.256-0.353v-0.513c0-0.224,0.096-0.287,0.417-0.287h0.929c0.354,0,0.608-0.16,0.642-0.737
	c0.031-0.833,0.062-1.856,0.062-2.69v-4.229c0-1.282,0-2.211-0.929-2.883c-0.77-0.577-1.538-0.577-2.338-0.577
	c-0.515,0-1.636,0.224-2.597,1.249c-0.641,0.705-0.735,1.57-0.735,2.179v6.631c0,0.865,0.096,1.059,0.768,1.059h0.802
	c0.258,0,0.32,0.096,0.32,0.32v0.545c0,0.191-0.062,0.287-0.225,0.287c-0.225,0-1.089-0.096-2.787-0.096
	c-1.634,0-2.658,0.096-2.853,0.096c-0.158,0-0.225-0.096-0.225-0.287v-0.578c0-0.191,0.064-0.287,0.32-0.287h0.931
	c0.416,0,0.642-0.096,0.642-0.641V14.64c0-0.961-0.514-1.506-1.314-1.89l-0.256-0.128c-0.225-0.096-0.256-0.192-0.256-0.289v-0.16
	c0-0.16,0.127-0.256,0.287-0.32l2.756-1.538c0.256-0.128,0.447-0.224,0.576-0.224c0.16,0,0.225,0.128,0.257,0.384l0.225,1.954h0.062
	c0.931-1.153,2.787-2.338,4.391-2.338c0.961,0,1.953,0.192,2.723,0.705c0.961,0.641,1.763,2.243,1.763,3.043L315.315,22.104
	L315.315,22.104z"/>
<path fill="#FFFFFF" d="M320.891,22.009c-1.473-1.762-1.761-2.947-1.761-5.222c0-1.634,0.865-3.685,2.755-5.158
	c1.666-1.282,3.235-1.538,4.292-1.538c1.764,0,3.525,0.897,4.486,1.858c1.439,1.474,2.179,3.14,2.179,5.222
	c0,3.492-3.14,7.047-7.081,7.047C324.223,24.219,322.237,23.61,320.891,22.009z M330.149,16.851c0-3.556-2.595-5.798-4.229-5.798
	c-0.865,0-1.699,0.192-2.467,1.025c-1.25,1.282-1.699,2.595-1.699,5.03c0,1.793,0.192,3.011,1.218,4.484
	c0.736,1.057,1.666,1.665,3.172,1.665C328.58,23.258,330.149,20.278,330.149,16.851z"/>
<path fill="#FFFFFF" d="M339.347,14.289c0,1.666,0,6.503,0.032,7.497c0.032,0.544,0.159,0.992,0.832,0.992h1.442
	c0.288,0,0.352,0.097,0.352,0.289v0.543c0,0.192-0.062,0.322-0.19,0.322c-0.226,0-1.636-0.097-3.62-0.097
	c-2.052,0-3.332,0.097-3.621,0.097c-0.159,0-0.225-0.129-0.225-0.322v-0.543c0-0.225,0.064-0.289,0.417-0.289h1.537
	c0.354,0,0.673-0.223,0.705-0.801c0.032-0.992,0.032-6.502,0.032-8.361v-2.018c0-2.274-0.032-5.19-0.097-6.023
	c-0.063-1.089-0.576-1.602-1.603-1.922L334.7,3.429c-0.16-0.064-0.192-0.096-0.192-0.16V3.011c0-0.096,0.096-0.16,0.288-0.224
	c1.122-0.512,2.563-1.089,3.749-1.858c0.288-0.192,0.48-0.257,0.672-0.257c0.226,0,0.289,0.16,0.257,0.577
	c-0.031,1.762-0.128,8.425-0.128,10.188L339.347,14.289L339.347,14.289z"/>
<path fill="#FFFFFF" d="M345.05,22.009c-1.474-1.762-1.762-2.947-1.762-5.222c0-1.634,0.865-3.685,2.755-5.158
	c1.666-1.282,3.236-1.538,4.293-1.538c1.763,0,3.524,0.897,4.485,1.858c1.44,1.474,2.179,3.14,2.179,5.222
	c0,3.492-3.14,7.047-7.08,7.047C348.382,24.219,346.396,23.61,345.05,22.009z M354.309,16.851c0-3.556-2.595-5.798-4.229-5.798
	c-0.865,0-1.698,0.192-2.467,1.025c-1.25,1.282-1.698,2.595-1.698,5.03c0,1.793,0.191,3.011,1.218,4.484
	c0.736,1.057,1.666,1.665,3.172,1.665C352.739,23.258,354.309,20.278,354.309,16.851z"/>
<path fill="#FFFFFF" d="M360.206,31.524c-1.154-0.705-1.635-1.539-1.635-2.596c0-1.795,1.825-3.172,3.363-3.845v-0.127
	c-1.346-0.289-2.146-1.282-2.146-2.243c0-1.538,1.762-2.627,2.883-3.044v-0.063c-1.25-0.545-2.979-2.019-2.979-4.87
	c0-2.083,1.857-4.646,5.479-4.646c2.435,0,3.715,1.473,4.035,1.858c0.865-0.608,1.955-1.25,3.012-1.25
	c1.06,0,1.57,0.705,1.506,1.345c0,0.609-0.513,1.186-1.249,1.186c-0.545,0-0.864-0.257-1.122-0.481
	c-0.19-0.128-0.415-0.288-0.672-0.288c-0.225,0-0.608,0-1.024,0.192c0.257,0.641,0.479,1.346,0.479,2.435
	c0,1.25-0.353,2.468-1.185,3.46c-0.834,0.93-2.66,1.602-3.717,1.602c-0.705,0-1.153-0.031-1.636-0.159
	c-0.641,0.256-1.696,0.897-1.696,1.794c0,1.312,1.602,1.218,3.748,1.089c2.627-0.128,4.229,0.16,5.511,1.153
	c1.377,1.025,1.538,2.307,1.57,3.076c0,1.506-0.546,2.754-2.146,3.939c-0.834,0.609-2.756,1.505-5.479,1.505
	C363.569,32.549,361.742,32.39,360.206,31.524z M370.777,28.226c0-1.892-1.441-3.332-4.646-3.108l-3.076,0.225
	c-0.992,0.257-2.562,1.347-2.562,3.076c0,0.801,0.607,1.763,1.249,2.21c1.059,0.737,2.212,0.896,4.486,0.896
	C367.414,31.524,370.938,30.69,370.777,28.226z M367.798,14.577c0-1.41-0.288-2.243-0.865-2.884
	c-0.416-0.417-1.057-0.705-1.536-0.705c-0.737,0-1.507,0.128-2.274,0.896c-1.025,1.089-1.154,2.563-1.154,3.781
	c0,1.089,0.354,2.083,1.025,2.787c0.577,0.545,1.153,0.801,1.923,0.801C367.094,19.254,367.798,16.595,367.798,14.577z"/>
<path fill="#FFFFFF" d="M374.592,30.915c0-0.672,0.705-1.249,1.475-1.249c0.607,0,1.186,0.288,1.474,0.353
	c0.225,0.031,0.481,0,0.673-0.191c0.48-0.576,2.114-4.229,2.563-5.479c-0.161-0.801-3.558-10.829-3.813-11.501
	c-0.384-0.801-0.672-1.345-1.505-1.345h-0.833c-0.225,0-0.257-0.097-0.257-0.289v-0.641c0-0.128,0.032-0.225,0.257-0.225
	c0.288,0,1.057,0.096,2.947,0.096c1.634,0,2.627-0.096,2.979-0.096c0.257,0,0.288,0.096,0.288,0.225v0.672
	c0,0.16-0.031,0.257-0.191,0.257h-0.608c-0.354,0-0.48,0.224-0.416,0.705c0.096,0.705,2.274,7.785,2.626,8.49h0.129
	c0.32-0.512,3.107-7.176,3.3-7.978c0.192-0.801-0.063-1.217-0.544-1.217h-0.514c-0.192,0-0.226-0.097-0.226-0.257v-0.641
	c0-0.16,0.032-0.256,0.193-0.256c0.416,0,1.089,0.096,2.626,0.096c0.865,0,1.603-0.096,1.954-0.096c0.192,0,0.192,0.128,0.192,0.256
	v0.609c0,0.192,0,0.289-0.159,0.289h-0.514c-0.353,0-0.802,0.16-1.121,0.576c-0.704,0.865-2.819,5.767-5.029,10.797
	c-1.57,3.556-2.819,6.535-3.396,7.593c-0.447,0.832-1.023,2.081-2.723,2.081C375.201,32.549,374.592,31.876,374.592,30.915z"/>
<path fill="#FFFFFF" d="M400.993,22.649c-0.385-0.289-0.576-0.383-0.737-0.383c-0.191,0-0.32,0.224-0.513,0.543
	c-0.191,0.354-0.354,0.385-0.576,0.385c-0.192,0-0.353-0.16-0.288-0.512c0.128-0.802,0.448-4.871,0.544-5.8
	c0.032-0.192,0.097-0.192,0.226-0.192l0.48,0.032c0.127,0,0.191,0.064,0.191,0.256c0.03,1.024,0.097,2.082,1.152,3.715
	c0.961,1.506,2.725,2.371,4.485,2.371c1.922,0,4.356-1.186,4.356-4.067c0-3.3-2.37-4.518-4.934-5.415
	c-0.994-0.352-3.301-1.153-4.679-2.595c-1.058-1.057-1.603-2.563-1.603-4.678c0-1.602,0.994-3.171,1.987-4.101
	c1.152-1.089,2.755-1.538,4.484-1.538c1.826,0,3.235,0.545,3.779,0.801c0.288,0.16,0.449,0.128,0.608-0.032l0.418-0.384
	c0.159-0.128,0.255-0.192,0.416-0.192c0.159,0,0.256,0.256,0.256,0.544c0,1.121,0.416,4.389,0.448,5.094
	c0,0.16-0.032,0.224-0.159,0.256l-0.386,0.097c-0.096,0.032-0.159,0-0.191-0.097c-0.257-0.929-0.673-2.178-1.986-3.556
	c-0.864-0.929-1.985-1.377-3.491-1.377c-2.853,0-3.876,2.114-3.876,3.748c0,0.896,0.19,1.954,0.992,2.788
	c0.93,0.929,2.724,1.633,3.652,1.922c2.21,0.705,4.005,1.25,5.157,2.659c0.833,0.993,1.41,2.242,1.41,4.357
	c0,3.78-2.308,7.017-6.536,7.017C403.845,24.315,402.275,23.644,400.993,22.649z"/>
<path fill="#FFFFFF" d="M418.455,15.313c-0.064,0.289-0.096,0.801-0.096,1.538c0,3.141,1.985,5.51,4.55,5.51
	c1.953,0,3.331-1.12,3.876-2.178c0.062-0.127,0.191-0.192,0.288-0.16l0.416,0.224c0.097,0.032,0.161,0.128,0,0.481
	c-0.576,1.28-2.242,3.49-5.095,3.49c-1.825,0-3.844-0.544-5.028-2.273c-1.122-1.635-1.41-2.819-1.41-5.062
	c0-1.25,0.32-3.396,2.019-5.094c1.378-1.41,2.979-1.698,4.582-1.698c3.685,0,4.709,3.46,4.709,4.709
	c0,0.449-0.385,0.513-0.896,0.513L418.455,15.313L418.455,15.313z M423.55,14.353c0.608,0,0.865-0.16,0.865-0.449
	c0-0.737-0.386-2.851-2.468-2.851c-1.409,0-2.755,0.929-3.363,3.3H423.55z"/>
<path fill="#FFFFFF" d="M431.528,15.313c0-1.634-0.255-1.954-1.152-2.435l-0.608-0.32c-0.192-0.064-0.257-0.096-0.257-0.225v-0.192
	c0-0.128,0.063-0.192,0.257-0.289l3.172-1.634c0.191-0.096,0.319-0.128,0.447-0.128c0.192,0,0.226,0.192,0.226,0.384l0.16,2.274
	h0.128c0.961-1.474,2.467-2.787,3.845-2.787c1.09,0,1.634,0.673,1.634,1.41c0,0.929-0.769,1.57-1.346,1.57
	c-0.354,0-0.673-0.128-0.93-0.256c-0.257-0.16-0.642-0.256-1.058-0.256c-0.513,0-1.345,0.32-1.89,1.345
	c-0.192,0.353-0.32,0.929-0.32,1.025v6.664c0,0.993,0.225,1.313,0.897,1.313h1.505c0.191,0,0.224,0.096,0.224,0.287v0.578
	c0,0.191-0.031,0.287-0.159,0.287c-0.191,0-1.667-0.096-3.396-0.096c-1.986,0-3.332,0.096-3.524,0.096
	c-0.128,0-0.19-0.063-0.19-0.32v-0.545c0-0.224,0.062-0.287,0.353-0.287h1.249c0.481,0,0.704-0.192,0.704-0.609
	c0.032-1.059,0.032-2.18,0.032-3.844v-3.01H431.528z"/>
<path fill="#FFFFFF" d="M447.964,20.888h0.097c0.514-1.25,2.756-6.76,3.075-8.009c0.226-0.865,0-1.377-0.577-1.377h-0.641
	c-0.096,0-0.128-0.16-0.128-0.32v-0.577c0-0.192,0.063-0.256,0.193-0.256c0.447,0,1.151,0.096,2.562,0.096
	c1.249,0,2.019-0.096,2.307-0.096c0.257,0,0.288,0.032,0.288,0.289v0.545c0,0.224,0,0.32-0.159,0.32h-0.608
	c-0.385,0-0.705,0.063-0.994,0.352c-0.479,0.449-2.081,3.973-2.562,5.158c-0.385,0.961-2.756,6.344-2.884,6.567
	c-0.257,0.448-0.416,0.737-0.769,0.737c-0.32,0-0.513-0.289-0.674-0.672l-2.499-6.504c-0.097-0.257-1.409-3.94-1.634-4.454
	c-0.416-0.929-0.736-1.185-1.312-1.185h-0.642c-0.16,0-0.192-0.128-0.192-0.32v-0.577c0-0.224,0.064-0.256,0.354-0.256
	c0.353,0,0.896,0.096,2.69,0.096c1.697,0,2.531-0.096,2.883-0.096c0.257,0,0.32,0.064,0.32,0.256v0.577
	c0,0.192-0.031,0.32-0.224,0.32h-0.642c-0.32,0-0.576,0.192-0.576,0.608c0,0.577,0.832,3.268,1.024,3.812
	C446.234,16.531,447.612,20.215,447.964,20.888z"/>
<path fill="#FFFFFF" d="M457.706,14.513c0-1.089-0.192-1.666-1.794-1.922c-0.226-0.032-0.288-0.096-0.288-0.224v-0.289
	c0-0.096,0.062-0.16,0.224-0.224c1.025-0.384,2.243-0.897,3.461-1.57c0.257-0.128,0.416-0.192,0.607-0.192
	c0.161,0,0.192,0.16,0.161,0.384c-0.064,0.545-0.064,2.563-0.064,5.222v3.492c0,1.25,0,2.402,0.032,2.754
	c0.063,0.609,0.16,0.834,0.512,0.834h1.476c0.256,0,0.319,0.096,0.319,0.287v0.545c0,0.225-0.063,0.32-0.288,0.32
	c-0.257,0-1.729-0.096-3.075-0.096c-1.858,0-3.106,0.096-3.46,0.096c-0.16,0-0.256-0.063-0.256-0.257v-0.641
	c0-0.192,0.096-0.257,0.319-0.257h1.57c0.352,0,0.479-0.127,0.512-0.641c0.032-0.961,0.032-1.953,0.032-2.914V14.513L457.706,14.513
	z M456.201,4.677c0-0.833,0.704-1.794,2.018-1.794c1.187,0,1.73,0.961,1.73,1.698c0,0.865-0.577,1.891-1.923,1.891
	C457.29,6.472,456.201,5.734,456.201,4.677z"/>
<path fill="#FFFFFF" d="M466.518,16.083c0,1.73,0.77,3.684,1.635,4.869c1.057,1.378,2.402,1.634,3.491,1.634
	c1.603,0,2.436-0.353,3.523-1.377c0.065-0.063,0.161-0.097,0.257,0l0.32,0.319c0.129,0.129,0.16,0.226,0,0.418
	c-0.93,1.058-2.979,2.273-5.157,2.273c-1.699,0-3.493-0.384-4.966-2.242c-1.187-1.568-1.442-2.916-1.442-4.356
	c0-3.748,2.628-7.528,6.855-7.528c3.333,0,4.356,1.922,4.356,2.595c-0.031,0.737-0.513,1.122-1.186,1.122
	c-0.736,0-1.281-0.417-1.762-1.282c-0.705-1.313-1.378-1.41-2.146-1.41C468.472,11.117,466.518,12.783,466.518,16.083z"/>
<path fill="#FFFFFF" d="M479.847,15.313c-0.063,0.289-0.096,0.801-0.096,1.538c0,3.141,1.985,5.51,4.55,5.51
	c1.953,0,3.331-1.12,3.876-2.178c0.063-0.127,0.192-0.192,0.288-0.16l0.416,0.224c0.097,0.032,0.161,0.128,0,0.481
	c-0.576,1.28-2.242,3.49-5.094,3.49c-1.826,0-3.844-0.544-5.029-2.273c-1.122-1.635-1.41-2.819-1.41-5.062
	c0-1.25,0.32-3.396,2.02-5.094c1.378-1.41,2.979-1.698,4.582-1.698c3.684,0,4.709,3.46,4.709,4.709c0,0.449-0.385,0.513-0.896,0.513
	L479.847,15.313L479.847,15.313z M484.941,14.353c0.607,0,0.864-0.16,0.864-0.449c0-0.737-0.386-2.851-2.468-2.851
	c-1.409,0-2.755,0.929-3.363,3.3H484.941z"/>
<path fill="#FFFFFF" d="M491.895,23.291c-0.159-0.097-0.159-0.288-0.192-0.448l-0.543-3.043c-0.032-0.16,0.062-0.224,0.19-0.256
	l0.417-0.096c0.128-0.032,0.225,0.031,0.288,0.191l0.802,1.57c0.641,1.186,1.09,1.986,2.786,1.986c1.122,0,2.531-0.674,2.531-2.18
	c0-1.44-0.705-2.274-3.107-2.947c-1.891-0.545-3.78-1.537-3.78-4.068c0-2.21,2.083-3.908,4.484-3.908
	c1.538,0,2.371,0.384,2.947,0.672c0.48,0.225,0.545,0.385,0.577,0.577l0.48,2.242c0,0.128-0.064,0.225-0.225,0.289L499.166,14
	c-0.128,0.032-0.191,0-0.288-0.16l-1.089-1.474c-0.384-0.609-0.993-1.25-2.242-1.25c-1.218,0-2.467,0.737-2.467,2.115
	c0,1.858,1.506,2.21,3.075,2.659c2.339,0.673,3.812,1.634,3.845,4.101c-0.032,2.595-2.147,4.229-4.87,4.229
	C493.56,24.219,492.278,23.579,491.895,23.291z"/>
</svg>
