<?xml version="1.0" encoding="utf-8"?>
<!-- Generator: Adobe Illustrator 16.0.0, SVG Export Plug-In . SVG Version: 6.00 Build 0)  -->
<!DOCTYPE svg PUBLIC "-//W3C//DTD SVG 1.1//EN" "http://www.w3.org/Graphics/SVG/1.1/DTD/svg11.dtd">
<svg version="1.1" id="Layer_1" xmlns="http://www.w3.org/2000/svg" xmlns:xlink="http://www.w3.org/1999/xlink" x="0px" y="0px"
	 width="400px" height="64.903px" viewBox="0 0 400 64.903" enable-background="new 0 0 400 64.903" xml:space="preserve">
<g>
	<g>
		<path fill="#FFCD05" d="M3.814,5.332c0-1.474-0.347-2.167-1.474-2.167H0.347C0.087,3.165,0,3.078,0,2.774V1.777
			C0,1.517,0.087,1.43,0.434,1.43c0.433,0,2.514,0.13,6.675,0.13c3.641,0,5.722-0.13,6.242-0.13c0.261,0,0.347,0.087,0.347,0.304
			v1.083c0,0.26-0.086,0.347-0.347,0.347h-1.82c-1.301,0-2.081,0.78-2.124,1.69c-0.043,0.52-0.13,3.121-0.13,5.635v5.375
			c0,2.167,0.043,5.245,0.13,6.632c0.13,1.994,0.477,3.988,1.517,5.375c1.474,1.994,3.814,2.688,5.896,2.688
			c1.994,0,4.421-0.78,5.809-2.08c1.647-1.647,2.514-4.162,2.514-7.326v-7.802c0-3.468-0.347-7.282-0.477-8.279
			c-0.13-1.127-0.824-1.907-1.777-1.907h-1.561c-0.26,0-0.347-0.13-0.347-0.304V1.777c0-0.26,0.087-0.347,0.347-0.347
			c0.433,0,2.427,0.13,5.288,0.13c2.688,0,4.074-0.13,4.422-0.13c0.39,0,0.433,0.13,0.433,0.347v0.997c0,0.26-0.043,0.39-0.26,0.39
			h-1.561c-1.561,0-1.733,1.213-1.82,1.69c-0.087,0.52-0.087,6.589-0.087,7.152c0,0.607-0.087,8.15-0.26,9.883
			c-0.261,3.555-1.301,6.242-3.642,8.323c-1.82,1.647-4.595,2.688-7.889,2.688c-2.081,0-4.595-0.347-6.242-1.04
			c-2.515-1.041-4.248-3.034-5.115-5.809c-0.607-1.907-0.78-4.769-0.78-10.447V5.332z"/>
		<path fill="#FFCD05" d="M36.151,22.584c0.174,0,0.261,0.086,0.261,0.347c0.086,1.387,0.433,3.034,1.646,4.941
			c1.301,2.081,3.555,3.121,5.722,3.121c2.341,0,5.636-1.474,5.636-5.071c0-3.988-1.82-5.289-6.416-7.022
			c-1.387-0.521-4.248-1.734-6.328-3.642c-1.474-1.387-2.167-3.555-2.167-6.199c0-2.427,0.953-4.421,3.034-6.068
			c1.733-1.474,3.641-2.081,6.155-2.081c2.86,0,4.595,0.694,5.461,1.041c0.434,0.173,0.694,0.087,0.91-0.13l0.564-0.563
			c0.173-0.173,0.346-0.26,0.606-0.26c0.26,0,0.347,0.26,0.347,0.693c0,0.694,0.693,6.762,0.693,7.196
			c0,0.173-0.086,0.26-0.26,0.303l-0.693,0.217c-0.173,0.043-0.348,0-0.434-0.26c-0.434-1.214-1.127-2.948-2.688-4.595
			c-1.127-1.213-2.515-1.82-4.508-1.82c-3.469,0-4.855,2.774-4.855,4.378c0,1.474,0.174,2.774,1.214,3.901
			c1.127,1.127,3.555,2.167,5.288,2.688c2.515,0.78,4.595,1.647,6.242,3.381c1.388,1.474,2.168,3.294,2.168,6.199
			c0,5.289-3.468,9.623-9.19,9.623c-3.555,0-5.635-0.78-7.369-2.081c-0.52-0.347-0.779-0.52-1.04-0.52
			c-0.26,0-0.434,0.347-0.693,0.78s-0.434,0.52-0.78,0.52s-0.521-0.26-0.521-0.693c0.087-0.52,0.694-7.542,0.78-8.062
			c0.044-0.26,0.087-0.346,0.261-0.346L36.151,22.584z"/>
		<path fill="#FFCD05" d="M86.868,25.185c0.129,0.13,0.173,0.261,0.086,0.434c-2.601,3.729-6.762,7.282-12.917,7.282
			c-5.549,0-8.67-1.647-11.357-4.074c-3.208-2.861-4.682-7.889-4.682-11.704c0-4.248,1.388-8.323,4.422-11.617
			C64.761,2.991,68.488,0.91,73.69,0.91c3.987,0,7.195,1.214,8.756,2.081c0.606,0.347,0.78,0.347,0.866,0l0.348-1.127
			c0.087-0.26,0.173-0.26,0.693-0.26c0.52,0,0.606,0.086,0.606,0.693c0,0.78,0.867,7.716,1.04,9.016c0.044,0.26,0,0.39-0.173,0.434
			l-0.823,0.26c-0.217,0.087-0.347-0.086-0.477-0.433c-0.521-1.561-1.562-3.728-3.382-5.635c-1.907-1.82-4.161-3.208-7.543-3.208
			c-6.936,0-9.796,6.242-9.796,12.484c0,2.688,0.78,7.803,3.988,11.271c2.861,3.034,5.375,3.381,7.455,3.381
			c4.769,0,8.54-2.384,10.36-5.028c0.217-0.303,0.39-0.434,0.521-0.303L86.868,25.185z"/>
		<path fill="#FFFFFF" d="M103.426,14.088c0-1.041-0.13-8.843-0.173-9.493c-0.087-1.04-0.521-1.474-2.168-1.474h-2.514
			c-0.217,0-0.348-0.087-0.348-0.26V1.69c0-0.173,0.131-0.26,0.304-0.26c0.521,0,2.731,0.13,6.763,0.13
			c3.857,0,5.245-0.13,5.852-0.13c0.217,0,0.304,0.13,0.304,0.304v1.083c0,0.217-0.131,0.304-0.347,0.304h-2.038
			c-0.866,0-1.517,0.347-1.517,1.213c0,0.434-0.13,10.013-0.13,10.534v3.338c0,0.433,0.13,10.446,0.13,10.923
			c0,1.344,0.65,1.561,2.037,1.561h1.777c0.217,0,0.347,0.087,0.347,0.304v1.127c0,0.174-0.13,0.261-0.391,0.261
			c-0.52,0-2.254-0.131-6.024-0.131c-4.118,0-5.982,0.131-6.459,0.131c-0.217,0-0.347-0.087-0.347-0.261v-1.171
			c0-0.173,0.13-0.26,0.347-0.26h2.428c0.866,0,1.777-0.13,1.95-1.257c0.087-0.65,0.217-10.013,0.217-12.311V14.088z"/>
		<path fill="#FFFFFF" d="M126.746,3.121h-1.084c-1.387,0-5.158,0-6.849,0.52c-1.95,0.607-3.251,3.641-3.858,5.028
			c-0.086,0.217-0.217,0.26-0.433,0.217l-0.78-0.217c-0.13-0.043-0.261-0.086-0.174-0.347c0.434-1.561,1.951-7.152,2.037-7.629
			C115.692,0.13,115.866,0,116.039,0c0.217,0,0.348,0.043,0.521,0.173l0.563,0.39c0.78,0.563,1.214,0.694,2.471,0.737
			c2.297,0.087,4.117,0.26,8.192,0.26h2.081c4.725,0,6.589-0.173,8.712-0.26c0.955-0.043,1.518-0.173,2.255-0.606l0.823-0.521
			C141.874,0.043,142.004,0,142.178,0c0.217,0,0.304,0.13,0.39,0.694c0.087,0.52,0.91,5.895,1.257,7.802
			c0.044,0.217-0.043,0.303-0.26,0.347l-0.692,0.173c-0.175,0.043-0.218,0-0.348-0.303c-0.347-0.824-1.647-4.162-3.078-4.855
			c-1.301-0.65-5.374-0.737-7.499-0.737h-1.213v12.354c0,0.607,0,12.744,0.043,13.481c0.087,1.084,0.434,1.733,1.474,1.733h2.73
			c0.391,0,0.435,0.13,0.435,0.434v0.91c0,0.217-0.044,0.348-0.435,0.348c-0.434,0-1.82-0.131-6.068-0.131
			c-4.161,0-5.982,0.131-6.588,0.131c-0.347,0-0.391-0.174-0.391-0.434v-0.824c0-0.304,0.044-0.434,0.304-0.434h2.947
			c0.867,0,1.387-0.52,1.431-1.04c0.13-1.257,0.13-14.564,0.13-15.388V3.121z"/>
		<path fill="#FFFFFF" d="M150.067,30.646c-0.521-0.39-0.78-0.52-0.997-0.52c-0.261,0-0.435,0.303-0.694,0.736
			c-0.26,0.477-0.477,0.521-0.78,0.521c-0.26,0-0.477-0.217-0.39-0.694c0.174-1.083,0.606-6.588,0.737-7.846
			c0.043-0.26,0.13-0.26,0.303-0.26l0.65,0.043c0.174,0,0.26,0.087,0.26,0.347c0.044,1.387,0.131,2.817,1.561,5.028
			c1.301,2.038,3.685,3.208,6.068,3.208c2.602,0,5.896-1.604,5.896-5.505c0-4.465-3.208-6.112-6.676-7.326
			c-1.344-0.477-4.464-1.561-6.328-3.511c-1.431-1.431-2.167-3.468-2.167-6.329c0-2.167,1.343-4.292,2.688-5.548
			c1.561-1.474,3.728-2.081,6.068-2.081c2.471,0,4.378,0.737,5.115,1.084c0.39,0.217,0.606,0.173,0.823-0.043l0.563-0.521
			c0.217-0.173,0.347-0.26,0.563-0.26s0.347,0.347,0.347,0.737c0,1.517,0.563,5.939,0.607,6.892c0,0.217-0.044,0.304-0.217,0.347
			l-0.521,0.13c-0.13,0.043-0.217,0-0.26-0.13c-0.348-1.257-0.91-2.948-2.688-4.812c-1.17-1.257-2.688-1.864-4.726-1.864
			c-3.857,0-5.245,2.861-5.245,5.072c0,1.213,0.261,2.644,1.344,3.771c1.258,1.257,3.686,2.211,4.942,2.601
			c2.99,0.954,5.418,1.69,6.979,3.598c1.127,1.344,1.907,3.035,1.907,5.896c0,5.115-3.121,9.493-8.842,9.493
			C153.925,32.9,151.802,31.99,150.067,30.646z"/>
	</g>
	<g>
		<path fill="#FFFFFF" d="M102.944,50.897c0,1.194-0.068,6.068-0.113,6.405c-0.09,0.587-0.562,0.653-1.014,0.653h-1.264
			c-0.112,0-0.181,0.045-0.181,0.136v0.61c0,0.091,0.068,0.136,0.181,0.136c0.248,0,1.219-0.069,3.36-0.069
			c1.963,0,2.865,0.069,3.136,0.069c0.136,0,0.203-0.045,0.203-0.136v-0.587c0-0.114-0.067-0.159-0.181-0.159h-0.925
			c-0.723,0-1.06-0.112-1.06-0.812c0-0.247-0.067-5.455-0.067-5.681v-1.738c0-0.271,0.067-5.254,0.067-5.48
			c0-0.451,0.337-0.631,0.789-0.631h1.06c0.113,0,0.181-0.046,0.181-0.157v-0.565c0-0.091-0.045-0.156-0.157-0.156
			c-0.316,0-1.038,0.065-3.046,0.065c-2.097,0-3.247-0.065-3.519-0.065c-0.09,0-0.157,0.045-0.157,0.136v0.607
			c0,0.09,0.067,0.136,0.181,0.136h1.309c0.855,0,1.081,0.225,1.127,0.767c0.021,0.337,0.09,4.398,0.09,4.938V50.897z"/>
		<path fill="#FFFFFF" d="M118.256,51.73c0-0.562-0.563-1.69-1.24-2.142c-0.542-0.361-1.24-0.494-1.917-0.494
			c-1.128,0-2.436,0.834-3.09,1.646h-0.045l-0.158-1.378c-0.022-0.18-0.068-0.268-0.181-0.268c-0.09,0-0.226,0.066-0.406,0.156
			l-1.938,1.083c-0.113,0.046-0.203,0.112-0.203,0.227v0.111c0,0.068,0.022,0.136,0.18,0.204l0.181,0.09
			c0.564,0.271,0.926,0.653,0.926,1.33v5.277c0,0.383-0.158,0.451-0.451,0.451h-0.655c-0.18,0-0.226,0.067-0.226,0.203v0.405
			c0,0.136,0.046,0.205,0.158,0.205c0.136,0,0.857-0.069,2.007-0.069c1.196,0,1.806,0.069,1.964,0.069
			c0.11,0,0.156-0.069,0.156-0.205v-0.382c0-0.159-0.046-0.227-0.225-0.227h-0.564c-0.474,0-0.541-0.135-0.541-0.745v-4.667
			c0-0.431,0.067-1.038,0.519-1.535c0.676-0.722,1.466-0.878,1.827-0.878c0.563,0,1.105,0,1.646,0.406
			c0.653,0.472,0.653,1.125,0.653,2.027v2.979c0,0.586-0.021,1.309-0.045,1.893c-0.022,0.406-0.203,0.52-0.451,0.52h-0.653
			c-0.226,0-0.293,0.046-0.293,0.203v0.36c0,0.181,0.045,0.25,0.181,0.25c0.157,0,0.878-0.069,2.028-0.069
			c1.286,0,1.985,0.069,2.144,0.069c0.135,0,0.18-0.091,0.18-0.25v-0.36c0-0.136-0.045-0.203-0.248-0.203h-0.723
			c-0.293,0-0.495-0.113-0.495-0.475V51.73z"/>
		<path fill="#FFFFFF" d="M122.56,52.995v4.239c-0.022,0.52-0.111,0.79-0.54,0.79h-1.083c-0.18,0-0.226,0.046-0.226,0.157v0.497
			c0,0.114,0.046,0.159,0.181,0.159c0.18,0,1.33-0.069,2.571-0.069c1.736,0,2.57,0.069,2.706,0.069c0.113,0,0.157-0.091,0.157-0.271
			v-0.36c0-0.136-0.044-0.182-0.248-0.182h-1.284c-0.474,0-0.542-0.204-0.587-0.586c-0.021-0.247-0.021-2.323-0.021-4.985v-2.007
			h2.48c0.18,0,0.271-0.021,0.293-0.112l0.113-0.745c0.021-0.091,0-0.227-0.159-0.227h-2.728v-0.448c0-1.58-0.046-3.541,0.789-4.603
			c0.494-0.633,1.104-0.789,1.691-0.789c0.428,0,0.744,0.156,1.037,0.518c0.09,0.114,0.338,0.406,0.54,0.521
			c0.181,0.09,0.406,0.136,0.633,0.136c0.36,0,0.947-0.431,0.947-0.972c0-0.854-0.993-1.262-2.052-1.262
			c-1.265,0-2.505,0.473-3.699,1.781c-0.881,0.993-1.513,2.459-1.513,4.691v0.427h-1.307c-0.182,0-0.249,0.024-0.271,0.16
			l-0.091,0.677c-0.045,0.202,0,0.247,0.112,0.247h1.556V52.995z"/>
		<path fill="#FFFFFF" d="M132.707,59.039c2.774,0,4.983-2.504,4.983-4.961c0-1.466-0.519-2.64-1.532-3.677
			c-0.677-0.677-1.918-1.307-3.157-1.307c-0.745,0-1.851,0.178-3.022,1.081c-1.332,1.037-1.94,2.481-1.94,3.631
			c0,1.601,0.202,2.438,1.24,3.678C130.227,58.612,131.624,59.039,132.707,59.039z M132.979,58.362
			c-1.062,0-1.715-0.427-2.233-1.171c-0.722-1.038-0.856-1.896-0.856-3.159c0-1.715,0.315-2.639,1.195-3.541
			c0.54-0.587,1.126-0.723,1.736-0.723c1.149,0,2.978,1.58,2.978,4.084C135.798,56.265,134.691,58.362,132.979,58.362z"/>
		<path fill="#FFFFFF" d="M140.665,54.89c0,1.173,0,1.962-0.022,2.705c0,0.295-0.158,0.43-0.497,0.43h-0.878
			c-0.203,0-0.248,0.046-0.248,0.203v0.385c0,0.181,0.045,0.226,0.135,0.226c0.136,0,1.082-0.069,2.48-0.069
			c1.217,0,2.255,0.069,2.392,0.069c0.089,0,0.112-0.069,0.112-0.205v-0.405c0-0.136-0.023-0.203-0.158-0.203h-1.061
			c-0.474,0-0.631-0.225-0.631-0.923v-4.739c0-0.066,0.09-0.472,0.226-0.719c0.383-0.723,0.969-0.948,1.33-0.948
			c0.294,0,0.564,0.066,0.744,0.181c0.181,0.09,0.407,0.181,0.654,0.181c0.405,0,0.947-0.451,0.947-1.106
			c0-0.519-0.384-0.991-1.149-0.991c-0.971,0-2.03,0.924-2.706,1.962h-0.091l-0.112-1.559c0-0.135-0.023-0.268-0.158-0.268
			c-0.091,0-0.181,0.021-0.316,0.088l-2.231,1.151c-0.136,0.067-0.181,0.112-0.181,0.202v0.136c0,0.09,0.045,0.114,0.181,0.159
			l0.427,0.226c0.632,0.337,0.812,0.562,0.812,1.713V54.89z"/>
		<path fill="#FFFFFF" d="M154.714,57.641c0,0.295-0.137,0.384-0.497,0.384h-0.654c-0.202,0-0.227,0.046-0.227,0.227v0.361
			c0,0.156,0.046,0.226,0.159,0.226c0.136,0,0.902-0.069,2.121-0.069c1.262,0,1.849,0.069,2.007,0.069
			c0.113,0,0.157-0.069,0.157-0.25v-0.36c0-0.157-0.044-0.203-0.248-0.203h-0.767c-0.339,0-0.451-0.225-0.451-0.52v-3.9
			c0-1.017-0.021-1.624,0.315-2.277c0.361-0.655,1.286-1.173,1.963-1.173c0.676,0,1.263,0.156,1.669,0.473
			c0.519,0.406,0.654,1.062,0.654,1.805v3.337c0,0.496,0,1.309-0.045,1.826c-0.022,0.316-0.203,0.43-0.451,0.43h-0.564
			c-0.248,0-0.293,0.046-0.293,0.203v0.385c0,0.156,0.045,0.226,0.181,0.226c0.157,0,0.97-0.069,2.097-0.069
			c1.083,0,1.715,0.069,1.873,0.069c0.112,0,0.158-0.069,0.158-0.226v-0.385c0-0.157-0.046-0.203-0.249-0.203h-0.609
			c-0.27,0-0.473-0.113-0.473-0.451v-5.03c0-1.735-0.565-2.232-1.082-2.774c-0.542-0.541-1.241-0.674-2.031-0.674
			c-1.353,0-2.639,0.855-3.314,1.736H156c-0.475-1.062-1.377-1.736-2.55-1.736c-1.308,0-2.64,0.788-3.314,1.713h-0.068l-0.09-1.31
			c0-0.156-0.067-0.315-0.204-0.315c-0.089,0-0.247,0.045-0.428,0.136l-1.984,1.016c-0.046,0.021-0.135,0.112-0.135,0.181v0.181
			c0,0.066,0.044,0.112,0.157,0.181l0.472,0.247c0.543,0.294,0.633,0.698,0.633,1.149v4.016c0,0.384,0,0.789-0.022,1.172
			c-0.022,0.43-0.136,0.564-0.339,0.564h-0.766c-0.227,0-0.271,0.021-0.271,0.203v0.405c0,0.16,0.044,0.205,0.18,0.205
			c0.182,0,0.902-0.069,2.098-0.069c1.241,0,1.849,0.069,2.053,0.069c0.157,0,0.181-0.091,0.181-0.25v-0.36
			c0-0.157-0.023-0.203-0.226-0.203h-0.812c-0.316,0-0.451-0.225-0.451-0.586v-4.465c0-0.632,0.045-1.062,0.315-1.511
			c0.63-1.017,1.578-1.309,2.165-1.309c0.497,0,1.149,0.135,1.442,0.406c0.361,0.337,0.678,0.767,0.678,2.435V57.641z"/>
		<path fill="#FFFFFF" d="M172.031,54.755v-3.452c0-0.607-0.023-1.127-0.498-1.601c-0.316-0.295-0.744-0.607-1.806-0.607
			c-1.013,0-1.803,0.224-2.751,0.788c-0.924,0.542-1.556,1.399-1.556,2.119c0,0.52,0.181,0.722,0.542,0.722
			c0.924,0,1.195-0.496,1.195-1.285c0-0.405-0.204-0.743,0.112-1.037c0.315-0.293,1.015-0.473,1.466-0.473
			c0.654,0,1.104,0.201,1.353,0.496c0.249,0.292,0.271,0.878,0.316,1.264v1.441c-0.36,0.315-1.533,0.857-2.549,1.309
			c-1.781,0.788-2.255,1.691-2.255,2.729c0,1.421,0.812,1.872,1.353,1.872c0.497,0,0.902,0,1.331-0.136
			c1.017-0.337,1.76-0.812,2.233-1.375h0.044c0.204,0.924,0.791,1.511,1.603,1.511c1.149,0,1.578-0.768,1.758-1.104
			c0.137-0.227,0.091-0.341,0.024-0.407l-0.226-0.18c-0.092-0.069-0.136-0.024-0.227,0.09c-0.112,0.156-0.429,0.337-0.79,0.337
			c-0.404,0-0.674-0.406-0.674-1.691V54.755z M170.382,56.581c0,0.61-1.194,1.398-1.848,1.398c-0.678,0-1.174-0.406-1.174-1.239
			c0-1.874,2.21-2.325,3.021-2.934V56.581z"/>
		<path fill="#FFFFFF" d="M177.89,53.695c0-1.038,0.023-2.121,0.068-3.159h2.909c0.136,0,0.181-0.066,0.203-0.181l0.226-0.788
			c0.045-0.09-0.022-0.205-0.157-0.205h-3.136l0.112-2.231c0-0.181-0.045-0.338-0.226-0.338c-0.135,0-0.247,0.045-0.315,0.226
			c-0.293,0.767-2.029,2.524-2.571,2.841c-0.271,0.159-0.406,0.226-0.406,0.406s0.135,0.271,0.339,0.271h1.376
			c-0.022,0.948-0.046,2.459-0.046,2.864v0.496c0,0.316-0.066,2.302-0.066,3.226c0,0.857,1.082,1.917,2.188,1.917
			c1.353,0,2.277-0.677,2.503-0.902c0.068-0.066,0.113-0.157,0.046-0.247l-0.113-0.204c-0.067-0.091-0.158-0.112-0.271-0.045
			c-0.315,0.203-0.969,0.295-1.487,0.295c-0.405,0-1.174-0.295-1.174-1.986V53.695z"/>
		<path fill="#FFFFFF" d="M183.571,55.521c0,0.677,0,1.375-0.022,2.052c-0.022,0.362-0.113,0.451-0.361,0.451h-1.104
			c-0.158,0-0.225,0.046-0.225,0.182v0.45c0,0.137,0.066,0.182,0.18,0.182c0.249,0,1.126-0.069,2.435-0.069
			c0.947,0,1.985,0.069,2.166,0.069c0.158,0,0.203-0.069,0.203-0.226v-0.385c0-0.136-0.045-0.203-0.226-0.203h-1.039
			c-0.247,0-0.315-0.159-0.36-0.586c-0.023-0.247-0.023-1.059-0.023-1.94v-2.459c0-1.871,0-3.291,0.046-3.677
			c0.022-0.156,0-0.268-0.111-0.268c-0.135,0-0.248,0.042-0.429,0.133c-0.857,0.475-1.715,0.836-2.436,1.106
			c-0.112,0.046-0.158,0.091-0.158,0.157v0.204c0,0.091,0.046,0.136,0.203,0.157c1.127,0.181,1.263,0.586,1.263,1.354V55.521z
			 M183.797,46.499c0.902,0,1.31-0.653,1.31-1.24c0-0.496-0.385-1.104-1.174-1.104c-0.902,0-1.377,0.608-1.377,1.174
			C182.556,46.05,183.302,46.499,183.797,46.499z"/>
		<path fill="#FFFFFF" d="M192.749,59.039c2.774,0,4.984-2.504,4.984-4.961c0-1.466-0.519-2.64-1.533-3.677
			c-0.677-0.677-1.917-1.307-3.158-1.307c-0.744,0-1.85,0.178-3.022,1.081c-1.33,1.037-1.939,2.481-1.939,3.631
			c0,1.601,0.202,2.438,1.242,3.678C190.268,58.612,191.667,59.039,192.749,59.039z M193.019,58.362
			c-1.059,0-1.713-0.427-2.231-1.171c-0.723-1.038-0.858-1.896-0.858-3.159c0-1.715,0.316-2.639,1.196-3.541
			c0.542-0.587,1.129-0.723,1.736-0.723c1.151,0,2.977,1.58,2.977,4.084C195.838,56.265,194.734,58.362,193.019,58.362z"/>
		<path fill="#FFFFFF" d="M208.511,51.73c0-0.562-0.564-1.69-1.241-2.142c-0.54-0.361-1.239-0.494-1.916-0.494
			c-1.128,0-2.437,0.834-3.091,1.646h-0.045l-0.158-1.378c-0.022-0.18-0.066-0.268-0.18-0.268c-0.09,0-0.226,0.066-0.405,0.156
			l-1.94,1.083c-0.113,0.046-0.201,0.112-0.201,0.227v0.111c0,0.068,0.021,0.136,0.178,0.204l0.181,0.09
			c0.564,0.271,0.926,0.653,0.926,1.33v5.277c0,0.383-0.158,0.451-0.452,0.451h-0.654c-0.178,0-0.226,0.067-0.226,0.203v0.405
			c0,0.136,0.048,0.205,0.158,0.205c0.136,0,0.858-0.069,2.009-0.069c1.195,0,1.804,0.069,1.961,0.069
			c0.113,0,0.158-0.069,0.158-0.205v-0.382c0-0.159-0.045-0.227-0.227-0.227h-0.562c-0.475,0-0.542-0.135-0.542-0.745v-4.667
			c0-0.431,0.067-1.038,0.519-1.535c0.678-0.722,1.467-0.878,1.828-0.878c0.562,0,1.104,0,1.646,0.406
			c0.654,0.472,0.654,1.125,0.654,2.027v2.979c0,0.586-0.022,1.309-0.045,1.893c-0.023,0.406-0.204,0.52-0.452,0.52h-0.654
			c-0.226,0-0.294,0.046-0.294,0.203v0.36c0,0.181,0.046,0.25,0.181,0.25c0.158,0,0.881-0.069,2.031-0.069
			c1.286,0,1.983,0.069,2.143,0.069c0.135,0,0.181-0.091,0.181-0.25v-0.36c0-0.136-0.046-0.203-0.249-0.203h-0.722
			c-0.293,0-0.496-0.113-0.496-0.475V51.73z"/>
		<path fill="#FFFFFF" d="M221.813,49.407c0,0.431,0,7.354-0.069,8.007c-0.021,0.271-0.292,0.542-0.743,0.542h-1.534
			c-0.135,0-0.158,0.068-0.158,0.226v0.431c0,0.135,0.023,0.226,0.203,0.226c0.315,0,1.264-0.069,3.428-0.069
			c2.21,0,2.933,0.069,3.158,0.069c0.203,0,0.226-0.069,0.226-0.182v-0.475c0-0.157-0.022-0.226-0.226-0.226h-1.421
			c-0.54,0-0.722-0.337-0.767-0.902c-0.021-0.382-0.021-6.698-0.021-7.014v-6.427h0.631c1.104,0,3.223,0.045,3.902,0.382
			c0.744,0.361,1.421,2.1,1.602,2.527c0.066,0.157,0.089,0.181,0.181,0.157l0.357-0.092c0.114-0.021,0.159-0.065,0.139-0.18
			c-0.182-0.99-0.61-3.788-0.653-4.06c-0.048-0.291-0.091-0.36-0.204-0.36c-0.091,0-0.157,0.023-0.271,0.09l-0.429,0.271
			c-0.385,0.227-0.68,0.295-1.173,0.316c-1.105,0.045-2.076,0.135-4.534,0.135h-1.083c-2.119,0-3.067-0.09-4.262-0.135
			c-0.655-0.021-0.881-0.09-1.286-0.382l-0.293-0.205c-0.091-0.066-0.159-0.09-0.271-0.09c-0.09,0-0.181,0.069-0.225,0.36
			c-0.046,0.25-0.836,3.16-1.062,3.972c-0.046,0.133,0.022,0.157,0.091,0.179l0.406,0.113c0.112,0.021,0.18,0,0.226-0.113
			c0.315-0.72,0.991-2.299,2.006-2.615c0.88-0.271,2.843-0.271,3.564-0.271h0.564V49.407z"/>
		<path fill="#FFFFFF" d="M236.965,52.77c0.361,0,0.632-0.046,0.632-0.362c0-0.878-0.723-3.312-3.315-3.312
			c-1.129,0-2.254,0.202-3.226,1.194c-1.194,1.195-1.421,2.706-1.421,3.587c0,1.576,0.204,2.412,0.991,3.562
			c0.835,1.218,2.255,1.601,3.541,1.601c2.007,0,3.181-1.555,3.589-2.458c0.112-0.247,0.066-0.316,0-0.337l-0.294-0.16
			c-0.067-0.021-0.157,0.024-0.205,0.114c-0.383,0.743-1.354,1.532-2.729,1.532c-1.803,0-3.201-1.668-3.201-3.878
			c0-0.519,0.021-0.879,0.068-1.083H236.965z M231.485,52.092c0.428-1.667,1.375-2.323,2.367-2.323c1.467,0,1.737,1.49,1.737,2.01
			c0,0.202-0.181,0.313-0.611,0.313H231.485z"/>
		<path fill="#FFFFFF" d="M243.549,49.814c0.541,0,1.015,0.068,1.51,0.993c0.337,0.609,0.723,0.902,1.239,0.902
			c0.474,0,0.812-0.271,0.835-0.789c0-0.475-0.723-1.826-3.066-1.826c-2.977,0-4.826,2.66-4.826,5.299
			c0,1.014,0.18,1.962,1.017,3.066c1.034,1.309,2.299,1.579,3.494,1.579c1.534,0,2.979-0.857,3.63-1.601
			c0.111-0.136,0.092-0.204,0-0.295l-0.225-0.223c-0.066-0.069-0.136-0.046-0.181,0c-0.768,0.72-1.352,0.969-2.482,0.969
			c-0.765,0-1.713-0.181-2.458-1.149c-0.607-0.836-1.149-2.211-1.149-3.43C240.886,50.987,242.264,49.814,243.549,49.814z"/>
		<path fill="#FFFFFF" d="M249.993,53.289c0,1.466,0,3.945-0.063,4.375c-0.047,0.271-0.388,0.36-0.748,0.36h-0.473
			c-0.249,0-0.339,0.021-0.339,0.182v0.406c0,0.156,0.068,0.226,0.158,0.226c0.201,0,1.062-0.069,2.188-0.069
			c1.041,0,1.965,0.069,2.146,0.069c0.133,0,0.181-0.091,0.181-0.25v-0.382c0-0.136-0.091-0.182-0.25-0.182h-0.674
			c-0.431,0-0.5-0.204-0.5-0.923v-4.92c0-0.403,0.25-0.854,0.452-1.104c0.632-0.722,1.443-0.947,2.098-0.947
			c0.562,0,1.04,0.204,1.491,0.632c0.652,0.61,0.743,1.511,0.743,2.774v1.826c0,0.722,0.021,1.917,0,2.232
			c-0.021,0.385-0.473,0.43-0.86,0.43h-0.515c-0.138,0-0.159,0.067-0.159,0.182v0.382c0,0.181,0.043,0.25,0.202,0.25
			c0.201,0,1.014-0.069,2.118-0.069c1.29,0,2.012,0.069,2.166,0.069c0.139,0,0.18-0.091,0.18-0.271v-0.339
			c0-0.157-0.068-0.203-0.242-0.203h-0.389c-0.473,0-0.834-0.068-0.834-0.339c0-0.428-0.042-1.827-0.042-3.09v-1.285
			c0-1.219,0.042-2.368-0.972-3.316c-0.632-0.607-1.284-0.899-2.235-0.899c-0.993,0-2.299,0.518-3.09,1.466h-0.112v-1.445
			c0-1.127,0.022-5.705,0.069-6.089c0.043-0.383-0.047-0.563-0.18-0.563c-0.182,0-0.341,0.091-0.521,0.181l-2.347,1.24
			c-0.202,0.111-0.271,0.135-0.271,0.226v0.202c0,0.068,0.023,0.09,0.158,0.135l0.382,0.136c0.813,0.271,1.083,0.52,1.083,1.896
			V53.289z"/>
		<path fill="#FFFFFF" d="M270.042,51.73c0-0.562-0.562-1.69-1.242-2.142c-0.541-0.361-1.237-0.494-1.917-0.494
			c-1.125,0-2.432,0.834-3.091,1.646h-0.042l-0.158-1.378c-0.022-0.18-0.069-0.268-0.181-0.268c-0.09,0-0.224,0.066-0.404,0.156
			l-1.943,1.083c-0.111,0.046-0.2,0.112-0.2,0.227v0.111c0,0.068,0.02,0.136,0.18,0.204l0.181,0.09
			c0.562,0.271,0.923,0.653,0.923,1.33v5.277c0,0.383-0.159,0.451-0.451,0.451h-0.652c-0.18,0-0.223,0.067-0.223,0.203v0.405
			c0,0.136,0.043,0.205,0.153,0.205c0.139,0,0.86-0.069,2.007-0.069c1.2,0,1.806,0.069,1.965,0.069c0.111,0,0.159-0.069,0.159-0.205
			v-0.382c0-0.159-0.048-0.227-0.229-0.227h-0.562c-0.473,0-0.542-0.135-0.542-0.745v-4.667c0-0.431,0.069-1.038,0.521-1.535
			c0.673-0.722,1.465-0.878,1.825-0.878c0.563,0,1.105,0,1.646,0.406c0.653,0.472,0.653,1.125,0.653,2.027v2.979
			c0,0.586-0.021,1.309-0.043,1.893c-0.026,0.406-0.208,0.52-0.45,0.52h-0.654c-0.228,0-0.298,0.046-0.298,0.203v0.36
			c0,0.181,0.049,0.25,0.181,0.25c0.16,0,0.882-0.069,2.034-0.069c1.284,0,1.98,0.069,2.14,0.069c0.138,0,0.181-0.091,0.181-0.25
			v-0.36c0-0.136-0.043-0.203-0.25-0.203h-0.722c-0.291,0-0.494-0.113-0.494-0.475V51.73z"/>
		<path fill="#FFFFFF" d="M277.39,59.039c2.777,0,4.986-2.504,4.986-4.961c0-1.466-0.521-2.64-1.535-3.677
			c-0.674-0.677-1.916-1.307-3.158-1.307c-0.744,0-1.849,0.178-3.021,1.081c-1.328,1.037-1.939,2.481-1.939,3.631
			c0,1.601,0.203,2.438,1.237,3.678C274.911,58.612,276.307,59.039,277.39,59.039z M277.661,58.362
			c-1.062,0-1.715-0.427-2.229-1.171c-0.723-1.038-0.861-1.896-0.861-3.159c0-1.715,0.318-2.639,1.195-3.541
			c0.541-0.587,1.131-0.723,1.736-0.723c1.152,0,2.979,1.58,2.979,4.084C280.48,56.265,279.376,58.362,277.661,58.362z"/>
		<path fill="#FFFFFF" d="M286.953,50.04c0-1.24,0.063-5.931,0.089-7.17c0.021-0.295-0.025-0.407-0.18-0.407
			c-0.138,0-0.271,0.045-0.478,0.181c-0.834,0.542-1.848,0.948-2.64,1.307c-0.132,0.045-0.201,0.09-0.201,0.159v0.18
			c0,0.046,0.021,0.067,0.138,0.112l0.451,0.159c0.723,0.226,1.083,0.587,1.126,1.354c0.049,0.584,0.068,2.638,0.068,4.239v1.42
			c0,1.309,0,5.188-0.02,5.886c-0.027,0.405-0.251,0.564-0.5,0.564h-1.083c-0.25,0-0.292,0.046-0.292,0.203v0.385
			c0,0.135,0.042,0.226,0.158,0.226c0.202,0,1.105-0.069,2.55-0.069c1.396,0,2.388,0.069,2.548,0.069
			c0.091,0,0.133-0.091,0.133-0.226v-0.385c0-0.136-0.042-0.203-0.249-0.203h-1.015c-0.473,0-0.562-0.315-0.584-0.7
			c-0.021-0.698-0.021-4.104-0.021-5.277V50.04z"/>
		<path fill="#FFFFFF" d="M294.392,59.039c2.775,0,4.984-2.504,4.984-4.961c0-1.466-0.52-2.64-1.534-3.677
			c-0.675-0.677-1.916-1.307-3.158-1.307c-0.743,0-1.848,0.178-3.021,1.081c-1.328,1.037-1.938,2.481-1.938,3.631
			c0,1.601,0.201,2.438,1.236,3.678C291.911,58.612,293.308,59.039,294.392,59.039z M294.661,58.362
			c-1.062,0-1.715-0.427-2.229-1.171c-0.722-1.038-0.86-1.896-0.86-3.159c0-1.715,0.319-2.639,1.194-3.541
			c0.542-0.587,1.132-0.723,1.736-0.723c1.153,0,2.979,1.58,2.979,4.084C297.48,56.265,296.377,58.362,294.661,58.362z"/>
		<path fill="#FFFFFF" d="M305.079,64.903c1.917,0,3.271-0.632,3.854-1.06c1.131-0.836,1.513-1.715,1.513-2.773
			c-0.021-0.542-0.138-1.444-1.104-2.167c-0.902-0.697-2.028-0.902-3.882-0.812c-1.508,0.09-2.639,0.159-2.639-0.768
			c0-0.629,0.743-1.08,1.194-1.262c0.34,0.091,0.658,0.112,1.151,0.112c0.745,0,2.029-0.473,2.618-1.128
			c0.585-0.699,0.834-1.557,0.834-2.435c0-0.768-0.159-1.264-0.34-1.715c0.292-0.136,0.562-0.136,0.722-0.136
			c0.181,0,0.341,0.114,0.473,0.204c0.181,0.157,0.408,0.337,0.791,0.337c0.521,0,0.882-0.405,0.882-0.833
			c0.042-0.451-0.318-0.947-1.062-0.947c-0.742,0-1.513,0.451-2.118,0.879c-0.228-0.271-1.13-1.307-2.846-1.307
			c-2.548,0-3.854,1.803-3.854,3.268c0,2.007,1.215,3.045,2.098,3.431v0.045c-0.791,0.292-2.028,1.059-2.028,2.142
			c0,0.677,0.562,1.375,1.508,1.578v0.092c-1.083,0.474-2.368,1.441-2.368,2.705c0,0.744,0.34,1.331,1.151,1.826
			C302.711,64.792,303.996,64.903,305.079,64.903z M304.94,55.543c-0.541,0-0.944-0.181-1.349-0.563
			c-0.478-0.496-0.722-1.194-0.722-1.961c0-0.857,0.091-1.896,0.812-2.663c0.543-0.541,1.078-0.631,1.599-0.631
			c0.34,0,0.791,0.204,1.083,0.495c0.408,0.452,0.611,1.039,0.611,2.031C306.975,53.671,306.476,55.543,304.94,55.543z
			 M305.869,64.181c-1.604,0-2.415-0.11-3.158-0.631c-0.452-0.316-0.882-0.993-0.882-1.556c0-1.219,1.104-1.985,1.806-2.167
			l2.165-0.155c2.258-0.157,3.271,0.856,3.271,2.187C309.183,63.594,306.703,64.181,305.869,64.181z"/>
		<path fill="#FFFFFF" d="M313.038,64.903c1.194,0,1.598-0.878,1.916-1.466c0.403-0.742,1.284-2.843,2.389-5.346
			c1.556-3.542,3.048-6.969,3.542-7.577c0.229-0.295,0.541-0.406,0.791-0.406h0.361c0.111,0,0.111-0.068,0.111-0.204v-0.427
			c0-0.091,0-0.181-0.138-0.181c-0.244,0-0.766,0.065-1.375,0.065c-1.083,0-1.557-0.065-1.849-0.065
			c-0.111,0-0.137,0.065-0.137,0.181v0.451c0,0.111,0.025,0.18,0.158,0.18h0.361c0.34,0,0.521,0.293,0.383,0.857
			c-0.133,0.563-2.098,5.232-2.32,5.594h-0.091c-0.249-0.497-1.784-5.458-1.848-5.954c-0.048-0.34,0.042-0.497,0.292-0.497h0.425
			c0.116,0,0.138-0.068,0.138-0.18v-0.476c0-0.091-0.021-0.156-0.201-0.156c-0.249,0-0.951,0.065-2.098,0.065
			c-1.332,0-1.874-0.065-2.076-0.065c-0.158,0-0.18,0.065-0.18,0.156v0.451c0,0.136,0.021,0.204,0.18,0.204h0.584
			c0.589,0,0.792,0.383,1.062,0.948c0.181,0.473,2.57,7.51,2.682,8.073c-0.313,0.879-1.466,3.45-1.801,3.856
			c-0.138,0.136-0.318,0.156-0.478,0.136c-0.202-0.045-0.605-0.249-1.035-0.249c-0.542,0-1.036,0.405-1.036,0.881
			C311.752,64.431,312.178,64.903,313.038,64.903z"/>
		<path fill="#FFFFFF" d="M333.914,59.108c2.979,0,4.603-2.277,4.603-4.94c0-1.489-0.403-2.368-0.992-3.066
			c-0.812-0.993-2.076-1.377-3.632-1.874c-0.653-0.202-1.917-0.698-2.569-1.351c-0.563-0.588-0.701-1.333-0.701-1.962
			c0-1.152,0.722-2.639,2.729-2.639c1.062,0,1.853,0.315,2.459,0.968c0.923,0.97,1.22,1.851,1.4,2.504
			c0.021,0.066,0.064,0.09,0.133,0.066l0.271-0.066c0.091-0.024,0.112-0.068,0.112-0.181c-0.021-0.496-0.313-2.798-0.313-3.587
			c0-0.201-0.069-0.382-0.181-0.382s-0.181,0.045-0.292,0.136l-0.298,0.271c-0.111,0.111-0.223,0.136-0.425,0.021
			c-0.382-0.181-1.374-0.563-2.665-0.563c-1.216,0-2.341,0.316-3.153,1.083c-0.701,0.654-1.402,1.758-1.402,2.886
			c0,1.489,0.388,2.549,1.132,3.293c0.965,1.016,2.59,1.578,3.291,1.828c1.806,0.629,3.474,1.486,3.474,3.81
			c0,2.03-1.716,2.865-3.069,2.865c-1.238,0-2.48-0.608-3.154-1.668c-0.743-1.152-0.792-1.896-0.812-2.617
			c0-0.136-0.049-0.181-0.139-0.181l-0.335-0.021c-0.09,0-0.138,0-0.158,0.136c-0.069,0.653-0.292,3.517-0.383,4.08
			c-0.049,0.25,0.063,0.361,0.201,0.361c0.159,0,0.271-0.021,0.404-0.271c0.138-0.226,0.228-0.382,0.36-0.382
			c0.117,0,0.249,0.066,0.521,0.271C331.232,58.633,332.337,59.108,333.914,59.108z"/>
		<path fill="#FFFFFF" d="M348.191,52.77c0.36,0,0.631-0.046,0.631-0.362c0-0.878-0.723-3.312-3.317-3.312
			c-1.126,0-2.257,0.202-3.224,1.194c-1.199,1.195-1.423,2.706-1.423,3.587c0,1.576,0.202,2.412,0.993,3.562
			c0.833,1.218,2.257,1.601,3.541,1.601c2.007,0,3.181-1.555,3.584-2.458c0.117-0.247,0.069-0.316,0-0.337l-0.293-0.16
			c-0.068-0.021-0.158,0.024-0.2,0.114c-0.384,0.743-1.354,1.532-2.729,1.532c-1.806,0-3.202-1.668-3.202-3.878
			c0-0.519,0.022-0.879,0.064-1.083H348.191z M342.706,52.092c0.431-1.667,1.375-2.323,2.368-2.323c1.471,0,1.736,1.49,1.736,2.01
			c0,0.202-0.181,0.313-0.604,0.313H342.706z"/>
		<path fill="#FFFFFF" d="M351.817,54.89c0,1.173,0,1.962-0.021,2.705c0,0.295-0.16,0.43-0.5,0.43h-0.876
			c-0.206,0-0.249,0.046-0.249,0.203v0.385c0,0.181,0.043,0.226,0.134,0.226c0.137,0,1.082-0.069,2.484-0.069
			c1.216,0,2.251,0.069,2.389,0.069c0.091,0,0.111-0.069,0.111-0.205v-0.405c0-0.136-0.021-0.203-0.158-0.203h-1.058
			c-0.472,0-0.631-0.225-0.631-0.923v-4.739c0-0.066,0.09-0.472,0.223-0.719c0.387-0.723,0.971-0.948,1.332-0.948
			c0.292,0,0.563,0.066,0.744,0.181c0.181,0.09,0.408,0.181,0.652,0.181c0.409,0,0.951-0.451,0.951-1.106
			c0-0.519-0.383-0.991-1.153-0.991c-0.972,0-2.026,0.924-2.707,1.962h-0.091l-0.11-1.559c0-0.135-0.021-0.268-0.16-0.268
			c-0.09,0-0.181,0.021-0.312,0.088l-2.236,1.151c-0.133,0.067-0.181,0.112-0.181,0.202v0.136c0,0.09,0.048,0.114,0.181,0.159
			l0.431,0.226c0.631,0.337,0.812,0.562,0.812,1.713V54.89z"/>
		<path fill="#FFFFFF" d="M362.032,53.199c-0.138-0.386-0.722-2.257-0.722-2.663c0-0.292,0.18-0.428,0.402-0.428h0.452
			c0.139,0,0.159-0.09,0.159-0.226v-0.405c0-0.136-0.048-0.181-0.224-0.181c-0.249,0-0.838,0.065-2.032,0.065
			c-1.265,0-1.646-0.065-1.896-0.065c-0.2,0-0.243,0.021-0.243,0.181v0.405c0,0.136,0.021,0.226,0.133,0.226h0.45
			c0.409,0,0.632,0.181,0.924,0.834c0.159,0.36,1.084,2.934,1.153,3.114c0.068,0.18,1.715,4.465,1.757,4.576
			c0.111,0.271,0.249,0.476,0.473,0.476c0.25,0,0.361-0.205,0.542-0.521c0.089-0.157,1.762-3.947,2.032-4.622
			c0.335-0.836,1.466-3.294,1.806-3.61c0.201-0.201,0.426-0.247,0.695-0.247h0.431c0.111,0,0.111-0.068,0.111-0.226v-0.385
			c0-0.18-0.021-0.201-0.202-0.201c-0.201,0-0.743,0.065-1.625,0.065c-0.993,0-1.486-0.065-1.805-0.065
			c-0.091,0-0.132,0.045-0.132,0.181v0.405c0,0.111,0.021,0.226,0.089,0.226h0.452c0.402,0,0.562,0.361,0.402,0.969
			c-0.223,0.879-1.805,4.736-2.166,5.618h-0.062C363.137,56.22,362.165,53.626,362.032,53.199z"/>
		<path fill="#FFFFFF" d="M370.236,55.521c0,0.677,0,1.375-0.022,2.052c-0.021,0.362-0.111,0.451-0.36,0.451h-1.104
			c-0.159,0-0.224,0.046-0.224,0.182v0.45c0,0.137,0.064,0.182,0.182,0.182c0.243,0,1.124-0.069,2.432-0.069
			c0.949,0,1.985,0.069,2.166,0.069c0.158,0,0.201-0.069,0.201-0.226v-0.385c0-0.136-0.043-0.203-0.223-0.203h-1.041
			c-0.244,0-0.313-0.159-0.355-0.586c-0.027-0.247-0.027-1.059-0.027-1.94v-2.459c0-1.871,0-3.291,0.049-3.677
			c0.021-0.156,0-0.268-0.112-0.268c-0.137,0-0.249,0.042-0.43,0.133c-0.859,0.475-1.715,0.836-2.438,1.106
			c-0.11,0.046-0.158,0.091-0.158,0.157v0.204c0,0.091,0.048,0.136,0.206,0.157c1.126,0.181,1.26,0.586,1.26,1.354V55.521z
			 M370.464,46.499c0.902,0,1.306-0.653,1.306-1.24c0-0.496-0.382-1.104-1.173-1.104c-0.903,0-1.375,0.608-1.375,1.174
			C369.222,46.05,369.965,46.499,370.464,46.499z"/>
		<path fill="#FFFFFF" d="M379.102,49.814c0.542,0,1.014,0.068,1.508,0.993c0.34,0.609,0.723,0.902,1.243,0.902
			c0.472,0,0.812-0.271,0.833-0.789c0-0.475-0.722-1.826-3.068-1.826c-2.973,0-4.826,2.66-4.826,5.299
			c0,1.014,0.181,1.962,1.014,3.066c1.041,1.309,2.305,1.579,3.499,1.579c1.534,0,2.979-0.857,3.631-1.601
			c0.112-0.136,0.092-0.204,0-0.295l-0.228-0.223c-0.068-0.069-0.133-0.046-0.18,0c-0.765,0.72-1.354,0.969-2.479,0.969
			c-0.765,0-1.716-0.181-2.459-1.149c-0.61-0.836-1.151-2.211-1.151-3.43C376.438,50.987,377.812,49.814,379.102,49.814z"/>
		<path fill="#FFFFFF" d="M391.388,52.77c0.361,0,0.633-0.046,0.633-0.362c0-0.878-0.723-3.312-3.313-3.312
			c-1.131,0-2.258,0.202-3.229,1.194c-1.194,1.195-1.417,2.706-1.417,3.587c0,1.576,0.202,2.412,0.987,3.562
			c0.839,1.218,2.256,1.601,3.541,1.601c2.007,0,3.181-1.555,3.59-2.458c0.11-0.247,0.069-0.316,0-0.337l-0.293-0.16
			c-0.069-0.021-0.158,0.024-0.207,0.114c-0.382,0.743-1.354,1.532-2.729,1.532c-1.801,0-3.201-1.668-3.201-3.878
			c0-0.519,0.021-0.879,0.068-1.083H391.388z M385.908,52.092c0.431-1.667,1.375-2.323,2.368-2.323c1.466,0,1.736,1.49,1.736,2.01
			c0,0.202-0.181,0.313-0.61,0.313H385.908z"/>
		<path fill="#FFFFFF" d="M396.575,59.039c1.916,0,3.403-1.149,3.425-2.977c-0.021-1.735-1.057-2.412-2.702-2.888
			c-1.11-0.315-2.167-0.562-2.167-1.872c0-0.969,0.876-1.488,1.736-1.488c0.882,0,1.306,0.451,1.577,0.881l0.77,1.035
			c0.063,0.114,0.111,0.136,0.202,0.114l0.271-0.09c0.111-0.045,0.158-0.111,0.158-0.202l-0.34-1.579
			c-0.021-0.136-0.068-0.249-0.408-0.406c-0.404-0.205-0.994-0.473-2.071-0.473c-1.694,0-3.159,1.194-3.159,2.75
			c0,1.781,1.334,2.482,2.659,2.865c1.694,0.472,2.189,1.059,2.189,2.075c0,1.059-0.994,1.532-1.78,1.532
			c-1.199,0-1.513-0.563-1.964-1.396l-0.562-1.107c-0.048-0.111-0.111-0.156-0.203-0.136l-0.296,0.069
			c-0.09,0.021-0.154,0.066-0.133,0.181l0.382,2.143c0.021,0.111,0.021,0.247,0.139,0.316
			C394.568,58.588,395.466,59.039,396.575,59.039z"/>
	</g>
</g>
</svg>
