<?xml version="1.0" encoding="utf-8"?>
<!-- Generator: Adobe Illustrator 15.0.0, SVG Export Plug-In . SVG Version: 6.00 Build 0)  -->
<!DOCTYPE svg PUBLIC "-//W3C//DTD SVG 1.1//EN" "http://www.w3.org/Graphics/SVG/1.1/DTD/svg11.dtd">
<svg version="1.1" id="Layer_1" xmlns="http://www.w3.org/2000/svg" xmlns:xlink="http://www.w3.org/1999/xlink" x="0px" y="0px"
	 width="268.401px" height="166.81px" viewBox="0 0 268.401 166.81" enable-background="new 0 0 268.401 166.81"
	 xml:space="preserve">
<path fill="#FCC95D" d="M70.295,11.021c4.255-0.146,8.538,0.494,12.551,1.917c6.037,2.119,11.433,6.004,15.381,11.035
	c1.737,2.208,3.191,4.633,4.332,7.199c0.202,0.427,0.357,0.907,0.25,1.383c-0.133,0.799-0.833,1.459-1.638,1.54
	c-0.836,0.121-1.701-0.4-2-1.188c-2.268-5.335-6.136-9.968-10.962-13.177c-2.984-1.994-6.33-3.445-9.826-4.258
	c-4.509-1.054-9.255-1.054-13.764-0.003c-6.437,1.483-12.332,5.175-16.49,10.307c-1.763,2.162-3.219,4.573-4.316,7.137
	c-0.237,0.596-0.783,1.062-1.42,1.167c-0.614,0.119-1.282-0.092-1.71-0.551c-0.505-0.505-0.67-1.313-0.41-1.978
	c3.021-7.14,8.611-13.138,15.487-16.708C60.238,12.499,65.247,11.192,70.295,11.021L70.295,11.021z"/>
<path fill="#FFFFFF" d="M64.673,33.005c-0.025-0.371,0.326-0.649,0.673-0.658c0.452-0.011,0.905-0.008,1.357-0.001
	c0.315,0.011,0.683,0.22,0.681,0.573c0.016,4.149-0.01,8.299,0.013,12.451c1.682-1.87,3.377-3.729,5.063-5.592
	c0.333-0.327,0.596-0.824,1.112-0.867c0.696-0.029,1.394-0.011,2.091-0.011c0.269-0.024,0.568,0.223,0.475,0.509
	c-0.111,0.221-0.312,0.374-0.478,0.549c-1.824,1.823-3.655,3.639-5.47,5.47c1.753,2,3.482,4.022,5.227,6.03
	c0.225,0.287,0.505,0.529,0.693,0.844c0.139,0.247-0.09,0.546-0.354,0.558c-0.579,0.032-1.16,0-1.742,0.014
	c-0.302-0.007-0.628,0.037-0.903-0.12c-0.289-0.166-0.465-0.462-0.671-0.711c-1.683-2.12-3.356-4.248-5.045-6.363
	c-0.017,2.086-0.005,4.172-0.006,6.257c-0.006,0.241,0.042,0.531-0.167,0.707c-0.334,0.322-0.831,0.209-1.247,0.23
	c-0.369-0.013-0.801,0.068-1.102-0.205c-0.167-0.13-0.211-0.351-0.204-0.549C64.674,45.747,64.668,39.375,64.673,33.005
	L64.673,33.005z"/>
<path fill="#FFFFFF" d="M57.005,38.866c0.844-0.272,1.795-0.323,2.622,0.034c0.29,0.136,0.627,0.427,0.496,0.785
	c-0.133,0.45-0.245,0.904-0.404,1.345c-0.116,0.317-0.483,0.435-0.793,0.374c-0.696-0.12-1.38-0.35-2.094-0.326
	c-0.498-0.012-0.958,0.255-1.298,0.602c-0.55,0.539-0.834,1.289-0.962,2.035c-0.102,0.54-0.073,1.09-0.078,1.635
	c0,2.289,0.001,4.58,0,6.868c0.033,0.376-0.357,0.631-0.697,0.645c-0.466,0.007-0.932,0.013-1.398-0.003
	c-0.336-0.018-0.715-0.263-0.672-0.642c-0.002-4.238-0.005-8.476,0.001-12.715c-0.03-0.421,0.438-0.65,0.804-0.61
	c0.46,0.03,1.087-0.143,1.385,0.319c0.228,0.537,0.335,1.116,0.548,1.657C55.106,39.986,55.956,39.211,57.005,38.866L57.005,38.866z
	"/>
<path fill="#FFFFFF" d="M9.426,39.188c0.129-0.148,0.282-0.308,0.498-0.294c0.633-0.005,1.267-0.019,1.899,0.01
	c0.321,0.009,0.543,0.292,0.59,0.59c0.622,2.531,1.233,5.065,1.853,7.597c0.182,0.782,0.403,1.556,0.522,2.35
	c0.121,0.715,0.146,1.44,0.262,2.155c0.161-1.021,0.303-2.049,0.58-3.047c0.809-3.021,1.619-6.042,2.43-9.062
	c0.063-0.344,0.387-0.589,0.731-0.589c0.705-0.017,1.41-0.005,2.115-0.005c0.377-0.018,0.781,0.204,0.873,0.59
	c0.605,2.203,1.202,4.409,1.805,6.613c0.367,1.428,0.845,2.832,1.052,4.297c0.058,0.403,0.113,0.807,0.196,1.208
	c0.227-2.301,0.82-4.541,1.306-6.794c0.403-1.793,0.795-3.587,1.203-5.381c0.06-0.36,0.44-0.541,0.776-0.531
	c0.569-0.003,1.14-0.02,1.709,0.01c0.337,0.009,0.532,0.383,0.413,0.685c-1.144,4.218-2.283,8.44-3.426,12.659
	c-0.061,0.337-0.356,0.601-0.702,0.607c-0.883,0.029-1.768,0.007-2.651,0.012c-0.316,0.02-0.651-0.15-0.707-0.483
	c-0.79-2.902-1.565-5.807-2.348-8.711c-0.284-1.01-0.398-2.057-0.518-3.095c-0.146,0.925-0.217,1.865-0.464,2.774
	c-0.801,2.99-1.608,5.98-2.411,8.97c-0.091,0.484-0.645,0.581-1.057,0.549c-0.82-0.015-1.642,0.018-2.461-0.015
	c-0.292,0.001-0.519-0.227-0.571-0.503c-1.152-4.201-2.3-8.405-3.455-12.606C9.429,39.56,9.435,39.374,9.426,39.188L9.426,39.188z"
	/>
<path fill="#FFFFFF" d="M112.988,38.903c0.599-0.011,1.201-0.013,1.801,0c0.365,0.004,0.707,0.254,0.822,0.603
	c1.036,2.707,2.063,5.417,3.098,8.125c0.216,0.549,0.367,1.122,0.463,1.704c0.428-1.605,0.997-3.168,1.497-4.753
	c0.556-1.714,1.113-3.427,1.672-5.141c0.082-0.298,0.367-0.502,0.67-0.527c0.489-0.036,0.981-0.005,1.472-0.018
	c0.286,0.003,0.628-0.03,0.847,0.201c0.142,0.12,0.112,0.319,0.053,0.475c-1.655,4.719-3.305,9.441-4.956,14.162
	c-0.288,0.787-0.508,1.609-0.971,2.317c-0.664,1.078-1.738,1.854-2.92,2.273c-0.412,0.127-0.838,0.411-1.283,0.252
	c-0.314-0.08-0.436-0.408-0.604-0.648c-0.12-0.218-0.343-0.42-0.297-0.692c0.022-0.27,0.238-0.489,0.492-0.562
	c0.499-0.172,1.005-0.361,1.409-0.713c0.98-0.83,1.586-2.057,1.818-3.306c-0.157-0.555-0.446-1.064-0.656-1.601
	c-1.578-3.667-3.156-7.335-4.738-11.001c-0.095-0.239-0.235-0.468-0.262-0.729C112.418,39.036,112.746,38.911,112.988,38.903
	L112.988,38.903z"/>
<path fill="#FFFFFF" d="M39.785,38.664c1.558-0.096,3.189,0.228,4.475,1.15c1.15,0.818,1.931,2.079,2.295,3.43
	c0.433,1.614,0.432,3.336,0.038,4.958c-0.369,1.496-1.236,2.905-2.542,3.754c-1.397,0.927-3.151,1.167-4.791,0.971
	c-1.396-0.172-2.756-0.784-3.729-1.814c-1.144-1.197-1.711-2.846-1.829-4.476c-0.144-1.809,0.133-3.721,1.139-5.266
	c0.744-1.162,1.927-2.016,3.247-2.405C38.638,38.792,39.211,38.712,39.785,38.664L39.785,38.664z M39.421,40.676
	c-0.86,0.16-1.646,0.695-2.083,1.459c-0.729,1.237-0.814,2.73-0.781,4.134c0.053,1.271,0.256,2.625,1.067,3.652
	c0.604,0.772,1.598,1.161,2.563,1.145c0.93,0.031,1.902-0.284,2.532-0.991c0.804-0.879,1.063-2.101,1.174-3.252
	c0.047-1.13,0.071-2.282-0.222-3.386c-0.233-0.932-0.727-1.865-1.579-2.367C41.3,40.584,40.32,40.539,39.421,40.676L39.421,40.676z"
	/>
<path fill="#FFFFFF" d="M89.398,32.827c-0.021-0.325,0.312-0.533,0.601-0.558c0.462-0.025,0.926-0.013,1.39-0.007
	c0.353-0.004,0.748,0.258,0.697,0.651c0,6.401,0,12.803-0.001,19.203c0.024,0.33-0.302,0.587-0.607,0.606
	c-0.368,0.02-0.737,0.02-1.104-0.006c-0.26-0.016-0.51-0.183-0.599-0.43c-0.138-0.416-0.21-0.848-0.316-1.271
	c-0.511,0.693-1.17,1.307-1.989,1.611c-1.167,0.431-2.468,0.437-3.667,0.145c-1.207-0.291-2.256-1.119-2.839-2.21
	c-0.913-1.666-1.021-3.624-0.965-5.481c0.033-1.587,0.336-3.262,1.371-4.521c0.779-1.068,2.057-1.679,3.348-1.841
	c1.201-0.175,2.504,0.027,3.498,0.755c0.471,0.331,0.847,0.775,1.184,1.238C89.39,38.083,89.393,35.456,89.398,32.827L89.398,32.827
	z M85.724,40.603c-0.854,0.055-1.678,0.545-2.059,1.325c-0.745,1.44-0.761,3.119-0.723,4.704c0.059,1.035,0.172,2.104,0.654,3.04
	c0.327,0.629,0.919,1.126,1.62,1.279c1.072,0.257,2.333,0.04,3.097-0.807c0.734-0.837,0.976-1.973,1.088-3.049
	c0.078-1.227,0.083-2.478-0.222-3.679c-0.209-0.802-0.563-1.604-1.2-2.162C87.371,40.716,86.521,40.509,85.724,40.603L85.724,40.603
	z"/>
<path fill="#FFFFFF" d="M101.135,38.929c1.233-0.342,2.553-0.361,3.798-0.077c1.157,0.269,2.241,0.918,2.952,1.88
	c0.752,0.986,1.132,2.209,1.29,3.427c0.137,0.94,0.097,1.892,0.098,2.838c0,1.708,0,3.417-0.004,5.125
	c0.02,0.208-0.112,0.393-0.282,0.501c-0.287,0.176-0.644,0.099-0.962,0.118c-0.359-0.001-0.831,0.029-1.027-0.344
	c-0.189-0.439-0.229-0.928-0.352-1.39c-0.48,0.584-0.979,1.188-1.675,1.525c-1.06,0.524-2.3,0.494-3.435,0.272
	c-1.389-0.274-2.668-1.095-3.454-2.278c-0.935-1.378-1.274-3.079-1.262-4.724c-0.01-1.602,0.303-3.259,1.194-4.615
	C98.727,40.082,99.87,39.279,101.135,38.929L101.135,38.929z M102.325,40.683c-0.429,0.087-0.843,0.259-1.19,0.527
	c-0.692,0.54-1.036,1.396-1.22,2.228c-0.267,1.319-0.264,2.683-0.125,4.018c0.129,0.98,0.375,2.027,1.094,2.752
	c0.586,0.614,1.469,0.84,2.295,0.8c0.889,0.032,1.813-0.298,2.386-0.997c0.717-0.866,0.919-2.02,1.024-3.105
	c0.066-1.277,0.067-2.585-0.292-3.825c-0.227-0.773-0.642-1.541-1.34-1.982C104.186,40.593,103.212,40.546,102.325,40.683
	L102.325,40.683z"/>
<path fill="#FFFFFF" d="M126.068,49.058c0.418-0.066,0.873-0.071,1.261,0.123c0.661,0.3,1.136,1.01,1.064,1.748
	c0.054,0.88-0.687,1.667-1.531,1.809c-0.951,0.202-1.975-0.487-2.169-1.436C124.444,50.346,125.108,49.271,126.068,49.058
	L126.068,49.058z M125.971,49.425c-0.705,0.259-1.149,1.073-0.969,1.808c0.184,0.861,1.187,1.449,2.023,1.13
	c0.771-0.235,1.258-1.115,1.019-1.891C127.834,49.6,126.798,49.084,125.971,49.425L125.971,49.425z"/>
<path fill="#FFFFFF" d="M125.737,49.804c0.505,0.03,1.072-0.113,1.527,0.169c0.367,0.275,0.189,0.875-0.225,1.002
	c0.12,0.316,0.286,0.61,0.438,0.911c-0.192,0.003-0.379,0.007-0.568,0.011c-0.136-0.279-0.27-0.562-0.399-0.843
	c-0.083-0.002-0.164-0.003-0.244-0.004c-0.001,0.281-0.001,0.562-0.001,0.843c-0.179-0.002-0.355-0.005-0.53-0.006
	C125.735,51.193,125.733,50.498,125.737,49.804L125.737,49.804z M126.265,50.13c-0.001,0.2-0.002,0.399,0,0.601
	c0.176-0.01,0.356,0,0.528-0.048c0.164-0.067,0.146-0.274,0.103-0.412C126.728,50.106,126.478,50.148,126.265,50.13L126.265,50.13z"
	/>
<rect y="129.326" fill="none" width="136.34" height="48.484"/>
<text transform="matrix(1 0 0 1 0 164.0615)"><tspan x="0" y="0" fill="#FFFFFF" font-family="'National-Extrabold'" font-size="52">my</tspan><tspan x="67.755" y="0" font-family="'National-Extrabold'" font-size="40" letter-spacing="-5"> </tspan><tspan x="70.995" y="0" fill="#FFCC00" font-family="'National-Light'" font-size="40.6">USC</tspan></text>
<path fill="#FFFFFF" d="M210.295,11.021c4.255-0.146,8.538,0.494,12.551,1.917c6.037,2.119,11.433,6.004,15.381,11.035
	c1.737,2.208,3.191,4.633,4.332,7.199c0.202,0.427,0.357,0.907,0.25,1.383c-0.133,0.799-0.833,1.459-1.638,1.54
	c-0.836,0.121-1.701-0.4-2-1.188c-2.268-5.335-6.136-9.968-10.962-13.177c-2.984-1.994-6.33-3.445-9.826-4.258
	c-4.509-1.054-9.255-1.054-13.764-0.003c-6.437,1.483-12.332,5.175-16.49,10.307c-1.763,2.162-3.219,4.573-4.316,7.137
	c-0.237,0.596-0.783,1.062-1.42,1.167c-0.614,0.119-1.282-0.092-1.71-0.551c-0.505-0.505-0.67-1.313-0.41-1.978
	c3.021-7.14,8.611-13.138,15.487-16.708C200.238,12.499,205.247,11.192,210.295,11.021L210.295,11.021z"/>
<path fill="#FFFFFF" d="M204.673,33.005c-0.025-0.371,0.326-0.649,0.673-0.658c0.452-0.011,0.905-0.008,1.357-0.001
	c0.315,0.011,0.683,0.22,0.681,0.573c0.016,4.149-0.01,8.299,0.013,12.451c1.682-1.87,3.377-3.729,5.063-5.592
	c0.333-0.327,0.596-0.824,1.112-0.867c0.696-0.029,1.394-0.011,2.091-0.011c0.269-0.024,0.568,0.223,0.475,0.509
	c-0.111,0.221-0.312,0.374-0.478,0.549c-1.824,1.823-3.655,3.639-5.47,5.47c1.753,2,3.482,4.022,5.227,6.03
	c0.225,0.287,0.505,0.529,0.693,0.844c0.139,0.247-0.09,0.546-0.354,0.558c-0.579,0.032-1.16,0-1.742,0.014
	c-0.302-0.007-0.628,0.037-0.903-0.12c-0.289-0.166-0.465-0.462-0.671-0.711c-1.683-2.12-3.356-4.248-5.045-6.363
	c-0.017,2.086-0.005,4.172-0.006,6.257c-0.006,0.241,0.042,0.531-0.167,0.707c-0.334,0.322-0.831,0.209-1.247,0.23
	c-0.369-0.013-0.801,0.068-1.102-0.205c-0.167-0.13-0.211-0.351-0.204-0.549C204.674,45.747,204.668,39.375,204.673,33.005
	L204.673,33.005z"/>
<path fill="#FFFFFF" d="M197.005,38.866c0.844-0.272,1.795-0.323,2.622,0.034c0.29,0.136,0.627,0.427,0.496,0.785
	c-0.133,0.45-0.245,0.904-0.404,1.345c-0.116,0.317-0.483,0.435-0.793,0.374c-0.696-0.12-1.38-0.35-2.094-0.326
	c-0.498-0.012-0.958,0.255-1.298,0.602c-0.55,0.539-0.834,1.289-0.962,2.035c-0.102,0.54-0.073,1.09-0.078,1.635
	c0,2.289,0.001,4.58,0,6.868c0.033,0.376-0.357,0.631-0.697,0.645c-0.466,0.007-0.932,0.013-1.398-0.003
	c-0.336-0.018-0.715-0.263-0.672-0.642c-0.002-4.238-0.005-8.476,0.001-12.715c-0.03-0.421,0.438-0.65,0.804-0.61
	c0.46,0.03,1.087-0.143,1.385,0.319c0.228,0.537,0.335,1.116,0.548,1.657C195.106,39.986,195.956,39.211,197.005,38.866
	L197.005,38.866z"/>
<path fill="#FFFFFF" d="M149.426,39.188c0.129-0.148,0.282-0.308,0.498-0.294c0.633-0.005,1.267-0.019,1.899,0.01
	c0.321,0.009,0.543,0.292,0.59,0.59c0.622,2.531,1.233,5.065,1.853,7.597c0.182,0.782,0.403,1.556,0.522,2.35
	c0.121,0.715,0.146,1.44,0.262,2.155c0.161-1.021,0.303-2.049,0.58-3.047c0.809-3.021,1.619-6.042,2.43-9.062
	c0.063-0.344,0.387-0.589,0.731-0.589c0.705-0.017,1.41-0.005,2.115-0.005c0.377-0.018,0.781,0.204,0.873,0.59
	c0.605,2.203,1.202,4.409,1.805,6.613c0.367,1.428,0.845,2.832,1.052,4.297c0.058,0.403,0.113,0.807,0.196,1.208
	c0.227-2.301,0.82-4.541,1.306-6.794c0.403-1.793,0.795-3.587,1.203-5.381c0.06-0.36,0.44-0.541,0.776-0.531
	c0.569-0.003,1.14-0.02,1.709,0.01c0.337,0.009,0.532,0.383,0.413,0.685c-1.144,4.218-2.283,8.44-3.426,12.659
	c-0.061,0.337-0.356,0.601-0.702,0.607c-0.883,0.029-1.768,0.007-2.651,0.012c-0.316,0.02-0.651-0.15-0.707-0.483
	c-0.79-2.902-1.565-5.807-2.348-8.711c-0.284-1.01-0.398-2.057-0.518-3.095c-0.146,0.925-0.217,1.865-0.464,2.774
	c-0.801,2.99-1.608,5.98-2.411,8.97c-0.091,0.484-0.645,0.581-1.057,0.549c-0.82-0.015-1.642,0.018-2.461-0.015
	c-0.292,0.001-0.519-0.227-0.571-0.503c-1.152-4.201-2.3-8.405-3.455-12.606C149.429,39.56,149.435,39.374,149.426,39.188
	L149.426,39.188z"/>
<path fill="#FFFFFF" d="M252.988,38.903c0.599-0.011,1.201-0.013,1.801,0c0.365,0.004,0.707,0.254,0.822,0.603
	c1.036,2.707,2.063,5.417,3.098,8.125c0.216,0.549,0.367,1.122,0.463,1.704c0.428-1.605,0.997-3.168,1.497-4.753
	c0.556-1.714,1.113-3.427,1.672-5.141c0.082-0.298,0.367-0.502,0.67-0.527c0.489-0.036,0.981-0.005,1.472-0.018
	c0.286,0.003,0.628-0.03,0.847,0.201c0.142,0.12,0.112,0.319,0.053,0.475c-1.655,4.719-3.305,9.441-4.956,14.162
	c-0.288,0.787-0.508,1.609-0.971,2.317c-0.664,1.078-1.738,1.854-2.92,2.273c-0.412,0.127-0.838,0.411-1.283,0.252
	c-0.314-0.08-0.436-0.408-0.604-0.648c-0.12-0.218-0.343-0.42-0.297-0.692c0.022-0.27,0.238-0.489,0.492-0.562
	c0.499-0.172,1.005-0.361,1.409-0.713c0.98-0.83,1.586-2.057,1.818-3.306c-0.157-0.555-0.446-1.064-0.656-1.601
	c-1.578-3.667-3.156-7.335-4.738-11.001c-0.095-0.239-0.235-0.468-0.262-0.729C252.418,39.036,252.746,38.911,252.988,38.903
	L252.988,38.903z"/>
<path fill="#FFFFFF" d="M179.785,38.664c1.558-0.096,3.189,0.228,4.475,1.15c1.15,0.818,1.931,2.079,2.295,3.43
	c0.433,1.614,0.432,3.336,0.038,4.958c-0.369,1.496-1.236,2.905-2.542,3.754c-1.397,0.927-3.151,1.167-4.791,0.971
	c-1.396-0.172-2.756-0.784-3.729-1.814c-1.144-1.197-1.711-2.846-1.829-4.476c-0.144-1.809,0.133-3.721,1.139-5.266
	c0.744-1.162,1.927-2.016,3.247-2.405C178.638,38.792,179.211,38.712,179.785,38.664L179.785,38.664z M179.421,40.676
	c-0.86,0.16-1.646,0.695-2.083,1.459c-0.729,1.237-0.814,2.73-0.781,4.134c0.053,1.271,0.256,2.625,1.067,3.652
	c0.604,0.772,1.598,1.161,2.563,1.145c0.93,0.031,1.902-0.284,2.532-0.991c0.804-0.879,1.063-2.101,1.174-3.252
	c0.047-1.13,0.071-2.282-0.222-3.386c-0.233-0.932-0.727-1.865-1.579-2.367C181.3,40.584,180.32,40.539,179.421,40.676
	L179.421,40.676z"/>
<path fill="#FFFFFF" d="M229.398,32.827c-0.021-0.325,0.312-0.533,0.601-0.558c0.462-0.025,0.926-0.013,1.39-0.007
	c0.353-0.004,0.748,0.258,0.697,0.651c0,6.401,0,12.803-0.001,19.203c0.024,0.33-0.302,0.587-0.607,0.606
	c-0.368,0.02-0.737,0.02-1.104-0.006c-0.26-0.016-0.51-0.183-0.599-0.43c-0.138-0.416-0.21-0.848-0.316-1.271
	c-0.511,0.693-1.17,1.307-1.989,1.611c-1.167,0.431-2.468,0.437-3.667,0.145c-1.207-0.291-2.256-1.119-2.839-2.21
	c-0.913-1.666-1.021-3.624-0.965-5.481c0.033-1.587,0.336-3.262,1.371-4.521c0.779-1.068,2.057-1.679,3.348-1.841
	c1.201-0.175,2.504,0.027,3.498,0.755c0.471,0.331,0.847,0.775,1.184,1.238C229.39,38.083,229.393,35.456,229.398,32.827
	L229.398,32.827z M225.724,40.603c-0.854,0.055-1.678,0.545-2.059,1.325c-0.745,1.44-0.761,3.119-0.723,4.704
	c0.059,1.035,0.172,2.104,0.654,3.04c0.327,0.629,0.919,1.126,1.62,1.279c1.072,0.257,2.333,0.04,3.097-0.807
	c0.734-0.837,0.976-1.973,1.088-3.049c0.078-1.227,0.083-2.478-0.222-3.679c-0.209-0.802-0.563-1.604-1.2-2.162
	C227.371,40.716,226.521,40.509,225.724,40.603L225.724,40.603z"/>
<path fill="#FFFFFF" d="M241.135,38.929c1.233-0.342,2.553-0.361,3.798-0.077c1.157,0.269,2.241,0.918,2.952,1.88
	c0.752,0.986,1.132,2.209,1.29,3.427c0.137,0.94,0.097,1.892,0.098,2.838c0,1.708,0,3.417-0.004,5.125
	c0.02,0.208-0.112,0.393-0.282,0.501c-0.287,0.176-0.644,0.099-0.962,0.118c-0.359-0.001-0.831,0.029-1.027-0.344
	c-0.189-0.439-0.229-0.928-0.352-1.39c-0.48,0.584-0.979,1.188-1.675,1.525c-1.06,0.524-2.3,0.494-3.435,0.272
	c-1.389-0.274-2.668-1.095-3.454-2.278c-0.935-1.378-1.274-3.079-1.262-4.724c-0.01-1.602,0.303-3.259,1.194-4.615
	C238.727,40.082,239.87,39.279,241.135,38.929L241.135,38.929z M242.325,40.683c-0.429,0.087-0.843,0.259-1.19,0.527
	c-0.692,0.54-1.036,1.396-1.22,2.228c-0.267,1.319-0.264,2.683-0.125,4.018c0.129,0.98,0.375,2.027,1.094,2.752
	c0.586,0.614,1.469,0.84,2.295,0.8c0.889,0.032,1.813-0.298,2.386-0.997c0.717-0.866,0.919-2.02,1.024-3.105
	c0.066-1.277,0.067-2.585-0.292-3.825c-0.227-0.773-0.642-1.541-1.34-1.982C244.186,40.593,243.212,40.546,242.325,40.683
	L242.325,40.683z"/>
<path fill="#FFFFFF" d="M266.068,49.058c0.418-0.066,0.873-0.071,1.261,0.123c0.661,0.3,1.136,1.01,1.064,1.748
	c0.054,0.88-0.687,1.667-1.531,1.809c-0.951,0.202-1.975-0.487-2.169-1.436C264.444,50.346,265.108,49.271,266.068,49.058
	L266.068,49.058z M265.971,49.425c-0.705,0.259-1.149,1.073-0.969,1.808c0.184,0.861,1.187,1.449,2.023,1.13
	c0.771-0.235,1.258-1.115,1.019-1.891C267.834,49.6,266.798,49.084,265.971,49.425L265.971,49.425z"/>
<path fill="#FFFFFF" d="M265.737,49.804c0.505,0.03,1.072-0.113,1.527,0.169c0.367,0.275,0.189,0.875-0.225,1.002
	c0.12,0.316,0.286,0.61,0.438,0.911c-0.192,0.003-0.379,0.007-0.568,0.011c-0.136-0.279-0.27-0.562-0.399-0.843
	c-0.083-0.002-0.164-0.003-0.244-0.004c-0.001,0.281-0.001,0.562-0.001,0.843c-0.179-0.002-0.355-0.005-0.53-0.006
	C265.735,51.193,265.733,50.498,265.737,49.804L265.737,49.804z M266.265,50.13c-0.001,0.2-0.002,0.399,0,0.601
	c0.176-0.01,0.356,0,0.528-0.048c0.164-0.067,0.146-0.274,0.103-0.412C266.728,50.106,266.478,50.148,266.265,50.13L266.265,50.13z"
	/>
</svg>
