<?xml version="1.0" encoding="utf-8"?>
<!-- Generator: Adobe Illustrator 15.0.0, SVG Export Plug-In . SVG Version: 6.00 Build 0)  -->
<!DOCTYPE svg PUBLIC "-//W3C//DTD SVG 1.1//EN" "http://www.w3.org/Graphics/SVG/1.1/DTD/svg11.dtd">
<svg version="1.1" id="Layer_1" xmlns="http://www.w3.org/2000/svg" xmlns:xlink="http://www.w3.org/1999/xlink" x="0px" y="0px"
	 width="274.5px" height="195.998px" viewBox="-77.5 2.001 274.5 195.998" enable-background="new -77.5 2.001 274.5 195.998"
	 xml:space="preserve">
<path fill="#CC0000" d="M164.752,28.162C137.069,8.88,94.118,2.08,59.835,2.08c-0.105,0-0.085-0.079-0.085-0.079
	s0.021,0.079-0.085,0.079c-34.283,0-77.233,6.8-104.917,26.082C-74.08,48.242-77.5,75-77.5,100s3.421,51.758,32.25,71.838
	c27.682,19.281,70.634,26.082,104.917,26.082c0.105,0,0.085,0.079,0.085,0.079s-0.021-0.079,0.085-0.079
	c34.283,0,77.236-6.801,104.917-26.082C193.579,151.758,197,125,197,100S193.579,48.242,164.752,28.162z"/>
</svg>
