<?xml version="1.0" encoding="utf-8"?>
<!-- Generator: Adobe Illustrator 15.0.0, SVG Export Plug-In . SVG Version: 6.00 Build 0)  -->
<!DOCTYPE svg PUBLIC "-//W3C//DTD SVG 1.1//EN" "http://www.w3.org/Graphics/SVG/1.1/DTD/svg11.dtd">
<svg version="1.1" id="Layer_1" xmlns="http://www.w3.org/2000/svg" xmlns:xlink="http://www.w3.org/1999/xlink" x="0px" y="0px"
	 width="200px" height="200px" viewBox="0 0 200 200" enable-background="new 0 0 200 200" xml:space="preserve">
<g>
	<path fill="#FFCE0C" d="M39.65,5.373c0-0.743-0.175-1.093-0.743-1.093H37.9c-0.132,0-0.177-0.044-0.177-0.198V3.578
		c0-0.131,0.045-0.175,0.219-0.175c0.219,0,1.268,0.066,3.37,0.066c1.838,0,2.888-0.066,3.151-0.066
		c0.131,0,0.174,0.044,0.174,0.154v0.547c0,0.131-0.043,0.176-0.174,0.176h-0.919c-0.657,0-1.05,0.392-1.072,0.853
		c-0.022,0.264-0.065,1.574-0.065,2.843v2.715c0,1.092,0.021,2.646,0.065,3.347c0.066,1.006,0.241,2.012,0.767,2.713
		c0.744,1.005,1.926,1.356,2.975,1.356c1.006,0,2.232-0.395,2.931-1.049c0.833-0.832,1.27-2.101,1.27-3.698V9.422
		c0-1.751-0.176-3.677-0.241-4.178c-0.066-0.57-0.415-0.962-0.897-0.962h-0.788c-0.131,0-0.175-0.067-0.175-0.155V3.579
		c0-0.131,0.044-0.174,0.175-0.174c0.219,0,1.225,0.063,2.67,0.063c1.356,0,2.056-0.063,2.23-0.063c0.198,0,0.22,0.063,0.22,0.174
		v0.503c0,0.132-0.021,0.198-0.132,0.198H52.69c-0.789,0-0.876,0.611-0.92,0.853c-0.043,0.264-0.043,3.325-0.043,3.611
		c0,0.305-0.044,4.113-0.13,4.988c-0.133,1.792-0.658,3.15-1.839,4.199c-0.919,0.833-2.32,1.357-3.983,1.357
		c-1.05,0-2.318-0.175-3.15-0.524c-1.27-0.525-2.145-1.533-2.582-2.931c-0.306-0.964-0.393-2.409-0.393-5.275V5.373L39.65,5.373z"/>
	<path fill="#FFCE0C" d="M54.222,14.08c0.087,0,0.131,0.044,0.131,0.176c0.045,0.699,0.219,1.531,0.832,2.495
		c0.656,1.049,1.795,1.574,2.888,1.574c1.18,0,2.843-0.743,2.843-2.559c0-2.013-0.918-2.671-3.237-3.544
		c-0.699-0.261-2.145-0.876-3.194-1.837c-0.744-0.702-1.094-1.794-1.094-3.129c0-1.226,0.481-2.231,1.532-3.064
		c0.876-0.742,1.838-1.049,3.107-1.049c1.443,0,2.319,0.349,2.757,0.525c0.219,0.087,0.35,0.043,0.46-0.067l0.283-0.283
		c0.089-0.089,0.176-0.131,0.306-0.131c0.132,0,0.176,0.131,0.176,0.348c0,0.351,0.35,3.413,0.35,3.633
		c0,0.087-0.044,0.131-0.131,0.154l-0.349,0.11c-0.089,0.021-0.176,0-0.219-0.133c-0.22-0.613-0.57-1.489-1.357-2.318
		c-0.568-0.613-1.268-0.92-2.274-0.92c-1.751,0-2.45,1.401-2.45,2.21c0,0.744,0.088,1.4,0.612,1.969
		c0.569,0.57,1.794,1.094,2.67,1.357c1.268,0.394,2.318,0.832,3.15,1.706c0.698,0.745,1.093,1.662,1.093,3.13
		c0,2.668-1.749,4.854-4.637,4.854c-1.794,0-2.845-0.393-3.72-1.049c-0.262-0.176-0.394-0.264-0.524-0.264
		c-0.131,0-0.219,0.176-0.35,0.394c-0.131,0.219-0.219,0.264-0.394,0.264c-0.175,0-0.263-0.132-0.263-0.35
		c0.044-0.265,0.35-3.808,0.393-4.07c0.022-0.132,0.045-0.174,0.132-0.174L54.222,14.08z"/>
	<path fill="#FFCE0C" d="M78.506,15.393c0.066,0.065,0.087,0.131,0.044,0.219c-1.313,1.882-3.414,3.676-6.52,3.676
		c-2.801,0-4.375-0.833-5.731-2.058c-1.62-1.442-2.362-3.981-2.362-5.905c0-2.145,0.699-4.202,2.23-5.865
		c1.181-1.269,3.062-2.318,5.688-2.318c2.014,0,3.631,0.612,4.418,1.05c0.306,0.177,0.395,0.177,0.438,0l0.175-0.57
		c0.044-0.13,0.087-0.13,0.35-0.13c0.262,0,0.307,0.043,0.307,0.35c0,0.394,0.437,3.893,0.524,4.549
		c0.022,0.132,0,0.198-0.088,0.221l-0.416,0.131c-0.109,0.042-0.174-0.045-0.24-0.22c-0.264-0.788-0.788-1.881-1.706-2.844
		C74.656,4.76,73.518,4.06,71.811,4.06c-3.499,0-4.943,3.151-4.943,6.302c0,1.355,0.394,3.938,2.012,5.688
		c1.445,1.532,2.713,1.706,3.763,1.706c2.406,0,4.309-1.202,5.229-2.538c0.109-0.154,0.196-0.219,0.262-0.154L78.506,15.393z"/>
	<path fill="#FFFFFF" d="M85.333,18.828c-1.488-0.591-2.254-1.554-2.604-2.933c-0.262-0.984-0.35-2.448-0.35-5.317V5.373
		c0-0.765-0.153-1.116-0.832-1.116H80.52c-0.13,0-0.153-0.043-0.153-0.196V3.578c0-0.131,0.023-0.175,0.198-0.175
		c0.219,0,1.291,0.066,2.997,0.066s2.756-0.066,2.997-0.066c0.176,0,0.197,0.044,0.197,0.131v0.57c0,0.109-0.021,0.152-0.176,0.152
		h-1.093c-0.635,0-1.008,0.415-1.051,0.897c-0.021,0.198-0.044,1.729-0.044,2.844v1.444c0,1.158,0.087,3.938,0.109,4.637
		c0.021,1.007,0.197,2.035,0.7,2.78c0.809,1.181,2.21,1.574,3.479,1.574c1.247,0,2.516-0.417,3.281-1.203
		c0.854-0.919,1.138-2.231,1.138-3.852V8.7c0-1.663-0.043-2.933-0.109-3.479c-0.065-0.57-0.417-0.963-0.985-0.963h-0.962
		c-0.131,0-0.154-0.065-0.154-0.176V3.557c0-0.11,0.023-0.153,0.154-0.153c0.219,0,1.225,0.065,2.691,0.065
		c1.51,0,2.209-0.065,2.406-0.065c0.198,0,0.219,0.088,0.219,0.153v0.481c0,0.131-0.021,0.219-0.132,0.219H95.33
		c-0.81,0-0.875,0.614-0.94,0.875c-0.045,0.219-0.045,3.325-0.045,3.632c0,0.306-0.044,4.135-0.109,4.989
		c-0.131,1.792-0.613,3.172-1.837,4.221c-0.876,0.811-2.209,1.312-4.114,1.312C87.151,19.286,86.056,19.135,85.333,18.828"/>
	<path fill="#FFFFFF" d="M104.129,17.778c0,0.35,0.196,0.46,0.479,0.46h0.699c0.199,0,0.243,0.065,0.243,0.196v0.351
		c0,0.153-0.044,0.241-0.177,0.241c-0.154,0-0.83-0.067-2.076-0.067c-1.115,0-1.816,0.067-1.97,0.067
		c-0.134,0-0.177-0.067-0.177-0.241v-0.351c0-0.153,0.065-0.196,0.283-0.196h0.637c0.24,0,0.414-0.11,0.438-0.503
		c0.021-0.571,0.044-1.27,0.044-1.839v-2.888c0-0.875,0-1.509-0.635-1.969c-0.524-0.393-1.051-0.393-1.597-0.393
		c-0.351,0-1.116,0.153-1.774,0.854c-0.437,0.481-0.503,1.072-0.503,1.487v4.53c0,0.59,0.066,0.722,0.525,0.722h0.548
		c0.175,0,0.219,0.065,0.219,0.217v0.374c0,0.131-0.044,0.198-0.154,0.198c-0.152,0-0.743-0.067-1.904-0.067
		c-1.115,0-1.815,0.067-1.946,0.067c-0.11,0-0.154-0.067-0.154-0.198v-0.395c0-0.131,0.044-0.196,0.219-0.196h0.635
		c0.285,0,0.437-0.067,0.437-0.438v-5.119c0-0.656-0.349-1.028-0.897-1.291l-0.176-0.087c-0.152-0.064-0.175-0.13-0.175-0.197v-0.11
		c0-0.108,0.088-0.174,0.198-0.219l1.881-1.049c0.174-0.087,0.307-0.154,0.395-0.154c0.108,0,0.151,0.087,0.173,0.263l0.154,1.335
		h0.043c0.636-0.788,1.904-1.598,2.999-1.598c0.656,0,1.334,0.131,1.86,0.48c0.655,0.438,1.202,1.532,1.202,2.079v5.643h0.002v0.001
		H104.129z"/>
	<path fill="#FFFFFF" d="M107.764,12.592c0-0.742-0.134-1.136-1.227-1.311c-0.154-0.021-0.198-0.065-0.198-0.155v-0.197
		c0-0.066,0.044-0.108,0.152-0.152c0.7-0.263,1.532-0.614,2.362-1.073c0.179-0.087,0.285-0.132,0.416-0.132
		c0.108,0,0.133,0.109,0.108,0.263c-0.044,0.372-0.044,1.75-0.044,3.566v2.385c0,0.854,0,1.641,0.021,1.88
		c0.043,0.417,0.106,0.571,0.35,0.571h1.008c0.176,0,0.219,0.065,0.219,0.196v0.373c0,0.153-0.043,0.219-0.195,0.219
		c-0.178,0-1.182-0.066-2.103-0.066c-1.269,0-2.122,0.066-2.36,0.066c-0.109,0-0.176-0.045-0.176-0.175v-0.438
		c0-0.131,0.063-0.174,0.219-0.174h1.07c0.241,0,0.327-0.089,0.353-0.439c0.021-0.657,0.021-1.334,0.021-1.99v-3.217H107.764
		L107.764,12.592z M106.777,5.92c0-0.547,0.459-1.137,1.334-1.137c0.767,0,1.138,0.59,1.138,1.073c0,0.567-0.394,1.203-1.269,1.203
		C107.499,7.058,106.777,6.621,106.777,5.92"/>
	<path fill="#FFFFFF" d="M115.55,16.947h0.063c0.352-0.854,1.883-4.594,2.103-5.448c0.154-0.59,0-0.94-0.393-0.94h-0.438
		c-0.066,0-0.088-0.11-0.088-0.219V9.946c0-0.132,0.044-0.176,0.131-0.176c0.307,0,0.788,0.065,1.752,0.065
		c0.854,0,1.377-0.065,1.573-0.065c0.177,0,0.197,0.022,0.197,0.197v0.373c0,0.153,0,0.219-0.108,0.219h-0.415
		c-0.263,0-0.481,0.042-0.68,0.242c-0.327,0.305-1.422,2.69-1.75,3.499c-0.263,0.655-1.882,4.332-1.968,4.485
		c-0.178,0.306-0.285,0.502-0.525,0.502c-0.22,0-0.35-0.197-0.46-0.458c-0.044-0.11-1.64-4.267-1.706-4.442
		c-0.064-0.175-0.963-2.67-1.115-3.02c-0.285-0.634-0.504-0.809-0.896-0.809h-0.438c-0.109,0-0.133-0.088-0.133-0.219V9.946
		c0-0.154,0.044-0.176,0.241-0.176c0.241,0,0.61,0.065,1.838,0.065c1.16,0,1.729-0.065,1.97-0.065c0.174,0,0.219,0.044,0.219,0.176
		v0.393c0,0.131-0.021,0.219-0.149,0.219h-0.438c-0.221,0-0.395,0.132-0.395,0.415c0,0.394,0.566,2.21,0.7,2.582
		C114.371,13.971,115.311,16.487,115.55,16.947"/>
	<path fill="#FFFFFF" d="M121.48,13.139c-0.045,0.197-0.066,0.547-0.066,1.049c0,2.146,1.357,3.763,3.107,3.763
		c1.334,0,2.271-0.765,2.646-1.488c0.044-0.087,0.131-0.131,0.194-0.109l0.285,0.154c0.064,0.021,0.107,0.086,0,0.327
		c-0.395,0.875-1.531,2.384-3.479,2.384c-1.246,0-2.624-0.37-3.436-1.553c-0.767-1.114-0.963-1.924-0.963-3.456
		c0-0.854,0.222-2.318,1.379-3.477c0.938-0.964,2.035-1.16,3.131-1.16c2.516,0,3.217,2.364,3.217,3.216
		c0,0.305-0.266,0.35-0.611,0.35H121.48L121.48,13.139z M124.958,12.484c0.414,0,0.591-0.11,0.591-0.308
		c0-0.502-0.265-1.946-1.686-1.946c-0.963,0-1.881,0.634-2.297,2.254H124.958z"/>
	<path fill="#FFFFFF" d="M129.543,13.139c0-1.116-0.175-1.335-0.789-1.663l-0.416-0.219c-0.131-0.043-0.173-0.066-0.173-0.154V10.97
		c0-0.086,0.042-0.13,0.173-0.195l2.167-1.117c0.134-0.065,0.22-0.087,0.308-0.087c0.131,0,0.153,0.132,0.153,0.263l0.109,1.509
		h0.087c0.656-1.006,1.686-1.902,2.626-1.902c0.744,0,1.114,0.458,1.114,0.962c0,0.634-0.524,1.071-0.918,1.071
		c-0.241,0-0.461-0.087-0.633-0.175c-0.18-0.11-0.439-0.175-0.727-0.175c-0.352,0-0.919,0.219-1.29,0.919
		c-0.132,0.241-0.221,0.634-0.221,0.701v4.594c0,0.677,0.153,0.897,0.612,0.897h1.026c0.134,0,0.153,0.065,0.153,0.196v0.395
		c0,0.132-0.021,0.198-0.107,0.198c-0.133,0-1.14-0.066-2.32-0.066c-1.354,0-2.272,0.066-2.404,0.066
		c-0.088,0-0.133-0.045-0.133-0.219v-0.373c0-0.153,0.045-0.196,0.24-0.196h0.854c0.328,0,0.481-0.132,0.481-0.416
		c0.021-0.722,0.021-1.488,0.021-2.625L129.543,13.139L129.543,13.139L129.543,13.139z"/>
	<path fill="#FFFFFF" d="M135.438,18.587c-0.105-0.065-0.105-0.197-0.131-0.306l-0.371-2.079c-0.021-0.109,0.045-0.153,0.131-0.177
		l0.285-0.063c0.088-0.023,0.153,0.022,0.196,0.131l0.55,1.071c0.438,0.81,0.742,1.357,1.902,1.357c0.766,0,1.729-0.459,1.729-1.488
		c0-0.984-0.479-1.554-2.121-2.012c-1.291-0.372-2.582-1.049-2.582-2.78c0-1.51,1.425-2.669,3.063-2.669
		c1.048,0,1.617,0.263,2.011,0.46c0.328,0.153,0.371,0.262,0.396,0.392l0.325,1.532c0,0.088-0.043,0.155-0.15,0.198l-0.266,0.086
		c-0.088,0.022-0.133,0-0.195-0.109l-0.744-1.006c-0.262-0.416-0.678-0.853-1.529-0.853c-0.832,0-1.685,0.503-1.685,1.444
		c0,1.269,1.024,1.51,2.101,1.815c1.598,0.46,2.604,1.116,2.627,2.801c-0.021,1.771-1.469,2.886-3.326,2.886
		C136.578,19.221,135.703,18.784,135.438,18.587"/>
	<path fill="#FFFFFF" d="M143.162,12.592c0-0.742-0.133-1.136-1.227-1.311c-0.151-0.021-0.195-0.065-0.195-0.155v-0.197
		c0-0.066,0.044-0.108,0.152-0.152c0.699-0.263,1.53-0.614,2.361-1.073c0.178-0.087,0.283-0.132,0.414-0.132
		c0.107,0,0.132,0.109,0.107,0.263c-0.043,0.372-0.043,1.75-0.043,3.566v2.385c0,0.854,0,1.641,0.021,1.88
		c0.044,0.417,0.109,0.571,0.352,0.571h1.006c0.177,0,0.22,0.065,0.22,0.196v0.373c0,0.153-0.043,0.219-0.195,0.219
		c-0.176,0-1.183-0.066-2.102-0.066c-1.269,0-2.121,0.066-2.362,0.066c-0.107,0-0.175-0.045-0.175-0.175v-0.438
		c0-0.131,0.063-0.174,0.218-0.174h1.073c0.237,0,0.325-0.089,0.351-0.439c0.021-0.657,0.021-1.334,0.021-1.99v-3.217H143.162
		L143.162,12.592z M142.18,5.92c0-0.547,0.459-1.137,1.334-1.137c0.766,0,1.137,0.59,1.137,1.073c0,0.567-0.393,1.203-1.27,1.203
		C142.898,7.058,142.18,6.621,142.18,5.92"/>
	<path fill="#FFFFFF" d="M149.156,16.225c0,1.64,0.742,1.925,1.138,1.925c0.503,0,1.136-0.088,1.444-0.285
		c0.109-0.065,0.197-0.043,0.263,0.043l0.11,0.198c0.062,0.088,0.021,0.176-0.045,0.24c-0.219,0.219-1.114,0.875-2.428,0.875
		c-1.07,0-2.123-1.027-2.123-1.858c0-0.897,0.063-2.823,0.063-3.129v-0.481c0-0.394,0.021-1.859,0.043-2.78h-1.333
		c-0.198,0-0.328-0.087-0.328-0.262s0.135-0.241,0.395-0.393c0.522-0.307,2.211-2.013,2.494-2.757
		c0.063-0.175,0.176-0.219,0.308-0.219c0.177,0,0.22,0.153,0.22,0.327l-0.111,2.167h3.043c0.133,0,0.197,0.11,0.153,0.197
		l-0.22,0.766c-0.021,0.109-0.066,0.174-0.197,0.174h-2.822c-0.043,1.008-0.063,2.056-0.063,3.064L149.156,16.225L149.156,16.225
		L149.156,16.225z"/>
	<path fill="#FFFFFF" d="M152.877,23.794c0-0.46,0.482-0.855,1.007-0.855c0.417,0,0.81,0.198,1.009,0.242
		c0.152,0.023,0.326,0,0.457-0.131c0.328-0.394,1.445-2.888,1.75-3.741c-0.105-0.546-2.428-7.372-2.604-7.833
		c-0.262-0.547-0.46-0.92-1.028-0.92h-0.569c-0.149,0-0.174-0.063-0.174-0.195V9.923c0-0.087,0.021-0.153,0.174-0.153
		c0.199,0,0.726,0.066,2.018,0.066c1.113,0,1.794-0.066,2.033-0.066c0.175,0,0.195,0.066,0.195,0.153v0.46
		c0,0.109-0.021,0.173-0.131,0.173h-0.416c-0.24,0-0.328,0.155-0.285,0.483c0.066,0.481,1.557,5.295,1.795,5.775h0.088
		c0.221-0.349,2.121-4.876,2.255-5.424c0.132-0.548-0.046-0.834-0.372-0.834h-0.35c-0.136,0-0.154-0.063-0.154-0.173V9.946
		c0-0.11,0.021-0.176,0.131-0.176c0.285,0,0.744,0.066,1.795,0.066c0.591,0,1.096-0.066,1.333-0.066
		c0.134,0,0.134,0.089,0.134,0.176v0.415c0,0.132,0,0.195-0.107,0.195h-0.351c-0.239,0-0.547,0.11-0.767,0.396
		c-0.481,0.59-1.928,3.915-3.438,7.35c-1.07,2.428-1.924,4.462-2.313,5.184c-0.31,0.57-0.701,1.423-1.86,1.423
		C153.293,24.909,152.877,24.451,152.877,23.794"/>
	<path fill="#FFFFFF" d="M167.419,17.711c-1.004-1.201-1.202-2.012-1.202-3.565c0-1.116,0.59-2.517,1.883-3.522
		c1.135-0.877,2.207-1.051,2.93-1.051c1.203,0,2.406,0.611,3.062,1.269c0.984,1.008,1.486,2.145,1.486,3.567
		c0,2.384-2.143,4.812-4.833,4.812C169.693,19.221,168.338,18.806,167.419,17.711 M173.741,14.189c0-2.428-1.772-3.959-2.888-3.959
		c-0.592,0-1.16,0.131-1.688,0.7c-0.854,0.875-1.16,1.771-1.16,3.435c0,1.226,0.137,2.056,0.834,3.062
		c0.501,0.721,1.139,1.137,2.165,1.137C172.67,18.565,173.741,16.531,173.741,14.189"/>
	<path fill="#FFFFFF" d="M177.812,10.886H176.3c-0.108,0-0.149-0.044-0.108-0.24l0.091-0.657c0.021-0.13,0.088-0.154,0.263-0.154
		h1.27V9.42c0-2.167,0.61-3.586,1.467-4.549c1.16-1.27,2.363-1.73,3.588-1.73c1.029,0,1.99,0.393,1.99,1.225
		c0,0.524-0.567,0.94-0.918,0.94c-0.219,0-0.438-0.044-0.611-0.132c-0.196-0.109-0.438-0.394-0.525-0.503
		c-0.283-0.351-0.589-0.503-1.006-0.503c-0.566,0-1.156,0.152-1.64,0.766c-0.81,1.027-0.767,2.931-0.767,4.463v0.437h2.646
		c0.151,0,0.176,0.131,0.151,0.219l-0.107,0.723c-0.021,0.086-0.107,0.109-0.286,0.109h-2.405v1.948c0,2.58,0,4.594,0.021,4.833
		c0.043,0.373,0.107,0.571,0.568,0.571h1.246c0.196,0,0.239,0.043,0.239,0.175v0.351c0,0.175-0.044,0.262-0.151,0.262
		c-0.133,0-0.94-0.065-2.627-0.065c-1.201,0-2.316,0.065-2.494,0.065c-0.133,0-0.176-0.045-0.176-0.153v-0.481
		c0-0.111,0.043-0.154,0.221-0.154h1.051c0.416,0,0.503-0.264,0.523-0.766v-4.114V10.886L177.812,10.886z"/>
	<path fill="#FFFFFF" d="M40.901,38.68c-0.262-0.196-0.393-0.263-0.503-0.263c-0.131,0-0.219,0.154-0.349,0.37
		c-0.131,0.243-0.241,0.264-0.394,0.264c-0.131,0-0.241-0.11-0.197-0.35c0.087-0.547,0.306-3.325,0.372-3.958
		c0.021-0.132,0.065-0.132,0.153-0.132l0.327,0.022c0.088,0,0.131,0.043,0.131,0.177c0.022,0.7,0.067,1.422,0.788,2.536
		c0.657,1.026,1.861,1.62,3.063,1.62c1.312,0,2.975-0.811,2.975-2.779c0-2.254-1.618-3.085-3.369-3.697
		c-0.677-0.243-2.253-0.789-3.193-1.772c-0.722-0.723-1.094-1.75-1.094-3.196c0-1.093,0.677-2.165,1.355-2.801
		c0.788-0.744,1.883-1.048,3.064-1.048c1.246,0,2.208,0.369,2.581,0.546c0.197,0.11,0.306,0.088,0.416-0.021l0.285-0.264
		c0.11-0.088,0.174-0.13,0.284-0.13c0.108,0,0.175,0.173,0.175,0.37c0,0.766,0.285,2.997,0.307,3.48
		c0,0.108-0.022,0.152-0.109,0.173l-0.264,0.066c-0.065,0.022-0.108,0-0.131-0.066c-0.176-0.636-0.459-1.486-1.356-2.427
		c-0.591-0.635-1.356-0.94-2.385-0.94c-1.947,0-2.646,1.446-2.646,2.559c0,0.614,0.131,1.334,0.677,1.903
		c0.635,0.636,1.859,1.117,2.494,1.314c1.509,0.481,2.735,0.852,3.522,1.815c0.569,0.677,0.963,1.532,0.963,2.975
		c0,2.582-1.575,4.792-4.464,4.792C42.85,39.819,41.777,39.359,40.901,38.68"/>
	<path fill="#FFFFFF" d="M50.98,38.242c-1.007-1.202-1.204-2.011-1.204-3.565c0-1.115,0.591-2.516,1.882-3.521
		c1.138-0.877,2.209-1.05,2.932-1.05c1.203,0,2.407,0.613,3.063,1.269c0.984,1.006,1.487,2.144,1.487,3.565
		c0,2.386-2.144,4.813-4.836,4.813C53.255,39.752,51.898,39.335,50.98,38.242 M57.302,34.719c0-2.427-1.772-3.959-2.887-3.959
		c-0.591,0-1.159,0.132-1.685,0.699c-0.854,0.876-1.159,1.771-1.159,3.436c0,1.225,0.132,2.057,0.831,3.062
		c0.503,0.723,1.138,1.138,2.167,1.138C56.23,39.095,57.302,37.061,57.302,34.719"/>
	<path fill="#FFFFFF" d="M68.183,35.048c0,1.05,0,2.121,0.045,2.583c0.064,0.677,0.305,0.764,0.568,0.764
		c0.131,0,0.459,0,0.722-0.065c0.176-0.043,0.242,0,0.263,0.087l0.066,0.285c0.021,0.131-0.021,0.176-0.109,0.198l-2.297,0.764
		c-0.132,0.044-0.263,0.091-0.438,0.091c-0.089,0-0.175-0.046-0.197-0.265l-0.175-1.27h-0.043c-0.612,0.853-1.881,1.533-2.976,1.533
		c-0.611,0-1.334-0.067-2.056-1.008c-0.897-1.158-0.854-1.881-0.854-4.288V31.92c-0.022-0.612-0.327-0.765-0.832-0.832
		c-0.371-0.021-0.48-0.045-0.48-0.155V30.54c0-0.131,0.044-0.175,0.24-0.175h1.948c0.131,0,0.219-0.022,0.306-0.044
		c0.087,0,0.175-0.021,0.24-0.021c0.153,0,0.263,0.11,0.241,0.262c-0.021,0.198-0.088,1.224-0.088,2.516v1.553
		c0,0.877-0.219,2.275,0.481,3.282c0.547,0.788,1.16,0.831,1.75,0.831c0.591,0,1.467-0.569,1.881-1.093
		c0.09-0.112,0.219-0.394,0.219-0.592v-5.207c-0.043-0.614-0.394-0.722-0.941-0.766c-0.371,0-0.48-0.045-0.48-0.155V30.56
		c0-0.176,0.044-0.197,0.261-0.197h2.034c0.153,0,0.263-0.022,0.372-0.044c0.109,0,0.197-0.021,0.263-0.021
		c0.131,0,0.219,0.11,0.197,0.218c-0.022,0.198-0.132,0.766-0.132,2.911v1.618L68.183,35.048L68.183,35.048z"/>
	<path fill="#FFFFFF" d="M72.984,36.756c0,1.639,0.743,1.924,1.137,1.924c0.504,0,1.138-0.087,1.444-0.285
		c0.109-0.065,0.196-0.043,0.262,0.044l0.109,0.197c0.065,0.088,0.021,0.177-0.044,0.241c-0.218,0.22-1.115,0.877-2.428,0.877
		c-1.072,0-2.122-1.029-2.122-1.86c0-0.897,0.065-2.822,0.065-3.128v-0.481c0-0.393,0.022-1.859,0.044-2.78h-1.335
		c-0.197,0-0.327-0.087-0.327-0.262c0-0.176,0.13-0.24,0.394-0.394c0.524-0.305,2.209-2.011,2.494-2.756
		c0.066-0.176,0.175-0.218,0.306-0.218c0.175,0,0.219,0.153,0.219,0.327l-0.109,2.166h3.04c0.133,0,0.198,0.11,0.154,0.197
		l-0.219,0.766c-0.023,0.109-0.066,0.174-0.198,0.174h-2.821c-0.043,1.006-0.065,2.058-0.065,3.063V36.756L72.984,36.756z"/>
	<path fill="#FFFFFF" d="M78,27.567c0-1.336-0.264-1.575-1.05-1.84l-0.373-0.131c-0.131-0.044-0.153-0.065-0.153-0.131v-0.199
		c0-0.086,0.064-0.108,0.262-0.217l2.275-1.204c0.175-0.088,0.329-0.175,0.505-0.175c0.131,0,0.218,0.175,0.174,0.546
		c-0.043,0.371-0.066,4.813-0.066,5.908v1.399h0.11c0.766-0.918,2.034-1.421,2.997-1.421c0.919,0,1.553,0.282,2.165,0.875
		c0.986,0.919,0.943,2.037,0.943,3.217v1.247c0,1.225,0.043,2.582,0.043,2.997c0,0.262,0.351,0.328,0.81,0.328h0.372
		c0.176,0,0.241,0.044,0.241,0.197v0.328c0,0.176-0.044,0.263-0.174,0.263c-0.154,0-0.854-0.065-2.103-0.065
		c-1.072,0-1.858,0.065-2.055,0.065c-0.153,0-0.196-0.065-0.196-0.241v-0.37c0-0.111,0.021-0.176,0.152-0.176h0.504
		c0.371,0,0.808-0.044,0.831-0.416c0.021-0.306,0-1.465,0-2.165v-1.771c0-1.226-0.088-2.101-0.723-2.692
		c-0.438-0.415-0.897-0.612-1.443-0.612c-0.635,0-1.423,0.219-2.034,0.917c-0.198,0.242-0.438,0.679-0.438,1.073v4.769
		c0,0.701,0.065,0.898,0.481,0.898h0.656c0.153,0,0.241,0.044,0.241,0.176v0.37c0,0.154-0.044,0.241-0.176,0.241
		c-0.175,0-1.073-0.065-2.078-0.065c-1.094,0-1.925,0.065-2.123,0.065c-0.088,0-0.153-0.065-0.153-0.219v-0.393
		c0-0.154,0.087-0.176,0.328-0.176h0.46c0.349,0,0.677-0.088,0.721-0.351C78,38.002,78,35.593,78,34.171V27.567L78,27.567z"/>
	<path fill="#FFFFFF" d="M89.135,33.669c-0.043,0.2-0.066,0.549-0.066,1.051c0,2.146,1.356,3.765,3.107,3.765
		c1.333,0,2.275-0.767,2.646-1.49c0.044-0.087,0.132-0.131,0.198-0.109l0.285,0.153c0.067,0.022,0.11,0.087,0,0.328
		c-0.394,0.876-1.532,2.385-3.478,2.385c-1.247,0-2.624-0.371-3.435-1.553c-0.767-1.117-0.962-1.927-0.962-3.456
		c0-0.855,0.218-2.32,1.378-3.48c0.94-0.962,2.034-1.158,3.128-1.158c2.516,0,3.217,2.362,3.217,3.216
		c0,0.307-0.264,0.349-0.613,0.349L89.135,33.669L89.135,33.669z M92.614,33.014c0.416,0,0.59-0.11,0.59-0.307
		c0-0.502-0.262-1.947-1.685-1.947c-0.962,0-1.881,0.634-2.297,2.253L92.614,33.014L92.614,33.014z"/>
	<path fill="#FFFFFF" d="M97.355,33.669c0-1.115-0.175-1.334-0.789-1.662l-0.415-0.219c-0.132-0.044-0.174-0.064-0.174-0.154v-0.131
		c0-0.088,0.042-0.131,0.174-0.196l2.167-1.117c0.131-0.066,0.219-0.088,0.306-0.088c0.132,0,0.154,0.132,0.154,0.263l0.109,1.51
		h0.087c0.656-1.007,1.687-1.903,2.627-1.903c0.74,0,1.113,0.458,1.113,0.962c0,0.634-0.521,1.072-0.92,1.072
		c-0.238,0-0.458-0.088-0.635-0.175c-0.178-0.109-0.438-0.175-0.722-0.175c-0.351,0-0.919,0.219-1.29,0.919
		c-0.132,0.24-0.219,0.634-0.219,0.698v4.597c0,0.678,0.152,0.896,0.611,0.896h1.026c0.134,0,0.154,0.066,0.154,0.198v0.394
		c0,0.132-0.021,0.197-0.107,0.197c-0.132,0-1.139-0.065-2.32-0.065c-1.357,0-2.276,0.065-2.406,0.065
		c-0.087,0-0.133-0.044-0.133-0.22v-0.371c0-0.153,0.046-0.198,0.242-0.198h0.854c0.329,0,0.481-0.132,0.481-0.415
		c0.021-0.721,0.021-1.488,0.021-2.626L97.355,33.669L97.355,33.669z"/>
	<path fill="#FFFFFF" d="M112.072,38.308c0,0.351,0.197,0.459,0.479,0.459h0.699c0.199,0,0.242,0.065,0.242,0.197v0.35
		c0,0.154-0.043,0.241-0.178,0.241c-0.151,0-0.83-0.065-2.078-0.065c-1.114,0-1.814,0.065-1.969,0.065
		c-0.132,0-0.177-0.065-0.177-0.241v-0.35c0-0.153,0.063-0.197,0.284-0.197h0.634c0.243,0,0.416-0.109,0.438-0.503
		c0.021-0.568,0.046-1.269,0.046-1.837v-2.888c0-0.876,0-1.51-0.636-1.97c-0.524-0.391-1.051-0.391-1.598-0.391
		c-0.352,0-1.113,0.153-1.771,0.854c-0.438,0.482-0.506,1.072-0.506,1.489v4.529c0,0.59,0.064,0.722,0.524,0.722h0.548
		c0.178,0,0.219,0.065,0.219,0.219v0.372c0,0.131-0.041,0.196-0.152,0.196c-0.15,0-0.742-0.065-1.903-0.065
		c-1.112,0-1.812,0.065-1.944,0.065c-0.107,0-0.152-0.065-0.152-0.196v-0.395c0-0.131,0.045-0.197,0.219-0.197h0.637
		c0.282,0,0.438-0.066,0.438-0.438v-5.118c0-0.657-0.351-1.027-0.897-1.291l-0.176-0.089c-0.15-0.065-0.174-0.132-0.174-0.196V31.53
		c0-0.111,0.086-0.176,0.195-0.219l1.883-1.052c0.174-0.087,0.306-0.153,0.395-0.153c0.107,0,0.152,0.088,0.176,0.263l0.151,1.333
		h0.044c0.637-0.787,1.902-1.596,2.998-1.596c0.655,0,1.334,0.132,1.859,0.483c0.654,0.437,1.201,1.53,1.201,2.077L112.072,38.308
		L112.072,38.308z"/>
	<path fill="#FFFFFF" d="M120.451,37.804c-1.576-1.486-2.34-4.026-2.34-6.125c0-2.034,0.654-4.133,2.229-5.796
		c1.115-1.184,3.086-2.21,5.471-2.21c1.99,0,3.631,0.743,4.42,1.202c0.283,0.177,0.392,0.154,0.438,0l0.175-0.633
		c0.045-0.133,0.09-0.133,0.284-0.133c0.197,0,0.239,0.043,0.239,0.35c0,0.415,0.438,3.632,0.549,4.244
		c0.021,0.111,0,0.197-0.089,0.22l-0.327,0.086c-0.107,0.023-0.152,0-0.221-0.174c-0.307-0.722-0.785-1.773-1.705-2.715
		c-0.92-0.94-2.078-1.684-3.807-1.684c-3.916,0-5.49,3.478-5.471,6.673c0,1.268,0.395,3.741,2.102,5.623
		c1.488,1.661,2.733,1.836,4.199,1.836c2.473,0,4.396-1.358,5.403-2.779c0.063-0.11,0.108-0.131,0.176-0.066l0.284,0.219
		c0.062,0.045,0.107,0.088,0.043,0.198c-1.312,1.903-3.436,3.677-6.52,3.677C123.406,39.819,121.764,39.009,120.451,37.804"/>
	<path fill="#FFFFFF" d="M139.561,36.886c0,1.248,0.265,1.64,0.655,1.64c0.351,0,0.655-0.175,0.765-0.327
		c0.09-0.112,0.133-0.155,0.223-0.088l0.22,0.175c0.065,0.065,0.106,0.177-0.021,0.393c-0.178,0.328-0.592,1.071-1.707,1.071
		c-0.786,0-1.355-0.568-1.553-1.465h-0.045c-0.459,0.547-1.183,1.006-2.166,1.334c-0.416,0.131-0.812,0.131-1.291,0.131
		c-0.527,0-1.312-0.437-1.312-1.815c0-1.006,0.46-1.881,2.188-2.649c0.984-0.436,2.121-0.961,2.471-1.267v-1.401
		c-0.043-0.371-0.062-0.94-0.307-1.224c-0.24-0.284-0.678-0.482-1.312-0.482c-0.437,0-1.115,0.177-1.423,0.46
		c-0.307,0.284-0.107,0.612-0.107,1.005c0,0.766-0.266,1.248-1.16,1.248c-0.35,0-0.523-0.198-0.523-0.7
		c0-0.7,0.613-1.531,1.512-2.057c0.919-0.547,1.686-0.765,2.669-0.765c1.026,0,1.442,0.307,1.751,0.59
		c0.458,0.46,0.479,0.962,0.479,1.553v3.348v1.293v-0.001H139.561z M137.962,34.676c-0.788,0.592-2.93,1.028-2.93,2.843
		c0,0.811,0.479,1.204,1.137,1.204c0.633,0,1.793-0.766,1.793-1.356V34.676z"/>
	<path fill="#FFFFFF" d="M145.077,32.971c0,1.135,0,4.441,0.022,5.118c0.021,0.372,0.104,0.679,0.565,0.679h0.981
		c0.197,0,0.24,0.066,0.24,0.197v0.372c0,0.13-0.043,0.219-0.132,0.219c-0.153,0-1.114-0.065-2.471-0.065
		c-1.401,0-2.274,0.065-2.474,0.065c-0.108,0-0.152-0.089-0.152-0.219v-0.372c0-0.153,0.044-0.197,0.283-0.197h1.05
		c0.241,0,0.461-0.153,0.481-0.547c0.021-0.679,0.021-4.441,0.021-5.709v-1.379c0-1.554-0.021-3.543-0.065-4.113
		c-0.043-0.745-0.392-1.092-1.093-1.312l-0.437-0.155c-0.109-0.042-0.133-0.062-0.133-0.109v-0.176c0-0.065,0.064-0.109,0.195-0.154
		c0.768-0.349,1.748-0.743,2.561-1.271c0.196-0.132,0.328-0.176,0.459-0.176c0.153,0,0.199,0.11,0.179,0.394
		c-0.022,1.203-0.091,5.754-0.091,6.958L145.077,32.971L145.077,32.971z"/>
	<path fill="#FFFFFF" d="M149.057,33.124c0-0.744-0.132-1.138-1.227-1.314c-0.152-0.021-0.196-0.064-0.196-0.152V31.46
		c0-0.065,0.044-0.109,0.154-0.152c0.7-0.264,1.53-0.613,2.36-1.072c0.177-0.089,0.285-0.132,0.416-0.132
		c0.108,0,0.133,0.109,0.108,0.262c-0.044,0.371-0.044,1.75-0.044,3.565v2.385c0,0.853,0,1.639,0.021,1.881
		c0.045,0.416,0.106,0.568,0.351,0.568h1.008c0.175,0,0.218,0.067,0.218,0.198v0.372c0,0.154-0.043,0.219-0.192,0.219
		c-0.179,0-1.185-0.065-2.104-0.065c-1.27,0-2.123,0.065-2.361,0.065c-0.107,0-0.176-0.044-0.176-0.175v-0.438
		c0-0.132,0.065-0.177,0.221-0.177h1.07c0.24,0,0.328-0.087,0.351-0.437c0.021-0.656,0.021-1.334,0.021-1.992v-3.214L149.057,33.124
		L149.057,33.124z M148.072,26.45c0-0.547,0.46-1.136,1.336-1.136c0.766,0,1.137,0.589,1.137,1.071c0,0.568-0.395,1.204-1.27,1.204
		C148.796,27.589,148.072,27.15,148.072,26.45"/>
	<path fill="#FFFFFF" d="M154.581,31.417h-1.511c-0.107,0-0.152-0.044-0.107-0.239l0.087-0.658c0.021-0.132,0.087-0.151,0.263-0.151
		h1.271V29.95c0-2.166,0.609-3.587,1.466-4.549c1.159-1.268,2.363-1.728,3.591-1.728c1.024,0,1.988,0.393,1.988,1.223
		c0,0.527-0.566,0.941-0.919,0.941c-0.22,0-0.438-0.043-0.61-0.132c-0.197-0.109-0.438-0.393-0.525-0.501
		c-0.283-0.351-0.59-0.503-1.006-0.503c-0.568,0-1.16,0.152-1.644,0.765c-0.81,1.028-0.765,2.931-0.765,4.463v0.438h2.646
		c0.151,0,0.176,0.129,0.151,0.219l-0.106,0.722c-0.021,0.087-0.108,0.108-0.285,0.108h-2.404v1.947c0,2.582,0,4.595,0.021,4.836
		c0.043,0.372,0.108,0.568,0.568,0.568h1.245c0.196,0,0.239,0.044,0.239,0.175v0.349c0,0.176-0.043,0.263-0.15,0.263
		c-0.135,0-0.941-0.065-2.626-0.065c-1.203,0-2.319,0.065-2.494,0.065c-0.134,0-0.177-0.044-0.177-0.153V38.92
		c0-0.109,0.043-0.153,0.22-0.153h1.052c0.416,0,0.504-0.263,0.523-0.765v-4.114L154.581,31.417L154.581,31.417z"/>
	<path fill="#FFFFFF" d="M159.771,38.242c-1.006-1.202-1.203-2.011-1.203-3.565c0-1.115,0.591-2.516,1.882-3.521
		c1.138-0.877,2.21-1.05,2.931-1.05c1.203,0,2.406,0.613,3.062,1.269c0.986,1.006,1.488,2.144,1.488,3.565
		c0,2.386-2.146,4.813-4.834,4.813C162.047,39.752,160.691,39.335,159.771,38.242 M166.096,34.719c0-2.427-1.771-3.959-2.889-3.959
		c-0.591,0-1.16,0.132-1.686,0.699c-0.854,0.876-1.158,1.771-1.158,3.436c0,1.225,0.132,2.057,0.832,3.062
		c0.504,0.723,1.138,1.138,2.166,1.138C165.023,39.095,166.096,37.061,166.096,34.719"/>
	<path fill="#FFFFFF" d="M169.678,33.669c0-1.115-0.176-1.334-0.789-1.662l-0.414-0.219c-0.132-0.044-0.176-0.064-0.176-0.154
		v-0.131c0-0.088,0.044-0.131,0.176-0.196l2.166-1.117c0.131-0.066,0.219-0.088,0.31-0.088c0.132,0,0.151,0.132,0.151,0.263
		l0.109,1.51h0.087c0.656-1.007,1.687-1.903,2.626-1.903c0.744,0,1.114,0.458,1.114,0.962c0,0.634-0.522,1.072-0.918,1.072
		c-0.24,0-0.46-0.088-0.636-0.175c-0.174-0.109-0.438-0.175-0.721-0.175c-0.353,0-0.918,0.219-1.291,0.919
		c-0.132,0.24-0.222,0.634-0.222,0.698v4.597c0,0.678,0.149,0.896,0.61,0.896h1.029c0.131,0,0.152,0.066,0.152,0.198v0.394
		c0,0.132-0.021,0.197-0.109,0.197c-0.133,0-1.138-0.065-2.316-0.065c-1.354,0-2.275,0.065-2.406,0.065
		c-0.087,0-0.131-0.044-0.131-0.22v-0.371c0-0.153,0.044-0.198,0.236-0.198h0.854c0.329,0,0.481-0.132,0.481-0.415
		c0.021-0.721,0.021-1.488,0.021-2.626v-2.056H169.678z"/>
	<path fill="#FFFFFF" d="M184.355,38.308c0,0.351,0.195,0.459,0.479,0.459h0.702c0.194,0,0.237,0.065,0.237,0.197v0.35
		c0,0.154-0.043,0.241-0.176,0.241c-0.149,0-0.83-0.065-2.078-0.065c-1.113,0-1.812,0.065-1.969,0.065
		c-0.133,0-0.177-0.065-0.177-0.241v-0.35c0-0.153,0.063-0.197,0.284-0.197h0.635c0.241,0,0.415-0.109,0.438-0.503
		c0.022-0.568,0.045-1.269,0.045-1.837v-2.888c0-0.876,0-1.51-0.635-1.97c-0.523-0.391-1.049-0.391-1.597-0.391
		c-0.351,0-1.114,0.153-1.771,0.854c-0.438,0.482-0.506,1.072-0.506,1.489v4.529c0,0.59,0.065,0.722,0.524,0.722h0.546
		c0.18,0,0.223,0.065,0.223,0.219v0.372c0,0.131-0.043,0.196-0.153,0.196c-0.153,0-0.743-0.065-1.904-0.065
		c-1.116,0-1.815,0.065-1.946,0.065c-0.106,0-0.152-0.065-0.152-0.196v-0.395c0-0.131,0.046-0.197,0.221-0.197h0.635
		c0.284,0,0.438-0.066,0.438-0.438v-5.118c0-0.657-0.351-1.027-0.896-1.291l-0.178-0.089c-0.154-0.065-0.177-0.132-0.177-0.196
		V31.53c0-0.111,0.089-0.176,0.196-0.219l1.881-1.052c0.179-0.087,0.309-0.153,0.396-0.153c0.11,0,0.153,0.088,0.176,0.263
		l0.153,1.333h0.043c0.636-0.787,1.903-1.596,2.998-1.596c0.655,0,1.335,0.132,1.858,0.483c0.654,0.437,1.201,1.53,1.201,2.077
		L184.355,38.308L184.355,38.308z"/>
	<path fill="#FFFFFF" d="M187.988,33.124c0-0.744-0.131-1.138-1.225-1.314c-0.152-0.021-0.197-0.064-0.197-0.152V31.46
		c0-0.065,0.045-0.109,0.154-0.152c0.697-0.264,1.529-0.613,2.359-1.072c0.176-0.089,0.286-0.132,0.416-0.132
		c0.105,0,0.131,0.109,0.105,0.262c-0.043,0.371-0.043,1.75-0.043,3.565v2.385c0,0.853,0,1.639,0.022,1.881
		c0.043,0.416,0.106,0.568,0.351,0.568h1.004c0.18,0,0.222,0.067,0.222,0.198v0.372c0,0.154-0.042,0.219-0.196,0.219
		c-0.176,0-1.184-0.065-2.104-0.065c-1.269,0-2.121,0.065-2.36,0.065c-0.106,0-0.177-0.044-0.177-0.175v-0.438
		c0-0.132,0.066-0.177,0.222-0.177h1.069c0.24,0,0.328-0.087,0.351-0.437c0.021-0.656,0.021-1.334,0.021-1.992v-3.214
		L187.988,33.124L187.988,33.124z M187.007,26.45c0-0.547,0.459-1.136,1.334-1.136c0.767,0,1.138,0.589,1.138,1.071
		c0,0.568-0.395,1.204-1.271,1.204C187.729,27.589,187.007,27.15,187.007,26.45"/>
	<path fill="#FFFFFF" d="M198.077,36.886c0,1.248,0.262,1.64,0.653,1.64c0.352,0,0.658-0.175,0.769-0.327
		c0.087-0.112,0.132-0.155,0.219-0.088l0.218,0.175c0.066,0.065,0.112,0.177-0.021,0.393c-0.177,0.328-0.589,1.071-1.705,1.071
		c-0.786,0-1.356-0.568-1.554-1.465h-0.043c-0.459,0.547-1.182,1.006-2.166,1.334c-0.415,0.131-0.809,0.131-1.29,0.131
		c-0.525,0-1.313-0.437-1.313-1.815c0-1.006,0.459-1.881,2.188-2.649c0.983-0.436,2.122-0.961,2.472-1.267v-1.401
		c-0.043-0.371-0.066-0.94-0.306-1.224c-0.242-0.284-0.679-0.482-1.312-0.482c-0.438,0-1.115,0.177-1.426,0.46
		c-0.307,0.284-0.107,0.612-0.107,1.005c0,0.766-0.264,1.248-1.158,1.248c-0.35,0-0.525-0.198-0.525-0.7
		c0-0.7,0.613-1.531,1.51-2.057c0.92-0.547,1.686-0.765,2.67-0.765c1.029,0,1.442,0.307,1.75,0.59
		c0.459,0.46,0.481,0.962,0.481,1.553v3.348L198.077,36.886L198.077,36.886z M196.479,34.676c-0.787,0.592-2.933,1.028-2.933,2.843
		c0,0.811,0.481,1.204,1.14,1.204c0.635,0,1.793-0.766,1.793-1.356V34.676L196.479,34.676z"/>
	<g>
		<path fill="#FFFFFF" d="M29.74,26.461c-2.035,4.963-5.929,11.754-12.951,16.034C9.756,38.235,5.842,31.45,3.794,26.493
			C1.91,21.927,1.22,18.05,1.047,16.912c0.84-0.473,1.68-0.701,2.626-0.703h0.009c0.662,0,1.598,0.122,2.138,0.278l0.299,0.088
			c0.283,0.083,0.573,0.167,0.87,0.251c1.039,0.3,2.22,0.603,3.106,0.603h0.006c0.994-0.002,2.543-0.132,4.285-0.747
			c0.498-0.173,1.091-0.362,1.723-0.447l0.574-0.042c0.01,0,0.022,0,0.032,0l0.887,0.08c0.539,0.092,1.046,0.254,1.47,0.404
			c1.736,0.607,3.281,0.735,4.278,0.735h0.013c0.601-0.002,1.381-0.137,2.46-0.427c0.441-0.119,0.89-0.251,1.316-0.377l0.5-0.149
			c0.532-0.153,1.509-0.281,2.177-0.283h0.007c0.943,0,1.809,0.23,2.639,0.678C32.299,17.972,31.624,21.867,29.74,26.461
			 M0.614,9.529l10.229,2.239c-0.09,0.157-0.173,0.316-0.252,0.479l-10.01-1.335C0.582,10.469,0.595,10.003,0.614,9.529
			 M0.967,5.789l10.625,4.922c-0.201,0.234-0.39,0.479-0.56,0.741L0.666,8.545C0.727,7.661,0.823,6.738,0.967,5.789 M1.247,4.195
			c0.411,0.09,1.222,0.246,2.272,0.358l8.629,5.582c-0.116,0.105-0.225,0.217-0.331,0.33L1.143,4.752
			C1.177,4.566,1.208,4.382,1.247,4.195 M5.842,4.675c1.109,0,2.156-0.094,3.131-0.275l4.354,4.88
			c-0.33,0.191-0.641,0.408-0.933,0.651l-7.19-5.264C5.414,4.672,5.624,4.677,5.842,4.675 M11.401,3.738l2.89,5.076
			c-0.196,0.075-0.387,0.159-0.573,0.252l-3.676-4.911C10.518,4.027,10.97,3.888,11.401,3.738 M15.223,1.894l0.88,6.497
			c-0.488,0.046-0.958,0.147-1.411,0.29l-2.422-5.27C13.482,2.921,14.471,2.376,15.223,1.894 M16.739,0.785
			c0.214,0.182,0.433,0.352,0.654,0.517l-0.392,7.071c-0.082-0.004-0.162-0.012-0.246-0.012h-0.009
			c-0.084,0-0.169,0.009-0.254,0.012L16.1,1.29C16.382,1.08,16.6,0.905,16.739,0.785 M18.25,1.894
			c1.032,0.67,2.055,1.163,2.929,1.515l-2.418,5.26c-0.447-0.138-0.912-0.236-1.391-0.279L18.25,1.894z M22.051,3.735
			c0.616,0.212,1.101,0.342,1.364,0.406L19.736,9.06c-0.186-0.094-0.377-0.176-0.574-0.25L22.051,3.735z M24.51,4.362
			c1.079,0.191,2.195,0.287,3.34,0.285c0.138,0,0.268-0.004,0.401-0.008l-7.194,5.269c-0.29-0.237-0.601-0.452-0.927-0.638
			L24.51,4.362z M29.919,4.542c1.089-0.109,1.902-0.281,2.315-0.379c0.038,0.186,0.069,0.37,0.105,0.557L21.64,10.445
			c-0.107-0.115-0.219-0.225-0.338-0.329L29.919,4.542z M32.519,5.759c0.149,0.969,0.25,1.915,0.312,2.818l-10.36,2.903
			c-0.181-0.277-0.379-0.54-0.597-0.789L32.519,5.759z M32.916,10.925l-10.002,1.337c-0.078-0.16-0.163-0.319-0.251-0.473
			l10.221-2.237C32.902,10.025,32.914,10.487,32.916,10.925 M29.864,13.071c-0.635,0.002-1.684,0.117-2.335,0.307l-0.464,0.137
			c-0.434,0.127-0.891,0.264-1.345,0.385l0,0c-0.621,0.166-1.507,0.381-2.203,0.4c-0.079-0.589-0.229-1.155-0.448-1.688l9.84-0.74
			c-0.014,0.683-0.044,1.311-0.083,1.871C31.925,13.324,30.883,13.091,29.864,13.071 M29.824,14.328h-0.008
			c-0.638,0-1.688,0.115-2.339,0.307l-0.451,0.134c-0.437,0.128-0.896,0.264-1.353,0.386l0.076,0.283l-0.076-0.283
			c-0.654,0.175-1.603,0.407-2.311,0.407h-0.011c-0.949,0-2.423-0.122-4.083-0.702c-0.422-0.146-0.984-0.328-1.575-0.43
			c-0.336-0.058-0.65-0.084-0.964-0.084c-0.232,0-0.458,0.015-0.689,0.045c-0.683,0.087-1.316,0.291-1.845,0.477
			c-1.664,0.585-3.145,0.711-4.094,0.713h-0.004c-0.807,0-1.941-0.292-2.947-0.578l-1.167-0.34C5.394,14.49,4.406,14.36,3.681,14.36
			H3.67c-1.004,0.002-1.985,0.248-2.876,0.695c-0.021-0.193-0.042-0.401-0.062-0.627c0.88-0.466,1.952-0.74,2.988-0.74h0.01
			c0.665,0,1.602,0.121,2.139,0.278l1.168,0.34l0.08-0.281l-0.079,0.281c1.094,0.312,2.229,0.602,3.107,0.602h0.005
			c0.995-0.002,2.546-0.135,4.285-0.747c0.498-0.176,1.09-0.366,1.72-0.446l0.617-0.042l0.878,0.076
			c0.548,0.095,1.073,0.266,1.471,0.406c1.735,0.608,3.281,0.735,4.276,0.735h0.013c0.601,0,1.36-0.131,2.46-0.426l0,0
			c0.458-0.123,0.92-0.26,1.358-0.389l0.461-0.136c0.531-0.155,1.508-0.283,2.176-0.284h0.006c0.998,0,2.044,0.26,2.904,0.705
			c-0.021,0.24-0.042,0.459-0.062,0.661C31.819,14.574,30.83,14.328,29.824,14.328 M16.777,13.088l-0.001,0.043l-0.002-0.043
			c-0.229,0.002-0.459,0.017-0.688,0.047c-0.687,0.087-1.319,0.29-1.846,0.476c-1.428,0.504-2.72,0.667-3.658,0.703
			c0.426-3.075,3.022-5.364,6.165-5.369h0.008c3.103,0,5.733,2.319,6.168,5.35c-0.935-0.038-2.205-0.2-3.608-0.691
			c-0.422-0.148-0.982-0.328-1.574-0.431l-0.003,0.013l0.002-0.013C17.405,13.116,17.088,13.088,16.777,13.088 M0.589,11.863
			l9.843,0.741c-0.218,0.536-0.367,1.109-0.443,1.708c-0.796-0.031-1.848-0.298-2.793-0.566l-1.167-0.34
			c-0.591-0.171-1.579-0.302-2.301-0.302h-0.01c-1.044,0-2.12,0.262-3.037,0.701C0.64,13.229,0.604,12.576,0.589,11.863
			 M29.828,15.594h-0.01c-0.636,0.001-1.684,0.116-2.34,0.306l-0.502,0.148c-0.422,0.125-0.863,0.255-1.301,0.372l0.074,0.284
			l-0.074-0.284c-1.028,0.278-1.762,0.407-2.311,0.409h-0.013c-0.949,0-2.425-0.123-4.083-0.703
			c-0.449-0.157-0.989-0.332-1.574-0.43c-0.592-0.101-1.108-0.114-1.654-0.041c-0.687,0.09-1.319,0.292-1.846,0.478
			c-1.666,0.585-3.145,0.709-4.092,0.711h-0.006c-0.813,0-1.945-0.293-2.946-0.581l-0.081,0.284l0.079-0.284
			c-0.294-0.082-0.585-0.167-0.864-0.249l-0.302-0.088c-0.595-0.174-1.579-0.302-2.299-0.302H3.67
			c-0.978,0.002-1.851,0.228-2.717,0.679C0.93,16.156,0.9,15.942,0.863,15.67c0.858-0.469,1.822-0.724,2.807-0.726h0.009
			c0.667,0,1.604,0.122,2.14,0.279l1.167,0.338l0.083-0.28l-0.081,0.28c1.096,0.312,2.23,0.603,3.108,0.603h0.006
			c0.995-0.002,2.545-0.133,4.285-0.747c0.5-0.177,1.095-0.366,1.721-0.447l0.573-0.042c0.013,0,0.024,0,0.037,0l0.883,0.078
			c0.546,0.094,1.073,0.264,1.473,0.405c1.74,0.606,3.283,0.734,4.278,0.734h0.013c0.599,0,1.356-0.132,2.46-0.427
			c0.462-0.125,0.926-0.262,1.367-0.393l0.451-0.132c0.526-0.156,1.504-0.283,2.175-0.283h0.005c0.987,0,1.957,0.252,2.818,0.723
			c-0.033,0.26-0.062,0.467-0.084,0.614C31.697,15.818,30.802,15.594,29.828,15.594 M33.464,9.425l-0.057-1.01
			c-0.067-0.933-0.179-1.911-0.338-2.91l-0.113-0.678c-0.063-0.361-0.135-0.722-0.215-1.089l-0.066-0.304l-0.299,0.088
			c-0.01,0.004-0.493,0.14-1.307,0.275l-1.973,0.225c-0.391,0.025-0.808,0.042-1.246,0.042c-1.151,0.002-2.275-0.103-3.357-0.3
			L23.8,3.629c-0.013-0.004-0.026-0.006-0.037-0.007c-0.014-0.004-0.571-0.121-1.417-0.409L21.427,2.87
			c-0.919-0.368-2.009-0.898-3.092-1.621L17.432,0.59c-0.17-0.133-0.338-0.27-0.502-0.416L16.729,0l-0.193,0.183
			c-0.006,0.006-0.168,0.157-0.477,0.4l-0.922,0.664c-0.755,0.5-1.804,1.101-3.111,1.63L11.107,3.22
			c-0.444,0.152-0.911,0.296-1.404,0.422C9.691,3.644,9.677,3.646,9.667,3.649l-0.8,0.176c-0.94,0.174-1.952,0.267-3.024,0.267
			c-0.525,0-1.025-0.02-1.496-0.055L2.371,3.809C1.589,3.683,1.106,3.563,1.097,3.561L0.803,3.486L0.737,3.783
			c-0.063,0.292-0.116,0.581-0.17,0.87L0.416,5.537c-0.154,0.978-0.261,1.935-0.325,2.85L0.033,9.402
			C0.012,9.896,0.002,10.375,0,10.834l0.007,0.985c0.056,2.765,0.386,4.673,0.412,4.826c0.031,0.236,0.615,4.688,2.829,10.057
			c2.082,5.041,6.063,11.94,13.232,16.29l0.312,0.188l0.308-0.188c7.16-4.368,11.122-11.28,13.188-16.324
			c2.202-5.375,2.777-9.832,2.803-10.065c0.027-0.153,0.347-2.038,0.4-4.776l0.007-0.978C33.494,10.389,33.485,9.916,33.464,9.425"
			/>
		<path fill="#FFFFFF" d="M25.077,23.225c-0.089,0.092-0.208,0.14-0.335,0.14l-2.23,0.005c-0.263,0-0.475-0.215-0.477-0.476
			c0-0.26,0.214-0.475,0.475-0.475l0.363-0.002c0,0.002,0.002,0.004,0.002,0.006l0.006-0.006h0.478l1.385-0.002
			c0.259,0,0.473,0.215,0.473,0.475C25.216,23.017,25.166,23.135,25.077,23.225 M24.637,24.041
			c-0.084,0.083-0.201,0.126-0.344,0.126l-1.36,0.002c-0.228,0-0.386-0.168-0.447-0.448c0.009,0,0.016,0.002,0.024,0.002l2.23-0.003
			c0.012,0,0.023-0.009,0.036-0.009C24.752,23.849,24.712,23.967,24.637,24.041 M24.079,29.78l-0.903,0.001l-0.242-5.256l0,0
			l1.36-0.002c0.011,0,0.018-0.005,0.03-0.007L24.079,29.78z M24.677,30.519c0,0.211-0.173,0.385-0.385,0.385l-1.298,0.003
			l-0.002,0.177v-0.177c-0.211,0-0.381-0.175-0.381-0.386s0.171-0.382,0.381-0.382l0.734-0.002l0.563-0.002
			C24.502,30.134,24.677,30.307,24.677,30.519 M23.627,33.768c-0.155,0-0.282-0.125-0.282-0.287l-0.101-2.22h0.767l-0.103,2.226
			C23.909,33.644,23.783,33.768,23.627,33.768 M21.835,21.306c0-0.294,0.12-0.539,0.246-0.795c0.152-0.309,0.32-0.65,0.25-1.078
			c0.218,0.09,0.5,0.245,0.709,0.466c-0.003,0.003-0.007,0.008-0.01,0.01c-0.052,0.056-0.104,0.114-0.148,0.166
			c-0.011,0.009-0.909,0.885-0.263,1.99h-0.114c-0.063,0.002-0.125,0.011-0.188,0.024C22.22,22.044,21.837,21.843,21.835,21.306
			 M23.783,19.408c0.049-0.141,0.051-0.292,0.025-0.434c0.365,0.332,0.795,0.857,0.801,1.49c0.005,0.784-0.495,1.387-0.696,1.6
			h-0.127c-0.157-0.215-0.461-0.704-0.139-1.248c0.064-0.109,0.358-0.562,0.394-0.648c0.05-0.105,0.044-0.204,0.044-0.204
			c-0.049,0.08-0.135,0.176-0.135,0.176c-0.083,0.091-0.372,0.39-0.463,0.5c-0.477,0.579-0.158,1.209-0.032,1.425l-0.413,0.002
			c-0.709-0.952,0.05-1.701,0.096-1.747c0.053-0.06,0.104-0.116,0.153-0.169C23.491,19.934,23.663,19.748,23.783,19.408
			 M24.838,19.708c0.151-0.184,0.292-0.301,0.406-0.375c-0.089,0.819,0.336,1.633,0.344,1.643c0.202,0.699-0.49,1.038-0.659,1.109
			c-0.061-0.014-0.123-0.023-0.189-0.023h-0.36c0.263-0.34,0.587-0.903,0.583-1.602C24.962,20.166,24.838,19.708,24.838,19.708
			 M25.305,22.287c0.397-0.244,0.821-0.718,0.609-1.442c-0.004-0.01-0.506-0.977-0.26-1.749l0.083-0.261l-0.272,0.031
			c-0.042,0.004-0.411,0.068-0.835,0.544c-0.42-0.681-1.099-1.101-1.141-1.125l-0.675-0.399l0.438,0.652
			c0.078,0.116,0.285,0.505,0.198,0.75c-0.048,0.138-0.108,0.242-0.178,0.338c-0.449-0.453-1.133-0.639-1.162-0.647l-0.353-0.094
			l0.145,0.334c0.197,0.453,0.042,0.771-0.138,1.134c-0.133,0.272-0.283,0.577-0.281,0.953c0,0.486,0.241,0.8,0.474,0.976
			c-0.17,0.152-0.277,0.37-0.277,0.615c0.002,0.312,0.179,0.582,0.436,0.723c0.039,0.418,0.223,0.683,0.458,0.811l0.248,5.387
			c-0.323,0.078-0.567,0.356-0.567,0.702c0,0.37,0.279,0.665,0.633,0.719l0.104,2.249c0,0.351,0.285,0.635,0.635,0.635
			c0.351,0,0.636-0.284,0.636-0.626l0.104-2.252c0.371-0.041,0.665-0.345,0.663-0.725c0-0.359-0.26-0.644-0.597-0.71l0.248-5.384
			c0.075-0.036,0.147-0.075,0.206-0.134c0.163-0.162,0.249-0.399,0.267-0.697c0.06-0.036,0.124-0.069,0.175-0.119
			c0.156-0.156,0.243-0.365,0.241-0.584C25.57,22.653,25.467,22.439,25.305,22.287"/>
		<path fill="#FFFFFF" d="M10.837,23.383l-2.229,0.004c-0.263,0-0.476-0.212-0.476-0.474c0-0.128,0.049-0.246,0.138-0.335
			c0.09-0.092,0.208-0.141,0.335-0.141h0.362c0,0,0.002,0.003,0.002,0.004l0.006-0.004h0.48l0.7-0.002h0.683
			c0.262,0,0.473,0.212,0.476,0.474C11.315,23.17,11.101,23.383,10.837,23.383 M10.739,24.062c-0.081,0.08-0.198,0.122-0.349,0.122
			l-1.358,0.002c-0.225,0-0.385-0.171-0.448-0.448c0.009,0,0.016,0.004,0.024,0.004l2.229-0.004c0.014,0,0.026-0.004,0.039-0.004
			C10.852,23.871,10.812,23.99,10.739,24.062 M10.177,29.798L9.273,29.8L9.03,24.541c0.001,0,0.002,0,0.002,0l1.359-0.001
			c0.01,0,0.017-0.004,0.027-0.004L10.177,29.798z M10.772,30.537c0,0.101-0.04,0.199-0.113,0.271
			c-0.072,0.074-0.17,0.115-0.273,0.115H9.092L9.09,31.099v-0.177c-0.211,0-0.384-0.172-0.384-0.384s0.172-0.386,0.384-0.386h0.733
			l0.562-0.002C10.601,30.151,10.772,30.325,10.772,30.537 M9.726,33.785c-0.156,0-0.285-0.126-0.285-0.289L9.34,31.278l0.769-0.002
			l-0.103,2.229C10.006,33.659,9.88,33.785,9.726,33.785 M7.935,21.324c0-0.293,0.119-0.538,0.246-0.796
			c0.152-0.308,0.32-0.65,0.25-1.079c0.217,0.092,0.501,0.245,0.708,0.466c-0.004,0.004-0.007,0.01-0.012,0.015
			c-0.049,0.054-0.103,0.111-0.146,0.162c-0.011,0.01-0.909,0.883-0.264,1.99h-0.11c-0.059,0-0.111,0.022-0.168,0.034
			C8.397,22.102,7.936,21.917,7.935,21.324 M9.879,19.427c0.051-0.143,0.051-0.295,0.026-0.438c0.365,0.332,0.798,0.857,0.802,1.492
			c0.007,0.784-0.494,1.389-0.696,1.6H9.886c-0.157-0.216-0.462-0.704-0.139-1.247c0.064-0.112,0.358-0.563,0.396-0.65
			c0.044-0.106,0.04-0.202,0.04-0.202c-0.049,0.081-0.134,0.174-0.134,0.174c-0.085,0.093-0.372,0.391-0.461,0.501
			c-0.479,0.579-0.157,1.209-0.035,1.424l-0.412,0.002c-0.709-0.951,0.048-1.701,0.095-1.745c0.052-0.06,0.103-0.115,0.15-0.167
			C9.586,19.954,9.758,19.768,9.879,19.427 M10.934,19.727c0.152-0.184,0.294-0.3,0.408-0.373c-0.088,0.818,0.335,1.632,0.344,1.641
			c0.202,0.7-0.49,1.039-0.657,1.109c-0.062-0.012-0.125-0.023-0.19-0.023H10.48c0.262-0.342,0.589-0.902,0.583-1.602
			C11.059,20.182,10.934,19.727,10.934,19.727 M11.402,22.305c0.399-0.244,0.82-0.72,0.611-1.443
			c-0.006-0.01-0.508-0.976-0.262-1.748l0.084-0.264l-0.274,0.033c-0.041,0.003-0.408,0.065-0.833,0.542
			c-0.422-0.681-1.101-1.099-1.143-1.123l-0.669-0.396l0.434,0.646c0.082,0.126,0.283,0.508,0.195,0.754
			c-0.048,0.137-0.107,0.241-0.176,0.338c-0.449-0.454-1.133-0.641-1.163-0.647l-0.352-0.094L8,19.237
			c0.197,0.45,0.042,0.768-0.138,1.133c-0.133,0.27-0.282,0.578-0.282,0.953c0,0.523,0.263,0.821,0.476,0.978
			c-0.01,0.011-0.025,0.014-0.036,0.025c-0.156,0.159-0.242,0.366-0.241,0.586c0,0.312,0.177,0.582,0.435,0.723
			c0.036,0.377,0.206,0.67,0.458,0.811l0.249,5.387c-0.323,0.078-0.567,0.357-0.567,0.706c0,0.37,0.277,0.662,0.631,0.714
			l0.104,2.251c0,0.351,0.286,0.638,0.637,0.638c0.349,0,0.635-0.286,0.635-0.63l0.104-2.251c0.168-0.018,0.325-0.08,0.446-0.202
			c0.14-0.14,0.217-0.328,0.215-0.521c0-0.356-0.259-0.642-0.597-0.71l0.247-5.377c0.079-0.037,0.155-0.076,0.215-0.137
			c0.157-0.156,0.241-0.391,0.261-0.689c0.247-0.145,0.417-0.409,0.417-0.715C11.668,22.669,11.563,22.456,11.402,22.305"/>
		<path fill="#FFFFFF" d="M18.825,24.265c-0.138,0.138-0.323,0.216-0.518,0.216l-3.119,0.003c-0.405,0-0.733-0.327-0.735-0.73
			c0-0.406,0.329-0.737,0.734-0.737c0,0,2.077,0,2.082-0.003h1.039c0.403,0,0.731,0.327,0.731,0.73
			C19.04,23.943,18.965,24.126,18.825,24.265 M17.684,25.506l-1.902,0.002H15.78c-0.303,0-0.579-0.329-0.685-0.676
			c0.032,0.002,0.062,0.01,0.094,0.01l3.119-0.006c0.038,0,0.076-0.007,0.115-0.011C18.31,25.162,18.001,25.506,17.684,25.506
			 M17.45,33.449l-1.4,0.001l-0.349-7.6c0.026,0.004,0.051,0.011,0.078,0.011h0.002l1.902-0.002c0.04,0,0.078-0.011,0.116-0.015
			L17.45,33.449z M18.286,34.411c0,0.336-0.274,0.608-0.608,0.608l-1.811,0.003c-0.335,0-0.609-0.273-0.61-0.607
			c0-0.335,0.272-0.609,0.606-0.609l1.366-0.002h0.444C18.01,33.803,18.284,34.075,18.286,34.411 M17.213,38.562
			c0,0.122-0.048,0.24-0.135,0.328c-0.088,0.088-0.202,0.136-0.327,0.136h-0.002c-0.124,0-0.24-0.048-0.328-0.136
			c-0.089-0.085-0.137-0.202-0.137-0.336l-0.147-3.177l1.222-0.002L17.213,38.562z M14.175,21.528
			c-0.001-0.425,0.169-0.773,0.35-1.143c0.232-0.473,0.471-0.96,0.316-1.597c0.312,0.115,0.783,0.338,1.117,0.711
			c-0.04,0.044-0.079,0.089-0.123,0.135c-0.068,0.073-0.141,0.152-0.203,0.225c-0.014,0.012-1.29,1.255-0.293,2.803h-0.154
			c-0.094,0-0.182,0.017-0.269,0.038C14.836,22.669,14.177,22.387,14.175,21.528 M16.775,18.851c0.096-0.27,0.062-0.57-0.008-0.828
			c0.547,0.446,1.36,1.281,1.365,2.329c0.011,1.15-0.737,2.028-1.011,2.308h-0.09c-0.146-0.22-0.305-0.575-0.305-0.979
			c-0.001-0.777,0.377-1.229,0.377-1.229s-0.479,0.325-0.562,1.041c-0.039,0.342,0.036,0.704,0.259,1.17h-0.455
			c-0.173-0.255-0.642-0.992-0.152-1.818c0.092-0.154,0.582-0.785,0.636-0.908c0.063-0.146,0.057-0.282,0.057-0.282
			c-0.069,0.113-0.188,0.244-0.188,0.244c-0.118,0.13-0.52,0.548-0.647,0.699c-0.727,0.884-0.128,1.854-0.003,2.065h-0.275
			c-1.068-1.394,0.053-2.497,0.114-2.557c0.072-0.083,0.141-0.156,0.207-0.23C16.372,19.576,16.608,19.319,16.775,18.851
			 M19.032,19.021c-0.23,1.099,0.139,2.004,0.15,2.03c0.292,1.008-0.429,1.504-0.652,1.631c-0.071-0.015-0.148-0.024-0.224-0.024
			l-0.709,0.001c0.37-0.447,0.899-1.266,0.89-2.309c-0.002-0.269-0.051-0.52-0.127-0.76C18.617,19.285,18.859,19.114,19.032,19.021
			 M18.916,22.846c0.365-0.286,0.895-0.897,0.6-1.912c-0.004-0.01-0.412-1.025-0.056-2.141l0.082-0.263l-0.273,0.032
			c-0.02,0.002-0.495,0.074-1.054,0.663c-0.537-1.125-1.691-1.819-1.755-1.857l-0.587-0.347l0.345,0.59
			c0.003,0.006,0.386,0.668,0.225,1.123c-0.071,0.198-0.159,0.352-0.259,0.492c-0.611-0.649-1.542-0.874-1.582-0.884l-0.343-0.08
			l0.141,0.323c0.289,0.663,0.065,1.117-0.193,1.645c-0.19,0.389-0.388,0.792-0.387,1.302c0,0.702,0.375,1.139,0.707,1.361
			c-0.259,0.201-0.429,0.511-0.429,0.863c0.001,0.427,0.251,0.791,0.61,0.97c0.06,0.405,0.302,0.819,0.644,1.017l-0.012,0.001
			l0.357,7.727c-0.451,0.081-0.795,0.473-0.795,0.945c0.001,0.502,0.39,0.911,0.88,0.953l0.147,3.196
			c0,0.218,0.086,0.424,0.239,0.579c0.156,0.154,0.359,0.24,0.577,0.24h0.004c0.218,0,0.424-0.086,0.578-0.241
			c0.154-0.156,0.239-0.361,0.238-0.571l0.148-3.198c0.513-0.02,0.926-0.441,0.926-0.961c-0.002-0.486-0.367-0.885-0.836-0.949
			l0.356-7.748h-0.002c0.347-0.213,0.601-0.621,0.654-1.008c0.094-0.049,0.186-0.111,0.264-0.189c0.206-0.207,0.32-0.48,0.318-0.771
			C19.394,23.372,19.205,23.041,18.916,22.846"/>
	</g>
</g>
<g>
	<path fill="#FFCE0C" d="M64.808,135.066c0-2.582-0.609-3.797-2.582-3.797H58.73c-0.458,0-0.612-0.154-0.612-0.688v-1.75
		c0-0.454,0.153-0.604,0.761-0.604c0.764,0,4.406,0.229,11.707,0.229c6.383,0,10.028-0.229,10.942-0.229
		c0.453,0,0.605,0.151,0.605,0.533v1.901c0,0.455-0.151,0.608-0.605,0.608h-3.194c-2.28,0-3.645,1.361-3.722,2.961
		c-0.078,0.916-0.228,5.473-0.228,9.877v9.43c0,3.793,0.074,9.189,0.228,11.625c0.229,3.496,0.836,6.986,2.662,9.423
		c2.584,3.49,6.688,4.709,10.333,4.709c3.491,0,7.75-1.374,10.18-3.646c2.895-2.89,4.408-7.297,4.408-12.847v-13.68
		c0-6.08-0.609-12.771-0.838-14.513c-0.228-1.979-1.44-3.34-3.114-3.34h-2.737c-0.453,0-0.607-0.231-0.607-0.539v-1.903
		c0-0.454,0.153-0.604,0.607-0.604c0.763,0,4.257,0.229,9.271,0.229c4.714,0,7.145-0.229,7.75-0.229
		c0.687,0,0.764,0.229,0.764,0.604v1.75c0,0.455-0.077,0.688-0.458,0.688H110.1c-2.74,0-3.043,2.125-3.192,2.961
		c-0.15,0.918-0.15,11.551-0.15,12.541c0,1.062-0.151,14.284-0.452,17.325c-0.461,6.226-2.285,10.94-6.387,14.584
		c-3.193,2.894-8.057,4.712-13.831,4.712c-3.648,0-8.056-0.604-10.943-1.818c-4.41-1.823-7.449-5.321-8.97-10.18
		c-1.065-3.351-1.365-8.367-1.365-18.324L64.808,135.066L64.808,135.066z"/>
	<path fill="#FFCE0C" d="M115.42,165.309c0.303,0,0.456,0.153,0.456,0.607c0.151,2.43,0.763,5.32,2.89,8.668
		c2.277,3.641,6.23,5.466,10.03,5.466c4.099,0,9.875-2.581,9.875-8.886c0-6.988-3.188-9.275-11.246-12.311
		c-2.431-0.908-7.446-3.043-11.094-6.381c-2.583-2.439-3.8-6.232-3.8-10.869c0-4.256,1.673-7.75,5.318-10.645
		c3.043-2.578,6.385-3.645,10.793-3.645c5.014,0,8.053,1.211,9.572,1.824c0.762,0.305,1.217,0.147,1.598-0.229l0.983-0.986
		c0.308-0.307,0.608-0.452,1.063-0.452c0.457,0,0.609,0.452,0.609,1.213c0,1.217,1.217,11.854,1.217,12.616
		c0,0.306-0.151,0.453-0.457,0.531l-1.215,0.385c-0.308,0.072-0.611,0-0.763-0.463c-0.763-2.127-1.978-5.168-4.714-8.051
		c-1.975-2.128-4.403-3.192-7.898-3.192c-6.082,0-8.514,4.862-8.514,7.676c0,2.586,0.307,4.86,2.126,6.838
		c1.979,1.979,6.231,3.799,9.274,4.717c4.401,1.365,8.051,2.886,10.94,5.922c2.427,2.588,3.795,5.775,3.795,10.873
		c0,9.268-6.075,16.861-16.104,16.861c-6.231,0-9.879-1.365-12.918-3.646c-0.912-0.607-1.367-0.917-1.822-0.917
		s-0.762,0.608-1.216,1.371c-0.454,0.759-0.759,0.915-1.365,0.915s-0.916-0.458-0.916-1.219c0.153-0.918,1.215-13.227,1.365-14.135
		c0.081-0.457,0.155-0.604,0.458-0.604L115.42,165.309z"/>
	<path fill="#FFCE0C" d="M199.77,169.869c0.23,0.227,0.305,0.453,0.15,0.758c-4.559,6.539-11.855,12.768-22.643,12.768
		c-9.731,0-15.199-2.89-19.911-7.146c-5.625-5.011-8.207-13.827-8.207-20.513c0-7.449,2.431-14.592,7.75-20.371
		c4.103-4.406,10.634-8.053,19.756-8.053c6.994,0,12.614,2.127,15.349,3.646c1.061,0.61,1.37,0.61,1.521,0l0.604-1.979
		c0.152-0.451,0.305-0.451,1.215-0.451c0.912,0,1.066,0.147,1.066,1.219c0,1.367,1.518,13.521,1.818,15.8
		c0.08,0.459,0,0.688-0.303,0.771l-1.444,0.455c-0.38,0.146-0.606-0.156-0.834-0.769c-0.916-2.733-2.737-6.528-5.927-9.875
		c-3.346-3.192-7.293-5.624-13.225-5.624c-12.154,0-17.173,10.944-17.173,21.889c0,4.707,1.37,13.676,6.991,19.754
		c5.021,5.318,9.423,5.924,13.07,5.924c8.356,0,14.965-4.176,18.16-8.812c0.377-0.533,0.68-0.758,0.912-0.533L199.77,169.869z"/>
	<g>
		<path fill="#FFFFFF" d="M45.817,163.244c-3.136,7.646-9.134,18.109-19.952,24.703c-10.836-6.562-16.866-17.018-20.021-24.653
			c-2.902-7.034-3.966-13.009-4.232-14.761c1.295-0.729,2.588-1.08,4.047-1.083h0.015c1.02,0,2.463,0.188,3.294,0.427l0.459,0.137
			c0.436,0.129,0.883,0.258,1.341,0.387c1.6,0.461,3.419,0.932,4.785,0.932h0.009c1.533-0.003,3.917-0.203,6.603-1.146
			c0.767-0.271,1.681-0.562,2.654-0.689l0.884-0.062c0.016,0,0.034,0,0.05,0l1.367,0.121c0.83,0.145,1.612,0.392,2.267,0.621
			c2.675,0.938,5.055,1.133,6.591,1.133h0.021c0.925-0.002,2.128-0.213,3.79-0.656c0.681-0.185,1.37-0.389,2.027-0.582l0.771-0.229
			c0.821-0.234,2.326-0.433,3.354-0.438h0.011c1.454,0,2.787,0.354,4.066,1.046C49.761,150.165,48.721,156.166,45.817,163.244
			 M0.945,137.156l15.759,3.449c-0.139,0.242-0.268,0.485-0.388,0.735l-15.423-2.056C0.895,138.607,0.915,137.889,0.945,137.156
			 M1.489,131.396l16.369,7.582c-0.31,0.358-0.602,0.737-0.863,1.143l-15.972-4.477C1.117,134.279,1.267,132.857,1.489,131.396
			 M1.918,128.938c0.633,0.142,1.883,0.381,3.5,0.553l13.294,8.601c-0.179,0.161-0.345,0.335-0.509,0.509l-16.447-8.804
			C1.811,129.51,1.859,129.227,1.918,128.938 M8.999,129.68c1.708,0,3.32-0.146,4.822-0.426l6.709,7.518
			c-0.508,0.295-0.987,0.631-1.438,1.004l-11.08-8.108C8.338,129.675,8.662,129.682,8.999,129.68 M17.563,128.234l4.451,7.824
			c-0.301,0.112-0.596,0.241-0.883,0.387l-5.663-7.566C16.203,128.682,16.9,128.466,17.563,128.234 M23.451,125.395l1.355,10.012
			c-0.751,0.07-1.478,0.226-2.173,0.445l-3.732-8.121C20.77,126.977,22.293,126.139,23.451,125.395 M25.787,123.686
			c0.33,0.279,0.667,0.541,1.006,0.797l-0.604,10.896c-0.125-0.008-0.249-0.021-0.379-0.021h-0.014c-0.131,0-0.26,0.018-0.391,0.021
			l-0.604-10.915C25.238,124.143,25.573,123.87,25.787,123.686 M28.114,125.395c1.591,1.028,3.167,1.791,4.514,2.332l-3.726,8.105
			c-0.69-0.212-1.407-0.364-2.146-0.432L28.114,125.395z M33.973,128.23c0.95,0.324,1.695,0.523,2.102,0.625l-5.669,7.58
			c-0.286-0.146-0.582-0.272-0.885-0.388L33.973,128.23z M37.76,129.198c1.662,0.292,3.383,0.438,5.146,0.438
			c0.213,0,0.413-0.007,0.618-0.014l-11.083,8.118c-0.448-0.365-0.926-0.696-1.429-0.982L37.76,129.198z M46.094,129.477
			c1.677-0.172,2.93-0.437,3.565-0.586c0.058,0.286,0.108,0.569,0.163,0.858l-16.483,8.819c-0.165-0.176-0.338-0.344-0.52-0.504
			L46.094,129.477z M50.099,131.35c0.23,1.494,0.385,2.949,0.48,4.344l-15.96,4.474c-0.278-0.431-0.583-0.83-0.919-1.215
			L50.099,131.35z M50.71,139.309l-15.409,2.062c-0.12-0.246-0.25-0.492-0.388-0.729l15.747-3.449
			C50.688,137.922,50.708,138.633,50.71,139.309 M46.011,142.614c-0.98,0.003-2.596,0.179-3.6,0.472l-0.714,0.211
			c-0.67,0.197-1.374,0.408-2.073,0.596l0,0c-0.956,0.254-2.322,0.586-3.394,0.615c-0.12-0.908-0.353-1.779-0.69-2.601l15.159-1.138
			c-0.021,1.051-0.067,2.019-0.128,2.881C49.185,143.006,47.579,142.646,46.011,142.614 M45.947,144.552h-0.012
			c-0.983,0-2.603,0.179-3.604,0.472l-0.694,0.207c-0.673,0.196-1.382,0.406-2.084,0.598l0.117,0.438l-0.117-0.438
			c-1.006,0.271-2.47,0.628-3.56,0.628h-0.017c-1.462,0-3.733-0.188-6.293-1.082c-0.649-0.228-1.517-0.508-2.427-0.663
			c-0.517-0.089-1.002-0.13-1.485-0.13c-0.358,0-0.705,0.021-1.062,0.067c-1.051,0.137-2.027,0.447-2.843,0.732
			c-2.562,0.901-4.845,1.096-6.308,1.098h-0.006c-1.244,0-2.991-0.446-4.541-0.891l-1.797-0.523
			c-0.909-0.266-2.43-0.465-3.546-0.465H5.652c-1.547,0.002-3.059,0.383-4.432,1.07c-0.032-0.297-0.064-0.617-0.095-0.965
			c1.355-0.717,3.008-1.141,4.604-1.141h0.014c1.024,0,2.467,0.186,3.295,0.428l1.8,0.523l0.124-0.438l-0.122,0.438
			c1.686,0.479,3.435,0.928,4.787,0.928h0.009c1.532-0.002,3.923-0.207,6.602-1.15c0.767-0.271,1.68-0.564,2.65-0.689l0.951-0.062
			l1.354,0.116c0.844,0.146,1.654,0.41,2.267,0.626c2.673,0.938,5.055,1.132,6.588,1.132h0.02c0.925,0,2.095-0.202,3.791-0.656l0,0
			c0.705-0.188,1.417-0.4,2.092-0.602l0.711-0.209c0.818-0.24,2.323-0.438,3.351-0.438h0.009c1.538,0,3.15,0.401,4.474,1.089
			c-0.031,0.368-0.064,0.705-0.095,1.02C49.02,144.932,47.497,144.552,45.947,144.552 M25.846,142.643l-0.001,0.066l-0.002-0.066
			c-0.353,0.002-0.709,0.025-1.06,0.072c-1.058,0.135-2.033,0.445-2.845,0.732c-2.2,0.777-4.19,1.027-5.636,1.084
			c0.655-4.737,4.654-8.264,9.497-8.271h0.013c4.782,0,8.833,3.573,9.504,8.244c-1.441-0.059-3.398-0.311-5.559-1.064
			c-0.649-0.228-1.513-0.506-2.423-0.664l-0.006,0.021l0.003-0.021C26.812,142.684,26.326,142.643,25.846,142.643 M0.907,140.754
			l15.164,1.143c-0.335,0.826-0.564,1.709-0.683,2.631c-1.226-0.049-2.848-0.459-4.303-0.868l-1.797-0.525
			c-0.911-0.264-2.432-0.463-3.544-0.463H5.726c-1.609,0-3.266,0.403-4.679,1.08C0.982,142.857,0.929,141.854,0.907,140.754
			 M45.953,146.502h-0.014c-0.979,0.002-2.594,0.18-3.605,0.473l-0.773,0.229c-0.649,0.191-1.328,0.396-2.004,0.572l0.115,0.438
			l-0.116-0.438c-1.583,0.429-2.714,0.627-3.56,0.634h-0.02c-1.462,0-3.736-0.189-6.293-1.085c-0.69-0.242-1.523-0.514-2.426-0.663
			c-0.913-0.153-1.707-0.177-2.548-0.062c-1.059,0.142-2.031,0.449-2.844,0.735c-2.567,0.899-4.846,1.091-6.305,1.097h-0.009
			c-1.253,0-2.998-0.451-4.539-0.896l-0.124,0.438l0.122-0.438c-0.454-0.127-0.9-0.26-1.33-0.385l-0.466-0.137
			c-0.917-0.269-2.433-0.466-3.543-0.466H5.653c-1.507,0.004-2.851,0.353-4.185,1.048c-0.036-0.229-0.083-0.558-0.139-0.978
			c1.321-0.726,2.806-1.115,4.324-1.119h0.015c1.025,0,2.47,0.188,3.295,0.431l1.797,0.521l0.127-0.434l-0.124,0.434
			c1.688,0.479,3.438,0.929,4.788,0.929h0.009c1.533-0.004,3.922-0.206,6.603-1.147c0.77-0.274,1.686-0.566,2.651-0.689l0.883-0.064
			c0.019,0,0.038,0,0.057,0l1.359,0.119c0.841,0.146,1.654,0.406,2.27,0.625c2.68,0.937,5.058,1.131,6.591,1.131h0.019
			c0.922,0,2.089-0.203,3.791-0.658c0.712-0.19,1.426-0.401,2.106-0.604l0.694-0.203c0.813-0.24,2.317-0.437,3.352-0.437h0.009
			c1.521,0,3.014,0.387,4.341,1.112c-0.049,0.4-0.095,0.722-0.129,0.945C48.833,146.846,47.454,146.502,45.953,146.502
			 M51.554,136.996l-0.086-1.555c-0.104-1.438-0.276-2.944-0.52-4.482l-0.175-1.046c-0.098-0.556-0.208-1.114-0.331-1.679
			l-0.102-0.469l-0.461,0.133c-0.017,0.009-0.759,0.218-2.015,0.427l-3.039,0.345c-0.604,0.04-1.246,0.062-1.92,0.062
			c-1.772,0.004-3.503-0.155-5.172-0.461l-1.067-0.207c-0.019-0.008-0.039-0.013-0.056-0.015c-0.022-0.005-0.88-0.185-2.183-0.631
			l-1.416-0.526c-1.417-0.567-3.096-1.386-4.765-2.498l-1.392-1.018c-0.261-0.204-0.519-0.414-0.772-0.641l-0.31-0.268l-0.298,0.279
			c-0.01,0.009-0.259,0.242-0.733,0.616l-1.421,1.024c-1.163,0.771-2.78,1.696-4.793,2.514l-1.417,0.527
			c-0.685,0.232-1.403,0.456-2.163,0.648c-0.017,0.003-0.039,0.007-0.055,0.013l-1.233,0.271c-1.449,0.268-3.008,0.41-4.658,0.41
			c-0.811,0-1.581-0.028-2.306-0.082l-3.044-0.354c-1.205-0.191-1.948-0.376-1.962-0.381l-0.453-0.115l-0.102,0.456
			c-0.098,0.45-0.18,0.896-0.262,1.343L0.64,131c-0.236,1.51-0.401,2.982-0.5,4.393l-0.089,1.564
			c-0.032,0.764-0.048,1.499-0.051,2.207l0.012,1.518c0.084,4.258,0.594,7.198,0.634,7.438c0.048,0.358,0.949,7.221,4.358,15.491
			c3.206,7.771,9.34,18.396,20.385,25.099l0.48,0.29l0.474-0.289c11.031-6.729,17.136-17.378,20.319-25.146
			c3.391-8.28,4.277-15.147,4.318-15.51c0.042-0.236,0.535-3.143,0.616-7.357l0.012-1.506
			C51.603,138.482,51.587,137.753,51.554,136.996"/>
		<path fill="#FFFFFF" d="M38.635,158.26c-0.138,0.141-0.32,0.215-0.517,0.215l-3.436,0.008c-0.405,0-0.731-0.332-0.733-0.729
			c0-0.399,0.33-0.729,0.731-0.729l0.56-0.004c0,0.004,0.003,0.008,0.003,0.01l0.009-0.01h0.736l2.133-0.006
			c0.4,0,0.729,0.331,0.729,0.732C38.847,157.938,38.771,158.121,38.635,158.26 M37.956,159.516
			c-0.129,0.129-0.31,0.193-0.529,0.193l-2.095,0.004c-0.351,0-0.595-0.26-0.688-0.689c0.014,0,0.025,0.002,0.037,0.002l3.436-0.004
			c0.019,0,0.036-0.014,0.055-0.014C38.132,159.221,38.07,159.402,37.956,159.516 M37.096,168.357l-1.391,0.002l-0.372-8.101l0,0
			l2.096-0.002c0.016,0,0.027-0.009,0.045-0.012L37.096,168.357z M38.018,169.497c0,0.325-0.267,0.593-0.592,0.593l-2,0.004
			l-0.004,0.275v-0.275c-0.326,0-0.586-0.269-0.586-0.596c0-0.324,0.265-0.588,0.586-0.588l1.131-0.004l0.869-0.002
			C37.748,168.902,38.018,169.17,38.018,169.497 M36.4,174.503c-0.24,0-0.436-0.19-0.436-0.442l-0.154-3.42h1.181l-0.157,3.428
			C36.834,174.311,36.641,174.503,36.4,174.503 M33.641,155.302c0-0.452,0.184-0.831,0.379-1.224c0.233-0.477,0.492-1,0.385-1.66
			c0.335,0.139,0.77,0.376,1.094,0.717c-0.006,0.006-0.013,0.014-0.018,0.016c-0.079,0.086-0.161,0.181-0.228,0.26
			c-0.016,0.015-1.4,1.359-0.405,3.062h-0.175c-0.098,0.004-0.193,0.02-0.289,0.037C34.232,156.441,33.643,156.13,33.641,155.302
			 M36.641,152.377c0.077-0.217,0.078-0.45,0.04-0.668c0.562,0.512,1.225,1.318,1.234,2.296c0.008,1.21-0.762,2.14-1.071,2.466
			h-0.196c-0.243-0.332-0.712-1.088-0.214-1.924c0.099-0.167,0.55-0.863,0.607-0.996c0.077-0.162,0.068-0.316,0.068-0.316
			c-0.077,0.123-0.209,0.271-0.209,0.271c-0.129,0.143-0.574,0.604-0.714,0.771c-0.733,0.892-0.242,1.863-0.048,2.195l-0.635,0.002
			c-1.094-1.468,0.077-2.621,0.147-2.689c0.082-0.092,0.16-0.18,0.236-0.262C36.189,153.188,36.454,152.902,36.641,152.377
			 M38.266,152.842c0.233-0.283,0.449-0.465,0.626-0.576c-0.138,1.26,0.517,2.519,0.529,2.529c0.312,1.078-0.753,1.6-1.015,1.711
			c-0.093-0.021-0.189-0.037-0.293-0.037h-0.554c0.405-0.521,0.905-1.391,0.898-2.469C38.457,153.545,38.266,152.842,38.266,152.842
			 M38.984,156.812c0.613-0.373,1.265-1.105,0.939-2.225c-0.006-0.016-0.779-1.507-0.4-2.691l0.127-0.402l-0.418,0.049
			c-0.065,0.008-0.633,0.105-1.288,0.838c-0.647-1.051-1.693-1.695-1.758-1.732l-1.04-0.613l0.675,1.004
			c0.12,0.179,0.438,0.775,0.304,1.152c-0.073,0.215-0.166,0.375-0.273,0.521c-0.692-0.699-1.746-0.986-1.791-0.997l-0.543-0.146
			l0.223,0.514c0.304,0.701,0.064,1.188-0.212,1.746c-0.206,0.42-0.436,0.891-0.433,1.469c0,0.75,0.371,1.232,0.731,1.504
			c-0.263,0.236-0.427,0.572-0.427,0.949c0.003,0.48,0.275,0.896,0.672,1.113c0.059,0.645,0.343,1.054,0.705,1.25l0.383,8.301
			c-0.498,0.119-0.875,0.549-0.875,1.082c0,0.57,0.431,1.025,0.975,1.109l0.16,3.465c0,0.539,0.44,0.979,0.979,0.979
			c0.542,0,0.979-0.439,0.979-0.964l0.16-3.47c0.57-0.062,1.024-0.531,1.021-1.117c0-0.553-0.4-0.992-0.92-1.092l0.382-8.295
			c0.116-0.055,0.227-0.115,0.318-0.206c0.249-0.249,0.382-0.616,0.41-1.074c0.093-0.054,0.19-0.106,0.271-0.181
			c0.239-0.242,0.375-0.565,0.372-0.901C39.393,157.377,39.235,157.049,38.984,156.812"/>
		<path fill="#FFFFFF" d="M16.695,158.502l-3.435,0.006c-0.404,0-0.732-0.326-0.732-0.73c0-0.194,0.074-0.379,0.211-0.516
			c0.138-0.143,0.321-0.217,0.517-0.217h0.558c0,0,0.003,0.006,0.003,0.007l0.009-0.007h0.739l1.08-0.002h1.051
			c0.403,0,0.728,0.326,0.733,0.729C17.431,158.176,17.1,158.502,16.695,158.502 M16.545,159.549
			c-0.125,0.124-0.306,0.188-0.539,0.188l-2.091,0.007c-0.346,0-0.594-0.267-0.689-0.692c0.015,0,0.023,0.01,0.036,0.01l3.434-0.01
			c0.021,0,0.04-0.007,0.059-0.007C16.716,159.254,16.656,159.438,16.545,159.549 M15.678,168.385l-1.392,0.004l-0.374-8.102
			c0.002,0,0.004,0,0.004,0l2.093-0.002c0.016,0,0.027-0.006,0.043-0.006L15.678,168.385z M16.595,169.523
			c0,0.156-0.06,0.309-0.173,0.418c-0.111,0.113-0.261,0.178-0.419,0.178h-1.996l-0.002,0.273v-0.273
			c-0.326,0-0.591-0.264-0.591-0.592c0-0.326,0.266-0.596,0.591-0.596h1.13l0.866-0.002
			C16.331,168.93,16.595,169.197,16.595,169.523 M14.982,174.527c-0.242,0-0.44-0.193-0.44-0.442l-0.155-3.417l1.185-0.004
			l-0.159,3.434C15.414,174.334,15.22,174.527,14.982,174.527 M12.221,155.33c0-0.451,0.184-0.83,0.38-1.225
			c0.233-0.478,0.492-1.002,0.385-1.662c0.334,0.143,0.772,0.377,1.09,0.717c-0.007,0.006-0.012,0.016-0.02,0.021
			c-0.076,0.082-0.158,0.172-0.225,0.246c-0.017,0.018-1.4,1.36-0.406,3.067h-0.17c-0.089,0-0.172,0.03-0.259,0.053
			C12.936,156.527,12.223,156.244,12.221,155.33 M15.218,152.407c0.078-0.22,0.078-0.453,0.041-0.675
			c0.561,0.511,1.228,1.316,1.236,2.299c0.01,1.209-0.761,2.139-1.073,2.465H15.23c-0.242-0.334-0.712-1.084-0.215-1.92
			c0.1-0.174,0.551-0.867,0.609-1.002c0.07-0.164,0.062-0.312,0.062-0.312c-0.076,0.124-0.206,0.271-0.206,0.271
			c-0.132,0.143-0.573,0.602-0.711,0.771c-0.738,0.896-0.243,1.864-0.053,2.196l-0.636,0.004c-1.092-1.467,0.075-2.621,0.147-2.688
			c0.08-0.096,0.159-0.181,0.231-0.258C14.768,153.219,15.032,152.932,15.218,152.407 M16.843,152.869
			c0.233-0.283,0.453-0.463,0.628-0.574c-0.137,1.258,0.517,2.514,0.53,2.525c0.311,1.078-0.754,1.603-1.013,1.711
			c-0.096-0.018-0.191-0.034-0.293-0.034h-0.554c0.404-0.528,0.908-1.39,0.897-2.47C17.036,153.57,16.843,152.869,16.843,152.869
			 M17.565,156.844c0.616-0.377,1.264-1.111,0.941-2.226c-0.008-0.017-0.783-1.503-0.404-2.692l0.13-0.406l-0.422,0.049
			c-0.063,0.009-0.629,0.104-1.283,0.836c-0.651-1.049-1.697-1.69-1.76-1.729l-1.031-0.609l0.668,0.996
			c0.125,0.191,0.436,0.78,0.301,1.158c-0.076,0.215-0.166,0.372-0.272,0.521c-0.69-0.7-1.745-0.989-1.792-0.997l-0.542-0.146
			l0.223,0.517c0.304,0.694,0.065,1.183-0.212,1.745c-0.204,0.414-0.434,0.89-0.434,1.468c0,0.806,0.404,1.264,0.732,1.506
			c-0.016,0.019-0.039,0.022-0.055,0.041c-0.24,0.244-0.372,0.563-0.371,0.901c0,0.479,0.272,0.896,0.669,1.115
			c0.056,0.582,0.317,1.029,0.707,1.25l0.383,8.301c-0.498,0.117-0.874,0.55-0.874,1.086c0,0.57,0.427,1.021,0.973,1.101L14,174.1
			c0,0.541,0.44,0.982,0.982,0.982c0.538,0,0.978-0.439,0.978-0.971l0.16-3.469c0.259-0.027,0.501-0.125,0.687-0.312
			c0.217-0.217,0.334-0.506,0.332-0.807c0-0.547-0.398-0.985-0.919-1.094l0.381-8.283c0.12-0.057,0.237-0.115,0.33-0.213
			c0.242-0.242,0.372-0.603,0.402-1.062c0.381-0.224,0.643-0.631,0.643-1.103C17.975,157.402,17.813,157.076,17.565,156.844"/>
		<path fill="#FFFFFF" d="M29.002,159.861c-0.215,0.213-0.499,0.334-0.798,0.334l-4.806,0.005c-0.622,0-1.128-0.505-1.133-1.124
			c0-0.625,0.509-1.135,1.131-1.135c0,0,3.2,0,3.208-0.006h1.6c0.622,0,1.126,0.506,1.126,1.125
			C29.332,159.364,29.216,159.646,29.002,159.861 M27.242,161.773l-2.93,0.002h-0.003c-0.468,0-0.893-0.506-1.056-1.041
			c0.049,0.004,0.096,0.016,0.145,0.016l4.806-0.01c0.059,0,0.117-0.012,0.177-0.018C28.207,161.244,27.732,161.773,27.242,161.773
			 M26.881,174.011l-2.157,0.003l-0.539-11.709c0.042,0.008,0.079,0.018,0.121,0.018h0.003l2.93-0.004
			c0.062,0,0.12-0.018,0.18-0.021L26.881,174.011z M28.17,175.492c0,0.518-0.421,0.938-0.936,0.938l-2.789,0.006
			c-0.517,0-0.94-0.422-0.941-0.938c0-0.516,0.419-0.938,0.935-0.938l2.105-0.004h0.683
			C27.746,174.557,28.167,174.977,28.17,175.492 M26.517,181.889c0,0.188-0.073,0.369-0.208,0.504
			c-0.135,0.139-0.312,0.211-0.503,0.211h-0.003c-0.19,0-0.371-0.072-0.505-0.211c-0.138-0.131-0.211-0.311-0.211-0.517
			l-0.227-4.894l1.882-0.006L26.517,181.889z M21.838,155.645c-0.001-0.652,0.26-1.188,0.539-1.762
			c0.358-0.729,0.727-1.48,0.487-2.459c0.481,0.178,1.206,0.52,1.72,1.094c-0.062,0.068-0.122,0.139-0.188,0.209
			c-0.106,0.115-0.217,0.234-0.313,0.349c-0.021,0.019-1.987,1.936-0.452,4.317h-0.238c-0.144,0-0.279,0.023-0.414,0.06
			C22.856,157.402,21.841,156.969,21.838,155.645 M25.843,151.52c0.148-0.416,0.095-0.879-0.014-1.273
			c0.845,0.688,2.095,1.973,2.105,3.587c0.016,1.771-1.138,3.125-1.558,3.56h-0.137c-0.225-0.343-0.471-0.888-0.471-1.514
			c-0.003-1.193,0.582-1.896,0.582-1.896s-0.738,0.502-0.866,1.604c-0.06,0.529,0.055,1.085,0.4,1.808h-0.701
			c-0.267-0.396-0.988-1.529-0.233-2.805c0.141-0.234,0.895-1.21,0.978-1.396c0.098-0.225,0.089-0.437,0.089-0.437
			c-0.105,0.177-0.288,0.375-0.288,0.375c-0.184,0.2-0.801,0.847-0.998,1.078c-1.121,1.358-0.197,2.854-0.006,3.185h-0.423
			c-1.646-2.148,0.081-3.851,0.177-3.941c0.11-0.126,0.216-0.24,0.318-0.354C25.221,152.639,25.584,152.24,25.843,151.52
			 M29.32,151.781c-0.353,1.693,0.215,3.088,0.231,3.127c0.45,1.554-0.662,2.318-1.005,2.514c-0.108-0.021-0.229-0.037-0.346-0.037
			l-1.093,0.002c0.57-0.688,1.385-1.951,1.373-3.558c-0.003-0.413-0.079-0.802-0.196-1.171
			C28.682,152.189,29.054,151.926,29.32,151.781 M29.142,157.676c0.562-0.441,1.377-1.383,0.924-2.947
			c-0.006-0.018-0.634-1.58-0.086-3.299l0.126-0.406l-0.421,0.052c-0.031,0.004-0.763,0.112-1.623,1.021
			c-0.827-1.73-2.607-2.803-2.705-2.859l-0.904-0.531l0.531,0.908c0.005,0.01,0.594,1.025,0.346,1.729
			c-0.11,0.309-0.244,0.541-0.398,0.762c-0.94-1.002-2.375-1.35-2.436-1.36l-0.528-0.125l0.217,0.498
			c0.445,1.021,0.1,1.723-0.298,2.534c-0.293,0.6-0.596,1.221-0.594,2.004c0,1.082,0.577,1.757,1.087,2.099
			c-0.4,0.312-0.661,0.789-0.661,1.328c0.002,0.655,0.388,1.22,0.941,1.496c0.091,0.621,0.465,1.26,0.99,1.565l-0.017,0.002
			l0.55,11.902c-0.695,0.123-1.224,0.729-1.224,1.455c0.001,0.771,0.6,1.402,1.355,1.468l0.228,4.927
			c0,0.336,0.132,0.649,0.368,0.893c0.24,0.234,0.553,0.368,0.889,0.368h0.006c0.336,0,0.652-0.134,0.889-0.37
			c0.238-0.241,0.371-0.559,0.367-0.88l0.228-4.931c0.79-0.028,1.426-0.682,1.426-1.479c-0.004-0.75-0.566-1.363-1.287-1.463
			l0.548-11.938h-0.003c0.535-0.324,0.926-0.951,1.007-1.55c0.147-0.076,0.286-0.172,0.407-0.291
			c0.317-0.317,0.492-0.739,0.489-1.188C29.877,158.484,29.584,157.977,29.142,157.676"/>
	</g>
</g>
</svg>
