<?xml version="1.0" encoding="UTF-8" standalone="no"?>
<!-- Generator: Adobe Illustrator 15.0.0, SVG Export Plug-In . SVG Version: 6.00 Build 0)  -->
<!DOCTYPE svg  PUBLIC '-//W3C//DTD SVG 1.1//EN'  'http://www.w3.org/Graphics/SVG/1.1/DTD/svg11.dtd'>
<svg id="Layer_1" xmlns="http://www.w3.org/2000/svg" xml:space="preserve" height="49.5px" viewBox="0 0 200 49.5" width="200px" version="1.1" y="0px" x="0px" xmlns:xlink="http://www.w3.org/1999/xlink" enable-background="new 0 0 200 49.5">
	<path d="m39.65 6.373c0-0.743-0.175-1.093-0.743-1.093h-1.007c-0.132 0-0.177-0.044-0.177-0.198v-0.504c0-0.131 0.045-0.175 0.219-0.175 0.219 0 1.268 0.066 3.37 0.066 1.838 0 2.888-0.066 3.151-0.066 0.131 0 0.174 0.044 0.174 0.154v0.547c0 0.131-0.043 0.176-0.174 0.176h-0.919c-0.657 0-1.05 0.392-1.072 0.853-0.022 0.264-0.065 1.574-0.065 2.843v2.715c0 1.092 0.021 2.646 0.065 3.347 0.066 1.006 0.241 2.012 0.767 2.713 0.744 1.005 1.926 1.356 2.975 1.356 1.006 0 2.232-0.395 2.931-1.049 0.833-0.832 1.27-2.101 1.27-3.698v-3.938c0-1.751-0.176-3.677-0.241-4.178-0.066-0.57-0.415-0.962-0.897-0.962h-0.788c-0.131 0-0.175-0.067-0.175-0.155v-0.548c0-0.131 0.044-0.174 0.175-0.174 0.219 0 1.225 0.062 2.67 0.062 1.356 0 2.056-0.062 2.23-0.062 0.198 0 0.22 0.062 0.22 0.174v0.503c0 0.132-0.021 0.198-0.132 0.198h-0.787c-0.789 0-0.876 0.611-0.92 0.853-0.043 0.264-0.043 3.325-0.043 3.611 0 0.305-0.044 4.113-0.13 4.988-0.133 1.792-0.658 3.15-1.839 4.199-0.919 0.833-2.32 1.357-3.983 1.357-1.05 0-2.318-0.175-3.15-0.524-1.27-0.525-2.145-1.533-2.582-2.931-0.306-0.964-0.393-2.409-0.393-5.275v-5.185z" fill="#FFCE0C"/>
	<path d="m54.222 15.08c0.087 0 0.131 0.044 0.131 0.176 0.045 0.699 0.219 1.531 0.832 2.495 0.656 1.049 1.795 1.574 2.888 1.574 1.18 0 2.843-0.743 2.843-2.559 0-2.013-0.918-2.671-3.237-3.544-0.699-0.261-2.145-0.876-3.194-1.837-0.744-0.702-1.094-1.794-1.094-3.129 0-1.226 0.481-2.231 1.532-3.064 0.876-0.742 1.838-1.049 3.107-1.049 1.443 0 2.319 0.349 2.757 0.525 0.219 0.087 0.35 0.043 0.46-0.067l0.283-0.283c0.089-0.089 0.176-0.131 0.306-0.131 0.132 0 0.176 0.131 0.176 0.348 0 0.351 0.35 3.413 0.35 3.633 0 0.087-0.044 0.131-0.131 0.154l-0.349 0.11c-0.089 0.021-0.176 0-0.219-0.133-0.22-0.613-0.57-1.489-1.357-2.318-0.568-0.613-1.268-0.92-2.274-0.92-1.751 0-2.45 1.401-2.45 2.21 0 0.744 0.088 1.4 0.612 1.969 0.569 0.57 1.794 1.094 2.67 1.357 1.268 0.394 2.318 0.832 3.15 1.706 0.698 0.745 1.093 1.662 1.093 3.13 0 2.668-1.749 4.854-4.637 4.854-1.794 0-2.845-0.393-3.72-1.049-0.262-0.176-0.394-0.264-0.524-0.264-0.131 0-0.219 0.176-0.35 0.394-0.131 0.219-0.219 0.264-0.394 0.264s-0.263-0.132-0.263-0.35c0.044-0.265 0.35-3.808 0.393-4.07 0.022-0.132 0.045-0.174 0.132-0.174l0.478 0.042z" fill="#FFCE0C"/>
	<path d="m78.506 16.393c0.066 0.065 0.087 0.131 0.044 0.219-1.313 1.882-3.414 3.676-6.52 3.676-2.801 0-4.375-0.833-5.731-2.058-1.62-1.442-2.362-3.981-2.362-5.905 0-2.145 0.699-4.202 2.23-5.865 1.181-1.269 3.062-2.318 5.688-2.318 2.014 0 3.631 0.612 4.418 1.05 0.306 0.177 0.395 0.177 0.438 0l0.175-0.57c0.044-0.13 0.087-0.13 0.35-0.13 0.262 0 0.307 0.043 0.307 0.35 0 0.394 0.437 3.893 0.524 4.549 0.022 0.132 0 0.198-0.088 0.221l-0.416 0.131c-0.109 0.042-0.174-0.045-0.24-0.22-0.264-0.788-0.788-1.881-1.706-2.844-0.961-0.919-2.099-1.619-3.806-1.619-3.499 0-4.943 3.151-4.943 6.302 0 1.355 0.394 3.938 2.012 5.688 1.445 1.532 2.713 1.706 3.763 1.706 2.406 0 4.309-1.202 5.229-2.538 0.109-0.154 0.196-0.219 0.262-0.154l0.372 0.329z" fill="#FFCE0C"/>
	<path d="m85.333 19.828c-1.488-0.591-2.254-1.554-2.604-2.933-0.262-0.984-0.35-2.448-0.35-5.317v-5.205c0-0.765-0.153-1.116-0.832-1.116h-1.027c-0.13 0-0.153-0.043-0.153-0.196v-0.483c0-0.131 0.023-0.175 0.198-0.175 0.219 0 1.291 0.066 2.997 0.066s2.756-0.066 2.997-0.066c0.176 0 0.197 0.044 0.197 0.131v0.57c0 0.109-0.021 0.152-0.176 0.152h-1.093c-0.635 0-1.008 0.415-1.051 0.897-0.021 0.198-0.044 1.729-0.044 2.844v1.444c0 1.158 0.087 3.938 0.109 4.637 0.021 1.007 0.197 2.035 0.7 2.78 0.809 1.181 2.21 1.574 3.479 1.574 1.247 0 2.516-0.417 3.281-1.203 0.854-0.919 1.138-2.231 1.138-3.852v-4.677c0-1.663-0.043-2.933-0.109-3.479-0.065-0.57-0.417-0.963-0.985-0.963h-0.962c-0.131 0-0.154-0.065-0.154-0.176v-0.525c0-0.11 0.023-0.153 0.154-0.153 0.219 0 1.225 0.065 2.691 0.065 1.51 0 2.209-0.065 2.406-0.065 0.198 0 0.219 0.088 0.219 0.153v0.481c0 0.131-0.021 0.219-0.132 0.219h-0.897c-0.81 0-0.875 0.614-0.94 0.875-0.045 0.219-0.045 3.325-0.045 3.632 0 0.306-0.044 4.135-0.109 4.989-0.131 1.792-0.613 3.172-1.837 4.221-0.876 0.811-2.209 1.312-4.114 1.312-1.134 0-2.229-0.151-2.952-0.458" fill="#fff"/>
	<path d="m104.13 18.778c0 0.35 0.196 0.46 0.479 0.46h0.699c0.199 0 0.243 0.065 0.243 0.196v0.351c0 0.153-0.044 0.241-0.177 0.241-0.154 0-0.83-0.067-2.076-0.067-1.115 0-1.816 0.067-1.97 0.067-0.134 0-0.177-0.067-0.177-0.241v-0.351c0-0.153 0.064-0.196 0.283-0.196h0.637c0.24 0 0.414-0.11 0.438-0.503 0.021-0.571 0.044-1.27 0.044-1.839v-2.888c0-0.875 0-1.509-0.635-1.969-0.524-0.393-1.051-0.393-1.597-0.393-0.351 0-1.116 0.153-1.774 0.854-0.437 0.481-0.503 1.072-0.503 1.487v4.53c0 0.59 0.066 0.722 0.525 0.722h0.548c0.175 0 0.219 0.065 0.219 0.217v0.374c0 0.131-0.044 0.198-0.154 0.198-0.152 0-0.743-0.067-1.904-0.067-1.115 0-1.815 0.067-1.946 0.067-0.11 0-0.154-0.067-0.154-0.198v-0.395c0-0.131 0.044-0.196 0.219-0.196h0.635c0.285 0 0.437-0.067 0.437-0.438v-5.119c0-0.656-0.349-1.028-0.897-1.291l-0.176-0.087c-0.152-0.064-0.175-0.13-0.175-0.197v-0.11c0-0.108 0.088-0.174 0.198-0.219l1.881-1.049c0.174-0.087 0.307-0.154 0.395-0.154 0.108 0 0.151 0.087 0.173 0.263l0.154 1.335h0.043c0.636-0.788 1.904-1.598 2.999-1.598 0.656 0 1.334 0.131 1.86 0.48 0.655 0.438 1.202 1.532 1.202 2.079v5.643h0.002v0.001h0.03z" fill="#fff"/>
	<path d="m107.76 13.592c0-0.742-0.134-1.136-1.227-1.311-0.154-0.021-0.198-0.065-0.198-0.155v-0.197c0-0.066 0.044-0.108 0.152-0.152 0.7-0.263 1.532-0.614 2.362-1.073 0.179-0.087 0.285-0.132 0.416-0.132 0.107 0 0.133 0.109 0.107 0.263-0.044 0.372-0.044 1.75-0.044 3.566v2.385c0 0.854 0 1.641 0.021 1.88 0.043 0.417 0.106 0.571 0.351 0.571h1.008c0.177 0 0.22 0.065 0.22 0.196v0.373c0 0.153-0.043 0.219-0.195 0.219-0.178 0-1.182-0.066-2.104-0.066-1.269 0-2.121 0.066-2.359 0.066-0.109 0-0.176-0.045-0.176-0.175v-0.438c0-0.131 0.062-0.174 0.219-0.174h1.07c0.24 0 0.326-0.089 0.353-0.439 0.021-0.657 0.021-1.334 0.021-1.99v-3.217zm-0.98-6.672c0-0.547 0.459-1.137 1.334-1.137 0.767 0 1.138 0.59 1.138 1.073 0 0.567-0.394 1.203-1.269 1.203-0.48-0.001-1.2-0.438-1.2-1.139" fill="#fff"/>
	<path d="m115.55 17.947h0.063c0.352-0.854 1.883-4.594 2.103-5.448 0.154-0.59 0-0.94-0.393-0.94h-0.438c-0.066 0-0.088-0.11-0.088-0.219v-0.394c0-0.132 0.044-0.176 0.131-0.176 0.307 0 0.788 0.065 1.752 0.065 0.854 0 1.377-0.065 1.573-0.065 0.177 0 0.197 0.022 0.197 0.197v0.373c0 0.153 0 0.219-0.108 0.219h-0.415c-0.263 0-0.481 0.042-0.68 0.242-0.327 0.305-1.422 2.69-1.75 3.499-0.263 0.655-1.882 4.332-1.968 4.485-0.178 0.306-0.285 0.502-0.525 0.502-0.22 0-0.35-0.197-0.46-0.458-0.044-0.11-1.64-4.267-1.706-4.442-0.064-0.175-0.963-2.67-1.115-3.02-0.285-0.634-0.504-0.809-0.896-0.809h-0.438c-0.109 0-0.133-0.088-0.133-0.219v-0.393c0-0.154 0.044-0.176 0.241-0.176 0.241 0 0.61 0.065 1.838 0.065 1.16 0 1.729-0.065 1.97-0.065 0.174 0 0.219 0.044 0.219 0.176v0.393c0 0.131-0.021 0.219-0.148 0.219h-0.438c-0.222 0-0.396 0.132-0.396 0.415 0 0.394 0.565 2.21 0.7 2.582 0.14 0.416 1.08 2.932 1.32 3.392" fill="#fff"/>
	<path d="m121.48 14.139c-0.045 0.197-0.066 0.547-0.066 1.049 0 2.146 1.357 3.763 3.107 3.763 1.334 0 2.271-0.765 2.646-1.488 0.044-0.087 0.131-0.131 0.194-0.109l0.285 0.154c0.063 0.021 0.106 0.086 0 0.327-0.396 0.875-1.531 2.384-3.479 2.384-1.246 0-2.624-0.37-3.437-1.553-0.767-1.114-0.963-1.924-0.963-3.456 0-0.854 0.223-2.318 1.379-3.477 0.938-0.964 2.035-1.16 3.131-1.16 2.517 0 3.218 2.364 3.218 3.216 0 0.305-0.267 0.35-0.611 0.35h-5.4zm3.48-0.655c0.414 0 0.591-0.11 0.591-0.308 0-0.502-0.265-1.946-1.686-1.946-0.963 0-1.881 0.634-2.297 2.254h3.4z" fill="#fff"/>
	<path d="m129.54 14.139c0-1.116-0.175-1.335-0.789-1.663l-0.416-0.219c-0.131-0.043-0.173-0.066-0.173-0.154v-0.133c0-0.086 0.042-0.13 0.173-0.195l2.167-1.117c0.134-0.065 0.22-0.087 0.308-0.087 0.131 0 0.153 0.132 0.153 0.263l0.109 1.509h0.087c0.656-1.006 1.686-1.902 2.626-1.902 0.744 0 1.114 0.458 1.114 0.962 0 0.634-0.524 1.071-0.918 1.071-0.241 0-0.461-0.087-0.633-0.175-0.181-0.11-0.439-0.175-0.728-0.175-0.353 0-0.919 0.219-1.29 0.919-0.132 0.241-0.221 0.634-0.221 0.701v4.594c0 0.677 0.152 0.897 0.611 0.897h1.026c0.134 0 0.153 0.065 0.153 0.196v0.395c0 0.132-0.021 0.198-0.107 0.198-0.133 0-1.14-0.066-2.32-0.066-1.354 0-2.271 0.066-2.403 0.066-0.089 0-0.134-0.045-0.134-0.219v-0.373c0-0.153 0.045-0.196 0.24-0.196h0.854c0.327 0 0.481-0.132 0.481-0.416 0.021-0.722 0.021-1.488 0.021-2.625l0.01-2.056z" fill="#fff"/>
	<path d="m135.44 19.587c-0.104-0.065-0.104-0.197-0.131-0.306l-0.371-2.079c-0.021-0.109 0.045-0.153 0.131-0.177l0.285-0.063c0.088-0.023 0.153 0.022 0.196 0.131l0.55 1.071c0.438 0.81 0.742 1.357 1.902 1.357 0.766 0 1.729-0.459 1.729-1.488 0-0.984-0.479-1.554-2.121-2.012-1.291-0.372-2.582-1.049-2.582-2.78 0-1.51 1.426-2.669 3.063-2.669 1.048 0 1.617 0.263 2.011 0.46 0.328 0.153 0.371 0.262 0.396 0.392l0.324 1.532c0 0.088-0.043 0.155-0.149 0.198l-0.267 0.086c-0.088 0.022-0.133 0-0.194-0.109l-0.744-1.006c-0.262-0.416-0.678-0.853-1.528-0.853-0.832 0-1.686 0.503-1.686 1.444 0 1.269 1.023 1.51 2.102 1.815 1.598 0.46 2.604 1.116 2.627 2.801-0.021 1.771-1.47 2.886-3.326 2.886-1.08 0.003-1.96-0.434-2.22-0.631" fill="#fff"/>
	<path d="m143.16 13.592c0-0.742-0.133-1.136-1.227-1.311-0.151-0.021-0.195-0.065-0.195-0.155v-0.197c0-0.066 0.044-0.108 0.152-0.152 0.698-0.263 1.529-0.614 2.36-1.073 0.179-0.087 0.283-0.132 0.414-0.132 0.106 0 0.132 0.109 0.106 0.263-0.043 0.372-0.043 1.75-0.043 3.566v2.385c0 0.854 0 1.641 0.021 1.88 0.044 0.417 0.109 0.571 0.352 0.571h1.006c0.178 0 0.221 0.065 0.221 0.196v0.373c0 0.153-0.043 0.219-0.195 0.219-0.176 0-1.183-0.066-2.102-0.066-1.27 0-2.121 0.066-2.362 0.066-0.106 0-0.175-0.045-0.175-0.175v-0.438c0-0.131 0.062-0.174 0.218-0.174h1.073c0.236 0 0.324-0.089 0.352-0.439 0.021-0.657 0.021-1.334 0.021-1.99v-3.217zm-0.98-6.672c0-0.547 0.459-1.137 1.334-1.137 0.766 0 1.137 0.59 1.137 1.073 0 0.567-0.393 1.203-1.27 1.203-0.48-0.001-1.2-0.438-1.2-1.139" fill="#fff"/>
	<path d="m149.16 17.225c0 1.64 0.742 1.925 1.138 1.925 0.503 0 1.136-0.088 1.444-0.285 0.109-0.065 0.197-0.043 0.263 0.043l0.11 0.198c0.062 0.088 0.021 0.176-0.045 0.24-0.219 0.219-1.114 0.875-2.428 0.875-1.07 0-2.123-1.027-2.123-1.858 0-0.897 0.062-2.823 0.062-3.129v-0.481c0-0.394 0.021-1.859 0.043-2.78h-1.333c-0.198 0-0.328-0.087-0.328-0.262s0.136-0.241 0.396-0.393c0.521-0.307 2.211-2.013 2.494-2.757 0.062-0.175 0.176-0.219 0.308-0.219 0.177 0 0.22 0.153 0.22 0.327l-0.111 2.167h3.043c0.133 0 0.197 0.11 0.153 0.197l-0.22 0.766c-0.021 0.109-0.066 0.174-0.197 0.174h-2.822c-0.043 1.008-0.062 2.056-0.062 3.064l0.01 2.188z" fill="#fff"/>
	<path d="m152.88 24.794c0-0.46 0.482-0.855 1.007-0.855 0.417 0 0.81 0.198 1.009 0.242 0.152 0.023 0.326 0 0.457-0.131 0.328-0.394 1.445-2.888 1.75-3.741-0.104-0.546-2.428-7.372-2.604-7.833-0.262-0.547-0.46-0.92-1.028-0.92h-0.569c-0.148 0-0.174-0.063-0.174-0.195v-0.438c0-0.087 0.021-0.153 0.174-0.153 0.199 0 0.727 0.066 2.019 0.066 1.112 0 1.794-0.066 2.033-0.066 0.175 0 0.194 0.066 0.194 0.153v0.46c0 0.109-0.021 0.173-0.131 0.173h-0.416c-0.24 0-0.328 0.155-0.285 0.483 0.066 0.481 1.558 5.295 1.795 5.775h0.088c0.222-0.349 2.121-4.876 2.256-5.424 0.132-0.548-0.047-0.834-0.372-0.834h-0.351c-0.136 0-0.153-0.063-0.153-0.173v-0.437c0-0.11 0.021-0.176 0.131-0.176 0.285 0 0.744 0.066 1.795 0.066 0.591 0 1.097-0.066 1.333-0.066 0.134 0 0.134 0.089 0.134 0.176v0.415c0 0.132 0 0.195-0.106 0.195h-0.352c-0.238 0-0.547 0.11-0.767 0.396-0.481 0.59-1.929 3.915-3.438 7.35-1.07 2.428-1.924 4.462-2.312 5.184-0.311 0.57-0.701 1.423-1.86 1.423-0.85 0-1.26-0.458-1.26-1.115" fill="#fff"/>
	<path d="m167.42 18.711c-1.004-1.201-1.202-2.012-1.202-3.565 0-1.116 0.59-2.517 1.883-3.522 1.135-0.877 2.207-1.051 2.93-1.051 1.203 0 2.406 0.611 3.062 1.269 0.984 1.008 1.486 2.145 1.486 3.567 0 2.384-2.143 4.812-4.833 4.812-1.06 0-2.41-0.415-3.33-1.51m6.32-3.522c0-2.428-1.772-3.959-2.888-3.959-0.592 0-1.16 0.131-1.688 0.7-0.854 0.875-1.16 1.771-1.16 3.435 0 1.226 0.138 2.056 0.834 3.062 0.501 0.721 1.14 1.137 2.165 1.137 1.67 0.001 2.74-2.033 2.74-4.375" fill="#fff"/>
	<path d="m177.81 11.886h-1.51c-0.108 0-0.149-0.044-0.108-0.24l0.092-0.657c0.021-0.13 0.088-0.154 0.263-0.154h1.271v-0.415c0-2.167 0.609-3.586 1.467-4.549 1.16-1.27 2.363-1.73 3.588-1.73 1.029 0 1.99 0.393 1.99 1.225 0 0.524-0.567 0.94-0.918 0.94-0.219 0-0.438-0.044-0.611-0.132-0.195-0.109-0.438-0.394-0.525-0.503-0.283-0.351-0.589-0.503-1.006-0.503-0.566 0-1.156 0.152-1.64 0.766-0.81 1.027-0.767 2.931-0.767 4.463v0.437h2.646c0.151 0 0.176 0.131 0.151 0.219l-0.107 0.723c-0.021 0.086-0.107 0.109-0.286 0.109h-2.405v1.948c0 2.58 0 4.594 0.021 4.833 0.043 0.373 0.107 0.571 0.568 0.571h1.246c0.195 0 0.238 0.043 0.238 0.175v0.351c0 0.175-0.044 0.262-0.15 0.262-0.133 0-0.94-0.065-2.627-0.065-1.201 0-2.316 0.065-2.494 0.065-0.133 0-0.176-0.045-0.176-0.153v-0.481c0-0.111 0.043-0.154 0.221-0.154h1.051c0.416 0 0.503-0.264 0.523-0.766v-6.585h0.01z" fill="#fff"/>
	<path d="m40.901 39.68c-0.262-0.196-0.393-0.263-0.503-0.263-0.131 0-0.219 0.154-0.349 0.37-0.131 0.243-0.241 0.264-0.394 0.264-0.131 0-0.241-0.11-0.197-0.35 0.087-0.547 0.306-3.325 0.372-3.958 0.021-0.132 0.065-0.132 0.153-0.132l0.327 0.022c0.088 0 0.131 0.043 0.131 0.177 0.022 0.7 0.067 1.422 0.788 2.536 0.657 1.026 1.861 1.62 3.063 1.62 1.312 0 2.975-0.811 2.975-2.779 0-2.254-1.618-3.085-3.369-3.697-0.677-0.243-2.253-0.789-3.193-1.772-0.722-0.723-1.094-1.75-1.094-3.196 0-1.093 0.677-2.165 1.355-2.801 0.788-0.744 1.883-1.048 3.064-1.048 1.246 0 2.208 0.369 2.581 0.546 0.197 0.11 0.306 0.088 0.416-0.021l0.285-0.264c0.11-0.088 0.174-0.13 0.284-0.13 0.108 0 0.175 0.173 0.175 0.37 0 0.766 0.285 2.997 0.307 3.48 0 0.108-0.022 0.152-0.109 0.173l-0.264 0.066c-0.065 0.022-0.108 0-0.131-0.066-0.176-0.636-0.459-1.486-1.356-2.427-0.591-0.635-1.356-0.94-2.385-0.94-1.947 0-2.646 1.446-2.646 2.559 0 0.614 0.131 1.334 0.677 1.903 0.635 0.636 1.859 1.117 2.494 1.314 1.509 0.481 2.735 0.852 3.522 1.815 0.569 0.677 0.963 1.532 0.963 2.975 0 2.582-1.575 4.792-4.464 4.792-1.529 0.001-2.602-0.459-3.478-1.138" fill="#fff"/>
	<path d="m50.98 39.242c-1.007-1.202-1.204-2.011-1.204-3.565 0-1.115 0.591-2.516 1.882-3.521 1.138-0.877 2.209-1.05 2.932-1.05 1.203 0 2.407 0.613 3.063 1.269 0.984 1.006 1.487 2.144 1.487 3.565 0 2.386-2.144 4.813-4.836 4.813-1.049-0.001-2.406-0.418-3.324-1.511m6.322-3.523c0-2.427-1.772-3.959-2.887-3.959-0.591 0-1.159 0.132-1.685 0.699-0.854 0.876-1.159 1.771-1.159 3.436 0 1.225 0.132 2.057 0.831 3.062 0.503 0.723 1.138 1.138 2.167 1.138 1.661 0 2.733-2.034 2.733-4.376" fill="#fff"/>
	<path d="m68.183 36.048c0 1.05 0 2.121 0.045 2.583 0.064 0.677 0.305 0.764 0.568 0.764 0.131 0 0.459 0 0.722-0.065 0.176-0.043 0.242 0 0.263 0.087l0.066 0.285c0.021 0.131-0.021 0.176-0.109 0.198l-2.297 0.764c-0.132 0.044-0.263 0.091-0.438 0.091-0.089 0-0.175-0.046-0.197-0.265l-0.175-1.27h-0.043c-0.612 0.853-1.881 1.533-2.976 1.533-0.611 0-1.334-0.067-2.056-1.008-0.897-1.158-0.854-1.881-0.854-4.288v-2.537c-0.022-0.612-0.327-0.765-0.832-0.832-0.371-0.021-0.48-0.045-0.48-0.155v-0.393c0-0.131 0.044-0.175 0.24-0.175h1.948c0.131 0 0.219-0.022 0.306-0.044 0.087 0 0.175-0.021 0.24-0.021 0.153 0 0.263 0.11 0.241 0.262-0.021 0.198-0.088 1.224-0.088 2.516v1.553c0 0.877-0.219 2.275 0.481 3.282 0.547 0.788 1.16 0.831 1.75 0.831 0.591 0 1.467-0.569 1.881-1.093 0.09-0.112 0.219-0.394 0.219-0.592v-5.207c-0.043-0.614-0.394-0.722-0.941-0.766-0.371 0-0.48-0.045-0.48-0.155v-0.371c0-0.176 0.044-0.197 0.261-0.197h2.034c0.153 0 0.263-0.022 0.372-0.044 0.109 0 0.197-0.021 0.263-0.021 0.131 0 0.219 0.11 0.197 0.218-0.022 0.198-0.132 0.766-0.132 2.911v1.618l0.001 0.003z" fill="#fff"/>
	<path d="m72.984 37.756c0 1.639 0.743 1.924 1.137 1.924 0.504 0 1.138-0.087 1.444-0.285 0.109-0.065 0.196-0.043 0.262 0.044l0.109 0.197c0.065 0.088 0.021 0.177-0.044 0.241-0.218 0.22-1.115 0.877-2.428 0.877-1.072 0-2.122-1.029-2.122-1.86 0-0.897 0.065-2.822 0.065-3.128v-0.481c0-0.393 0.022-1.859 0.044-2.78h-1.335c-0.197 0-0.327-0.087-0.327-0.262 0-0.176 0.13-0.24 0.394-0.394 0.524-0.305 2.209-2.011 2.494-2.756 0.066-0.176 0.175-0.218 0.306-0.218 0.175 0 0.219 0.153 0.219 0.327l-0.109 2.166h3.04c0.133 0 0.198 0.11 0.154 0.197l-0.219 0.766c-0.023 0.109-0.066 0.174-0.198 0.174h-2.821c-0.043 1.006-0.065 2.058-0.065 3.063v2.188z" fill="#fff"/>
	<path d="m78 28.567c0-1.336-0.264-1.575-1.05-1.84l-0.373-0.131c-0.131-0.044-0.153-0.065-0.153-0.131v-0.199c0-0.086 0.064-0.108 0.262-0.217l2.275-1.204c0.175-0.088 0.329-0.175 0.505-0.175 0.131 0 0.218 0.175 0.174 0.546-0.043 0.371-0.066 4.813-0.066 5.908v1.399h0.11c0.766-0.918 2.034-1.421 2.997-1.421 0.919 0 1.553 0.282 2.165 0.875 0.986 0.919 0.943 2.037 0.943 3.217v1.247c0 1.225 0.043 2.582 0.043 2.997 0 0.262 0.351 0.328 0.81 0.328h0.372c0.176 0 0.241 0.044 0.241 0.197v0.328c0 0.176-0.044 0.263-0.174 0.263-0.154 0-0.854-0.065-2.103-0.065-1.072 0-1.858 0.065-2.055 0.065-0.153 0-0.196-0.065-0.196-0.241v-0.37c0-0.111 0.021-0.176 0.152-0.176h0.504c0.371 0 0.808-0.044 0.831-0.416 0.021-0.306 0-1.465 0-2.165v-1.771c0-1.226-0.088-2.101-0.723-2.692-0.438-0.415-0.897-0.612-1.443-0.612-0.635 0-1.423 0.219-2.034 0.917-0.198 0.242-0.438 0.679-0.438 1.073v4.769c0 0.701 0.065 0.898 0.481 0.898h0.656c0.153 0 0.241 0.044 0.241 0.176v0.37c0 0.154-0.044 0.241-0.176 0.241-0.175 0-1.073-0.065-2.078-0.065-1.094 0-1.925 0.065-2.123 0.065-0.088 0-0.153-0.065-0.153-0.219v-0.393c0-0.154 0.087-0.176 0.328-0.176h0.46c0.349 0 0.677-0.088 0.721-0.351 0.067-0.414 0.067-2.823 0.067-4.245v-6.604z" fill="#fff"/>
	<path d="m89.135 34.669c-0.043 0.2-0.066 0.549-0.066 1.051 0 2.146 1.356 3.765 3.107 3.765 1.333 0 2.275-0.767 2.646-1.49 0.044-0.087 0.132-0.131 0.198-0.109l0.285 0.153c0.067 0.022 0.11 0.087 0 0.328-0.394 0.876-1.532 2.385-3.478 2.385-1.247 0-2.624-0.371-3.435-1.553-0.767-1.117-0.962-1.927-0.962-3.456 0-0.855 0.218-2.32 1.378-3.48 0.94-0.962 2.034-1.158 3.128-1.158 2.516 0 3.217 2.362 3.217 3.216 0 0.307-0.264 0.349-0.613 0.349l-5.405-0.001zm3.479-0.655c0.416 0 0.59-0.11 0.59-0.307 0-0.502-0.262-1.947-1.685-1.947-0.962 0-1.881 0.634-2.297 2.253l3.392 0.001z" fill="#fff"/>
	<path d="m97.355 34.669c0-1.115-0.175-1.334-0.789-1.662l-0.415-0.219c-0.132-0.044-0.174-0.064-0.174-0.154v-0.131c0-0.088 0.042-0.131 0.174-0.196l2.167-1.117c0.131-0.066 0.219-0.088 0.306-0.088 0.132 0 0.154 0.132 0.154 0.263l0.109 1.51h0.087c0.656-1.007 1.687-1.903 2.627-1.903 0.739 0 1.112 0.458 1.112 0.962 0 0.634-0.521 1.072-0.92 1.072-0.237 0-0.458-0.088-0.635-0.175-0.179-0.109-0.438-0.175-0.722-0.175-0.351 0-0.919 0.219-1.29 0.919-0.132 0.24-0.219 0.634-0.219 0.698v4.597c0 0.678 0.152 0.896 0.611 0.896h1.025c0.135 0 0.154 0.066 0.154 0.198v0.394c0 0.132-0.021 0.197-0.107 0.197-0.131 0-1.138-0.065-2.319-0.065-1.357 0-2.276 0.065-2.406 0.065-0.087 0-0.133-0.044-0.133-0.22v-0.371c0-0.153 0.046-0.198 0.242-0.198h0.854c0.329 0 0.481-0.132 0.481-0.415 0.021-0.721 0.021-1.488 0.021-2.626l0.005-2.056z" fill="#fff"/>
	<path d="m112.07 39.308c0 0.351 0.197 0.459 0.479 0.459h0.699c0.199 0 0.242 0.065 0.242 0.197v0.35c0 0.154-0.043 0.241-0.178 0.241-0.151 0-0.83-0.065-2.078-0.065-1.114 0-1.814 0.065-1.969 0.065-0.133 0-0.178-0.065-0.178-0.241v-0.35c0-0.153 0.062-0.197 0.284-0.197h0.634c0.243 0 0.416-0.109 0.438-0.503 0.021-0.568 0.047-1.269 0.047-1.837v-2.888c0-0.876 0-1.51-0.637-1.97-0.523-0.391-1.051-0.391-1.598-0.391-0.352 0-1.113 0.153-1.771 0.854-0.438 0.482-0.506 1.072-0.506 1.489v4.529c0 0.59 0.064 0.722 0.524 0.722h0.548c0.178 0 0.219 0.065 0.219 0.219v0.372c0 0.131-0.041 0.196-0.151 0.196-0.149 0-0.742-0.065-1.903-0.065-1.111 0-1.812 0.065-1.943 0.065-0.107 0-0.152-0.065-0.152-0.196v-0.395c0-0.131 0.045-0.197 0.219-0.197h0.637c0.282 0 0.438-0.066 0.438-0.438v-5.118c0-0.657-0.351-1.027-0.897-1.291l-0.176-0.089c-0.15-0.065-0.174-0.132-0.174-0.196v-0.109c0-0.111 0.086-0.176 0.195-0.219l1.883-1.052c0.174-0.087 0.306-0.153 0.395-0.153 0.107 0 0.152 0.088 0.176 0.263l0.151 1.333h0.044c0.637-0.787 1.902-1.596 2.998-1.596 0.655 0 1.334 0.132 1.859 0.483 0.654 0.437 1.201 1.53 1.201 2.077v5.642z" fill="#fff"/>
	<path d="m120.45 38.804c-1.576-1.486-2.34-4.026-2.34-6.125 0-2.034 0.654-4.133 2.229-5.796 1.115-1.184 3.086-2.21 5.471-2.21 1.99 0 3.631 0.743 4.42 1.202 0.283 0.177 0.393 0.154 0.438 0l0.175-0.633c0.045-0.133 0.09-0.133 0.284-0.133 0.197 0 0.239 0.043 0.239 0.35 0 0.415 0.438 3.632 0.549 4.244 0.021 0.111 0 0.197-0.089 0.22l-0.327 0.086c-0.107 0.023-0.152 0-0.221-0.174-0.307-0.722-0.785-1.773-1.705-2.715-0.92-0.94-2.078-1.684-3.807-1.684-3.916 0-5.49 3.478-5.472 6.673 0 1.268 0.396 3.741 2.103 5.623 1.488 1.661 2.732 1.836 4.199 1.836 2.473 0 4.396-1.358 5.402-2.779 0.062-0.11 0.107-0.131 0.176-0.066l0.284 0.219c0.062 0.045 0.106 0.088 0.043 0.198-1.312 1.903-3.437 3.677-6.521 3.677-2.55 0.002-4.2-0.808-5.51-2.013" fill="#fff"/>
	<path d="m139.56 37.886c0 1.248 0.266 1.64 0.655 1.64 0.351 0 0.655-0.175 0.765-0.327 0.09-0.112 0.133-0.155 0.224-0.088l0.22 0.175c0.065 0.065 0.105 0.177-0.021 0.393-0.178 0.328-0.592 1.071-1.707 1.071-0.785 0-1.354-0.568-1.553-1.465h-0.045c-0.459 0.547-1.183 1.006-2.166 1.334-0.416 0.131-0.812 0.131-1.291 0.131-0.526 0-1.312-0.437-1.312-1.815 0-1.006 0.46-1.881 2.188-2.649 0.983-0.436 2.121-0.961 2.471-1.267v-1.401c-0.043-0.371-0.062-0.94-0.307-1.224-0.24-0.284-0.679-0.482-1.312-0.482-0.438 0-1.115 0.177-1.424 0.46-0.307 0.284-0.106 0.612-0.106 1.005 0 0.766-0.266 1.248-1.159 1.248-0.351 0-0.523-0.198-0.523-0.7 0-0.7 0.613-1.531 1.512-2.057 0.919-0.547 1.686-0.765 2.669-0.765 1.026 0 1.442 0.307 1.751 0.59 0.458 0.46 0.479 0.962 0.479 1.553v4.641-0.001h-0.01zm-1.6-2.21c-0.788 0.592-2.93 1.028-2.93 2.843 0 0.811 0.479 1.204 1.137 1.204 0.633 0 1.793-0.766 1.793-1.356v-2.691z" fill="#fff"/>
	<path d="m145.08 33.971c0 1.135 0 4.441 0.022 5.118 0.021 0.372 0.104 0.679 0.564 0.679h0.98c0.197 0 0.24 0.066 0.24 0.197v0.372c0 0.13-0.043 0.219-0.132 0.219-0.153 0-1.114-0.065-2.471-0.065-1.401 0-2.274 0.065-2.474 0.065-0.108 0-0.152-0.089-0.152-0.219v-0.372c0-0.153 0.044-0.197 0.283-0.197h1.05c0.241 0 0.461-0.153 0.481-0.547 0.021-0.679 0.021-4.441 0.021-5.709v-1.379c0-1.554-0.021-3.543-0.065-4.113-0.043-0.745-0.392-1.092-1.093-1.312l-0.437-0.155c-0.109-0.042-0.133-0.062-0.133-0.109v-0.176c0-0.065 0.063-0.109 0.194-0.154 0.769-0.349 1.748-0.743 2.562-1.271 0.195-0.132 0.328-0.176 0.459-0.176 0.152 0 0.199 0.11 0.179 0.394-0.022 1.203-0.091 5.754-0.091 6.958l0.02 1.952z" fill="#fff"/>
	<path d="m149.06 34.124c0-0.744-0.132-1.138-1.227-1.314-0.152-0.021-0.196-0.064-0.196-0.152v-0.198c0-0.065 0.044-0.109 0.154-0.152 0.7-0.264 1.53-0.613 2.36-1.072 0.177-0.089 0.285-0.132 0.416-0.132 0.107 0 0.133 0.109 0.107 0.262-0.044 0.371-0.044 1.75-0.044 3.565v2.385c0 0.853 0 1.639 0.021 1.881 0.045 0.416 0.106 0.568 0.352 0.568h1.008c0.176 0 0.219 0.067 0.219 0.198v0.372c0 0.154-0.043 0.219-0.192 0.219-0.179 0-1.185-0.065-2.104-0.065-1.27 0-2.123 0.065-2.361 0.065-0.106 0-0.176-0.044-0.176-0.175v-0.438c0-0.132 0.065-0.177 0.221-0.177h1.07c0.24 0 0.328-0.087 0.352-0.437 0.021-0.656 0.021-1.334 0.021-1.992v-3.214 0.003zm-0.99-6.674c0-0.547 0.46-1.136 1.336-1.136 0.766 0 1.137 0.589 1.137 1.071 0 0.568-0.395 1.204-1.27 1.204-0.48 0-1.21-0.439-1.21-1.139" fill="#fff"/>
	<path d="m154.58 32.417h-1.511c-0.107 0-0.152-0.044-0.107-0.239l0.087-0.658c0.021-0.132 0.087-0.151 0.263-0.151h1.271v-0.419c0-2.166 0.609-3.587 1.466-4.549 1.159-1.268 2.363-1.728 3.591-1.728 1.024 0 1.988 0.393 1.988 1.223 0 0.527-0.566 0.941-0.919 0.941-0.22 0-0.438-0.043-0.61-0.132-0.197-0.109-0.438-0.393-0.524-0.501-0.283-0.351-0.591-0.503-1.007-0.503-0.567 0-1.159 0.152-1.644 0.765-0.81 1.028-0.765 2.931-0.765 4.463v0.438h2.646c0.15 0 0.176 0.129 0.15 0.219l-0.105 0.722c-0.021 0.087-0.108 0.108-0.285 0.108h-2.404v1.947c0 2.582 0 4.595 0.021 4.836 0.043 0.372 0.107 0.568 0.567 0.568h1.245c0.195 0 0.238 0.044 0.238 0.175v0.349c0 0.176-0.043 0.263-0.149 0.263-0.135 0-0.94-0.065-2.626-0.065-1.203 0-2.318 0.065-2.494 0.065-0.134 0-0.177-0.044-0.177-0.153v-0.481c0-0.109 0.043-0.153 0.22-0.153h1.053c0.416 0 0.504-0.263 0.522-0.765v-4.114l-0.02-2.471z" fill="#fff"/>
	<path d="m159.77 39.242c-1.006-1.202-1.203-2.011-1.203-3.565 0-1.115 0.591-2.516 1.882-3.521 1.138-0.877 2.21-1.05 2.931-1.05 1.203 0 2.406 0.613 3.062 1.269 0.986 1.006 1.488 2.144 1.488 3.565 0 2.386-2.146 4.813-4.834 4.813-1.05-0.001-2.41-0.418-3.33-1.511m6.33-3.523c0-2.427-1.771-3.959-2.889-3.959-0.591 0-1.16 0.132-1.686 0.699-0.854 0.876-1.158 1.771-1.158 3.436 0 1.225 0.132 2.057 0.832 3.062 0.504 0.723 1.138 1.138 2.166 1.138 1.66 0 2.74-2.034 2.74-4.376" fill="#fff"/>
	<path d="m169.68 34.669c0-1.115-0.176-1.334-0.789-1.662l-0.414-0.219c-0.132-0.044-0.176-0.064-0.176-0.154v-0.131c0-0.088 0.044-0.131 0.176-0.196l2.166-1.117c0.131-0.066 0.219-0.088 0.311-0.088 0.132 0 0.15 0.132 0.15 0.263l0.109 1.51h0.087c0.656-1.007 1.687-1.903 2.626-1.903 0.744 0 1.114 0.458 1.114 0.962 0 0.634-0.522 1.072-0.918 1.072-0.24 0-0.46-0.088-0.636-0.175-0.174-0.109-0.438-0.175-0.721-0.175-0.354 0-0.918 0.219-1.291 0.919-0.133 0.24-0.223 0.634-0.223 0.698v4.597c0 0.678 0.148 0.896 0.609 0.896h1.029c0.131 0 0.152 0.066 0.152 0.198v0.394c0 0.132-0.021 0.197-0.109 0.197-0.133 0-1.138-0.065-2.315-0.065-1.354 0-2.275 0.065-2.406 0.065-0.087 0-0.131-0.044-0.131-0.22v-0.371c0-0.153 0.044-0.198 0.235-0.198h0.854c0.329 0 0.481-0.132 0.481-0.415 0.021-0.721 0.021-1.488 0.021-2.626v-2.056h0.01z" fill="#fff"/>
	<path d="m184.36 39.308c0 0.351 0.194 0.459 0.479 0.459h0.702c0.194 0 0.237 0.065 0.237 0.197v0.35c0 0.154-0.043 0.241-0.176 0.241-0.149 0-0.83-0.065-2.078-0.065-1.113 0-1.812 0.065-1.97 0.065-0.133 0-0.177-0.065-0.177-0.241v-0.35c0-0.153 0.062-0.197 0.284-0.197h0.635c0.241 0 0.415-0.109 0.438-0.503 0.021-0.568 0.045-1.269 0.045-1.837v-2.888c0-0.876 0-1.51-0.635-1.97-0.523-0.391-1.05-0.391-1.598-0.391-0.352 0-1.113 0.153-1.771 0.854-0.438 0.482-0.506 1.072-0.506 1.489v4.529c0 0.59 0.065 0.722 0.524 0.722h0.546c0.18 0 0.223 0.065 0.223 0.219v0.372c0 0.131-0.043 0.196-0.152 0.196-0.153 0-0.743-0.065-1.904-0.065-1.115 0-1.814 0.065-1.945 0.065-0.106 0-0.152-0.065-0.152-0.196v-0.395c0-0.131 0.046-0.197 0.221-0.197h0.635c0.284 0 0.438-0.066 0.438-0.438v-5.118c0-0.657-0.351-1.027-0.896-1.291l-0.179-0.089c-0.153-0.065-0.177-0.132-0.177-0.196v-0.109c0-0.111 0.089-0.176 0.195-0.219l1.881-1.052c0.18-0.087 0.31-0.153 0.396-0.153 0.109 0 0.153 0.088 0.176 0.263l0.153 1.333h0.043c0.636-0.787 1.903-1.596 2.998-1.596 0.655 0 1.335 0.132 1.858 0.483 0.654 0.437 1.201 1.53 1.201 2.077l0.03 5.642z" fill="#fff"/>
	<path d="m187.99 34.124c0-0.744-0.131-1.138-1.225-1.314-0.152-0.021-0.197-0.064-0.197-0.152v-0.198c0-0.065 0.045-0.109 0.154-0.152 0.696-0.264 1.528-0.613 2.358-1.072 0.176-0.089 0.286-0.132 0.416-0.132 0.104 0 0.131 0.109 0.104 0.262-0.043 0.371-0.043 1.75-0.043 3.565v2.385c0 0.853 0 1.639 0.022 1.881 0.043 0.416 0.106 0.568 0.351 0.568h1.004c0.18 0 0.223 0.067 0.223 0.198v0.372c0 0.154-0.043 0.219-0.196 0.219-0.176 0-1.185-0.065-2.104-0.065-1.269 0-2.121 0.065-2.359 0.065-0.105 0-0.178-0.044-0.178-0.175v-0.438c0-0.132 0.066-0.177 0.223-0.177h1.068c0.24 0 0.328-0.087 0.352-0.437 0.021-0.656 0.021-1.334 0.021-1.992v-3.214l0.03 0.003zm-0.98-6.674c0-0.547 0.459-1.136 1.334-1.136 0.767 0 1.138 0.589 1.138 1.071 0 0.568-0.395 1.204-1.271 1.204-0.48 0-1.2-0.439-1.2-1.139" fill="#fff"/>
	<path d="m198.08 37.886c0 1.248 0.262 1.64 0.653 1.64 0.352 0 0.658-0.175 0.769-0.327 0.087-0.112 0.132-0.155 0.219-0.088l0.218 0.175c0.066 0.065 0.112 0.177-0.021 0.393-0.177 0.328-0.589 1.071-1.705 1.071-0.786 0-1.356-0.568-1.554-1.465h-0.043c-0.459 0.547-1.182 1.006-2.166 1.334-0.415 0.131-0.809 0.131-1.29 0.131-0.525 0-1.313-0.437-1.313-1.815 0-1.006 0.459-1.881 2.188-2.649 0.983-0.436 2.122-0.961 2.472-1.267v-1.401c-0.043-0.371-0.066-0.94-0.306-1.224-0.242-0.284-0.679-0.482-1.312-0.482-0.438 0-1.115 0.177-1.427 0.46-0.308 0.284-0.106 0.612-0.106 1.005 0 0.766-0.265 1.248-1.158 1.248-0.35 0-0.525-0.198-0.525-0.7 0-0.7 0.613-1.531 1.51-2.057 0.92-0.547 1.687-0.765 2.67-0.765 1.029 0 1.442 0.307 1.75 0.59 0.459 0.46 0.481 0.962 0.481 1.553v3.348l-0.01 1.292zm-1.6-2.21c-0.787 0.592-2.933 1.028-2.933 2.843 0 0.811 0.481 1.204 1.14 1.204 0.635 0 1.793-0.766 1.793-1.356v-2.691z" fill="#fff"/>
	<g fill="#fff">
		<path d="m29.74 27.461c-2.035 4.963-5.929 11.754-12.951 16.034-7.033-4.26-10.947-11.045-12.995-16.002-1.884-4.566-2.574-8.443-2.747-9.581 0.84-0.473 1.68-0.701 2.626-0.703h0.009c0.662 0 1.598 0.122 2.138 0.278l0.299 0.088c0.283 0.083 0.573 0.167 0.87 0.251 1.039 0.3 2.22 0.603 3.106 0.603h0.006c0.994-0.002 2.543-0.132 4.285-0.747 0.498-0.173 1.091-0.362 1.723-0.447l0.574-0.042h0.032l0.887 0.08c0.539 0.092 1.046 0.254 1.47 0.404 1.736 0.607 3.281 0.735 4.278 0.735h0.013c0.601-0.002 1.381-0.137 2.46-0.427 0.441-0.119 0.89-0.251 1.316-0.377l0.5-0.149c0.532-0.153 1.509-0.281 2.177-0.283h0.007c0.943 0 1.809 0.23 2.639 0.678-0.163 1.118-0.838 5.013-2.722 9.607m-29.126-16.932l10.229 2.239c-0.09 0.157-0.173 0.316-0.252 0.479l-10.01-1.335c0.001-0.443 0.014-0.909 0.033-1.383m0.353-3.74l10.625 4.922c-0.201 0.234-0.39 0.479-0.56 0.741l-10.366-2.907c0.061-0.884 0.157-1.807 0.301-2.756m0.28-1.594c0.411 0.09 1.222 0.246 2.272 0.358l8.629 5.582c-0.116 0.105-0.225 0.217-0.331 0.33l-10.674-5.713c0.034-0.186 0.065-0.37 0.104-0.557m4.595 0.48c1.109 0 2.156-0.094 3.131-0.275l4.354 4.88c-0.33 0.191-0.641 0.408-0.933 0.651l-7.19-5.264c0.21 0.005 0.42 0.01 0.638 0.008m5.559-0.937l2.89 5.076c-0.196 0.075-0.387 0.159-0.573 0.252l-3.676-4.911c0.476-0.128 0.928-0.267 1.359-0.417m3.822-1.844l0.88 6.497c-0.488 0.046-0.958 0.147-1.411 0.29l-2.422-5.27c1.212-0.49 2.201-1.035 2.953-1.517m1.516-1.109c0.214 0.182 0.433 0.352 0.654 0.517l-0.392 7.071c-0.082-0.004-0.162-0.012-0.246-0.012h-0.009c-0.084 0-0.169 0.009-0.254 0.012l-0.392-7.083c0.282-0.21 0.5-0.385 0.639-0.505m1.511 1.109c1.032 0.67 2.055 1.163 2.929 1.515l-2.418 5.26c-0.447-0.138-0.912-0.236-1.391-0.279l0.88-6.496zm3.801 1.841c0.616 0.212 1.101 0.342 1.364 0.406l-3.679 4.919c-0.186-0.094-0.377-0.176-0.574-0.25l2.889-5.075zm2.459 0.627c1.079 0.191 2.195 0.287 3.34 0.285 0.138 0 0.268-0.004 0.401-0.008l-7.194 5.269c-0.29-0.237-0.601-0.452-0.927-0.638l4.38-4.908zm5.409 0.18c1.089-0.109 1.902-0.281 2.315-0.379 0.038 0.186 0.069 0.37 0.105 0.557l-10.699 5.725c-0.107-0.115-0.219-0.225-0.338-0.329l8.617-5.574zm2.6 1.217c0.149 0.969 0.25 1.915 0.312 2.818l-10.36 2.903c-0.181-0.277-0.379-0.54-0.597-0.789l10.645-4.932zm0.397 5.166l-10.002 1.337c-0.078-0.16-0.163-0.319-0.251-0.473l10.221-2.237c0.018 0.473 0.03 0.935 0.032 1.373m-3.052 2.146c-0.635 0.002-1.684 0.117-2.335 0.307l-0.464 0.137c-0.434 0.127-0.891 0.264-1.345 0.385-0.621 0.166-1.507 0.381-2.203 0.4-0.079-0.589-0.229-1.155-0.448-1.688l9.84-0.74c-0.014 0.683-0.044 1.311-0.083 1.871-0.901-0.419-1.943-0.652-2.962-0.672m-0.04 1.257h-0.008c-0.638 0-1.688 0.115-2.339 0.307l-0.451 0.134c-0.437 0.128-0.896 0.264-1.353 0.386l0.076 0.283-0.076-0.283c-0.654 0.175-1.603 0.407-2.311 0.407h-0.011c-0.949 0-2.423-0.122-4.083-0.702-0.422-0.146-0.984-0.328-1.575-0.43-0.336-0.058-0.65-0.084-0.964-0.084-0.232 0-0.458 0.015-0.689 0.045-0.683 0.087-1.316 0.291-1.845 0.477-1.664 0.585-3.145 0.711-4.094 0.713h-0.004c-0.807 0-1.941-0.292-2.947-0.578l-1.167-0.34c-0.589-0.173-1.577-0.303-2.302-0.303h-0.011c-1.004 0.002-1.985 0.248-2.876 0.695-0.021-0.193-0.042-0.401-0.062-0.627 0.88-0.466 1.952-0.74 2.988-0.74h0.01c0.665 0 1.602 0.121 2.139 0.278l1.168 0.34 0.08-0.281-0.079 0.281c1.094 0.312 2.229 0.602 3.107 0.602h0.005c0.995-0.002 2.546-0.135 4.285-0.747 0.498-0.176 1.09-0.366 1.72-0.446l0.617-0.042 0.878 0.076c0.548 0.095 1.073 0.266 1.471 0.406 1.735 0.608 3.281 0.735 4.276 0.735h0.013c0.601 0 1.36-0.131 2.46-0.426 0.458-0.123 0.92-0.26 1.358-0.389l0.461-0.136c0.531-0.155 1.508-0.283 2.176-0.284h0.006c0.998 0 2.044 0.26 2.904 0.705-0.021 0.24-0.042 0.459-0.062 0.661-0.894-0.447-1.883-0.693-2.889-0.693m-13.047-1.24l-0.001 0.043-0.002-0.043c-0.229 0.002-0.459 0.017-0.688 0.047-0.687 0.087-1.319 0.29-1.846 0.476-1.428 0.504-2.72 0.667-3.658 0.703 0.426-3.075 3.022-5.364 6.165-5.369h0.008c3.103 0 5.733 2.319 6.168 5.35-0.935-0.038-2.205-0.2-3.608-0.691-0.422-0.148-0.982-0.328-1.574-0.431l-0.003 0.013 0.002-0.013c-0.335-0.057-0.652-0.085-0.963-0.085m-16.188-1.225l9.843 0.741c-0.218 0.536-0.367 1.109-0.443 1.708-0.796-0.031-1.848-0.298-2.793-0.566l-1.167-0.34c-0.591-0.171-1.579-0.302-2.301-0.302h-0.01c-1.044 0-2.12 0.262-3.037 0.701-0.041-0.576-0.077-1.229-0.092-1.942m29.239 3.731h-0.01c-0.636 0.001-1.684 0.116-2.34 0.306l-0.502 0.148c-0.422 0.125-0.863 0.255-1.301 0.372l0.074 0.284-0.074-0.284c-1.028 0.278-1.762 0.407-2.311 0.409h-0.013c-0.949 0-2.425-0.123-4.083-0.703-0.449-0.157-0.989-0.332-1.574-0.43-0.592-0.101-1.108-0.114-1.654-0.041-0.687 0.09-1.319 0.292-1.846 0.478-1.666 0.585-3.145 0.709-4.092 0.711h-0.006c-0.813 0-1.945-0.293-2.946-0.581l-0.081 0.284 0.079-0.284c-0.294-0.082-0.585-0.167-0.864-0.249l-0.302-0.088c-0.595-0.174-1.579-0.302-2.299-0.302h-0.013c-0.978 0.002-1.851 0.228-2.717 0.679-0.023-0.147-0.053-0.361-0.09-0.633 0.858-0.469 1.822-0.724 2.807-0.726h0.009c0.667 0 1.604 0.122 2.14 0.279l1.167 0.338 0.083-0.28-0.081 0.28c1.096 0.312 2.23 0.603 3.108 0.603h0.006c0.995-0.002 2.545-0.133 4.285-0.747 0.5-0.177 1.095-0.366 1.721-0.447l0.573-0.042h0.037l0.883 0.078c0.546 0.094 1.073 0.264 1.473 0.405 1.74 0.606 3.283 0.734 4.278 0.734h0.013c0.599 0 1.356-0.132 2.46-0.427 0.462-0.125 0.926-0.262 1.367-0.393l0.451-0.132c0.526-0.156 1.504-0.283 2.175-0.283h0.005c0.987 0 1.957 0.252 2.818 0.723-0.033 0.26-0.062 0.467-0.084 0.614-0.86-0.429-1.755-0.653-2.729-0.653m3.636-6.169l-0.057-1.01c-0.067-0.933-0.179-1.911-0.338-2.91l-0.113-0.678c-0.063-0.361-0.135-0.722-0.215-1.089l-0.066-0.304-0.299 0.088c-0.01 0.004-0.493 0.14-1.307 0.275l-1.973 0.225c-0.391 0.025-0.808 0.042-1.246 0.042-1.151 0.002-2.275-0.103-3.357-0.3l-0.693-0.135c-0.013-0.004-0.026-0.006-0.037-0.007-0.014-0.004-0.571-0.121-1.417-0.409l-0.919-0.343c-0.919-0.368-2.009-0.898-3.092-1.621l-0.903-0.659c-0.17-0.133-0.338-0.27-0.502-0.416l-0.201-0.174-0.193 0.183c-0.006 0.006-0.168 0.157-0.477 0.4l-0.922 0.664c-0.755 0.5-1.804 1.101-3.111 1.63l-0.919 0.343c-0.444 0.152-0.911 0.296-1.404 0.422-0.012 0.002-0.026 0.004-0.036 0.007l-0.8 0.176c-0.94 0.174-1.952 0.267-3.024 0.267-0.525 0-1.025-0.02-1.496-0.055l-1.976-0.228c-0.782-0.126-1.265-0.246-1.274-0.248l-0.294-0.075-0.066 0.297c-0.063 0.292-0.116 0.581-0.17 0.87l-0.151 0.884c-0.154 0.978-0.261 1.935-0.325 2.85l-0.058 1.015c-0.021 0.494-0.031 0.973-0.033 1.432l0.007 0.985c0.056 2.765 0.386 4.673 0.412 4.826 0.031 0.236 0.615 4.688 2.829 10.057 2.082 5.041 6.063 11.94 13.232 16.29l0.312 0.188 0.308-0.188c7.16-4.368 11.122-11.28 13.188-16.324 2.202-5.375 2.777-9.832 2.803-10.065 0.027-0.153 0.347-2.038 0.4-4.776l0.007-0.978c-0.004-0.46-0.013-0.933-0.034-1.424"/>
		<path d="m25.077 24.225c-0.089 0.092-0.208 0.14-0.335 0.14l-2.23 0.005c-0.263 0-0.475-0.215-0.477-0.476 0-0.26 0.214-0.475 0.475-0.475l0.363-0.002c0 0.002 0.002 0.004 0.002 0.006l0.006-0.006h0.478l1.385-0.002c0.259 0 0.473 0.215 0.473 0.475-0.001 0.127-0.051 0.245-0.14 0.335m-0.44 0.816c-0.084 0.083-0.201 0.126-0.344 0.126l-1.36 0.002c-0.228 0-0.386-0.168-0.447-0.448 0.009 0 0.016 0.002 0.024 0.002l2.23-0.003c0.012 0 0.023-0.009 0.036-0.009-0.024 0.138-0.064 0.256-0.139 0.33m-0.558 5.739l-0.903 0.001-0.242-5.256 1.36-0.002c0.011 0 0.018-0.005 0.03-0.007l-0.245 5.264zm0.598 0.739c0 0.211-0.173 0.385-0.385 0.385l-1.298 0.003-0.002 0.177v-0.177c-0.211 0-0.381-0.175-0.381-0.386s0.171-0.382 0.381-0.382l0.734-0.002 0.563-0.002c0.213-0.001 0.388 0.172 0.388 0.384m-1.05 3.249c-0.155 0-0.282-0.125-0.282-0.287l-0.101-2.22h0.767l-0.103 2.226c0.001 0.157-0.125 0.281-0.281 0.281m-1.792-12.462c0-0.294 0.12-0.539 0.246-0.795 0.152-0.309 0.32-0.65 0.25-1.078 0.218 0.09 0.5 0.245 0.709 0.466-0.003 0.003-0.007 0.008-0.01 0.01-0.052 0.056-0.104 0.114-0.148 0.166-0.011 0.009-0.909 0.885-0.263 1.99h-0.114c-0.063 0.002-0.125 0.011-0.188 0.024-0.097-0.045-0.48-0.246-0.482-0.783m1.948-1.898c0.049-0.141 0.051-0.292 0.025-0.434 0.365 0.332 0.795 0.857 0.801 1.49 0.005 0.784-0.495 1.387-0.696 1.6h-0.127c-0.157-0.215-0.461-0.704-0.139-1.248 0.064-0.109 0.358-0.562 0.394-0.648 0.05-0.105 0.044-0.204 0.044-0.204-0.049 0.08-0.135 0.176-0.135 0.176-0.083 0.091-0.372 0.39-0.463 0.5-0.477 0.579-0.158 1.209-0.032 1.425l-0.413 0.002c-0.709-0.952 0.05-1.701 0.096-1.747 0.053-0.06 0.104-0.116 0.153-0.169 0.2-0.217 0.372-0.403 0.492-0.743m1.055 0.3c0.151-0.184 0.292-0.301 0.406-0.375-0.089 0.819 0.336 1.633 0.344 1.643 0.202 0.699-0.49 1.038-0.659 1.109-0.061-0.014-0.123-0.023-0.189-0.023h-0.36c0.263-0.34 0.587-0.903 0.583-1.602-0.001-0.294-0.125-0.752-0.125-0.752m0.467 2.579c0.397-0.244 0.821-0.718 0.609-1.442-0.004-0.01-0.506-0.977-0.26-1.749l0.083-0.261-0.272 0.031c-0.042 0.004-0.411 0.068-0.835 0.544-0.42-0.681-1.099-1.101-1.141-1.125l-0.675-0.399 0.438 0.652c0.078 0.116 0.285 0.505 0.198 0.75-0.048 0.138-0.108 0.242-0.178 0.338-0.449-0.453-1.133-0.639-1.162-0.647l-0.353-0.094 0.145 0.334c0.197 0.453 0.042 0.771-0.138 1.134-0.133 0.272-0.283 0.577-0.281 0.953 0 0.486 0.241 0.8 0.474 0.976-0.17 0.152-0.277 0.37-0.277 0.615 0.002 0.312 0.179 0.582 0.436 0.723 0.039 0.418 0.223 0.683 0.458 0.811l0.248 5.387c-0.323 0.078-0.567 0.356-0.567 0.702 0 0.37 0.279 0.665 0.633 0.719l0.104 2.249c0 0.351 0.285 0.635 0.635 0.635 0.351 0 0.636-0.284 0.636-0.626l0.104-2.252c0.371-0.041 0.665-0.345 0.663-0.725 0-0.359-0.26-0.644-0.597-0.71l0.248-5.384c0.075-0.036 0.147-0.075 0.206-0.134 0.163-0.162 0.249-0.399 0.267-0.697 0.06-0.036 0.124-0.069 0.175-0.119 0.156-0.156 0.243-0.365 0.241-0.584 0-0.239-0.103-0.453-0.265-0.605"/>
		<path d="m10.837 24.383l-2.229 0.004c-0.263 0-0.476-0.212-0.476-0.474 0-0.128 0.049-0.246 0.138-0.335 0.09-0.092 0.208-0.141 0.335-0.141h0.362s0.002 0.003 0.002 0.004l0.006-0.004h0.48l0.7-0.002h0.683c0.262 0 0.473 0.212 0.476 0.474 0.001 0.261-0.213 0.474-0.477 0.474m-0.098 0.679c-0.081 0.08-0.198 0.122-0.349 0.122l-1.358 0.002c-0.225 0-0.385-0.171-0.448-0.448 0.009 0 0.016 0.004 0.024 0.004l2.229-0.004c0.014 0 0.026-0.004 0.039-0.004-0.024 0.137-0.064 0.256-0.137 0.328m-0.562 5.736l-0.904 0.002-0.243-5.259h0.002l1.359-0.001c0.01 0 0.017-0.004 0.027-0.004l-0.241 5.262zm0.595 0.739c0 0.101-0.04 0.199-0.113 0.271-0.072 0.074-0.17 0.115-0.273 0.115h-1.294l-0.002 0.176v-0.177c-0.211 0-0.384-0.172-0.384-0.384s0.172-0.386 0.384-0.386h0.733l0.562-0.002c0.216 0.001 0.387 0.175 0.387 0.387m-1.046 3.248c-0.156 0-0.285-0.126-0.285-0.289l-0.101-2.218 0.769-0.002-0.103 2.229c0 0.154-0.126 0.28-0.28 0.28m-1.791-12.461c0-0.293 0.119-0.538 0.246-0.796 0.152-0.308 0.32-0.65 0.25-1.079 0.217 0.092 0.501 0.245 0.708 0.466-0.004 0.004-0.007 0.01-0.012 0.015-0.049 0.054-0.103 0.111-0.146 0.162-0.011 0.01-0.909 0.883-0.264 1.99h-0.11c-0.059 0-0.111 0.022-0.168 0.034-0.042-0.014-0.503-0.199-0.504-0.792m1.944-1.897c0.051-0.143 0.051-0.295 0.026-0.438 0.365 0.332 0.798 0.857 0.802 1.492 0.007 0.784-0.494 1.389-0.696 1.6h-0.125c-0.157-0.216-0.462-0.704-0.139-1.247 0.064-0.112 0.358-0.563 0.396-0.65 0.044-0.106 0.04-0.202 0.04-0.202-0.049 0.081-0.134 0.174-0.134 0.174-0.085 0.093-0.372 0.391-0.461 0.501-0.479 0.579-0.157 1.209-0.035 1.424l-0.412 0.002c-0.709-0.951 0.048-1.701 0.095-1.745 0.052-0.06 0.103-0.115 0.15-0.167 0.2-0.217 0.372-0.403 0.493-0.744m1.055 0.3c0.152-0.184 0.294-0.3 0.408-0.373-0.088 0.818 0.335 1.632 0.344 1.641 0.202 0.7-0.49 1.039-0.657 1.109-0.062-0.012-0.125-0.023-0.19-0.023h-0.359c0.262-0.342 0.589-0.902 0.583-1.602-0.004-0.297-0.129-0.752-0.129-0.752m0.468 2.578c0.399-0.244 0.82-0.72 0.611-1.443-0.006-0.01-0.508-0.976-0.262-1.748l0.084-0.264-0.274 0.033c-0.041 0.003-0.408 0.065-0.833 0.542-0.422-0.681-1.101-1.099-1.143-1.123l-0.669-0.396 0.434 0.646c0.082 0.126 0.283 0.508 0.195 0.754-0.048 0.137-0.107 0.241-0.176 0.338-0.449-0.454-1.133-0.641-1.163-0.647l-0.352-0.094 0.146 0.334c0.197 0.45 0.042 0.768-0.138 1.133-0.133 0.27-0.282 0.578-0.282 0.953 0 0.523 0.263 0.821 0.476 0.978-0.01 0.011-0.025 0.014-0.036 0.025-0.156 0.159-0.242 0.366-0.241 0.586 0 0.312 0.177 0.582 0.435 0.723 0.036 0.377 0.206 0.67 0.458 0.811l0.249 5.387c-0.323 0.078-0.567 0.357-0.567 0.706 0 0.37 0.277 0.662 0.631 0.714l0.104 2.251c0 0.351 0.286 0.638 0.637 0.638 0.349 0 0.635-0.286 0.635-0.63l0.104-2.251c0.168-0.018 0.325-0.08 0.446-0.202 0.14-0.14 0.217-0.328 0.215-0.521 0-0.356-0.259-0.642-0.597-0.71l0.247-5.377c0.079-0.037 0.155-0.076 0.215-0.137 0.157-0.156 0.241-0.391 0.261-0.689 0.247-0.145 0.417-0.409 0.417-0.715-0.001-0.241-0.106-0.454-0.267-0.605"/>
		<path d="m18.825 25.265c-0.138 0.138-0.323 0.216-0.518 0.216l-3.119 0.003c-0.405 0-0.733-0.327-0.735-0.73 0-0.406 0.329-0.737 0.734-0.737 0 0 2.077 0 2.082-0.003h1.039c0.403 0 0.731 0.327 0.731 0.73 0.001 0.199-0.074 0.382-0.214 0.521m-1.141 1.241l-1.902 0.002h-0.002c-0.303 0-0.579-0.329-0.685-0.676 0.032 0.002 0.062 0.01 0.094 0.01l3.119-0.006c0.038 0 0.076-0.007 0.115-0.011-0.113 0.337-0.422 0.681-0.739 0.681m-0.234 7.943l-1.4 0.001-0.349-7.6c0.026 0.004 0.051 0.011 0.078 0.011h0.002l1.902-0.002c0.04 0 0.078-0.011 0.116-0.015l-0.349 7.605zm0.836 0.962c0 0.336-0.274 0.608-0.608 0.608l-1.811 0.003c-0.335 0-0.609-0.273-0.61-0.607 0-0.335 0.272-0.609 0.606-0.609l1.366-0.002h0.444c0.337-0.001 0.611 0.271 0.613 0.607m-1.073 4.151c0 0.122-0.048 0.24-0.135 0.328-0.088 0.088-0.202 0.136-0.327 0.136h-0.002c-0.124 0-0.24-0.048-0.328-0.136-0.089-0.085-0.137-0.202-0.137-0.336l-0.147-3.177 1.222-0.002-0.146 3.187zm-3.038-17.034c-0.001-0.425 0.169-0.773 0.35-1.143 0.232-0.473 0.471-0.96 0.316-1.597 0.312 0.115 0.783 0.338 1.117 0.711-0.04 0.044-0.079 0.089-0.123 0.135-0.068 0.073-0.141 0.152-0.203 0.225-0.014 0.012-1.29 1.255-0.293 2.803h-0.154c-0.094 0-0.182 0.017-0.269 0.038-0.08-0.031-0.739-0.313-0.741-1.172m2.6-2.677c0.096-0.27 0.062-0.57-0.008-0.828 0.547 0.446 1.36 1.281 1.365 2.329 0.011 1.15-0.737 2.028-1.011 2.308h-0.09c-0.146-0.22-0.305-0.575-0.305-0.979-0.001-0.777 0.377-1.229 0.377-1.229s-0.479 0.325-0.562 1.041c-0.039 0.342 0.036 0.704 0.259 1.17h-0.455c-0.173-0.255-0.642-0.992-0.152-1.818 0.092-0.154 0.582-0.785 0.636-0.908 0.063-0.146 0.057-0.282 0.057-0.282-0.069 0.113-0.188 0.244-0.188 0.244-0.118 0.13-0.52 0.548-0.647 0.699-0.727 0.884-0.128 1.854-0.003 2.065h-0.275c-1.068-1.394 0.053-2.497 0.114-2.557 0.072-0.083 0.141-0.156 0.207-0.23 0.278-0.3 0.514-0.557 0.681-1.025m2.257 0.17c-0.23 1.099 0.139 2.004 0.15 2.03 0.292 1.008-0.429 1.504-0.652 1.631-0.071-0.015-0.148-0.024-0.224-0.024l-0.709 0.001c0.37-0.447 0.899-1.266 0.89-2.309-0.002-0.269-0.051-0.52-0.127-0.76 0.257-0.305 0.499-0.476 0.672-0.569m-0.116 3.825c0.365-0.286 0.895-0.897 0.6-1.912-0.004-0.01-0.412-1.025-0.056-2.141l0.082-0.263-0.273 0.032c-0.02 0.002-0.495 0.074-1.054 0.663-0.537-1.125-1.691-1.819-1.755-1.857l-0.587-0.347 0.345 0.59c0.003 0.006 0.386 0.668 0.225 1.123-0.071 0.198-0.159 0.352-0.259 0.492-0.611-0.649-1.542-0.874-1.582-0.884l-0.343-0.08 0.141 0.323c0.289 0.663 0.065 1.117-0.193 1.645-0.19 0.389-0.388 0.792-0.387 1.302 0 0.702 0.375 1.139 0.707 1.361-0.259 0.201-0.429 0.511-0.429 0.863 0.001 0.427 0.251 0.791 0.61 0.97 0.06 0.405 0.302 0.819 0.644 1.017l-0.012 0.001 0.357 7.727c-0.451 0.081-0.795 0.473-0.795 0.945 0.001 0.502 0.39 0.911 0.88 0.953l0.147 3.196c0 0.218 0.086 0.424 0.239 0.579 0.156 0.154 0.359 0.24 0.577 0.24h0.004c0.218 0 0.424-0.086 0.578-0.241 0.154-0.156 0.239-0.361 0.238-0.571l0.148-3.198c0.513-0.02 0.926-0.441 0.926-0.961-0.002-0.486-0.367-0.885-0.836-0.949l0.356-7.748h-0.002c0.347-0.213 0.601-0.621 0.654-1.008 0.094-0.049 0.186-0.111 0.264-0.189 0.206-0.207 0.32-0.48 0.318-0.771 0.001-0.376-0.188-0.707-0.477-0.902"/>
	</g>
</svg>
