<?xml version="1.0" encoding="utf-8"?>
<!-- Generator: Adobe Illustrator 15.0.0, SVG Export Plug-In . SVG Version: 6.00 Build 0)  -->
<!DOCTYPE svg PUBLIC "-//W3C//DTD SVG 1.1//EN" "http://www.w3.org/Graphics/SVG/1.1/DTD/svg11.dtd">
<svg version="1.1" id="Layer_1" xmlns="http://www.w3.org/2000/svg" xmlns:xlink="http://www.w3.org/1999/xlink" x="0px" y="0px"
	 width="200px" height="49.5px" viewBox="0 0 200 49.5" enable-background="new 0 0 200 49.5" xml:space="preserve">
<path fill="#990000" d="M39.65,6.373c0-0.743-0.175-1.093-0.743-1.093H37.9c-0.132,0-0.177-0.044-0.177-0.198V4.578
	c0-0.131,0.045-0.175,0.219-0.175c0.219,0,1.268,0.066,3.37,0.066c1.838,0,2.888-0.066,3.151-0.066c0.131,0,0.174,0.044,0.174,0.154
	v0.547c0,0.131-0.043,0.176-0.174,0.176h-0.919c-0.657,0-1.05,0.392-1.072,0.853c-0.022,0.264-0.065,1.574-0.065,2.843v2.715
	c0,1.092,0.021,2.646,0.065,3.347c0.066,1.006,0.241,2.012,0.767,2.713c0.744,1.005,1.926,1.356,2.975,1.356
	c1.006,0,2.232-0.395,2.931-1.049c0.833-0.832,1.27-2.101,1.27-3.698v-3.938c0-1.751-0.176-3.677-0.241-4.178
	c-0.066-0.57-0.415-0.962-0.897-0.962h-0.788c-0.131,0-0.175-0.067-0.175-0.155V4.579c0-0.131,0.044-0.174,0.175-0.174
	c0.219,0,1.225,0.062,2.67,0.062c1.356,0,2.056-0.062,2.23-0.062c0.198,0,0.22,0.062,0.22,0.174v0.503
	c0,0.132-0.021,0.198-0.132,0.198H52.69c-0.789,0-0.876,0.611-0.92,0.853c-0.043,0.264-0.043,3.325-0.043,3.611
	c0,0.305-0.044,4.113-0.13,4.988c-0.133,1.792-0.658,3.15-1.839,4.199c-0.919,0.833-2.32,1.357-3.983,1.357
	c-1.05,0-2.318-0.175-3.15-0.524c-1.27-0.525-2.145-1.533-2.582-2.931c-0.306-0.964-0.393-2.409-0.393-5.275V6.373z"/>
<path fill="#990000" d="M54.222,15.08c0.087,0,0.131,0.044,0.131,0.176c0.045,0.699,0.219,1.531,0.832,2.495
	c0.656,1.049,1.795,1.574,2.888,1.574c1.18,0,2.843-0.743,2.843-2.559c0-2.013-0.918-2.671-3.237-3.544
	c-0.699-0.261-2.145-0.876-3.194-1.837c-0.744-0.702-1.094-1.794-1.094-3.129c0-1.226,0.481-2.231,1.532-3.064
	c0.876-0.742,1.838-1.049,3.107-1.049c1.443,0,2.319,0.349,2.757,0.525c0.219,0.087,0.35,0.043,0.46-0.067l0.283-0.283
	c0.089-0.089,0.176-0.131,0.306-0.131c0.132,0,0.176,0.131,0.176,0.348c0,0.351,0.35,3.413,0.35,3.633
	c0,0.087-0.044,0.131-0.131,0.154l-0.349,0.11c-0.089,0.021-0.176,0-0.219-0.133c-0.22-0.613-0.57-1.489-1.357-2.318
	c-0.568-0.613-1.268-0.92-2.274-0.92c-1.751,0-2.45,1.401-2.45,2.21c0,0.744,0.088,1.4,0.612,1.969
	c0.569,0.57,1.794,1.094,2.67,1.357c1.268,0.394,2.318,0.832,3.15,1.706c0.698,0.745,1.093,1.662,1.093,3.13
	c0,2.668-1.749,4.854-4.637,4.854c-1.794,0-2.845-0.393-3.72-1.049c-0.262-0.176-0.394-0.264-0.524-0.264
	c-0.131,0-0.219,0.176-0.35,0.394c-0.131,0.219-0.219,0.264-0.394,0.264c-0.175,0-0.263-0.132-0.263-0.35
	c0.044-0.265,0.35-3.808,0.393-4.07c0.022-0.132,0.045-0.174,0.132-0.174L54.222,15.08z"/>
<path fill="#990000" d="M78.506,16.393c0.066,0.065,0.087,0.131,0.044,0.219c-1.313,1.882-3.414,3.676-6.52,3.676
	c-2.801,0-4.375-0.833-5.731-2.058c-1.62-1.442-2.362-3.981-2.362-5.905c0-2.145,0.699-4.202,2.23-5.865
	c1.181-1.269,3.062-2.318,5.688-2.318c2.014,0,3.631,0.612,4.418,1.05c0.306,0.177,0.395,0.177,0.438,0l0.175-0.57
	c0.044-0.13,0.087-0.13,0.35-0.13c0.262,0,0.307,0.043,0.307,0.35c0,0.394,0.437,3.893,0.524,4.549c0.022,0.132,0,0.198-0.088,0.221
	l-0.416,0.131c-0.109,0.042-0.174-0.045-0.24-0.22c-0.264-0.788-0.788-1.881-1.706-2.844C74.656,5.76,73.518,5.06,71.811,5.06
	c-3.499,0-4.943,3.151-4.943,6.302c0,1.355,0.394,3.938,2.012,5.688c1.445,1.532,2.713,1.706,3.763,1.706
	c2.406,0,4.309-1.202,5.229-2.538c0.109-0.154,0.196-0.219,0.262-0.154L78.506,16.393L78.506,16.393z"/>
<path d="M85.333,19.828c-1.488-0.591-2.254-1.554-2.604-2.933c-0.262-0.984-0.35-2.448-0.35-5.317V6.373
	c0-0.765-0.153-1.116-0.832-1.116H80.52c-0.13,0-0.153-0.043-0.153-0.196V4.578c0-0.131,0.023-0.175,0.198-0.175
	c0.219,0,1.291,0.066,2.997,0.066s2.756-0.066,2.997-0.066c0.176,0,0.197,0.044,0.197,0.131v0.57c0,0.109-0.021,0.152-0.176,0.152
	h-1.093c-0.635,0-1.008,0.415-1.051,0.897c-0.021,0.198-0.044,1.729-0.044,2.844v1.444c0,1.158,0.087,3.938,0.109,4.637
	c0.021,1.007,0.197,2.035,0.7,2.78c0.809,1.181,2.21,1.574,3.479,1.574c1.247,0,2.516-0.417,3.281-1.203
	c0.854-0.919,1.138-2.231,1.138-3.852V9.7c0-1.663-0.043-2.933-0.109-3.479c-0.065-0.57-0.417-0.963-0.985-0.963h-0.962
	c-0.131,0-0.154-0.065-0.154-0.176V4.557c0-0.11,0.023-0.153,0.154-0.153c0.219,0,1.225,0.065,2.691,0.065
	c1.51,0,2.209-0.065,2.406-0.065c0.198,0,0.219,0.088,0.219,0.153v0.481c0,0.131-0.021,0.219-0.132,0.219H95.33
	c-0.81,0-0.875,0.614-0.94,0.875c-0.045,0.219-0.045,3.325-0.045,3.632c0,0.306-0.044,4.135-0.109,4.989
	c-0.131,1.792-0.613,3.172-1.837,4.221c-0.876,0.811-2.209,1.312-4.114,1.312C87.151,20.286,86.056,20.135,85.333,19.828"/>
<path d="M104.13,18.778c0,0.35,0.196,0.46,0.479,0.46h0.699c0.198,0,0.242,0.065,0.242,0.196v0.351c0,0.153-0.044,0.241-0.177,0.241
	c-0.153,0-0.83-0.067-2.076-0.067c-1.114,0-1.815,0.067-1.97,0.067c-0.135,0-0.178-0.067-0.178-0.241v-0.351
	c0-0.153,0.064-0.196,0.283-0.196h0.637c0.24,0,0.414-0.11,0.438-0.503c0.021-0.571,0.044-1.27,0.044-1.839v-2.888
	c0-0.875,0-1.509-0.635-1.969c-0.523-0.393-1.051-0.393-1.597-0.393c-0.351,0-1.116,0.153-1.774,0.854
	c-0.437,0.481-0.503,1.072-0.503,1.487v4.53c0,0.59,0.066,0.722,0.525,0.722h0.548c0.175,0,0.219,0.065,0.219,0.217v0.374
	c0,0.131-0.044,0.198-0.154,0.198c-0.152,0-0.743-0.067-1.904-0.067c-1.115,0-1.815,0.067-1.946,0.067
	c-0.11,0-0.154-0.067-0.154-0.198v-0.395c0-0.131,0.044-0.196,0.219-0.196h0.635c0.285,0,0.437-0.067,0.437-0.438v-5.119
	c0-0.656-0.349-1.028-0.897-1.291l-0.176-0.087c-0.152-0.064-0.175-0.13-0.175-0.197v-0.11c0-0.108,0.088-0.174,0.198-0.219
	l1.881-1.049c0.174-0.087,0.307-0.154,0.395-0.154c0.108,0,0.151,0.087,0.173,0.263l0.154,1.335h0.043
	c0.636-0.788,1.904-1.598,3-1.598c0.655,0,1.334,0.131,1.859,0.48c0.655,0.438,1.202,1.532,1.202,2.079v5.643h0.002v0.001h0.03
	H104.13z"/>
<path d="M107.76,13.592c0-0.742-0.134-1.136-1.227-1.311c-0.154-0.021-0.198-0.065-0.198-0.155v-0.197
	c0-0.066,0.044-0.108,0.151-0.152c0.701-0.263,1.533-0.614,2.363-1.073c0.178-0.087,0.284-0.132,0.416-0.132
	c0.106,0,0.133,0.109,0.106,0.263c-0.044,0.372-0.044,1.75-0.044,3.566v2.385c0,0.854,0,1.641,0.021,1.88
	c0.043,0.417,0.105,0.571,0.351,0.571h1.008c0.177,0,0.22,0.065,0.22,0.196v0.373c0,0.153-0.043,0.219-0.195,0.219
	c-0.178,0-1.182-0.066-2.104-0.066c-1.27,0-2.121,0.066-2.359,0.066c-0.108,0-0.176-0.045-0.176-0.175v-0.438
	c0-0.131,0.062-0.174,0.219-0.174h1.07c0.24,0,0.326-0.089,0.354-0.439c0.021-0.657,0.021-1.334,0.021-1.99v-3.217H107.76z
	 M106.779,6.92c0-0.547,0.459-1.137,1.334-1.137c0.768,0,1.139,0.59,1.139,1.073c0,0.567-0.395,1.203-1.27,1.203
	c-0.479-0.001-1.199-0.438-1.199-1.139"/>
<path d="M115.55,17.947h0.063c0.352-0.854,1.883-4.594,2.103-5.448c0.154-0.59,0-0.94-0.393-0.94h-0.438
	c-0.066,0-0.088-0.11-0.088-0.219v-0.394c0-0.132,0.044-0.176,0.131-0.176c0.307,0,0.788,0.065,1.752,0.065
	c0.854,0,1.377-0.065,1.573-0.065c0.177,0,0.197,0.022,0.197,0.197v0.373c0,0.153,0,0.219-0.108,0.219h-0.415
	c-0.263,0-0.481,0.042-0.68,0.242c-0.327,0.305-1.422,2.69-1.75,3.499c-0.263,0.655-1.882,4.332-1.968,4.485
	c-0.178,0.306-0.285,0.502-0.525,0.502c-0.22,0-0.35-0.197-0.46-0.458c-0.044-0.11-1.64-4.267-1.706-4.442
	c-0.064-0.175-0.963-2.67-1.115-3.02c-0.285-0.634-0.504-0.809-0.896-0.809h-0.438c-0.109,0-0.133-0.088-0.133-0.219v-0.393
	c0-0.154,0.044-0.176,0.241-0.176c0.241,0,0.61,0.065,1.838,0.065c1.16,0,1.729-0.065,1.97-0.065c0.174,0,0.219,0.044,0.219,0.176
	v0.393c0,0.131-0.021,0.219-0.147,0.219h-0.438c-0.222,0-0.396,0.132-0.396,0.415c0,0.394,0.565,2.21,0.7,2.582
	c0.14,0.416,1.08,2.932,1.32,3.392"/>
<path d="M121.48,14.139c-0.045,0.197-0.066,0.547-0.066,1.049c0,2.146,1.357,3.763,3.107,3.763c1.334,0,2.271-0.765,2.646-1.488
	c0.044-0.087,0.131-0.131,0.194-0.109l0.285,0.154c0.062,0.021,0.105,0.086,0,0.327c-0.396,0.875-1.531,2.384-3.479,2.384
	c-1.246,0-2.624-0.37-3.437-1.553c-0.768-1.114-0.963-1.924-0.963-3.456c0-0.854,0.223-2.318,1.379-3.477
	c0.938-0.964,2.035-1.16,3.131-1.16c2.517,0,3.218,2.364,3.218,3.216c0,0.305-0.267,0.35-0.611,0.35h-5.399H121.48z M124.96,13.484
	c0.414,0,0.591-0.11,0.591-0.308c0-0.502-0.265-1.946-1.686-1.946c-0.963,0-1.881,0.634-2.297,2.254h3.399H124.96z"/>
<path d="M129.54,14.139c0-1.116-0.175-1.335-0.789-1.663l-0.416-0.219c-0.131-0.043-0.173-0.066-0.173-0.154V11.97
	c0-0.086,0.042-0.13,0.173-0.195l2.167-1.117c0.135-0.065,0.221-0.087,0.309-0.087c0.131,0,0.152,0.132,0.152,0.263l0.109,1.509
	h0.087c0.655-1.006,1.687-1.902,2.626-1.902c0.744,0,1.113,0.458,1.113,0.962c0,0.634-0.523,1.071-0.918,1.071
	c-0.24,0-0.461-0.087-0.633-0.175c-0.181-0.11-0.438-0.175-0.728-0.175c-0.353,0-0.919,0.219-1.29,0.919
	c-0.132,0.241-0.221,0.634-0.221,0.701v4.594c0,0.677,0.152,0.897,0.611,0.897h1.025c0.134,0,0.152,0.065,0.152,0.196v0.395
	c0,0.132-0.021,0.198-0.106,0.198c-0.133,0-1.14-0.066-2.319-0.066c-1.354,0-2.271,0.066-2.404,0.066
	c-0.088,0-0.133-0.045-0.133-0.219v-0.373c0-0.153,0.045-0.196,0.239-0.196h0.854c0.326,0,0.48-0.132,0.48-0.416
	c0.021-0.722,0.021-1.488,0.021-2.625L129.54,14.139L129.54,14.139z"/>
<path d="M135.439,19.587c-0.104-0.065-0.104-0.197-0.131-0.306l-0.371-2.079c-0.021-0.109,0.045-0.153,0.131-0.177l0.285-0.063
	c0.088-0.023,0.153,0.022,0.196,0.131l0.55,1.071c0.438,0.81,0.742,1.357,1.902,1.357c0.766,0,1.729-0.459,1.729-1.488
	c0-0.984-0.479-1.554-2.121-2.012c-1.291-0.372-2.582-1.049-2.582-2.78c0-1.51,1.427-2.669,3.063-2.669
	c1.048,0,1.617,0.263,2.011,0.46c0.328,0.153,0.371,0.262,0.396,0.392l0.324,1.532c0,0.088-0.043,0.155-0.149,0.198l-0.267,0.086
	c-0.088,0.022-0.133,0-0.194-0.109l-0.744-1.006c-0.262-0.416-0.678-0.853-1.528-0.853c-0.832,0-1.686,0.503-1.686,1.444
	c0,1.269,1.023,1.51,2.102,1.815c1.599,0.46,2.604,1.116,2.627,2.801c-0.021,1.771-1.469,2.886-3.325,2.886
	c-1.08,0.003-1.96-0.434-2.22-0.631"/>
<path d="M143.16,13.592c0-0.742-0.133-1.136-1.227-1.311c-0.151-0.021-0.195-0.065-0.195-0.155v-0.197
	c0-0.066,0.044-0.108,0.152-0.152c0.697-0.263,1.528-0.614,2.359-1.073c0.18-0.087,0.283-0.132,0.414-0.132
	c0.105,0,0.132,0.109,0.105,0.263c-0.043,0.372-0.043,1.75-0.043,3.566v2.385c0,0.854,0,1.641,0.021,1.88
	c0.044,0.417,0.109,0.571,0.352,0.571h1.006c0.179,0,0.222,0.065,0.222,0.196v0.373c0,0.153-0.043,0.219-0.195,0.219
	c-0.176,0-1.183-0.066-2.103-0.066c-1.27,0-2.12,0.066-2.361,0.066c-0.105,0-0.175-0.045-0.175-0.175v-0.438
	c0-0.131,0.062-0.174,0.218-0.174h1.073c0.235,0,0.323-0.089,0.352-0.439c0.021-0.657,0.021-1.334,0.021-1.99v-3.217H143.16z
	 M142.18,6.92c0-0.547,0.459-1.137,1.334-1.137c0.766,0,1.137,0.59,1.137,1.073c0,0.567-0.393,1.203-1.27,1.203
	c-0.48-0.001-1.199-0.438-1.199-1.139"/>
<path d="M149.16,17.225c0,1.64,0.742,1.925,1.138,1.925c0.503,0,1.136-0.088,1.444-0.285c0.109-0.065,0.197-0.043,0.263,0.043
	l0.11,0.198c0.062,0.088,0.021,0.176-0.045,0.24c-0.219,0.219-1.114,0.875-2.428,0.875c-1.07,0-2.123-1.027-2.123-1.858
	c0-0.897,0.062-2.823,0.062-3.129v-0.481c0-0.394,0.021-1.859,0.043-2.78h-1.333c-0.198,0-0.328-0.087-0.328-0.262
	s0.137-0.241,0.396-0.393c0.521-0.307,2.211-2.013,2.494-2.757c0.062-0.175,0.176-0.219,0.308-0.219c0.177,0,0.22,0.153,0.22,0.327
	l-0.111,2.167h3.043c0.133,0,0.197,0.11,0.153,0.197l-0.22,0.766c-0.021,0.109-0.066,0.174-0.197,0.174h-2.822
	c-0.043,1.008-0.062,2.056-0.062,3.064l0.01,2.188H149.16z"/>
<path d="M152.88,24.794c0-0.46,0.481-0.855,1.007-0.855c0.418,0,0.811,0.198,1.01,0.242c0.151,0.023,0.326,0,0.457-0.131
	c0.328-0.394,1.444-2.888,1.75-3.741c-0.104-0.546-2.429-7.372-2.604-7.833c-0.263-0.547-0.46-0.92-1.028-0.92h-0.568
	c-0.148,0-0.174-0.063-0.174-0.195v-0.438c0-0.087,0.021-0.153,0.174-0.153c0.199,0,0.727,0.066,2.019,0.066
	c1.112,0,1.794-0.066,2.033-0.066c0.175,0,0.194,0.066,0.194,0.153v0.46c0,0.109-0.021,0.173-0.131,0.173h-0.416
	c-0.24,0-0.328,0.155-0.285,0.483c0.065,0.481,1.558,5.295,1.795,5.775h0.088c0.222-0.349,2.121-4.876,2.256-5.424
	c0.132-0.548-0.047-0.834-0.372-0.834h-0.351c-0.137,0-0.153-0.063-0.153-0.173v-0.437c0-0.11,0.021-0.176,0.131-0.176
	c0.285,0,0.744,0.066,1.795,0.066c0.591,0,1.097-0.066,1.333-0.066c0.135,0,0.135,0.089,0.135,0.176v0.415
	c0,0.132,0,0.195-0.106,0.195h-0.353c-0.238,0-0.547,0.11-0.767,0.396c-0.481,0.59-1.929,3.915-3.438,7.35
	c-1.07,2.428-1.924,4.462-2.312,5.184c-0.312,0.57-0.701,1.423-1.86,1.423c-0.85,0-1.26-0.458-1.26-1.115"/>
<path d="M167.42,18.711c-1.004-1.201-1.202-2.012-1.202-3.565c0-1.116,0.591-2.517,1.884-3.522c1.135-0.877,2.207-1.051,2.93-1.051
	c1.203,0,2.406,0.611,3.062,1.269c0.984,1.008,1.486,2.145,1.486,3.567c0,2.384-2.144,4.812-4.833,4.812
	c-1.061,0-2.41-0.415-3.33-1.51 M173.736,15.189c0-2.428-1.772-3.959-2.889-3.959c-0.592,0-1.16,0.131-1.688,0.7
	c-0.854,0.875-1.16,1.771-1.16,3.435c0,1.226,0.139,2.056,0.834,3.062c0.501,0.721,1.141,1.137,2.165,1.137
	c1.67,0.001,2.739-2.033,2.739-4.375"/>
<path d="M177.811,11.886H176.3c-0.108,0-0.149-0.044-0.108-0.24l0.093-0.657c0.021-0.13,0.088-0.154,0.263-0.154h1.271V10.42
	c0-2.167,0.608-3.586,1.467-4.549c1.16-1.27,2.363-1.73,3.588-1.73c1.029,0,1.99,0.393,1.99,1.225c0,0.524-0.567,0.94-0.918,0.94
	c-0.219,0-0.438-0.044-0.611-0.132c-0.195-0.109-0.438-0.394-0.525-0.503c-0.283-0.351-0.588-0.503-1.006-0.503
	c-0.566,0-1.156,0.152-1.64,0.766c-0.81,1.027-0.767,2.931-0.767,4.463v0.437h2.646c0.151,0,0.176,0.131,0.151,0.219l-0.107,0.723
	c-0.021,0.086-0.107,0.109-0.286,0.109h-2.405v1.948c0,2.58,0,4.594,0.021,4.833c0.043,0.373,0.107,0.571,0.568,0.571h1.246
	c0.194,0,0.237,0.043,0.237,0.175v0.351c0,0.175-0.044,0.262-0.149,0.262c-0.133,0-0.94-0.065-2.627-0.065
	c-1.201,0-2.316,0.065-2.494,0.065c-0.133,0-0.176-0.045-0.176-0.153v-0.481c0-0.111,0.043-0.154,0.221-0.154h1.051
	c0.416,0,0.503-0.264,0.523-0.766v-6.585h0.01H177.811z"/>
<path d="M40.901,39.68c-0.262-0.195-0.393-0.263-0.503-0.263c-0.131,0-0.219,0.153-0.349,0.37c-0.131,0.243-0.241,0.264-0.394,0.264
	c-0.131,0-0.241-0.109-0.197-0.35c0.087-0.547,0.306-3.325,0.372-3.958c0.021-0.132,0.065-0.132,0.153-0.132l0.327,0.021
	c0.088,0,0.131,0.043,0.131,0.178c0.022,0.699,0.067,1.422,0.788,2.535c0.657,1.026,1.861,1.62,3.063,1.62
	c1.312,0,2.975-0.812,2.975-2.778c0-2.254-1.618-3.086-3.369-3.697c-0.677-0.243-2.253-0.789-3.193-1.772
	c-0.722-0.723-1.094-1.75-1.094-3.196c0-1.092,0.677-2.164,1.355-2.801c0.788-0.744,1.883-1.048,3.064-1.048
	c1.246,0,2.208,0.369,2.581,0.546c0.197,0.11,0.306,0.088,0.416-0.021l0.285-0.264c0.11-0.088,0.174-0.13,0.284-0.13
	c0.108,0,0.175,0.173,0.175,0.37c0,0.766,0.285,2.997,0.307,3.48c0,0.107-0.022,0.152-0.109,0.173l-0.264,0.065
	c-0.065,0.022-0.108,0-0.131-0.065c-0.176-0.636-0.459-1.486-1.356-2.427c-0.591-0.635-1.356-0.94-2.385-0.94
	c-1.947,0-2.646,1.446-2.646,2.56c0,0.613,0.131,1.334,0.677,1.902c0.635,0.637,1.859,1.117,2.494,1.314
	c1.509,0.48,2.735,0.852,3.522,1.814c0.569,0.678,0.963,1.532,0.963,2.975c0,2.582-1.575,4.793-4.464,4.793
	C42.85,40.818,41.777,40.359,40.901,39.68"/>
<path d="M50.98,39.242c-1.007-1.202-1.204-2.012-1.204-3.565c0-1.114,0.591-2.516,1.882-3.521c1.138-0.877,2.209-1.051,2.932-1.051
	c1.203,0,2.407,0.613,3.063,1.27c0.984,1.006,1.487,2.145,1.487,3.564c0,2.387-2.144,4.813-4.836,4.813
	C53.255,40.752,51.898,40.335,50.98,39.242 M57.302,35.719c0-2.427-1.772-3.959-2.887-3.959c-0.591,0-1.159,0.133-1.685,0.699
	c-0.854,0.876-1.159,1.771-1.159,3.436c0,1.226,0.132,2.058,0.831,3.062c0.503,0.723,1.138,1.139,2.167,1.139
	C56.23,40.096,57.302,38.061,57.302,35.719"/>
<path d="M68.183,36.048c0,1.05,0,2.121,0.045,2.583c0.064,0.678,0.305,0.764,0.568,0.764c0.131,0,0.459,0,0.722-0.064
	c0.176-0.043,0.242,0,0.263,0.087l0.066,0.285c0.021,0.131-0.021,0.176-0.109,0.198l-2.297,0.764
	c-0.132,0.044-0.263,0.091-0.438,0.091c-0.089,0-0.175-0.046-0.197-0.265l-0.175-1.27h-0.043c-0.612,0.853-1.881,1.532-2.976,1.532
	c-0.611,0-1.334-0.067-2.056-1.008c-0.897-1.158-0.854-1.881-0.854-4.288V32.92c-0.022-0.611-0.327-0.765-0.832-0.832
	c-0.371-0.021-0.48-0.045-0.48-0.154V31.54c0-0.131,0.044-0.175,0.24-0.175h1.948c0.131,0,0.219-0.022,0.306-0.045
	c0.087,0,0.175-0.021,0.24-0.021c0.153,0,0.263,0.11,0.241,0.263c-0.021,0.197-0.088,1.224-0.088,2.516v1.553
	c0,0.877-0.219,2.275,0.481,3.282c0.547,0.788,1.16,0.831,1.75,0.831c0.591,0,1.467-0.569,1.881-1.094
	c0.09-0.111,0.219-0.394,0.219-0.592v-5.207c-0.043-0.613-0.394-0.722-0.941-0.766c-0.371,0-0.48-0.045-0.48-0.154v-0.371
	c0-0.177,0.044-0.197,0.261-0.197h2.034c0.153,0,0.263-0.022,0.372-0.045c0.109,0,0.197-0.021,0.263-0.021
	c0.131,0,0.219,0.11,0.197,0.218c-0.022,0.198-0.132,0.767-0.132,2.911v1.618L68.183,36.048L68.183,36.048z"/>
<path d="M72.984,37.756c0,1.639,0.743,1.924,1.137,1.924c0.504,0,1.138-0.087,1.444-0.285c0.109-0.064,0.196-0.043,0.262,0.045
	l0.109,0.196c0.065,0.089,0.021,0.177-0.044,0.241c-0.218,0.221-1.115,0.877-2.428,0.877c-1.072,0-2.122-1.029-2.122-1.859
	c0-0.897,0.065-2.822,0.065-3.129v-0.48c0-0.393,0.022-1.859,0.044-2.78h-1.335c-0.197,0-0.327-0.087-0.327-0.262
	c0-0.177,0.13-0.24,0.394-0.394c0.524-0.306,2.209-2.012,2.494-2.757c0.066-0.176,0.175-0.218,0.306-0.218
	c0.175,0,0.219,0.152,0.219,0.327l-0.109,2.166h3.04c0.133,0,0.198,0.11,0.154,0.196l-0.219,0.767
	c-0.023,0.108-0.066,0.174-0.198,0.174h-2.821c-0.043,1.006-0.065,2.058-0.065,3.063V37.756z"/>
<path d="M78,28.566c0-1.336-0.264-1.574-1.05-1.84l-0.373-0.131c-0.131-0.044-0.153-0.064-0.153-0.131v-0.199
	c0-0.086,0.064-0.107,0.262-0.217l2.275-1.204c0.175-0.088,0.329-0.175,0.505-0.175c0.131,0,0.218,0.175,0.174,0.546
	c-0.043,0.371-0.066,4.813-0.066,5.908v1.399h0.11c0.766-0.918,2.034-1.422,2.997-1.422c0.919,0,1.553,0.282,2.165,0.875
	c0.986,0.92,0.943,2.037,0.943,3.217v1.248c0,1.225,0.043,2.582,0.043,2.996c0,0.263,0.351,0.328,0.81,0.328h0.372
	c0.176,0,0.241,0.045,0.241,0.197v0.328c0,0.176-0.044,0.264-0.174,0.264c-0.154,0-0.854-0.065-2.103-0.065
	c-1.072,0-1.858,0.065-2.055,0.065c-0.153,0-0.196-0.065-0.196-0.242v-0.369c0-0.111,0.021-0.176,0.152-0.176h0.504
	c0.371,0,0.808-0.045,0.831-0.416c0.021-0.307,0-1.466,0-2.166v-1.771c0-1.226-0.088-2.101-0.723-2.692
	c-0.438-0.414-0.897-0.611-1.443-0.611c-0.635,0-1.423,0.219-2.034,0.916c-0.198,0.242-0.438,0.68-0.438,1.074v4.769
	c0,0.7,0.065,0.897,0.481,0.897h0.656c0.153,0,0.241,0.045,0.241,0.176v0.371c0,0.153-0.044,0.24-0.176,0.24
	c-0.175,0-1.073-0.064-2.078-0.064c-1.094,0-1.925,0.064-2.123,0.064c-0.088,0-0.153-0.064-0.153-0.219v-0.393
	c0-0.154,0.087-0.176,0.328-0.176h0.46c0.349,0,0.677-0.088,0.721-0.352C78,39.002,78,36.593,78,35.171V28.566z"/>
<path d="M89.135,34.669c-0.043,0.2-0.066,0.549-0.066,1.051c0,2.146,1.356,3.765,3.107,3.765c1.333,0,2.275-0.767,2.646-1.489
	c0.044-0.087,0.132-0.131,0.198-0.109l0.285,0.153c0.067,0.021,0.11,0.087,0,0.328c-0.394,0.876-1.532,2.385-3.478,2.385
	c-1.247,0-2.624-0.371-3.435-1.553c-0.767-1.117-0.962-1.928-0.962-3.456c0-0.854,0.218-2.32,1.378-3.479
	c0.94-0.963,2.034-1.158,3.128-1.158c2.516,0,3.217,2.361,3.217,3.215c0,0.308-0.264,0.35-0.613,0.35L89.135,34.669L89.135,34.669z
	 M92.614,34.014c0.416,0,0.59-0.109,0.59-0.307c0-0.502-0.262-1.947-1.685-1.947c-0.962,0-1.881,0.635-2.297,2.254H92.614z"/>
<path d="M97.355,34.669c0-1.114-0.175-1.334-0.789-1.662l-0.415-0.219c-0.132-0.044-0.174-0.063-0.174-0.154v-0.131
	c0-0.088,0.042-0.131,0.174-0.196l2.167-1.117c0.131-0.065,0.219-0.088,0.306-0.088c0.132,0,0.154,0.133,0.154,0.264l0.109,1.51
	h0.087c0.656-1.007,1.687-1.902,2.627-1.902c0.738,0,1.111,0.457,1.111,0.961c0,0.635-0.521,1.072-0.92,1.072
	c-0.236,0-0.458-0.088-0.635-0.175c-0.18-0.108-0.438-0.175-0.722-0.175c-0.351,0-0.919,0.219-1.29,0.919
	c-0.132,0.239-0.219,0.634-0.219,0.698v4.597c0,0.678,0.152,0.896,0.611,0.896h1.024c0.136,0,0.154,0.066,0.154,0.198v0.394
	c0,0.133-0.021,0.197-0.107,0.197c-0.13,0-1.137-0.064-2.318-0.064c-1.357,0-2.276,0.064-2.406,0.064
	c-0.087,0-0.133-0.044-0.133-0.22v-0.371c0-0.153,0.046-0.198,0.242-0.198h0.854c0.329,0,0.481-0.132,0.481-0.414
	c0.021-0.722,0.021-1.488,0.021-2.627L97.355,34.669L97.355,34.669z"/>
<path d="M112.07,39.309c0,0.351,0.197,0.459,0.479,0.459h0.699c0.199,0,0.242,0.064,0.242,0.196v0.351
	c0,0.153-0.043,0.24-0.178,0.24c-0.151,0-0.83-0.064-2.078-0.064c-1.114,0-1.814,0.064-1.969,0.064c-0.134,0-0.179-0.064-0.179-0.24
	v-0.351c0-0.153,0.062-0.196,0.284-0.196h0.634c0.243,0,0.416-0.109,0.438-0.504c0.021-0.568,0.047-1.269,0.047-1.837v-2.888
	c0-0.876,0-1.51-0.637-1.971c-0.523-0.391-1.052-0.391-1.599-0.391c-0.353,0-1.112,0.153-1.771,0.854
	c-0.438,0.481-0.506,1.071-0.506,1.489v4.528c0,0.591,0.063,0.722,0.523,0.722h0.548c0.179,0,0.22,0.065,0.22,0.22v0.372
	c0,0.131-0.041,0.195-0.151,0.195c-0.149,0-0.742-0.064-1.903-0.064c-1.111,0-1.812,0.064-1.943,0.064
	c-0.106,0-0.151-0.064-0.151-0.195v-0.396c0-0.131,0.045-0.196,0.219-0.196h0.638c0.281,0,0.438-0.066,0.438-0.438v-5.118
	c0-0.656-0.352-1.027-0.896-1.291l-0.177-0.089c-0.149-0.065-0.174-0.132-0.174-0.196V32.53c0-0.111,0.086-0.177,0.194-0.22
	l1.884-1.052c0.174-0.087,0.306-0.153,0.396-0.153c0.106,0,0.151,0.088,0.176,0.264l0.15,1.333h0.044
	c0.638-0.787,1.902-1.597,2.998-1.597c0.655,0,1.334,0.133,1.859,0.483c0.653,0.437,1.2,1.53,1.2,2.077v5.643H112.07z"/>
<path d="M120.45,38.805c-1.576-1.486-2.341-4.027-2.341-6.125c0-2.035,0.654-4.134,2.229-5.797c1.115-1.184,3.086-2.21,5.472-2.21
	c1.989,0,3.631,0.743,4.42,1.202c0.283,0.177,0.393,0.154,0.438,0l0.175-0.633c0.046-0.133,0.091-0.133,0.284-0.133
	c0.197,0,0.239,0.043,0.239,0.35c0,0.415,0.438,3.632,0.549,4.244c0.021,0.111,0,0.197-0.089,0.22l-0.327,0.086
	c-0.106,0.023-0.151,0-0.222-0.174c-0.307-0.722-0.784-1.772-1.704-2.715c-0.921-0.94-2.078-1.685-3.808-1.685
	c-3.916,0-5.49,3.479-5.472,6.674c0,1.268,0.396,3.74,2.103,5.623c1.488,1.66,2.732,1.836,4.199,1.836
	c2.473,0,4.396-1.358,5.402-2.779c0.062-0.109,0.107-0.131,0.176-0.066l0.284,0.219c0.062,0.045,0.106,0.089,0.043,0.199
	c-1.312,1.902-3.437,3.676-6.521,3.676c-2.551,0.002-4.201-0.808-5.51-2.012"/>
<path d="M139.561,37.886c0,1.248,0.266,1.64,0.654,1.64c0.352,0,0.655-0.174,0.766-0.326c0.09-0.112,0.133-0.155,0.224-0.088
	l0.22,0.175c0.064,0.065,0.105,0.177-0.021,0.394c-0.178,0.327-0.592,1.07-1.707,1.07c-0.784,0-1.354-0.568-1.553-1.465h-0.045
	c-0.459,0.547-1.183,1.006-2.166,1.334c-0.416,0.131-0.812,0.131-1.291,0.131c-0.525,0-1.312-0.438-1.312-1.814
	c0-1.006,0.46-1.881,2.188-2.649c0.982-0.437,2.121-0.961,2.471-1.267v-1.401c-0.043-0.371-0.062-0.94-0.307-1.224
	c-0.24-0.285-0.68-0.482-1.312-0.482c-0.438,0-1.115,0.177-1.424,0.46c-0.307,0.284-0.106,0.612-0.106,1.005
	c0,0.766-0.266,1.248-1.159,1.248c-0.351,0-0.522-0.198-0.522-0.7c0-0.7,0.612-1.53,1.512-2.057
	c0.919-0.548,1.687-0.765,2.669-0.765c1.026,0,1.441,0.307,1.751,0.59c0.458,0.459,0.479,0.962,0.479,1.553v4.641v-0.001h-0.01
	H139.561z M137.96,35.676c-0.788,0.592-2.931,1.028-2.931,2.844c0,0.811,0.479,1.203,1.138,1.203c0.633,0,1.793-0.766,1.793-1.355
	V35.676z"/>
<path d="M145.08,33.971c0,1.135,0,4.441,0.021,5.118c0.021,0.372,0.104,0.679,0.564,0.679h0.98c0.196,0,0.24,0.066,0.24,0.197v0.372
	c0,0.13-0.044,0.22-0.133,0.22c-0.152,0-1.113-0.065-2.471-0.065c-1.401,0-2.274,0.065-2.475,0.065c-0.107,0-0.151-0.09-0.151-0.22
	v-0.372c0-0.152,0.044-0.197,0.282-0.197h1.051c0.24,0,0.461-0.152,0.48-0.547c0.021-0.679,0.021-4.44,0.021-5.709v-1.379
	c0-1.554-0.021-3.543-0.064-4.113c-0.044-0.744-0.393-1.092-1.094-1.312l-0.438-0.155c-0.108-0.042-0.133-0.062-0.133-0.109v-0.176
	c0-0.064,0.063-0.108,0.194-0.153c0.769-0.349,1.748-0.743,2.562-1.271c0.195-0.132,0.328-0.176,0.459-0.176
	c0.152,0,0.199,0.11,0.18,0.394c-0.021,1.203-0.092,5.753-0.092,6.958l0.021,1.951H145.08z"/>
<path d="M149.061,34.124c0-0.744-0.133-1.138-1.228-1.313c-0.151-0.021-0.196-0.064-0.196-0.152V32.46
	c0-0.065,0.045-0.108,0.154-0.151c0.7-0.265,1.529-0.613,2.359-1.072c0.178-0.09,0.285-0.133,0.416-0.133
	c0.107,0,0.134,0.109,0.107,0.263c-0.044,0.37-0.044,1.75-0.044,3.565v2.385c0,0.853,0,1.639,0.021,1.881
	c0.045,0.416,0.106,0.568,0.353,0.568h1.008c0.177,0,0.22,0.066,0.22,0.197v0.372c0,0.154-0.043,0.22-0.192,0.22
	c-0.179,0-1.185-0.065-2.104-0.065c-1.27,0-2.123,0.065-2.361,0.065c-0.105,0-0.176-0.045-0.176-0.176v-0.438
	c0-0.133,0.065-0.178,0.222-0.178h1.069c0.24,0,0.328-0.087,0.353-0.437c0.021-0.656,0.021-1.334,0.021-1.992v-3.214V34.124
	L149.061,34.124z M148.07,27.45c0-0.548,0.459-1.136,1.336-1.136c0.766,0,1.137,0.588,1.137,1.07c0,0.568-0.395,1.204-1.27,1.204
	c-0.48,0-1.211-0.438-1.211-1.139"/>
<path d="M154.58,32.417h-1.512c-0.106,0-0.151-0.044-0.106-0.239l0.087-0.658c0.021-0.131,0.088-0.15,0.264-0.15h1.271V30.95
	c0-2.166,0.608-3.587,1.466-4.55c1.159-1.268,2.363-1.728,3.592-1.728c1.023,0,1.987,0.393,1.987,1.224
	c0,0.526-0.565,0.94-0.919,0.94c-0.22,0-0.438-0.043-0.609-0.132c-0.197-0.109-0.438-0.393-0.524-0.501
	c-0.283-0.351-0.591-0.503-1.007-0.503c-0.567,0-1.159,0.152-1.645,0.765c-0.81,1.028-0.765,2.931-0.765,4.464v0.438h2.646
	c0.15,0,0.176,0.129,0.15,0.219l-0.105,0.723c-0.021,0.086-0.107,0.107-0.285,0.107h-2.403v1.947c0,2.582,0,4.595,0.021,4.836
	c0.043,0.371,0.107,0.568,0.567,0.568h1.245c0.195,0,0.238,0.043,0.238,0.174v0.35c0,0.176-0.043,0.264-0.149,0.264
	c-0.135,0-0.94-0.065-2.626-0.065c-1.203,0-2.318,0.065-2.494,0.065c-0.134,0-0.177-0.045-0.177-0.154v-0.48
	c0-0.109,0.043-0.152,0.22-0.152h1.053c0.416,0,0.504-0.264,0.522-0.766v-4.113l-0.021-2.472H154.58z"/>
<path d="M159.77,39.242c-1.006-1.202-1.203-2.012-1.203-3.565c0-1.114,0.592-2.516,1.883-3.521c1.138-0.877,2.21-1.051,2.931-1.051
	c1.203,0,2.406,0.613,3.062,1.27c0.986,1.006,1.488,2.145,1.488,3.564c0,2.387-2.146,4.813-4.834,4.813
	c-1.05-0.001-2.41-0.418-3.33-1.511 M166.096,35.719c0-2.427-1.771-3.959-2.889-3.959c-0.591,0-1.16,0.133-1.686,0.699
	c-0.854,0.876-1.158,1.771-1.158,3.436c0,1.226,0.132,2.058,0.832,3.062c0.504,0.723,1.138,1.139,2.166,1.139
	c1.66,0,2.74-2.035,2.74-4.377"/>
<path d="M169.68,34.669c0-1.114-0.176-1.334-0.789-1.662l-0.414-0.219c-0.131-0.044-0.176-0.063-0.176-0.154v-0.131
	c0-0.088,0.045-0.131,0.176-0.196l2.166-1.117c0.131-0.065,0.219-0.088,0.312-0.088c0.132,0,0.149,0.133,0.149,0.264l0.109,1.51
	h0.087c0.656-1.007,1.687-1.902,2.626-1.902c0.744,0,1.114,0.457,1.114,0.961c0,0.635-0.522,1.072-0.918,1.072
	c-0.24,0-0.46-0.088-0.636-0.175c-0.174-0.108-0.438-0.175-0.721-0.175c-0.354,0-0.918,0.219-1.291,0.919
	c-0.134,0.239-0.224,0.634-0.224,0.698v4.597c0,0.678,0.147,0.896,0.608,0.896h1.029c0.131,0,0.152,0.066,0.152,0.198v0.394
	c0,0.133-0.021,0.197-0.109,0.197c-0.133,0-1.138-0.064-2.314-0.064c-1.354,0-2.275,0.064-2.406,0.064
	c-0.087,0-0.131-0.044-0.131-0.22v-0.371c0-0.153,0.044-0.198,0.234-0.198h0.854c0.329,0,0.481-0.132,0.481-0.414
	c0.021-0.722,0.021-1.488,0.021-2.627v-2.056h0.011H169.68z"/>
<path d="M184.359,39.309c0,0.351,0.195,0.459,0.479,0.459h0.702c0.193,0,0.236,0.064,0.236,0.196v0.351
	c0,0.153-0.043,0.24-0.176,0.24c-0.148,0-0.83-0.064-2.078-0.064c-1.112,0-1.812,0.064-1.969,0.064c-0.134,0-0.178-0.064-0.178-0.24
	v-0.351c0-0.153,0.062-0.196,0.284-0.196h0.635c0.241,0,0.415-0.109,0.438-0.504c0.021-0.568,0.045-1.269,0.045-1.837v-2.888
	c0-0.876,0-1.51-0.635-1.971c-0.523-0.391-1.051-0.391-1.599-0.391c-0.353,0-1.112,0.153-1.771,0.854
	c-0.438,0.481-0.506,1.071-0.506,1.489v4.528c0,0.591,0.064,0.722,0.523,0.722h0.546c0.181,0,0.224,0.065,0.224,0.22v0.372
	c0,0.131-0.043,0.195-0.152,0.195c-0.153,0-0.743-0.064-1.904-0.064c-1.115,0-1.814,0.064-1.945,0.064
	c-0.105,0-0.151-0.064-0.151-0.195v-0.396c0-0.131,0.046-0.196,0.221-0.196h0.636c0.283,0,0.438-0.066,0.438-0.438v-5.118
	c0-0.656-0.352-1.027-0.896-1.291l-0.179-0.089c-0.153-0.065-0.177-0.132-0.177-0.196V32.53c0-0.111,0.089-0.177,0.195-0.22
	l1.881-1.052c0.18-0.087,0.31-0.153,0.396-0.153c0.109,0,0.153,0.088,0.177,0.264l0.152,1.333h0.043
	c0.637-0.787,1.903-1.597,2.998-1.597c0.655,0,1.335,0.133,1.857,0.483c0.654,0.437,1.201,1.53,1.201,2.077l0.03,5.643H184.359z"/>
<path d="M187.99,34.124c0-0.744-0.131-1.138-1.225-1.313c-0.152-0.021-0.197-0.064-0.197-0.152V32.46
	c0-0.065,0.045-0.108,0.154-0.151c0.695-0.265,1.527-0.613,2.357-1.072c0.176-0.09,0.286-0.133,0.416-0.133
	c0.104,0,0.131,0.109,0.104,0.263c-0.043,0.37-0.043,1.75-0.043,3.565v2.385c0,0.853,0,1.639,0.022,1.881
	c0.043,0.416,0.106,0.568,0.351,0.568h1.004c0.18,0,0.224,0.066,0.224,0.197v0.372c0,0.154-0.043,0.22-0.196,0.22
	c-0.176,0-1.186-0.065-2.104-0.065c-1.27,0-2.121,0.065-2.359,0.065c-0.105,0-0.178-0.045-0.178-0.176v-0.438
	c0-0.133,0.066-0.178,0.223-0.178h1.068c0.24,0,0.328-0.087,0.352-0.437c0.021-0.656,0.021-1.334,0.021-1.992v-3.214l0.029,0.003
	H187.99z M187.01,27.45c0-0.548,0.459-1.136,1.334-1.136c0.768,0,1.139,0.588,1.139,1.07c0,0.568-0.396,1.204-1.271,1.204
	c-0.48,0-1.199-0.438-1.199-1.139"/>
<path d="M198.08,37.886c0,1.248,0.262,1.64,0.652,1.64c0.353,0,0.658-0.174,0.77-0.326c0.087-0.112,0.132-0.155,0.219-0.088
	l0.219,0.175c0.065,0.065,0.111,0.177-0.021,0.394c-0.177,0.327-0.589,1.07-1.705,1.07c-0.786,0-1.355-0.568-1.554-1.465h-0.043
	c-0.459,0.547-1.183,1.006-2.166,1.334c-0.415,0.131-0.81,0.131-1.29,0.131c-0.525,0-1.312-0.438-1.312-1.814
	c0-1.006,0.459-1.881,2.188-2.649c0.982-0.437,2.122-0.961,2.472-1.267v-1.401c-0.043-0.371-0.065-0.94-0.306-1.224
	c-0.242-0.285-0.68-0.482-1.312-0.482c-0.438,0-1.115,0.177-1.427,0.46c-0.308,0.284-0.106,0.612-0.106,1.005
	c0,0.766-0.265,1.248-1.157,1.248c-0.351,0-0.525-0.198-0.525-0.7c0-0.7,0.613-1.53,1.511-2.057c0.92-0.548,1.687-0.765,2.67-0.765
	c1.028,0,1.441,0.307,1.75,0.59c0.459,0.459,0.48,0.962,0.48,1.553v3.348l-0.01,1.292H198.08z M196.48,35.676
	c-0.787,0.592-2.934,1.028-2.934,2.844c0,0.811,0.48,1.203,1.141,1.203c0.635,0,1.793-0.766,1.793-1.355V35.676z"/>
<g>
	<path d="M29.74,27.461c-2.035,4.963-5.929,11.754-12.951,16.034C9.756,39.234,5.842,32.45,3.794,27.493
		C1.91,22.927,1.22,19.05,1.047,17.912c0.84-0.473,1.68-0.701,2.626-0.703h0.009c0.662,0,1.598,0.122,2.138,0.278l0.299,0.088
		c0.283,0.083,0.573,0.167,0.87,0.251c1.039,0.3,2.22,0.603,3.106,0.603h0.006c0.994-0.002,2.543-0.132,4.285-0.747
		c0.498-0.173,1.091-0.362,1.723-0.447l0.574-0.042h0.032l0.887,0.08c0.539,0.092,1.046,0.254,1.47,0.404
		c1.736,0.607,3.281,0.735,4.278,0.735h0.013c0.601-0.002,1.381-0.137,2.46-0.427c0.441-0.119,0.89-0.251,1.316-0.377l0.5-0.149
		c0.532-0.153,1.509-0.281,2.177-0.283h0.007c0.943,0,1.809,0.23,2.639,0.678C32.299,18.972,31.624,22.867,29.74,27.461
		 M0.614,10.529l10.229,2.239c-0.09,0.157-0.173,0.316-0.252,0.479l-10.01-1.335C0.582,11.469,0.595,11.003,0.614,10.529
		 M0.967,6.789l10.625,4.922c-0.201,0.234-0.39,0.479-0.56,0.741L0.666,9.545C0.727,8.661,0.823,7.738,0.967,6.789 M1.247,5.195
		c0.411,0.09,1.222,0.246,2.272,0.358l8.629,5.582c-0.116,0.105-0.225,0.217-0.331,0.33L1.143,5.752
		C1.177,5.566,1.208,5.382,1.247,5.195 M5.842,5.675c1.109,0,2.156-0.094,3.131-0.275l4.354,4.88
		c-0.33,0.191-0.641,0.408-0.933,0.651l-7.19-5.264C5.414,5.672,5.624,5.677,5.842,5.675 M11.401,4.738l2.89,5.076
		c-0.196,0.075-0.387,0.159-0.573,0.252l-3.676-4.911C10.518,5.027,10.97,4.888,11.401,4.738 M15.223,2.894l0.88,6.497
		c-0.488,0.046-0.958,0.147-1.411,0.29l-2.422-5.27C13.482,3.921,14.471,3.376,15.223,2.894 M16.739,1.785
		c0.214,0.182,0.433,0.352,0.654,0.517l-0.392,7.071c-0.082-0.004-0.162-0.012-0.246-0.012h-0.009c-0.084,0-0.169,0.009-0.254,0.012
		L16.1,2.29C16.382,2.08,16.6,1.905,16.739,1.785 M18.25,2.894c1.032,0.67,2.055,1.163,2.929,1.515l-2.418,5.26
		c-0.447-0.138-0.912-0.236-1.391-0.279L18.25,2.894z M22.051,4.735c0.616,0.212,1.101,0.342,1.364,0.406l-3.679,4.919
		c-0.186-0.094-0.377-0.176-0.574-0.25L22.051,4.735z M24.51,5.362c1.079,0.191,2.195,0.287,3.34,0.285
		c0.138,0,0.268-0.004,0.401-0.008l-7.194,5.269c-0.29-0.237-0.601-0.452-0.927-0.638L24.51,5.362z M29.919,5.542
		c1.089-0.109,1.902-0.281,2.315-0.379c0.038,0.186,0.069,0.37,0.105,0.557L21.64,11.445c-0.107-0.115-0.219-0.225-0.338-0.329
		L29.919,5.542z M32.519,6.759c0.149,0.969,0.25,1.915,0.312,2.818l-10.36,2.903c-0.181-0.277-0.379-0.54-0.597-0.789L32.519,6.759z
		 M32.916,11.925l-10.002,1.337c-0.078-0.16-0.163-0.319-0.251-0.473l10.221-2.237C32.902,11.025,32.914,11.487,32.916,11.925
		 M29.864,14.071c-0.635,0.002-1.684,0.117-2.335,0.307l-0.464,0.137c-0.434,0.127-0.891,0.264-1.345,0.385
		c-0.621,0.166-1.507,0.381-2.203,0.4c-0.079-0.589-0.229-1.155-0.448-1.688l9.84-0.74c-0.014,0.683-0.044,1.311-0.083,1.871
		C31.925,14.324,30.883,14.091,29.864,14.071 M29.824,15.328h-0.008c-0.638,0-1.688,0.115-2.339,0.307l-0.451,0.134
		c-0.437,0.128-0.896,0.264-1.353,0.386l0.076,0.283l-0.076-0.283c-0.654,0.175-1.603,0.407-2.311,0.407h-0.011
		c-0.949,0-2.423-0.122-4.083-0.702c-0.422-0.146-0.984-0.328-1.575-0.43c-0.336-0.058-0.65-0.084-0.964-0.084
		c-0.232,0-0.458,0.015-0.689,0.045c-0.683,0.087-1.316,0.291-1.845,0.477c-1.664,0.585-3.145,0.711-4.094,0.713h-0.004
		c-0.807,0-1.941-0.292-2.947-0.578l-1.167-0.34C5.394,15.49,4.406,15.36,3.681,15.36H3.67c-1.004,0.002-1.985,0.248-2.876,0.695
		c-0.021-0.193-0.042-0.401-0.062-0.627c0.88-0.466,1.952-0.74,2.988-0.74h0.01c0.665,0,1.602,0.121,2.139,0.278l1.168,0.34
		l0.08-0.281l-0.079,0.281c1.094,0.312,2.229,0.602,3.107,0.602h0.005c0.995-0.002,2.546-0.135,4.285-0.747
		c0.498-0.176,1.09-0.366,1.72-0.446l0.617-0.042l0.878,0.076c0.548,0.095,1.073,0.266,1.471,0.406
		c1.735,0.608,3.281,0.735,4.276,0.735h0.013c0.601,0,1.36-0.131,2.46-0.426c0.458-0.123,0.92-0.26,1.358-0.389l0.461-0.136
		c0.531-0.155,1.508-0.283,2.176-0.284h0.006c0.998,0,2.044,0.26,2.904,0.705c-0.021,0.24-0.042,0.459-0.062,0.661
		C31.819,15.574,30.83,15.328,29.824,15.328 M16.777,14.088l-0.001,0.043l-0.002-0.043c-0.229,0.002-0.459,0.017-0.688,0.047
		c-0.687,0.087-1.319,0.29-1.846,0.476c-1.428,0.504-2.72,0.667-3.658,0.703c0.426-3.075,3.022-5.364,6.165-5.369h0.008
		c3.103,0,5.733,2.319,6.168,5.35c-0.935-0.038-2.205-0.2-3.608-0.691c-0.422-0.148-0.982-0.328-1.574-0.431l-0.003,0.013
		l0.002-0.013C17.405,14.116,17.088,14.088,16.777,14.088 M0.589,12.863l9.843,0.741c-0.218,0.536-0.367,1.109-0.443,1.708
		c-0.796-0.031-1.848-0.298-2.793-0.566l-1.167-0.34c-0.591-0.171-1.579-0.302-2.301-0.302h-0.01c-1.044,0-2.12,0.262-3.037,0.701
		C0.64,14.229,0.604,13.576,0.589,12.863 M29.828,16.594h-0.01c-0.636,0.001-1.684,0.116-2.34,0.306l-0.502,0.148
		c-0.422,0.125-0.863,0.255-1.301,0.372l0.074,0.284l-0.074-0.284c-1.028,0.278-1.762,0.407-2.311,0.409h-0.013
		c-0.949,0-2.425-0.123-4.083-0.703c-0.449-0.157-0.989-0.332-1.574-0.43c-0.592-0.101-1.108-0.114-1.654-0.041
		c-0.687,0.09-1.319,0.292-1.846,0.478c-1.666,0.585-3.145,0.709-4.092,0.711h-0.006c-0.813,0-1.945-0.293-2.946-0.581l-0.081,0.284
		l0.079-0.284c-0.294-0.082-0.585-0.167-0.864-0.249l-0.302-0.088c-0.595-0.174-1.579-0.302-2.299-0.302H3.67
		c-0.978,0.002-1.851,0.228-2.717,0.679C0.93,17.156,0.9,16.942,0.863,16.67c0.858-0.469,1.822-0.724,2.807-0.726h0.009
		c0.667,0,1.604,0.122,2.14,0.279l1.167,0.338l0.083-0.28l-0.081,0.28c1.096,0.312,2.23,0.603,3.108,0.603h0.006
		c0.995-0.002,2.545-0.133,4.285-0.747c0.5-0.177,1.095-0.366,1.721-0.447l0.573-0.042h0.037l0.883,0.078
		c0.546,0.094,1.073,0.264,1.473,0.405c1.74,0.606,3.283,0.734,4.278,0.734h0.013c0.599,0,1.356-0.132,2.46-0.427
		c0.462-0.125,0.926-0.262,1.367-0.393l0.451-0.132c0.526-0.156,1.504-0.283,2.175-0.283h0.005c0.987,0,1.957,0.252,2.818,0.723
		c-0.033,0.26-0.062,0.467-0.084,0.614C31.697,16.818,30.802,16.594,29.828,16.594 M33.464,10.425l-0.057-1.01
		c-0.067-0.933-0.179-1.911-0.338-2.91l-0.113-0.678c-0.063-0.361-0.135-0.722-0.215-1.089l-0.066-0.304l-0.299,0.088
		c-0.01,0.004-0.493,0.14-1.307,0.275l-1.973,0.225c-0.391,0.025-0.808,0.042-1.246,0.042c-1.151,0.002-2.275-0.103-3.357-0.3
		L23.8,4.629c-0.013-0.004-0.026-0.006-0.037-0.007c-0.014-0.004-0.571-0.121-1.417-0.409L21.427,3.87
		c-0.919-0.368-2.009-0.898-3.092-1.621L17.432,1.59c-0.17-0.133-0.338-0.27-0.502-0.416L16.729,1l-0.193,0.183
		c-0.006,0.006-0.168,0.157-0.477,0.4l-0.922,0.664c-0.755,0.5-1.804,1.101-3.111,1.63L11.107,4.22
		c-0.444,0.152-0.911,0.296-1.404,0.422C9.691,4.644,9.677,4.646,9.667,4.649l-0.8,0.176c-0.94,0.174-1.952,0.267-3.024,0.267
		c-0.525,0-1.025-0.02-1.496-0.055L2.371,4.809C1.589,4.683,1.106,4.563,1.097,4.561L0.803,4.486L0.737,4.783
		c-0.063,0.292-0.116,0.581-0.17,0.87L0.416,6.537c-0.154,0.978-0.261,1.935-0.325,2.85l-0.058,1.015
		C0.012,10.896,0.002,11.375,0,11.834l0.007,0.985c0.056,2.765,0.386,4.673,0.412,4.826c0.031,0.236,0.615,4.688,2.829,10.057
		c2.082,5.041,6.063,11.94,13.232,16.29l0.312,0.188l0.308-0.188c7.16-4.368,11.122-11.28,13.188-16.324
		c2.202-5.375,2.777-9.832,2.803-10.065c0.027-0.153,0.347-2.038,0.4-4.776l0.007-0.978C33.494,11.389,33.485,10.916,33.464,10.425"
		/>
	<path d="M25.077,24.225c-0.089,0.092-0.208,0.14-0.335,0.14l-2.23,0.005c-0.263,0-0.475-0.215-0.477-0.476
		c0-0.26,0.214-0.475,0.475-0.475l0.363-0.002c0,0.002,0.002,0.004,0.002,0.006l0.006-0.006h0.478l1.385-0.002
		c0.259,0,0.473,0.215,0.473,0.475C25.216,24.017,25.166,24.135,25.077,24.225 M24.637,25.041c-0.084,0.083-0.201,0.126-0.344,0.126
		l-1.36,0.002c-0.228,0-0.386-0.168-0.447-0.448c0.009,0,0.016,0.002,0.024,0.002l2.23-0.003c0.012,0,0.023-0.009,0.036-0.009
		C24.752,24.849,24.712,24.967,24.637,25.041 M24.079,30.779l-0.903,0.002l-0.242-5.256l1.36-0.002c0.011,0,0.018-0.006,0.03-0.008
		L24.079,30.779z M24.677,31.52c0,0.211-0.173,0.385-0.385,0.385l-1.298,0.003l-0.002,0.177v-0.177
		c-0.211,0-0.381-0.175-0.381-0.386s0.171-0.383,0.381-0.383l0.734-0.002l0.563-0.002C24.502,31.134,24.677,31.307,24.677,31.52
		 M23.627,34.768c-0.155,0-0.282-0.125-0.282-0.287l-0.101-2.22h0.767l-0.103,2.226C23.909,34.645,23.783,34.768,23.627,34.768
		 M21.835,22.306c0-0.294,0.12-0.539,0.246-0.795c0.152-0.309,0.32-0.65,0.25-1.078c0.218,0.09,0.5,0.245,0.709,0.466
		c-0.003,0.003-0.007,0.008-0.01,0.01c-0.052,0.056-0.104,0.114-0.148,0.166c-0.011,0.009-0.909,0.885-0.263,1.99h-0.114
		c-0.063,0.002-0.125,0.011-0.188,0.024C22.22,23.044,21.837,22.843,21.835,22.306 M23.783,20.408
		c0.049-0.141,0.051-0.292,0.025-0.434c0.365,0.332,0.795,0.857,0.801,1.49c0.005,0.784-0.495,1.387-0.696,1.6h-0.127
		c-0.157-0.215-0.461-0.704-0.139-1.248c0.064-0.109,0.358-0.562,0.394-0.648c0.05-0.105,0.044-0.204,0.044-0.204
		c-0.049,0.08-0.135,0.176-0.135,0.176c-0.083,0.091-0.372,0.39-0.463,0.5c-0.477,0.579-0.158,1.209-0.032,1.425l-0.413,0.002
		c-0.709-0.952,0.05-1.701,0.096-1.747c0.053-0.06,0.104-0.116,0.153-0.169C23.491,20.934,23.663,20.748,23.783,20.408
		 M24.838,20.708c0.151-0.184,0.292-0.301,0.406-0.375c-0.089,0.819,0.336,1.633,0.344,1.643c0.202,0.699-0.49,1.038-0.659,1.109
		c-0.061-0.014-0.123-0.023-0.189-0.023h-0.36c0.263-0.34,0.587-0.903,0.583-1.602C24.962,21.166,24.838,20.708,24.838,20.708
		 M25.305,23.287c0.397-0.244,0.821-0.718,0.609-1.442c-0.004-0.01-0.506-0.977-0.26-1.749l0.083-0.261l-0.272,0.031
		c-0.042,0.004-0.411,0.068-0.835,0.544c-0.42-0.681-1.099-1.101-1.141-1.125l-0.675-0.399l0.438,0.652
		c0.078,0.116,0.285,0.505,0.198,0.75c-0.048,0.138-0.108,0.242-0.178,0.338c-0.449-0.453-1.133-0.639-1.162-0.647l-0.353-0.094
		l0.145,0.334c0.197,0.453,0.042,0.771-0.138,1.134c-0.133,0.272-0.283,0.577-0.281,0.953c0,0.486,0.241,0.8,0.474,0.976
		c-0.17,0.152-0.277,0.37-0.277,0.615c0.002,0.312,0.179,0.582,0.436,0.723c0.039,0.418,0.223,0.683,0.458,0.812l0.248,5.387
		c-0.323,0.078-0.567,0.355-0.567,0.701c0,0.371,0.279,0.666,0.633,0.72l0.104,2.249c0,0.351,0.285,0.635,0.635,0.635
		c0.351,0,0.636-0.284,0.636-0.626l0.104-2.252c0.371-0.041,0.665-0.345,0.663-0.726c0-0.358-0.26-0.644-0.597-0.709l0.248-5.385
		c0.075-0.035,0.147-0.074,0.206-0.134c0.163-0.162,0.249-0.399,0.267-0.697c0.06-0.036,0.124-0.069,0.175-0.119
		c0.156-0.156,0.243-0.365,0.241-0.584C25.57,23.653,25.467,23.439,25.305,23.287"/>
	<path d="M10.837,24.383l-2.229,0.004c-0.263,0-0.476-0.212-0.476-0.474c0-0.128,0.049-0.246,0.138-0.335
		c0.09-0.092,0.208-0.141,0.335-0.141h0.362c0,0,0.002,0.003,0.002,0.004l0.006-0.004h0.48l0.7-0.002h0.683
		c0.262,0,0.473,0.212,0.476,0.474C11.315,24.17,11.101,24.383,10.837,24.383 M10.739,25.062c-0.081,0.08-0.198,0.122-0.349,0.122
		l-1.358,0.002c-0.225,0-0.385-0.171-0.448-0.448c0.009,0,0.016,0.004,0.024,0.004l2.229-0.004c0.014,0,0.026-0.004,0.039-0.004
		C10.852,24.871,10.812,24.99,10.739,25.062 M10.177,30.798L9.273,30.8L9.03,25.541h0.002l1.359-0.001
		c0.01,0,0.017-0.004,0.027-0.004L10.177,30.798z M10.772,31.537c0,0.102-0.04,0.199-0.113,0.271
		c-0.072,0.073-0.17,0.114-0.273,0.114H9.092L9.09,32.1v-0.178c-0.211,0-0.384-0.172-0.384-0.384s0.172-0.386,0.384-0.386h0.733
		l0.562-0.002C10.601,31.15,10.772,31.325,10.772,31.537 M9.726,34.785c-0.156,0-0.285-0.126-0.285-0.289L9.34,32.277l0.769-0.002
		l-0.103,2.229C10.006,34.659,9.88,34.785,9.726,34.785 M7.935,22.324c0-0.293,0.119-0.538,0.246-0.796
		c0.152-0.308,0.32-0.65,0.25-1.079c0.217,0.092,0.501,0.245,0.708,0.466c-0.004,0.004-0.007,0.01-0.012,0.015
		c-0.049,0.054-0.103,0.111-0.146,0.162c-0.011,0.01-0.909,0.883-0.264,1.99h-0.11c-0.059,0-0.111,0.022-0.168,0.034
		C8.397,23.102,7.936,22.917,7.935,22.324 M9.879,20.427c0.051-0.143,0.051-0.295,0.026-0.438c0.365,0.332,0.798,0.857,0.802,1.492
		c0.007,0.784-0.494,1.389-0.696,1.6H9.886c-0.157-0.216-0.462-0.704-0.139-1.247c0.064-0.112,0.358-0.563,0.396-0.65
		c0.044-0.106,0.04-0.202,0.04-0.202c-0.049,0.081-0.134,0.174-0.134,0.174c-0.085,0.093-0.372,0.391-0.461,0.501
		c-0.479,0.579-0.157,1.209-0.035,1.424l-0.412,0.002c-0.709-0.951,0.048-1.701,0.095-1.745c0.052-0.06,0.103-0.115,0.15-0.167
		C9.586,20.954,9.758,20.768,9.879,20.427 M10.934,20.727c0.152-0.184,0.294-0.3,0.408-0.373c-0.088,0.818,0.335,1.632,0.344,1.641
		c0.202,0.7-0.49,1.039-0.657,1.109c-0.062-0.012-0.125-0.023-0.19-0.023H10.48c0.262-0.342,0.589-0.902,0.583-1.602
		C11.059,21.182,10.934,20.727,10.934,20.727 M11.402,23.305c0.399-0.244,0.82-0.72,0.611-1.443
		c-0.006-0.01-0.508-0.976-0.262-1.748l0.084-0.264l-0.274,0.033c-0.041,0.003-0.408,0.065-0.833,0.542
		c-0.422-0.681-1.101-1.099-1.143-1.123l-0.669-0.396l0.434,0.646c0.082,0.126,0.283,0.508,0.195,0.754
		c-0.048,0.137-0.107,0.241-0.176,0.338c-0.449-0.454-1.133-0.641-1.163-0.647l-0.352-0.094L8,20.237
		c0.197,0.45,0.042,0.768-0.138,1.133c-0.133,0.27-0.282,0.578-0.282,0.953c0,0.523,0.263,0.821,0.476,0.978
		c-0.01,0.011-0.025,0.014-0.036,0.025c-0.156,0.159-0.242,0.366-0.241,0.586c0,0.312,0.177,0.582,0.435,0.723
		c0.036,0.377,0.206,0.67,0.458,0.811l0.249,5.388c-0.323,0.078-0.567,0.356-0.567,0.706c0,0.37,0.277,0.662,0.631,0.714
		l0.104,2.251c0,0.352,0.286,0.639,0.637,0.639c0.349,0,0.635-0.287,0.635-0.631l0.104-2.251c0.168-0.018,0.325-0.079,0.446-0.202
		c0.14-0.14,0.217-0.328,0.215-0.521c0-0.356-0.259-0.642-0.597-0.71l0.247-5.377c0.079-0.037,0.155-0.076,0.215-0.137
		c0.157-0.156,0.241-0.392,0.261-0.689c0.247-0.145,0.417-0.409,0.417-0.715C11.668,23.669,11.563,23.456,11.402,23.305"/>
	<path d="M18.825,25.266c-0.138,0.137-0.323,0.215-0.518,0.215l-3.119,0.004c-0.405,0-0.733-0.327-0.735-0.73
		c0-0.406,0.329-0.737,0.734-0.737c0,0,2.077,0,2.082-0.003h1.039c0.403,0,0.731,0.327,0.731,0.73
		C19.04,24.943,18.965,25.126,18.825,25.266 M17.684,26.506l-1.902,0.002H15.78c-0.303,0-0.579-0.328-0.685-0.676
		c0.032,0.002,0.062,0.01,0.094,0.01l3.119-0.006c0.038,0,0.076-0.007,0.115-0.011C18.31,26.162,18.001,26.506,17.684,26.506
		 M17.45,34.449l-1.4,0.001l-0.349-7.601c0.026,0.004,0.051,0.012,0.078,0.012h0.002l1.902-0.002c0.04,0,0.078-0.012,0.116-0.016
		L17.45,34.449z M18.286,35.411c0,0.336-0.274,0.608-0.608,0.608l-1.811,0.002c-0.335,0-0.609-0.272-0.61-0.606
		c0-0.335,0.272-0.608,0.606-0.608l1.366-0.002h0.444C18.01,34.803,18.284,35.075,18.286,35.411 M17.213,39.562
		c0,0.121-0.048,0.239-0.135,0.328c-0.088,0.088-0.202,0.135-0.327,0.135h-0.002c-0.124,0-0.24-0.047-0.328-0.135
		c-0.089-0.086-0.137-0.203-0.137-0.336l-0.147-3.178l1.222-0.002L17.213,39.562z M14.175,22.528
		c-0.001-0.425,0.169-0.773,0.35-1.143c0.232-0.473,0.471-0.96,0.316-1.597c0.312,0.115,0.783,0.338,1.117,0.711
		c-0.04,0.044-0.079,0.089-0.123,0.135c-0.068,0.073-0.141,0.152-0.203,0.225c-0.014,0.012-1.29,1.255-0.293,2.803h-0.154
		c-0.094,0-0.182,0.017-0.269,0.038C14.836,23.669,14.177,23.387,14.175,22.528 M16.775,19.851c0.096-0.27,0.062-0.57-0.008-0.828
		c0.547,0.446,1.36,1.281,1.365,2.329c0.011,1.15-0.737,2.028-1.011,2.308h-0.09c-0.146-0.22-0.305-0.575-0.305-0.979
		c-0.001-0.777,0.377-1.229,0.377-1.229s-0.479,0.325-0.562,1.041c-0.039,0.342,0.036,0.704,0.259,1.17h-0.455
		c-0.173-0.255-0.642-0.992-0.152-1.818c0.092-0.154,0.582-0.785,0.636-0.908c0.063-0.146,0.057-0.282,0.057-0.282
		c-0.069,0.113-0.188,0.244-0.188,0.244c-0.118,0.13-0.52,0.548-0.647,0.699c-0.727,0.884-0.128,1.854-0.003,2.065h-0.275
		c-1.068-1.394,0.053-2.497,0.114-2.557c0.072-0.083,0.141-0.156,0.207-0.23C16.372,20.576,16.608,20.319,16.775,19.851
		 M19.032,20.021c-0.23,1.099,0.139,2.004,0.15,2.03c0.292,1.008-0.429,1.504-0.652,1.631c-0.071-0.015-0.148-0.024-0.224-0.024
		l-0.709,0.001c0.37-0.447,0.899-1.266,0.89-2.309c-0.002-0.269-0.051-0.52-0.127-0.76C18.617,20.285,18.859,20.114,19.032,20.021
		 M18.916,23.846c0.365-0.286,0.895-0.897,0.6-1.912c-0.004-0.01-0.412-1.025-0.056-2.141l0.082-0.263l-0.273,0.032
		c-0.02,0.002-0.495,0.074-1.054,0.663c-0.537-1.125-1.691-1.819-1.755-1.857l-0.587-0.347l0.345,0.59
		c0.003,0.006,0.386,0.668,0.225,1.123c-0.071,0.198-0.159,0.352-0.259,0.492c-0.611-0.649-1.542-0.874-1.582-0.884l-0.343-0.08
		l0.141,0.323c0.289,0.663,0.065,1.117-0.193,1.645c-0.19,0.389-0.388,0.792-0.387,1.302c0,0.702,0.375,1.139,0.707,1.361
		c-0.259,0.201-0.429,0.511-0.429,0.863c0.001,0.427,0.251,0.791,0.61,0.971c0.06,0.404,0.302,0.818,0.644,1.017l-0.012,0.001
		l0.357,7.727c-0.451,0.081-0.795,0.473-0.795,0.945c0.001,0.502,0.39,0.911,0.88,0.953l0.147,3.195c0,0.219,0.086,0.425,0.239,0.58
		c0.156,0.153,0.359,0.239,0.577,0.239h0.004c0.218,0,0.424-0.086,0.578-0.241c0.154-0.156,0.239-0.36,0.238-0.57l0.148-3.198
		c0.513-0.021,0.926-0.44,0.926-0.961c-0.002-0.486-0.367-0.886-0.836-0.949l0.356-7.748h-0.002
		c0.347-0.213,0.601-0.621,0.654-1.008c0.094-0.049,0.186-0.11,0.264-0.188c0.206-0.207,0.32-0.48,0.318-0.771
		C19.394,24.372,19.205,24.041,18.916,23.846"/>
</g>
</svg>
